<?xml version="1.0" encoding="UTF-8" standalone="no"?>
<svg
   width="32"
   version="1.1"
   height="32"
   viewBox="0 0 32 32"
   id="svg15"
   sodipodi:docname="folder-Neon.svg"
   inkscape:version="1.1.1 (3bf5ae0d25, 2021-09-20)"
   xmlns:inkscape="http://www.inkscape.org/namespaces/inkscape"
   xmlns:sodipodi="http://sodipodi.sourceforge.net/DTD/sodipodi-0.dtd"
   xmlns:xlink="http://www.w3.org/1999/xlink"
   xmlns="http://www.w3.org/2000/svg"
   xmlns:svg="http://www.w3.org/2000/svg"
   xmlns:rdf="http://www.w3.org/1999/02/22-rdf-syntax-ns#"
   xmlns:cc="http://creativecommons.org/ns#"
   xmlns:dc="http://purl.org/dc/elements/1.1/">
  <sodipodi:namedview
     pagecolor="#ffffff"
     bordercolor="#666666"
     borderopacity="1"
     objecttolerance="10"
     gridtolerance="10"
     guidetolerance="10"
     inkscape:pageopacity="0"
     inkscape:pageshadow="2"
     inkscape:window-width="1920"
     inkscape:window-height="1007"
     id="namedview17"
     showgrid="false"
     inkscape:zoom="9.8125"
     inkscape:cx="-26.292994"
     inkscape:cy="8.6624204"
     inkscape:window-x="0"
     inkscape:window-y="0"
     inkscape:window-maximized="1"
     inkscape:current-layer="layer1"
     inkscape:document-rotation="0"
     inkscape:pagecheckerboard="0" />
  <defs
     id="defs5455">
    <linearGradient
       inkscape:collect="always"
       xlink:href="#linearGradient963"
       id="linearGradient1167"
       x1="420.44281"
       y1="522.79858"
       x2="434.70172"
       y2="522.79858"
       gradientUnits="userSpaceOnUse"
       gradientTransform="matrix(0.5,0,0,0.5,192.28571,273.899)" />
    <linearGradient
       inkscape:collect="always"
       id="linearGradient963">
      <stop
         style="stop-color:#0089d9;stop-opacity:1"
         offset="0"
         id="stop959" />
      <stop
         style="stop-color:#79ceff;stop-opacity:1"
         offset="1"
         id="stop961" />
    </linearGradient>
    <linearGradient
       inkscape:collect="always"
       xlink:href="#linearGradient963"
       id="linearGradient967"
       x1="415.57144"
       y1="522.79797"
       x2="439.57187"
       y2="522.79797"
       gradientUnits="userSpaceOnUse"
       gradientTransform="matrix(0.5,0,0,0.5,192.28571,273.899)" />
    <linearGradient
       inkscape:collect="always"
       xlink:href="#linearGradient991"
       id="linearGradient1482"
       x1="386.57144"
       y1="516.39801"
       x2="446.62146"
       y2="516.39801"
       gradientUnits="userSpaceOnUse"
       gradientTransform="matrix(0.5008323,0,0,0.5,191.96397,273.599)" />
    <linearGradient
       inkscape:collect="always"
       id="linearGradient991">
      <stop
         style="stop-color:#cccccc;stop-opacity:1"
         offset="0"
         id="stop987" />
      <stop
         style="stop-color:#cccccc;stop-opacity:1"
         offset="0.03132199"
         id="stop1929" />
      <stop
         style="stop-color:#0069a6;stop-opacity:1"
         offset="0.05527586"
         id="stop1263" />
      <stop
         style="stop-color:#0069a6;stop-opacity:1"
         offset="0.10902679"
         id="stop1027" />
      <stop
         style="stop-color:#cccccc;stop-opacity:1"
         offset="1"
         id="stop989" />
    </linearGradient>
  </defs>
  <metadata
     id="metadata5458">
    <rdf:RDF>
      <cc:Work
         rdf:about="">
        <dc:format>image/svg+xml</dc:format>
        <dc:type
           rdf:resource="http://purl.org/dc/dcmitype/StillImage" />
      </cc:Work>
    </rdf:RDF>
  </metadata>
  <g
     inkscape:label="Capa 1"
     inkscape:groupmode="layer"
     id="layer1"
     transform="translate(-384.57143,-515.798)">
    <path
       d="m 406.07183,536.85657 c 0.86061,0 1.55829,-0.69769 1.55829,-1.55831 0,-0.86057 -0.69768,-1.55827 -1.55829,-1.55827 -0.86059,0 -1.55829,0.6977 -1.55829,1.55827 0,0.86062 0.6977,1.55831 1.55829,1.55831 z m 0.27039,-0.50119 c 0.29211,-0.0745 0.54289,-0.26954 0.68783,-0.53593 0.0138,-0.0254 0.0402,-0.0399 0.0685,-0.0399 0.0125,0 0.0251,0.002 0.037,0.01 0.0375,0.0212 0.0514,0.068 0.032,0.10573 -0.16571,0.30396 -0.45241,0.52715 -0.78636,0.61222 -0.0423,0.0113 -0.0841,-0.0141 -0.0947,-0.0565 -0.0109,-0.0417 0.0142,-0.084 0.0565,-0.0946 z"
       id="path2-6"
       style="fill:#f2f2f2;fill-opacity:1;stroke:#ffffff;stroke-width:0.133322;stroke-opacity:1" />
    <path
       d="m 406.61553,531.77492 c -0.01,-0.29317 -0.24814,-0.52837 -0.5437,-0.52837 -0.2956,0 -0.53451,0.2352 -0.54371,0.52837 -1.70853,0.26277 -3.021,1.74252 -3.021,3.52338 0,1.78079 1.31259,3.26053 3.021,3.5233 0.01,0.29321 0.24811,0.52842 0.54371,0.52842 0.29556,0 0.53447,-0.23521 0.5437,-0.52842 1.70857,-0.26277 3.02104,-1.74251 3.02104,-3.5233 0,-1.78086 -1.31247,-3.26061 -3.02104,-3.52338 z m -0.009,6.92953 c -0.0473,-0.25331 -0.26842,-0.44529 -0.53547,-0.44529 -0.26706,0 -0.48826,0.19181 -0.53544,0.44529 -1.64773,-0.25828 -2.9123,-1.68694 -2.9123,-3.40615 0,-1.71923 1.26457,-3.14792 2.91245,-3.40618 0.0473,0.25333 0.26839,0.44531 0.5354,0.44531 0.26706,0 0.48825,-0.19185 0.53548,-0.44531 1.6476,0.25826 2.9122,1.68695 2.9122,3.40618 0,1.71921 -1.2646,3.14787 -2.91232,3.40615 z"
       id="path4"
       style="fill:url(#linearGradient1167);fill-opacity:1;stroke-width:0.133322" />
    <path
       d="m 412.07144,535.2983 c 0,-0.29052 -0.22746,-0.52558 -0.51383,-0.54223 -0.1092,-1.11381 -0.55135,-2.1312 -1.225,-2.95156 0.19234,-0.21411 0.18755,-0.54248 -0.019,-0.74858 -0.20597,-0.206 -0.53447,-0.21094 -0.74848,-0.0191 -0.82021,-0.67378 -1.83774,-1.11568 -2.95139,-1.22499 -0.016,-0.28606 -0.25186,-0.51384 -0.5424,-0.51384 -0.29048,0 -0.52557,0.22778 -0.5422,0.51384 -1.11368,0.1092 -2.13109,0.55121 -2.95139,1.22499 -0.21404,-0.19252 -0.54264,-0.18757 -0.74878,0.0191 -0.20595,0.2061 -0.21088,0.53474 -0.0186,0.74874 -0.67379,0.8202 -1.11568,1.83772 -1.225,2.9514 -0.28639,0.0159 -0.51383,0.25171 -0.51383,0.54223 0,0.29049 0.22744,0.52557 0.51383,0.54223 0.1092,1.11364 0.55121,2.13093 1.22487,2.95119 -0.19254,0.2142 -0.18759,0.54282 0.0189,0.74895 0.20613,0.20593 0.53463,0.21087 0.74891,0.0185 0.8202,0.67394 1.83772,1.11568 2.95142,1.225 0.0159,0.28605 0.25169,0.51383 0.5422,0.51383 0.29051,0 0.5256,-0.22778 0.54222,-0.51383 1.11369,-0.1092 2.13109,-0.55106 2.95139,-1.225 0.21431,0.19252 0.54268,0.18757 0.74878,-0.0185 0.20596,-0.20613 0.21089,-0.53475 0.0188,-0.74878 0.674,-0.82019 1.11569,-1.83772 1.225,-2.95136 0.28645,-0.0159 0.51384,-0.25174 0.51384,-0.54223 z m -0.63065,0.53687 c -0.10769,1.08567 -0.53862,2.07761 -1.19496,2.87832 -0.2132,-0.15334 -0.51101,-0.13594 -0.70272,0.0562 -0.19178,0.19184 -0.2094,0.48966 -0.0561,0.70272 -0.8006,0.65634 -1.79267,1.08725 -2.8786,1.19495 -0.0402,-0.26051 -0.26451,-0.46006 -0.53662,-0.46006 -0.27212,0 -0.49572,0.19955 -0.53666,0.46006 -1.08591,-0.1077 -2.07798,-0.53861 -2.8786,-1.19495 0.15346,-0.21334 0.13599,-0.51135 -0.0561,-0.70284 -0.19173,-0.19177 -0.4897,-0.20955 -0.70289,-0.0563 -0.65636,-0.80048 -1.08738,-1.79242 -1.19511,-2.87808 0.26052,-0.0405 0.46009,-0.26476 0.46009,-0.53688 0,-0.27215 -0.19957,-0.49574 -0.46009,-0.5369 0.10773,-1.08568 0.53861,-2.07748 1.19486,-2.87824 0.21331,0.15359 0.51141,0.13603 0.703,-0.0561 0.19173,-0.1917 0.20921,-0.48983 0.0561,-0.70303 0.80073,-0.65617 1.79254,-1.08711 2.87846,-1.19484 0.0402,0.2605 0.26453,0.46008 0.53664,0.46008 0.27211,0 0.49572,-0.19958 0.53665,-0.46008 1.08591,0.10773 2.07783,0.53867 2.8785,1.19484 -0.15338,0.21333 -0.13606,0.51117 0.056,0.7029 0.1917,0.1917 0.48972,0.2092 0.70291,0.0561 0.6563,0.80063 1.08722,1.79268 1.195,2.87836 -0.26053,0.0405 -0.46007,0.26475 -0.46007,0.5369 0,0.27212 0.19967,0.49569 0.46029,0.53688 z"
       id="path6"
       style="fill:url(#linearGradient967);fill-opacity:1;stroke-width:0.133322" />
    <path
       d="m 413.60085,523.00324 h -1.59966 v -0.5905 c 0,-1.02553 -0.45005,-1.531 -0.82764,-1.77469 -0.40491,-0.26114 -0.80252,-0.27447 -0.87849,-0.27447 h -14.05428 c -0.30099,0 -0.58386,-0.3173 -0.88326,-0.65333 -0.38108,-0.42773 -0.81302,-0.91225 -1.46871,-0.91225 h -6.2718 c -1.16614,0 -2.04558,0.87766 -2.04558,2.04155 v 21.91691 c 0,1.1258 0.91758,2.04154 2.04558,2.04154 h 25.98384 c 1.12799,0 2.04558,-0.91575 2.04558,-2.04154 v -17.71167 c 0,-1.1258 -0.91759,-2.04155 -2.04558,-2.04155 z m 1.09208,19.75322 c 0,0.60097 -0.48978,1.08962 -1.09208,1.08962 h -25.98384 c -0.6023,0 -1.09208,-0.48865 -1.09208,-1.08962 v -21.91691 c 0,-0.64128 0.4491,-1.08964 1.09208,-1.08964 h 6.2718 c 0.22789,0 0.4847,0.28812 0.75645,0.59305 0.38616,0.43312 0.86673,0.97222 1.59553,0.97222 h 14.04855 c 0.14398,0.004 0.55241,0.0666 0.70241,0.62128 h -21.88057 c -1.21575,0.0251 -1.85142,0.65968 -1.85142,1.9289 l 0.0559,17.4518 h 0.57973 c 0,0 -0.1203,0.001 4.8e-4,0.001 0.18752,0 0.48358,0.0367 0.7601,-0.17942 0.49677,-0.38902 0.51775,-0.89322 0.5133,-1.03125 l -0.002,-14.3384 c 0,-1.90384 0,-1.90384 1.90701,-1.90384 l 22.52741,0.0898 c 0.60228,0.002 1.09207,0.48897 1.09207,1.08963 v 17.71166 z"
       id="path2-3-3"
       sodipodi:nodetypes="scscsscssssssssscsssssscsccccccsccccsscc"
       style="fill:url(#linearGradient1482);fill-opacity:1;stroke-width:0.317569" />
  </g>
</svg>
