<?xml version="1.0" encoding="UTF-8" standalone="no"?>
<svg
   width="32"
   version="1.1"
   height="32"
   viewBox="0 0 32 32"
   id="svg15"
   sodipodi:docname="folder-windows.svg"
   inkscape:version="1.1.1 (3bf5ae0d25, 2021-09-20)"
   xmlns:inkscape="http://www.inkscape.org/namespaces/inkscape"
   xmlns:sodipodi="http://sodipodi.sourceforge.net/DTD/sodipodi-0.dtd"
   xmlns:xlink="http://www.w3.org/1999/xlink"
   xmlns="http://www.w3.org/2000/svg"
   xmlns:svg="http://www.w3.org/2000/svg"
   xmlns:rdf="http://www.w3.org/1999/02/22-rdf-syntax-ns#"
   xmlns:cc="http://creativecommons.org/ns#"
   xmlns:dc="http://purl.org/dc/elements/1.1/">
  <sodipodi:namedview
     pagecolor="#ffffff"
     bordercolor="#666666"
     borderopacity="1"
     objecttolerance="10"
     gridtolerance="10"
     guidetolerance="10"
     inkscape:pageopacity="0"
     inkscape:pageshadow="2"
     inkscape:window-width="1920"
     inkscape:window-height="1007"
     id="namedview17"
     showgrid="true"
     inkscape:zoom="9.8125"
     inkscape:cx="1.4267516"
     inkscape:cy="18.089172"
     inkscape:window-x="0"
     inkscape:window-y="0"
     inkscape:window-maximized="1"
     inkscape:current-layer="g4"
     inkscape:pagecheckerboard="0">
    <inkscape:grid
       type="xygrid"
       id="grid862" />
  </sodipodi:namedview>
  <defs
     id="defs5455">
    <linearGradient
       inkscape:collect="always"
       id="linearGradient991">
      <stop
         style="stop-color:#cccccc;stop-opacity:1"
         offset="0"
         id="stop987" />
      <stop
         style="stop-color:#cccccc;stop-opacity:1"
         offset="0.03132199"
         id="stop1929" />
      <stop
         style="stop-color:#0069a6;stop-opacity:1"
         offset="0.05527586"
         id="stop1263" />
      <stop
         style="stop-color:#0069a6;stop-opacity:1"
         offset="0.10902679"
         id="stop1027" />
      <stop
         style="stop-color:#cccccc;stop-opacity:1"
         offset="1"
         id="stop989" />
    </linearGradient>
    <linearGradient
       inkscape:collect="always"
       xlink:href="#linearGradient991"
       id="linearGradient1482-3"
       x1="386.57144"
       y1="516.39801"
       x2="446.62146"
       y2="516.39801"
       gradientUnits="userSpaceOnUse"
       gradientTransform="matrix(1.3906658,0,0,1.3461637,-466.08406,329.31664)" />
    <linearGradient
       inkscape:collect="always"
       xlink:href="#linearGradient1273"
       id="linearGradient1275"
       x1="418.97144"
       y1="521.7514"
       x2="444.57144"
       y2="521.79797"
       gradientUnits="userSpaceOnUse"
       gradientTransform="matrix(1.3883548,0,0,1.3461637,-465.19066,330.12434)" />
    <linearGradient
       inkscape:collect="always"
       id="linearGradient1273">
      <stop
         style="stop-color:#00ffff;stop-opacity:1"
         offset="0"
         id="stop1269" />
      <stop
         style="stop-color:#f1f2f3;stop-opacity:0"
         offset="1"
         id="stop1271" />
    </linearGradient>
    <linearGradient
       inkscape:collect="always"
       xlink:href="#linearGradient1347"
       id="linearGradient1277"
       x1="418.97144"
       y1="521.7514"
       x2="444.57144"
       y2="521.79797"
       gradientUnits="userSpaceOnUse"
       gradientTransform="matrix(1.3883548,0,0,1.3461637,-465.19066,330.12434)" />
    <linearGradient
       inkscape:collect="always"
       id="linearGradient1347">
      <stop
         style="stop-color:#00ffff;stop-opacity:1"
         offset="0"
         id="stop1343" />
      <stop
         style="stop-color:#8b9398;stop-opacity:0;"
         offset="1"
         id="stop1345" />
    </linearGradient>
  </defs>
  <metadata
     id="metadata5458">
    <rdf:RDF>
      <cc:Work
         rdf:about="">
        <dc:format>image/svg+xml</dc:format>
        <dc:type
           rdf:resource="http://purl.org/dc/dcmitype/StillImage" />
      </cc:Work>
    </rdf:RDF>
  </metadata>
  <g
     inkscape:label="Capa 1"
     inkscape:groupmode="layer"
     id="layer1"
     transform="translate(-384.57143,-515.798)">
    <g
       transform="matrix(0.36013848,0,0,0.37142583,359.81878,151.2823)"
       id="g4">
      <path
         d="m 149.33719,1000.7948 h -4.44177 v -1.59003 c 0,-2.76112 -1.24966,-4.122 -2.29812,-4.77809 -1.12433,-0.70309 -2.22838,-0.73896 -2.43931,-0.73896 h -39.02466 c -0.83576,0 -1.621205,-0.85429 -2.452552,-1.75898 -1.058163,-1.15159 -2.257521,-2.45609 -4.078181,-2.45609 H 77.187602 c -3.238005,0 -5.679968,2.36296 -5.679968,5.49651 v 59.00774 c 0,3.031 2.547867,5.4965 5.679968,5.4965 h 72.149588 c 3.13212,0 5.67999,-2.4655 5.67999,-5.4965 v -47.6856 c 0,-3.031 -2.54787,-5.4965 -5.67999,-5.4965 z m 3.03239,53.1821 c 0,1.618 -1.35999,2.9336 -3.03239,2.9336 H 77.187602 c -1.672385,0 -3.032375,-1.3156 -3.032375,-2.9336 v -59.00774 c 0,-1.72653 1.24702,-2.93364 3.032375,-2.93364 h 17.414995 c 0.63277,0 1.345871,0.7757 2.100428,1.59667 1.072268,1.1661 2.406657,2.61755 4.430305,2.61755 h 39.00876 c 0.39979,0.0107 1.53386,0.17939 1.9504,1.67269 H 81.336492 c -3.375799,0.0674 -5.140856,1.77617 -5.140856,5.19347 l 0.155329,46.9859 h 1.609728 c 0,0 -0.334038,0.01 0.0014,0.01 0.520689,0 1.342761,0.099 2.110563,-0.4831 1.3794,-1.0473 1.437642,-2.4048 1.425299,-2.7764 l -0.0069,-38.6037 c 0,-5.1257 0,-5.1257 5.295185,-5.1257 l 62.55208,0.2368 c 1.67237,0.01 3.03237,1.3164 3.03237,2.9336 v 47.6856 z"
         id="path2-3-3-6"
         sodipodi:nodetypes="scscsscssssssssscsssssscsccccccsccccsscc"
         style="fill:url(#linearGradient1482-3);fill-opacity:1;stroke-width:0.868295" />
      <path
         id="Menu"
         class="st0"
         d="m 133.15059,1019.0885 h 13.3282 v 0 z m -3.33205,0 h -13.32821 v 11.8211 h 13.32821 z m 0,14.7764 h -13.32821 v 11.8211 h 13.32821 z m 16.66025,-14.7764 h -13.3282 v 11.8211 h 13.3282 z m -13.3282,26.5975 h 13.3282 v -11.8211 h -13.3282 z m 16.66025,0 z"
         sodipodi:nodetypes="cccccccccccccccccccccccccccccccccccccc"
         style="fill:url(#linearGradient1275);fill-opacity:1;stroke-width:0.784505" />
      <path
         id="Menu-s-3"
         class="st1"
         d="m 133.15059,1045.686 h 13.3282 v 2.9553 h -13.3282 z m -13.32821,0 h 9.99616 v 2.9553 h -9.99616 z m 26.65641,0 v 0 2.9553 0 0 0 z m 0,0 v 2.9553 0 z m 0,0 v 2.9553 z m -16.66025,-26.5975 v 0 0 h -13.32821 l 0.0292,-2.7348 13.29905,2.7348 -13.29905,-2.7348 13.28406,-0.02 z"
         sodipodi:nodetypes="ccccccccccccccccccccccccccccccscc"
         style="clip-rule:evenodd;fill:url(#linearGradient1277);fill-opacity:1;fill-rule:evenodd;stroke-width:0.784505" />
    </g>
  </g>
</svg>
