<?xml version="1.0" encoding="UTF-8" standalone="no"?>
<svg
   width="32"
   version="1.1"
   height="32"
   viewBox="0 0 32 32"
   id="svg17"
   sodipodi:docname="folder-cloud.svg"
   inkscape:version="1.1.1 (3bf5ae0d25, 2021-09-20)"
   xmlns:inkscape="http://www.inkscape.org/namespaces/inkscape"
   xmlns:sodipodi="http://sodipodi.sourceforge.net/DTD/sodipodi-0.dtd"
   xmlns:xlink="http://www.w3.org/1999/xlink"
   xmlns="http://www.w3.org/2000/svg"
   xmlns:svg="http://www.w3.org/2000/svg"
   xmlns:rdf="http://www.w3.org/1999/02/22-rdf-syntax-ns#"
   xmlns:cc="http://creativecommons.org/ns#"
   xmlns:dc="http://purl.org/dc/elements/1.1/">
  <sodipodi:namedview
     pagecolor="#ffffff"
     bordercolor="#666666"
     borderopacity="1"
     objecttolerance="10"
     gridtolerance="10"
     guidetolerance="10"
     inkscape:pageopacity="0"
     inkscape:pageshadow="2"
     inkscape:window-width="1920"
     inkscape:window-height="1007"
     id="namedview19"
     showgrid="false"
     inkscape:zoom="9.8125"
     inkscape:cx="-19.872611"
     inkscape:cy="8.3566879"
     inkscape:window-x="0"
     inkscape:window-y="0"
     inkscape:window-maximized="1"
     inkscape:current-layer="layer1"
     inkscape:document-rotation="0"
     inkscape:pagecheckerboard="0" />
  <defs
     id="defs5455">
    <linearGradient
       inkscape:collect="always"
       xlink:href="#linearGradient868"
       id="linearGradient870"
       x1="0"
       y1="30"
       x2="62"
       y2="30"
       gradientUnits="userSpaceOnUse"
       gradientTransform="matrix(0.22727273,0,0,0.22727273,397.57143,527.77527)" />
    <linearGradient
       inkscape:collect="always"
       id="linearGradient868">
      <stop
         style="stop-color:#2ad4ff;stop-opacity:1"
         offset="0"
         id="stop864" />
      <stop
         style="stop-color:#2a7fff;stop-opacity:1"
         offset="1"
         id="stop866" />
    </linearGradient>
    <linearGradient
       inkscape:collect="always"
       xlink:href="#linearGradient991-6"
       id="linearGradient1482-3"
       x1="386.57144"
       y1="516.39801"
       x2="446.62146"
       y2="516.39801"
       gradientUnits="userSpaceOnUse"
       gradientTransform="matrix(0.5008323,0,0,0.5,191.96397,273.599)" />
    <linearGradient
       inkscape:collect="always"
       id="linearGradient991-6">
      <stop
         style="stop-color:#cccccc;stop-opacity:1"
         offset="0"
         id="stop987-7" />
      <stop
         style="stop-color:#cccccc;stop-opacity:1"
         offset="0.03132199"
         id="stop1929-5" />
      <stop
         style="stop-color:#0069a6;stop-opacity:1"
         offset="0.05527586"
         id="stop1263-3" />
      <stop
         style="stop-color:#0069a6;stop-opacity:1"
         offset="0.10902679"
         id="stop1027-5" />
      <stop
         style="stop-color:#cccccc;stop-opacity:1"
         offset="1"
         id="stop989-6" />
    </linearGradient>
  </defs>
  <metadata
     id="metadata5458">
    <rdf:RDF>
      <cc:Work
         rdf:about="">
        <dc:format>image/svg+xml</dc:format>
        <dc:type
           rdf:resource="http://purl.org/dc/dcmitype/StillImage" />
      </cc:Work>
    </rdf:RDF>
  </metadata>
  <g
     inkscape:label="Capa 1"
     inkscape:groupmode="layer"
     id="layer1"
     transform="translate(-384.57143,-515.798)">
    <path
       id="Cloud"
       class="st0"
       d="m 410.25325,534.75255 c 0.0227,-0.20455 0.0454,-0.4091 0.0454,-0.61364 0,-2.25 -1.84091,-4.09091 -4.09091,-4.09091 -2.25,0 -4.09091,1.84091 -4.09091,4.09091 0,0.15909 0,0.29545 0.0227,0.45454 h -2.29536 c -1.25,0 -2.27272,1.02273 -2.27272,2.27273 v 2.27273 h 11.81818 c 1.25,0 2.27273,-1.02273 2.27273,-2.27273 0,-0.95454 -0.59091,-1.77273 -1.40909,-2.11363 z"
       style="fill:url(#linearGradient870);fill-opacity:1;stroke-width:0.227272" />
    <path
       id="Cloud-s"
       class="st1"
       d="m 401.20779,532.77527 c -0.5,0 -0.90909,0.40909 -0.90909,0.90909 v 0.90909 h -0.45455 c -0.15909,0 -0.31818,0.0228 -0.45454,0.0455 v -0.95454 c 0,-1 0.81818,-1.81818 1.81818,-1.81818 h 0.45455 v 0.90909 z m 10.90909,4.54546 c 0,-1.5 -1.22727,-2.72728 -2.72727,-2.72728 v 0.9091 c 1,0 1.81818,0.81818 1.81818,1.81818 0,1 -0.81818,1.81818 -1.81818,1.81818 h -10.90909 v 0.90909 h 10.90909 c 1.5,0 2.72727,-1.22727 2.72727,-2.72727 z"
       style="fill:#f2f2f2;fill-opacity:1;stroke-width:0.227272" />
    <path
       d="m 413.60085,523.00324 h -1.59966 v -0.5905 c 0,-1.02553 -0.45005,-1.531 -0.82764,-1.77469 -0.40491,-0.26114 -0.80252,-0.27447 -0.87849,-0.27447 h -14.05428 c -0.30099,0 -0.58386,-0.3173 -0.88326,-0.65333 -0.38108,-0.42773 -0.81302,-0.91225 -1.46871,-0.91225 H 387.617 c -1.16613,0 -2.04557,0.87766 -2.04557,2.04155 v 21.9169 c 0,1.12581 0.91758,2.04155 2.04557,2.04155 h 25.98385 c 1.12799,0 2.04558,-0.91575 2.04558,-2.04155 v -17.71166 c 0,-1.1258 -0.91759,-2.04155 -2.04558,-2.04155 z m 1.09208,19.75321 c 0,0.60098 -0.48979,1.08963 -1.09208,1.08963 H 387.617 c -0.60229,0 -1.09207,-0.48865 -1.09207,-1.08963 v -21.9169 c 0,-0.64128 0.4491,-1.08964 1.09207,-1.08964 h 6.27181 c 0.22789,0 0.4847,0.28812 0.75645,0.59305 0.38616,0.43312 0.86673,0.97223 1.59552,0.97223 h 14.04856 c 0.14398,0.004 0.5524,0.0666 0.70241,0.62127 h -21.88057 c -1.21576,0.0251 -1.85142,0.65968 -1.85142,1.9289 l 0.0559,17.4518 h 0.57972 c 0,0 -0.1203,0.001 4.9e-4,0.001 0.18752,0 0.48358,0.0367 0.76009,-0.17942 0.49678,-0.38902 0.51776,-0.89322 0.51331,-1.03125 l -0.002,-14.3384 c 0,-1.90384 0,-1.90384 1.907,-1.90384 l 22.52741,0.0898 c 0.60228,0.002 1.09208,0.48897 1.09208,1.08963 v 17.71166 z"
       id="path2-3-3-2"
       sodipodi:nodetypes="scscsscssssssssscsssssscsccccccsccccsscc"
       style="fill:url(#linearGradient1482-3);fill-opacity:1;stroke-width:0.317569" />
  </g>
</svg>
