<?xml version="1.0" encoding="UTF-8" standalone="no"?>
<svg
   width="32"
   version="1.1"
   height="32"
   viewBox="0 0 32 32"
   id="svg18"
   sodipodi:docname="folder-image-people.svg"
   inkscape:version="1.1.1 (3bf5ae0d25, 2021-09-20)"
   xmlns:inkscape="http://www.inkscape.org/namespaces/inkscape"
   xmlns:sodipodi="http://sodipodi.sourceforge.net/DTD/sodipodi-0.dtd"
   xmlns:xlink="http://www.w3.org/1999/xlink"
   xmlns="http://www.w3.org/2000/svg"
   xmlns:svg="http://www.w3.org/2000/svg"
   xmlns:rdf="http://www.w3.org/1999/02/22-rdf-syntax-ns#"
   xmlns:cc="http://creativecommons.org/ns#"
   xmlns:dc="http://purl.org/dc/elements/1.1/">
  <sodipodi:namedview
     pagecolor="#ffffff"
     bordercolor="#666666"
     borderopacity="1"
     objecttolerance="10"
     gridtolerance="10"
     guidetolerance="10"
     inkscape:pageopacity="0"
     inkscape:pageshadow="2"
     inkscape:window-width="1920"
     inkscape:window-height="1007"
     id="namedview20"
     showgrid="false"
     inkscape:zoom="9.8125"
     inkscape:cx="-20.280255"
     inkscape:cy="6.1146497"
     inkscape:window-x="0"
     inkscape:window-y="0"
     inkscape:window-maximized="1"
     inkscape:current-layer="layer1"
     inkscape:pagecheckerboard="0" />
  <defs
     id="defs5455">
    <linearGradient
       inkscape:collect="always"
       xlink:href="#linearGradient991"
       id="linearGradient1482"
       x1="386.57144"
       y1="516.39801"
       x2="446.62146"
       y2="516.39801"
       gradientUnits="userSpaceOnUse"
       gradientTransform="matrix(0.5008323,0,0,0.5,191.96397,273.599)" />
    <linearGradient
       inkscape:collect="always"
       id="linearGradient991">
      <stop
         style="stop-color:#cccccc;stop-opacity:1"
         offset="0"
         id="stop987" />
      <stop
         style="stop-color:#cccccc;stop-opacity:1"
         offset="0.03132199"
         id="stop1929" />
      <stop
         style="stop-color:#0069a6;stop-opacity:1"
         offset="0.05527586"
         id="stop1263" />
      <stop
         style="stop-color:#0069a6;stop-opacity:1"
         offset="0.10902679"
         id="stop1027" />
      <stop
         style="stop-color:#cccccc;stop-opacity:1"
         offset="1"
         id="stop989" />
    </linearGradient>
    <linearGradient
       inkscape:collect="always"
       xlink:href="#linearGradient1157"
       id="linearGradient1159"
       x1="418.57144"
       y1="522.04797"
       x2="439.57144"
       y2="522.04797"
       gradientUnits="userSpaceOnUse"
       gradientTransform="matrix(0.5,0,0,0.5,192.28571,273.899)" />
    <linearGradient
       inkscape:collect="always"
       id="linearGradient1157">
      <stop
         style="stop-color:#ff6bff;stop-opacity:1"
         offset="0"
         id="stop1153" />
      <stop
         style="stop-color:#ff6600;stop-opacity:1"
         offset="1"
         id="stop1155" />
    </linearGradient>
  </defs>
  <metadata
     id="metadata5458">
    <rdf:RDF>
      <cc:Work
         rdf:about="">
        <dc:format>image/svg+xml</dc:format>
        <dc:type
           rdf:resource="http://purl.org/dc/dcmitype/StillImage" />
      </cc:Work>
    </rdf:RDF>
  </metadata>
  <g
     inkscape:label="Capa 1"
     inkscape:groupmode="layer"
     id="layer1"
     transform="translate(-384.57143,-515.798)">
    <path
       d="m 413.60085,523.00324 h -1.59966 v -0.5905 c 0,-1.02553 -0.45005,-1.531 -0.82764,-1.77469 -0.40491,-0.26114 -0.80252,-0.27447 -0.87849,-0.27447 h -14.05428 c -0.30099,0 -0.58386,-0.3173 -0.88326,-0.65333 -0.38108,-0.42773 -0.81302,-0.91225 -1.46871,-0.91225 h -6.2718 c -1.16614,0 -2.04558,0.87766 -2.04558,2.04154 v 21.91691 c 0,1.1258 0.91758,2.04155 2.04558,2.04155 h 25.98384 c 1.12799,0 2.04558,-0.91575 2.04558,-2.04155 v -17.71166 c 0,-1.1258 -0.91759,-2.04155 -2.04558,-2.04155 z m 1.09208,19.75321 c 0,0.60098 -0.48978,1.08963 -1.09208,1.08963 h -25.98384 c -0.6023,0 -1.09208,-0.48865 -1.09208,-1.08963 v -21.91691 c 0,-0.64127 0.4491,-1.08963 1.09208,-1.08963 h 6.2718 c 0.22789,0 0.4847,0.28812 0.75645,0.59305 0.38616,0.43312 0.86673,0.97222 1.59553,0.97222 h 14.04855 c 0.14398,0.004 0.55241,0.0666 0.70241,0.62128 h -21.88057 c -1.21575,0.025 -1.85142,0.65968 -1.85142,1.9289 l 0.0559,17.4518 h 0.57973 c 0,0 -0.1203,0.001 4.8e-4,0.001 0.18752,0 0.48358,0.0367 0.7601,-0.17942 0.49677,-0.38902 0.51775,-0.89322 0.5133,-1.03125 l -0.002,-14.3384 c 0,-1.90384 0,-1.90384 1.90701,-1.90384 l 22.52741,0.0898 c 0.60228,0.003 1.09207,0.48897 1.09207,1.08963 v 17.71166 z"
       id="path2-3-3-3-3"
       sodipodi:nodetypes="scscsscssssssssscsssssscsccccccsccccsscc"
       style="fill:url(#linearGradient1482);fill-opacity:1;stroke-width:0.317569" />
    <path
       id="User"
       class="st0"
       d="m 406.82144,535.298 c 1.64999,0 3,-1.35 3,-3 0,-1.65 -1.35001,-3 -3,-3 -1.65001,0 -3,1.35 -3,3 0,1.65 1.34999,3 3,3 z m 0,-0.75 c 1.23749,0 2.25,-1.0125 2.25,-2.25 0,-0.13125 -0.0188,-0.24375 -0.0375,-0.375 h -2.38126 c -0.44999,0 -0.84375,-0.3 -0.95624,-0.75 -0.11251,0.45 -0.50626,0.75 -0.95626,0.75 h -0.13125 c -0.0188,0.13125 -0.0375,0.24375 -0.0375,0.375 0,1.2375 1.01249,2.25 2.25,2.25 z m 2.25,1.5 c 1.64999,0 3,1.35 3,3 0,0.825 -0.67501,1.5 -1.5,1.5 h -9 v -1.5 c 0,-1.65 1.34999,-3 3,-3 z"
       style="clip-rule:evenodd;fill:url(#linearGradient1159);fill-opacity:1;fill-rule:evenodd;stroke-width:0.1875" />
    <path
       id="User-s"
       class="st1"
       d="m 409.80268,531.923 h -0.75 c -0.1875,-1.06875 -1.125,-1.875 -2.23124,-1.875 -1.10626,0 -2.04376,0.80625 -2.21251,1.875 h -0.75 c 0.1875,-1.48125 1.44375,-2.625 2.98125,-2.625 1.5375,0 2.775,1.14375 2.9625,2.625 z m 1.51876,7.125 c 0,0.825 -0.67501,1.5 -1.5,1.5 h -7.5 v 0.75 h 7.5 c 1.23749,0 2.25,-1.0125 2.25,-2.25 z"
       style="fill:#f2f2f2;fill-opacity:1;stroke-width:0.1875" />
  </g>
</svg>
