<?xml version="1.0" encoding="UTF-8" standalone="no"?>
<svg
   width="32"
   version="1.1"
   height="32"
   viewBox="0 0 32 32"
   id="svg15"
   sodipodi:docname="folder-chart.svg"
   inkscape:version="1.1.1 (3bf5ae0d25, 2021-09-20)"
   xmlns:inkscape="http://www.inkscape.org/namespaces/inkscape"
   xmlns:sodipodi="http://sodipodi.sourceforge.net/DTD/sodipodi-0.dtd"
   xmlns:xlink="http://www.w3.org/1999/xlink"
   xmlns="http://www.w3.org/2000/svg"
   xmlns:svg="http://www.w3.org/2000/svg"
   xmlns:rdf="http://www.w3.org/1999/02/22-rdf-syntax-ns#"
   xmlns:cc="http://creativecommons.org/ns#"
   xmlns:dc="http://purl.org/dc/elements/1.1/">
  <sodipodi:namedview
     pagecolor="#ffffff"
     bordercolor="#666666"
     borderopacity="1"
     objecttolerance="10"
     gridtolerance="10"
     guidetolerance="10"
     inkscape:pageopacity="0"
     inkscape:pageshadow="2"
     inkscape:window-width="1920"
     inkscape:window-height="1007"
     id="namedview17"
     showgrid="true"
     inkscape:zoom="9.8125"
     inkscape:cx="1.4267516"
     inkscape:cy="18.089172"
     inkscape:window-x="0"
     inkscape:window-y="0"
     inkscape:window-maximized="1"
     inkscape:current-layer="g4"
     inkscape:pagecheckerboard="0">
    <inkscape:grid
       type="xygrid"
       id="grid862" />
  </sodipodi:namedview>
  <defs
     id="defs5455">
    <linearGradient
       inkscape:collect="always"
       id="linearGradient991">
      <stop
         style="stop-color:#cccccc;stop-opacity:1"
         offset="0"
         id="stop987" />
      <stop
         style="stop-color:#cccccc;stop-opacity:1"
         offset="0.03132199"
         id="stop1929" />
      <stop
         style="stop-color:#0069a6;stop-opacity:1"
         offset="0.05527586"
         id="stop1263" />
      <stop
         style="stop-color:#0069a6;stop-opacity:1"
         offset="0.10902679"
         id="stop1027" />
      <stop
         style="stop-color:#cccccc;stop-opacity:1"
         offset="1"
         id="stop989" />
    </linearGradient>
    <linearGradient
       inkscape:collect="always"
       xlink:href="#linearGradient991"
       id="linearGradient1482-3"
       x1="386.57144"
       y1="516.39801"
       x2="446.62146"
       y2="516.39801"
       gradientUnits="userSpaceOnUse"
       gradientTransform="matrix(1.3906662,0,0,1.3461641,-466.08421,329.31646)" />
    <linearGradient
       inkscape:collect="always"
       xlink:href="#linearGradient912"
       id="linearGradient1060"
       x1="414.78571"
       y1="522.86945"
       x2="438.78571"
       y2="522.86945"
       gradientUnits="userSpaceOnUse"
       gradientTransform="matrix(1.3883552,0,0,1.3461641,-465.19081,330.12416)" />
    <linearGradient
       inkscape:collect="always"
       id="linearGradient912">
      <stop
         style="stop-color:#cccccc;stop-opacity:1"
         offset="0"
         id="stop902" />
      <stop
         style="stop-color:#cccccc;stop-opacity:1"
         offset="0"
         id="stop904" />
      <stop
         style="stop-color:#0069a6;stop-opacity:1"
         offset="0"
         id="stop906" />
      <stop
         style="stop-color:#0069a6;stop-opacity:1"
         offset="0"
         id="stop908" />
      <stop
         style="stop-color:#80b3ff;stop-opacity:1"
         offset="1"
         id="stop910" />
    </linearGradient>
  </defs>
  <metadata
     id="metadata5458">
    <rdf:RDF>
      <cc:Work
         rdf:about="">
        <dc:format>image/svg+xml</dc:format>
        <dc:type
           rdf:resource="http://purl.org/dc/dcmitype/StillImage" />
      </cc:Work>
    </rdf:RDF>
  </metadata>
  <g
     inkscape:label="Capa 1"
     inkscape:groupmode="layer"
     id="layer1"
     transform="translate(-384.57143,-515.798)">
    <g
       transform="matrix(0.36013848,0,0,0.37142583,359.81878,151.2823)"
       id="g4">
      <path
         d="m 149.33722,1000.7945 h -4.44178 v -1.58978 c 0,-2.76106 -1.24966,-4.12194 -2.29812,-4.77803 -1.12433,-0.70309 -2.22838,-0.73897 -2.43931,-0.73897 h -39.02466 c -0.83577,0 -1.621214,-0.85429 -2.452567,-1.75898 -1.058162,-1.15159 -2.257521,-2.45609 -4.078182,-2.45609 h -17.415 c -3.238005,0 -5.679969,2.36297 -5.679969,5.49651 v 59.00744 c 0,3.0311 2.547868,5.4965 5.679969,5.4965 h 72.149619 c 3.13211,0 5.67998,-2.4654 5.67998,-5.4965 v -47.6856 c 0,-3.031 -2.54787,-5.4965 -5.67998,-5.4965 z m 3.03239,53.1821 c 0,1.6181 -1.35999,2.9337 -3.03239,2.9337 H 77.187601 c -1.672385,0 -3.032375,-1.3156 -3.032375,-2.9337 v -59.00744 c 0,-1.72652 1.24702,-2.93364 3.032375,-2.93364 h 17.415 c 0.632771,0 1.345872,0.7757 2.100429,1.59667 1.072268,1.1661 2.406658,2.61755 4.43032,2.61755 h 39.00876 c 0.39979,0.0107 1.53386,0.17939 1.95041,1.67269 H 81.336493 c -3.3758,0.0674 -5.140857,1.77608 -5.140857,5.19317 l 0.155329,46.986 h 1.609728 c 0,0 -0.334038,0 0.0014,0 0.520689,0 1.342761,0.099 2.110564,-0.4831 1.3794,-1.0473 1.437641,-2.4048 1.425299,-2.7764 l -0.0069,-38.6037 c 0,-5.1258 0,-5.1258 5.295187,-5.1258 l 62.552097,0.2418 c 1.67237,0.01 3.03238,1.3164 3.03238,2.9336 v 47.6856 z"
         id="path2-3-3-6"
         sodipodi:nodetypes="scscsscssssssssscsssssscsccccccsccccsscc"
         style="fill:url(#linearGradient1482-3);fill-opacity:1;stroke-width:0.868295" />
      <path
         id="Chart"
         class="st0"
         d="m 138.04952,1046.3961 h -27.37043 v -3.4615 h 2.38003 l 1.19002,-4.6155 5.9501,-8.0769 h 3.57006 l 1.19001,-1.1539 4.76007,2.3077 v 3.4616 h 4.76008 v -5.1924 l 6.54511,-8.077 2.97505,0.577 v 18.4617 c 0,3.173 -2.67756,5.7692 -5.9501,5.7692 z"
         style="fill:url(#linearGradient1060);fill-opacity:1;stroke-width:0.5859" />
      <path
         id="Chart-s"
         class="st1"
         d="m 142.80959,1023.319 c 1.96353,0 3.57006,-1.5577 3.57006,-3.4615 0,-1.9039 -1.60653,-3.4616 -3.57006,-3.4616 -1.96352,0 -3.57006,1.5577 -3.57006,3.4616 0,0.6346 0.17851,1.2692 0.53552,1.7884 l -6.48561,7.6732 c -0.357,-0.1154 -0.77351,-0.2308 -1.19001,-0.2308 -0.95203,0 -1.84453,0.3462 -2.49904,0.9808 l -3.45106,-1.7308 c 0,-0.1154 0,-0.2885 0,-0.4038 0,-1.9039 -1.60653,-3.4616 -3.57006,-3.4616 -1.96353,0 -3.57005,1.5577 -3.57005,3.4616 0,0.6346 0.1785,1.2692 0.53551,1.7884 l -6.48561,7.6732 c -0.357,-0.1731 -0.77351,-0.2308 -1.19001,-0.2308 -1.96354,0 -3.57006,1.5577 -3.57006,3.4616 0,1.9038 1.60652,3.4615 3.57006,3.4615 1.96352,0 3.57006,-1.5577 3.57006,-3.4615 0,-0.6347 -0.17851,-1.2693 -0.53552,-1.7885 l 6.4856,-7.6732 c 0.357,0.1154 0.77351,0.2308 1.19002,0.2308 0.95202,0 1.84454,-0.3461 2.49904,-0.9808 l 3.51056,1.6731 c 0,0.1154 0,0.2885 0,0.4039 0,1.9038 1.60653,3.4615 3.57005,3.4615 1.96354,0 3.57006,-1.5577 3.57006,-3.4615 0,-0.6347 -0.1785,-1.2693 -0.53551,-1.7885 l 6.4261,-7.6154 c 0.357,0.173 0.77351,0.2307 1.19002,0.2307 z m 0,-2.3077 c 0.65451,0 1.19003,-0.5192 1.19003,-1.1538 0,-0.6347 -0.53552,-1.1539 -1.19003,-1.1539 -0.65451,0 -1.19002,0.5192 -1.19002,1.1539 0,0.6346 0.53551,1.1538 1.19002,1.1538 z m -9.52015,11.5386 c 0,0.6346 -0.5355,1.1538 -1.19001,1.1538 -0.65451,0 -1.19003,-0.5192 -1.19003,-1.1538 0,-0.6347 0.53552,-1.1539 1.19003,-1.1539 0.65451,0 1.19001,0.5192 1.19001,1.1539 z m -10.71017,-3.4616 c 0.65451,0 1.19003,-0.5192 1.19003,-1.1538 0,-0.6347 -0.53552,-1.1539 -1.19003,-1.1539 -0.6545,0 -1.19002,0.5192 -1.19002,1.1539 0,0.6346 0.53552,1.1538 1.19002,1.1538 z m -9.52015,11.5386 c 0,0.6346 -0.5355,1.1538 -1.19001,1.1538 -0.65452,0 -1.19002,-0.5192 -1.19002,-1.1538 0,-0.6347 0.5355,-1.1539 1.19002,-1.1539 0.65451,0 1.19001,0.5192 1.19001,1.1539 z m 28.56045,-1.1539 h 2.38005 v 2.3077 c 0,3.8077 -3.21306,6.9231 -7.14012,6.9231 h -23.80038 v -2.3077 h 23.80038 c 2.61804,0 4.76007,-2.0769 4.76007,-4.6154 z"
         style="clip-rule:evenodd;fill:#f0f0f0;fill-opacity:1;fill-rule:evenodd;stroke-width:0.5859" />
    </g>
  </g>
</svg>
