<?xml version="1.0" encoding="UTF-8" standalone="no"?>
<svg
   width="32"
   version="1.1"
   height="32"
   viewBox="0 0 32 32"
   id="svg17"
   sodipodi:docname="folder-script.svg"
   inkscape:version="1.1.1 (3bf5ae0d25, 2021-09-20)"
   xmlns:inkscape="http://www.inkscape.org/namespaces/inkscape"
   xmlns:sodipodi="http://sodipodi.sourceforge.net/DTD/sodipodi-0.dtd"
   xmlns:xlink="http://www.w3.org/1999/xlink"
   xmlns="http://www.w3.org/2000/svg"
   xmlns:svg="http://www.w3.org/2000/svg"
   xmlns:rdf="http://www.w3.org/1999/02/22-rdf-syntax-ns#"
   xmlns:cc="http://creativecommons.org/ns#"
   xmlns:dc="http://purl.org/dc/elements/1.1/">
  <sodipodi:namedview
     pagecolor="#ffffff"
     bordercolor="#666666"
     borderopacity="1"
     objecttolerance="10"
     gridtolerance="10"
     guidetolerance="10"
     inkscape:pageopacity="0"
     inkscape:pageshadow="2"
     inkscape:window-width="1920"
     inkscape:window-height="1007"
     id="namedview19"
     showgrid="false"
     inkscape:zoom="8.9988849"
     inkscape:cx="-17.002107"
     inkscape:cy="2.8892469"
     inkscape:window-x="0"
     inkscape:window-y="0"
     inkscape:window-maximized="1"
     inkscape:current-layer="layer1"
     inkscape:pagecheckerboard="0" />
  <defs
     id="defs5455">
    <linearGradient
       inkscape:collect="always"
       xlink:href="#linearGradient1408"
       id="linearGradient1410"
       x1="415.20505"
       y1="521.89795"
       x2="438.07645"
       y2="521.89795"
       gradientUnits="userSpaceOnUse"
       gradientTransform="matrix(0.5,0,0,0.5,192.28571,273.899)" />
    <linearGradient
       inkscape:collect="always"
       id="linearGradient1408">
      <stop
         style="stop-color:#ccaaff;stop-opacity:1"
         offset="0"
         id="stop1404" />
      <stop
         style="stop-color:#2a7fff;stop-opacity:1"
         offset="1"
         id="stop1406" />
    </linearGradient>
    <linearGradient
       inkscape:collect="always"
       xlink:href="#linearGradient991"
       id="linearGradient1482"
       x1="386.57144"
       y1="516.39801"
       x2="446.62146"
       y2="516.39801"
       gradientUnits="userSpaceOnUse"
       gradientTransform="matrix(0.5008323,0,0,0.5,191.96396,273.599)" />
    <linearGradient
       inkscape:collect="always"
       id="linearGradient991">
      <stop
         style="stop-color:#cccccc;stop-opacity:1"
         offset="0"
         id="stop987" />
      <stop
         style="stop-color:#cccccc;stop-opacity:1"
         offset="0.03132199"
         id="stop1929" />
      <stop
         style="stop-color:#0069a6;stop-opacity:1"
         offset="0.05527586"
         id="stop1263" />
      <stop
         style="stop-color:#0069a6;stop-opacity:1"
         offset="0.10902679"
         id="stop1027" />
      <stop
         style="stop-color:#cccccc;stop-opacity:1"
         offset="1"
         id="stop989" />
    </linearGradient>
  </defs>
  <metadata
     id="metadata5458">
    <rdf:RDF>
      <cc:Work
         rdf:about="">
        <dc:format>image/svg+xml</dc:format>
        <dc:type
           rdf:resource="http://purl.org/dc/dcmitype/StillImage" />
      </cc:Work>
    </rdf:RDF>
  </metadata>
  <g
     inkscape:label="Capa 1"
     inkscape:groupmode="layer"
     id="layer1"
     transform="translate(-384.57143,-515.798)">
    <path
       id="Read"
       class="st0"
       d="m 401.52186,536.69412 h 1.63379 v 0.92307 h -1.63379 z m 2.85893,-1.84616 h -2.85893 v 0.92308 h 2.85893 z m 2.4506,1.84616 h 1.63362 v 0.92307 h -1.63362 z m 2.85885,-1.84616 h -2.85885 v 0.92308 h 2.85885 z m -2.85885,-1.84615 h 2.85885 v 0.92307 h -2.85885 z m -2.4506,0 h -2.85893 v 0.92307 h 2.85893 z m 2.4506,-1.84616 h 2.85885 v 0.92308 h -2.85885 z m -5.30953,0 h 2.85893 v 0.92308 h -2.85893 z m -1.63362,-1.84615 h 4.39043 c 0.55147,0 1.06193,0.34615 1.32742,0.92307 0.245,-0.57692 0.75557,-0.92307 1.32733,-0.92307 h 4.39052 v 9.23077 c 0,0.50769 -0.3676,0.92307 -0.81681,0.92307 h -3.57371 c -0.5514,0 -1.06184,0.34616 -1.32733,0.92308 -0.24512,-0.57692 -0.75557,-0.92308 -1.32741,-0.92308 h -4.39044 z"
       style="clip-rule:evenodd;fill:url(#linearGradient1410);fill-opacity:1;fill-rule:evenodd;stroke-width:0.217083" />
    <path
       id="Read-s"
       class="st1"
       d="m 399.07143,539.46335 v -9.23077 h 0.81681 v 9.23077 z m 12.25251,-9.23077 v 8.30769 c 0,0.50769 -0.3676,0.92308 -0.81681,0.92308 h -3.67574 c -0.5106,0 -0.95981,0.32308 -1.18441,0.83076 l -0.041,0.0923 -0.0411,-0.0923 c -0.2246,-0.50768 -0.6738,-0.83076 -1.18441,-0.83076 h -3.67573 v 0.92308 h 3.67574 c 0,0.50769 0.3676,0.92307 0.81691,0.92307 h 0.81688 c 0.4492,0 0.81681,-0.41538 0.81681,-0.92307 h 3.67574 c 0.89841,0 1.63362,-0.83077 1.63362,-1.84616 v -8.30769 z"
       style="fill:#f0f0f0;fill-opacity:1;stroke-width:0.217083" />
    <path
       d="m 413.60085,523.00325 h -1.59966 v -0.59051 c 0,-1.02553 -0.45005,-1.53099 -0.82763,-1.77468 -0.40492,-0.26115 -0.80253,-0.27448 -0.8785,-0.27448 h -14.05428 c -0.30099,0 -0.58386,-0.3173 -0.88326,-0.65333 -0.38108,-0.42773 -0.81302,-0.91225 -1.46871,-0.91225 H 387.617 c -1.16613,0 -2.04557,0.87767 -2.04557,2.04155 v 21.9169 c 0,1.12581 0.91758,2.04155 2.04557,2.04155 h 25.98385 c 1.128,0 2.04558,-0.91574 2.04558,-2.04155 v -17.71166 c 0,-1.1258 -0.91758,-2.04155 -2.04558,-2.04154 z m 1.09208,19.7532 c 0,0.60099 -0.48979,1.08964 -1.09208,1.08964 H 387.617 c -0.60229,0 -1.09207,-0.48865 -1.09207,-1.08964 v -21.9169 c 0,-0.64128 0.4491,-1.08963 1.09207,-1.08963 h 6.27181 c 0.22789,0 0.4847,0.28811 0.75645,0.59304 0.38616,0.43312 0.86673,0.97223 1.59553,0.97223 h 14.04855 c 0.14398,0.004 0.5524,0.0666 0.70242,0.62128 h -21.88058 c -1.21576,0.025 -1.85142,0.65968 -1.85142,1.9289 l 0.0559,17.45179 h 0.57972 c 0,0 -0.1203,0.001 4.9e-4,0.001 0.18752,0 0.48358,0.0367 0.76009,-0.17942 0.49678,-0.38901 0.51775,-0.89321 0.51331,-1.03125 l -0.002,-14.3384 c 0,-1.90383 0,-1.90383 1.907,-1.90383 l 22.52741,0.0898 c 0.60228,0.002 1.09208,0.48896 1.09208,1.08962 v 17.71167 z"
       id="path2-3-3-3"
       sodipodi:nodetypes="scscsscssssssssscsssssscsccccccsccccsscc"
       style="fill:url(#linearGradient1482);fill-opacity:1;stroke-width:0.317569" />
  </g>
</svg>
