<?xml version="1.0" encoding="UTF-8" standalone="no"?>
<svg
   height="32"
   viewBox="0 0 32 32"
   width="32"
   version="1.1"
   id="svg25"
   sodipodi:docname="folder-recent.svg"
   inkscape:version="1.1.1 (3bf5ae0d25, 2021-09-20)"
   xmlns:inkscape="http://www.inkscape.org/namespaces/inkscape"
   xmlns:sodipodi="http://sodipodi.sourceforge.net/DTD/sodipodi-0.dtd"
   xmlns:xlink="http://www.w3.org/1999/xlink"
   xmlns="http://www.w3.org/2000/svg"
   xmlns:svg="http://www.w3.org/2000/svg"
   xmlns:rdf="http://www.w3.org/1999/02/22-rdf-syntax-ns#"
   xmlns:cc="http://creativecommons.org/ns#"
   xmlns:dc="http://purl.org/dc/elements/1.1/">
  <metadata
     id="metadata31">
    <rdf:RDF>
      <cc:Work
         rdf:about="">
        <dc:format>image/svg+xml</dc:format>
        <dc:type
           rdf:resource="http://purl.org/dc/dcmitype/StillImage" />
      </cc:Work>
    </rdf:RDF>
  </metadata>
  <defs
     id="defs29">
    <linearGradient
       inkscape:collect="always"
       xlink:href="#linearGradient991"
       id="linearGradient1482"
       x1="386.57144"
       y1="516.39801"
       x2="446.62146"
       y2="516.39801"
       gradientUnits="userSpaceOnUse"
       gradientTransform="matrix(0.5008323,0,0,0.5,-192.60746,-242.199)" />
    <linearGradient
       inkscape:collect="always"
       id="linearGradient991">
      <stop
         style="stop-color:#cccccc;stop-opacity:1"
         offset="0"
         id="stop987" />
      <stop
         style="stop-color:#cccccc;stop-opacity:1"
         offset="0.03132199"
         id="stop1929" />
      <stop
         style="stop-color:#0069a6;stop-opacity:1"
         offset="0.05527586"
         id="stop1263" />
      <stop
         style="stop-color:#0069a6;stop-opacity:1"
         offset="0.10902679"
         id="stop1027" />
      <stop
         style="stop-color:#cccccc;stop-opacity:1"
         offset="1"
         id="stop989" />
    </linearGradient>
    <linearGradient
       inkscape:collect="always"
       xlink:href="#linearGradient1251"
       id="linearGradient1253"
       x1="417.40469"
       y1="521.82758"
       x2="439.60291"
       y2="521.82758"
       gradientUnits="userSpaceOnUse"
       gradientTransform="matrix(0.5,0,0,0.5,-192.28571,-241.899)" />
    <linearGradient
       inkscape:collect="always"
       id="linearGradient1251">
      <stop
         style="stop-color:#b380ff;stop-opacity:1"
         offset="0"
         id="stop1247" />
      <stop
         style="stop-color:#5f5fff;stop-opacity:1"
         offset="1"
         id="stop1249" />
    </linearGradient>
  </defs>
  <sodipodi:namedview
     pagecolor="#ffffff"
     bordercolor="#666666"
     borderopacity="1"
     objecttolerance="10"
     gridtolerance="10"
     guidetolerance="10"
     inkscape:pageopacity="0"
     inkscape:pageshadow="2"
     inkscape:window-width="1920"
     inkscape:window-height="1007"
     id="namedview27"
     showgrid="false"
     inkscape:zoom="6.9384853"
     inkscape:cx="5.1884523"
     inkscape:cy="14.844739"
     inkscape:window-x="0"
     inkscape:window-y="0"
     inkscape:window-maximized="1"
     inkscape:current-layer="svg25"
     inkscape:pagecheckerboard="0" />
  <linearGradient
     id="a"
     gradientUnits="userSpaceOnUse"
     x2="0"
     y1="29"
     y2="8">
    <stop
       offset="0"
       stop-color="#3daee9"
       id="stop2" />
    <stop
       offset="1"
       stop-color="#6cc1ef"
       id="stop4" />
  </linearGradient>
  <path
     d="M 29.02942,7.205245 H 27.429765 V 6.61474 c 0,-1.02553 -0.45005,-1.530995 -0.82764,-1.774685 C 26.19721,4.57891 25.7996,4.565585 25.723635,4.565585 h -14.05428 c -0.30099,0 -0.58386,-0.317305 -0.88326,-0.65333 C 10.40501,3.484525 9.9730747,3 9.317385,3 H 3.045575 C 1.879445,3 1,3.877665 1,5.041545 v 21.91691 C 1,28.084255 1.917585,29 3.045575,29 H 29.02942 C 30.157415,29 31.075,28.084255 31.075,26.958455 V 9.24679 c 0,-1.1258 -0.917585,-2.041545 -2.04558,-2.041545 z m 1.09208,19.75321 c 0,0.60098 -0.489785,1.08963 -1.09208,1.08963 H 3.045575 c -0.60229,0 -1.092075,-0.48865 -1.092075,-1.08963 V 5.041545 c 0,-0.641275 0.4491,-1.08963 1.092075,-1.08963 h 6.27181 c 0.227885,0 0.4847,0.288115 0.756445,0.593045 0.386165,0.43312 0.86673,0.972225 1.595525,0.972225 H 25.71791 c 0.14398,0.004 0.5524,0.06663 0.702415,0.62128 H 4.53975 c -1.215755,0.02505 -1.85142,0.65968 -1.85142,1.9289 L 2.74427,25.51916 h 0.579725 c 0,0 -0.1203,0.001 4.85e-4,0.001 0.18752,0 0.48358,0.03665 0.760095,-0.17942 0.496775,-0.389015 0.51775,-0.893215 0.513305,-1.031245 L 4.59538,9.97109 c 0,-1.903835 0,-1.903835 1.907,-1.903835 l 22.52741,0.0898 c 0.602285,0.0025 1.092075,0.488965 1.092075,1.089625 v 17.711665 z"
     id="path2-3-3-3"
     sodipodi:nodetypes="scscsscssssssssscsssssscsccccccsccccsscc"
     style="fill:url(#linearGradient1482);fill-opacity:1;stroke-width:0.317569" />
  <path
     id="Stopwatch"
     class="st0"
     d="m 21.96186,22.714125 c 2.03219,0 3.69489,-1.6627 3.69489,-3.69489 0,-2.03219 -1.6627,-3.69489 -3.69489,-3.69489 -2.032185,0 -3.69489,1.6627 -3.69489,3.69489 0,2.03219 1.662705,3.69489 3.69489,3.69489 z m 0.461865,-9.21413 v 0 c 1.270115,0.115465 2.49405,0.646605 3.463955,1.59342 2.17075,2.170745 2.17075,5.68089 0,7.828545 -2.170745,2.147655 -5.68089,2.17075 -7.85164,0.0231 -2.170745,-2.147655 -2.14765,-5.68089 0,-7.85164 C 19.00595,14.123515 20.22988,13.592375 21.5,13.5 v 0 l 0.43251,-0.0147 z"
     sodipodi:nodetypes="ssssscccssccccc"
     style="clip-rule:evenodd;fill:url(#linearGradient1253);fill-opacity:1;fill-rule:evenodd;stroke-width:0.230931" />
  <path
     id="Stopwatch-s"
     class="st1"
     d="m 22.423725,13.499995 v 0 0 0 0 0 0 l 1.01609,0.184745 v 0 z M 21.96186,24.56157 v 0.92372 c 3.07138,0 5.542335,-2.470955 5.542335,-5.542335 v -0.92372 h -0.92372 v 0.92372 c 0,2.54024 -2.078375,4.618615 -4.618615,4.618615 z m -0.969905,-3.90273 0.738975,-0.738975 c 0.30021,0.09237 0.646605,0 0.90063,-0.23093 0.23093,-0.230935 0.323305,-0.57733 0.23093,-0.90063 l 2.70189,-2.70189 -0.646605,-0.646605 -2.72498,2.678795 c -0.300215,-0.09238 -0.64661,0 -0.90063,0.23093 -0.23093,0.23093 -0.323305,0.577325 -0.23093,0.90063 l -0.73898,0.738975 z"
     sodipodi:nodetypes="cccccccccccccccccccccccccscc"
     style="fill:#f2f2f2;fill-opacity:1;stroke-width:0.230931" />
</svg>
