<?xml version="1.0" encoding="UTF-8" standalone="no"?>
<svg
   width="32"
   version="1.1"
   height="32"
   viewBox="0 0 32 32"
   id="svg17"
   sodipodi:docname="folder-text.svg"
   inkscape:version="1.1.1 (3bf5ae0d25, 2021-09-20)"
   xmlns:inkscape="http://www.inkscape.org/namespaces/inkscape"
   xmlns:sodipodi="http://sodipodi.sourceforge.net/DTD/sodipodi-0.dtd"
   xmlns:xlink="http://www.w3.org/1999/xlink"
   xmlns="http://www.w3.org/2000/svg"
   xmlns:svg="http://www.w3.org/2000/svg"
   xmlns:rdf="http://www.w3.org/1999/02/22-rdf-syntax-ns#"
   xmlns:cc="http://creativecommons.org/ns#"
   xmlns:dc="http://purl.org/dc/elements/1.1/">
  <sodipodi:namedview
     pagecolor="#ffffff"
     bordercolor="#666666"
     borderopacity="1"
     objecttolerance="10"
     gridtolerance="10"
     guidetolerance="10"
     inkscape:pageopacity="0"
     inkscape:pageshadow="2"
     inkscape:window-width="1920"
     inkscape:window-height="1007"
     id="namedview19"
     showgrid="false"
     inkscape:zoom="9.8125"
     inkscape:cx="-19.057325"
     inkscape:cy="-0.61146497"
     inkscape:window-x="0"
     inkscape:window-y="0"
     inkscape:window-maximized="1"
     inkscape:current-layer="layer1"
     inkscape:pagecheckerboard="0" />
  <defs
     id="defs5455">
    <linearGradient
       inkscape:collect="always"
       xlink:href="#linearGradient977"
       id="linearGradient979"
       x1="417.20038"
       y1="521.94086"
       x2="439.5"
       y2="521.94086"
       gradientUnits="userSpaceOnUse"
       gradientTransform="matrix(0.5,0,0,0.5,192.28572,274.03747)" />
    <linearGradient
       inkscape:collect="always"
       id="linearGradient977">
      <stop
         style="stop-color:#ffff67;stop-opacity:1"
         offset="0"
         id="stop973" />
      <stop
         style="stop-color:#ff31ff;stop-opacity:1"
         offset="1"
         id="stop975" />
    </linearGradient>
    <linearGradient
       inkscape:collect="always"
       xlink:href="#linearGradient991"
       id="linearGradient1482"
       x1="386.57144"
       y1="516.39801"
       x2="446.62146"
       y2="516.39801"
       gradientUnits="userSpaceOnUse"
       gradientTransform="matrix(0.5008323,0,0,0.5,191.96397,273.59901)" />
    <linearGradient
       inkscape:collect="always"
       id="linearGradient991">
      <stop
         style="stop-color:#cccccc;stop-opacity:1"
         offset="0"
         id="stop987" />
      <stop
         style="stop-color:#cccccc;stop-opacity:1"
         offset="0.03132199"
         id="stop1929" />
      <stop
         style="stop-color:#0069a6;stop-opacity:1"
         offset="0.05527586"
         id="stop1263" />
      <stop
         style="stop-color:#0069a6;stop-opacity:1"
         offset="0.10902679"
         id="stop1027" />
      <stop
         style="stop-color:#cccccc;stop-opacity:1"
         offset="1"
         id="stop989" />
    </linearGradient>
  </defs>
  <metadata
     id="metadata5458">
    <rdf:RDF>
      <cc:Work
         rdf:about="">
        <dc:format>image/svg+xml</dc:format>
        <dc:type
           rdf:resource="http://purl.org/dc/dcmitype/StillImage" />
      </cc:Work>
    </rdf:RDF>
  </metadata>
  <g
     inkscape:label="Capa 1"
     inkscape:groupmode="layer"
     id="layer1"
     transform="translate(-384.57143,-515.798)">
    <path
       id="Newspaper"
       class="st0"
       d="m 409.89286,538.00789 h -7.28572 v 0.85714 h 7.28572 z m -7.28572,-1.71428 h 3 v 0.85714 h -3 z m 0,-1.71429 h 3 v 0.85714 h -3 z m 3.85714,0 h 3.42858 v 2.57143 h -3.42858 z m 3.42858,-3.42857 h -7.28572 v 1.71428 h 7.28572 z m 2.14285,-1.71429 h -11.14285 v 10.28572 c 0,0.47143 -0.007,0.85714 -0.007,0.85714 h 9.00693 c 1.17857,0 2.14285,-0.96429 2.14285,-2.14286 z"
       style="clip-rule:evenodd;fill:url(#linearGradient979);fill-opacity:1;fill-rule:evenodd;stroke-width:0.214285"
       sodipodi:nodetypes="cccccccccccccccccccccccccccscssc" />
    <path
       id="Newspaper-s"
       class="st1"
       d="m 412.03571,530.29361 v 8.57142 c 0,1.41429 -1.15714,2.57143 -2.57142,2.57143 h -6.85714 v -0.85714 h 6.85714 c 0.94285,0 1.71428,-0.77143 1.71428,-1.71429 v -8.57142 z m -9.42857,10.28571 z"
       style="fill:#f1f1f1;fill-opacity:1;stroke-width:0.214285"
       sodipodi:nodetypes="cssccssccccccccccccc" />
    <path
       d="m 413.60085,523.00324 h -1.59966 v -0.5905 c 0,-1.02553 -0.45005,-1.531 -0.82764,-1.77469 -0.40491,-0.26114 -0.80252,-0.27447 -0.87849,-0.27447 h -14.05428 c -0.30099,0 -0.58385,-0.3173 -0.88326,-0.65333 -0.38108,-0.42773 -0.81302,-0.91225 -1.46871,-0.91225 H 387.617 c -1.16612,0 -2.04557,0.87766 -2.04557,2.04154 v 21.91691 c 0,1.1258 0.91759,2.04155 2.04557,2.04155 h 25.98385 c 1.12799,0 2.04558,-0.91575 2.04558,-2.04155 v -17.71166 c 0,-1.1258 -0.91759,-2.04155 -2.04558,-2.04155 z m 1.09208,19.75321 c 0,0.60099 -0.48979,1.08964 -1.09208,1.08964 H 387.617 c -0.60229,0 -1.09207,-0.48865 -1.09207,-1.08964 v -21.91691 c 0,-0.64127 0.4491,-1.08963 1.09207,-1.08963 h 6.27181 c 0.22789,0 0.48471,0.28812 0.75645,0.59305 0.38617,0.43312 0.86673,0.97222 1.59552,0.97222 h 14.04856 c 0.14398,0.004 0.5524,0.0666 0.70241,0.62128 h -21.88057 c -1.21576,0.025 -1.85142,0.65968 -1.85142,1.9289 l 0.0559,17.4518 h 0.57972 c 0,0 -0.12029,0.001 4.9e-4,0.001 0.18752,0 0.48358,0.0367 0.7601,-0.17942 0.49677,-0.38901 0.51775,-0.89322 0.5133,-1.03125 l -0.002,-14.3384 c 0,-1.90384 0,-1.90384 1.907,-1.90384 l 22.52741,0.0898 c 0.60228,0.002 1.09207,0.48897 1.09207,1.08963 v 17.71166 z"
       id="path2-3-3-3"
       sodipodi:nodetypes="scscsscssssssssscsssssscsccccccsccccsscc"
       style="fill:url(#linearGradient1482);fill-opacity:1;stroke-width:0.317569" />
  </g>
</svg>
