<?xml version="1.0" encoding="UTF-8" standalone="no"?>
<svg
   width="32"
   version="1.1"
   height="32"
   viewBox="0 0 32 32"
   id="svg15"
   sodipodi:docname="folder-Pop_OS.svg"
   inkscape:version="1.1.1 (3bf5ae0d25, 2021-09-20)"
   xmlns:inkscape="http://www.inkscape.org/namespaces/inkscape"
   xmlns:sodipodi="http://sodipodi.sourceforge.net/DTD/sodipodi-0.dtd"
   xmlns:xlink="http://www.w3.org/1999/xlink"
   xmlns="http://www.w3.org/2000/svg"
   xmlns:svg="http://www.w3.org/2000/svg"
   xmlns:rdf="http://www.w3.org/1999/02/22-rdf-syntax-ns#"
   xmlns:cc="http://creativecommons.org/ns#"
   xmlns:dc="http://purl.org/dc/elements/1.1/">
  <sodipodi:namedview
     pagecolor="#ffffff"
     bordercolor="#666666"
     borderopacity="1"
     objecttolerance="10"
     gridtolerance="10"
     guidetolerance="10"
     inkscape:pageopacity="0"
     inkscape:pageshadow="2"
     inkscape:window-width="1920"
     inkscape:window-height="1007"
     id="namedview17"
     showgrid="false"
     inkscape:zoom="9.8125"
     inkscape:cx="-16"
     inkscape:cy="8.6624204"
     inkscape:window-x="0"
     inkscape:window-y="0"
     inkscape:window-maximized="1"
     inkscape:current-layer="layer1"
     inkscape:document-rotation="0"
     inkscape:pagecheckerboard="0" />
  <defs
     id="defs5455">
    <linearGradient
       inkscape:collect="always"
       xlink:href="#linearGradient991"
       id="linearGradient1482"
       x1="386.57144"
       y1="516.39801"
       x2="446.62146"
       y2="516.39801"
       gradientUnits="userSpaceOnUse"
       gradientTransform="matrix(0.5008323,0,0,0.5,191.96397,273.599)" />
    <linearGradient
       inkscape:collect="always"
       id="linearGradient991">
      <stop
         style="stop-color:#cccccc;stop-opacity:1"
         offset="0"
         id="stop987" />
      <stop
         style="stop-color:#cccccc;stop-opacity:1"
         offset="0.03132199"
         id="stop1929" />
      <stop
         style="stop-color:#0069a6;stop-opacity:1"
         offset="0.05527586"
         id="stop1263" />
      <stop
         style="stop-color:#0069a6;stop-opacity:1"
         offset="0.10902679"
         id="stop1027" />
      <stop
         style="stop-color:#cccccc;stop-opacity:1"
         offset="1"
         id="stop989" />
    </linearGradient>
  </defs>
  <metadata
     id="metadata5458">
    <rdf:RDF>
      <cc:Work
         rdf:about="">
        <dc:format>image/svg+xml</dc:format>
        <dc:type
           rdf:resource="http://purl.org/dc/dcmitype/StillImage" />
      </cc:Work>
    </rdf:RDF>
  </metadata>
  <g
     inkscape:label="Capa 1"
     inkscape:groupmode="layer"
     id="layer1"
     transform="translate(-384.57143,-515.798)">
    <path
       style="fill:#f2f2f2;fill-opacity:1;stroke-width:0.0141199"
       id="path2-3-3"
       d="m 410.51118,536.96396 c -0.0276,0.11276 -0.0838,0.21259 -0.18154,0.27539 -0.15372,0.0986 -0.34089,0.0699 -0.4736,-0.05 -0.12431,-0.11131 -0.16624,-0.29958 -0.12715,-0.46237 0.0403,-0.1699 0.16904,-0.31975 0.33389,-0.36687 0.36738,-0.10411 0.51969,0.30399 0.4484,0.60381 z m -0.22489,-1.15894 c -0.22765,-0.0928 -0.14949,-1.31302 0.0588,-2.79432 0.0588,-0.41393 0.1593,-0.60962 0.27246,-0.70956 0.16203,-0.14119 0.45679,-0.147 0.65648,-0.11703 0.22912,0.0329 0.44847,0.14283 0.61469,0.30692 0.14669,0.14571 0.16342,0.29399 0.1131,0.48678 -0.0823,0.3069 -0.22345,0.60091 -0.35901,0.8876 -0.0314,0.0699 -0.31293,0.61368 -0.35058,0.68074 -0.6775,1.2189 -0.81302,1.33733 -1.00574,1.25887 z" />
    <path
       style="fill:#48b9c7;fill-opacity:1;stroke-width:0.0141199"
       id="path4"
       d="m 405.69046,535.2555 c 0.13407,0.58531 0.1201,1.22747 0.003,1.68985 -0.10751,0.43672 -0.39946,0.82775 -0.86325,0.95904 -0.40659,0.11565 -0.88005,0.0309 -1.17069,-0.25402 -0.47771,-0.46814 -0.75709,-1.5671 -0.63279,-2.3649 0.10062,-0.64067 0.43867,-1.46144 1.18047,-1.49722 0.0484,-0.002 0.095,-10e-4 0.14238,0.002 0.7558,0.07 1.16788,0.72083 1.33835,1.46445 z m -1.36613,1.3316 c 0.0412,0.008 0.0838,0.008 0.12564,-0.004 0.14111,-0.0408 0.22214,-0.19129 0.25982,-0.33681 0.0577,-0.22124 0.0493,-0.45958 -0.0266,-0.67653 -0.0384,-0.10992 -0.0935,-0.21695 -0.17883,-0.29689 -0.30025,-0.28112 -0.6005,0.0109 -0.65227,0.34396 -0.0403,0.2598 0.0188,0.56092 0.17736,0.77075 0.0741,0.0971 0.18033,0.18121 0.29348,0.2012 z" />
    <path
       style="fill:#48b9c7;fill-opacity:1;stroke-width:0.0141199"
       id="path6"
       d="m 407.32626,536.49587 c -10e-4,1.08026 0.10471,1.90664 -0.36046,2.00515 -0.37713,0.0785 -0.36453,-0.25976 -0.39394,-0.54379 -0.11168,-1.1003 -0.21365,-2.92849 -0.25703,-4.03475 0.0304,-0.47529 0.34231,-0.76641 0.66638,-0.83764 0.50011,-0.10993 1.03367,-0.0787 1.47653,0.20115 0.87589,0.55385 0.94574,1.56996 0.41491,2.3991 -0.29059,0.45244 -1.16923,0.7808 -1.54639,0.75213 z m 0.1117,-2.42199 c -0.0542,0.009 -0.14385,0.0328 -0.16903,0.0883 -0.06,0.12701 -0.0565,0.93358 0.0493,1.27175 0.0178,0.0563 0.0535,0.10841 0.10894,0.1284 0.19837,0.0743 0.3772,-0.17416 0.45822,-0.32398 0.11314,-0.20835 0.1494,-0.45379 0.0782,-0.68224 -0.0672,-0.21259 -0.27517,-0.52095 -0.52521,-0.48226 z" />
    <path
       style="fill:#48b9c7;fill-opacity:1;stroke-width:0.0141199"
       id="path8"
       d="m 402.31685,534.61041 c -0.32828,0.70945 -0.87309,1.27307 -1.62736,1.55148 0.21664,0.57801 0.43716,1.14894 0.65231,1.72542 0.12021,0.31109 0.23471,0.65222 0.12988,0.95906 -0.10896,0.314 -0.53343,0.40103 -0.84223,0.0672 -0.59379,-0.64516 -2.60104,-4.73261 -2.74909,-5.03952 -0.12582,-0.26401 -0.31421,-0.54665 -0.30882,-0.85203 0.01,-0.45961 0.70564,-0.92489 1.03922,-1.16311 0.4667,-0.33269 1.00583,-0.55965 1.58279,-0.56093 0.44987,0 0.83397,0.12572 1.17487,0.34815 0.52238,0.34269 0.88567,0.88911 1.01985,1.5071 0.11721,0.54384 0.0921,1.10059 -0.0714,1.45732 m -1.52952,-0.77647 c -0.1174,-0.43519 -0.38284,-0.83622 -0.71675,-1.11735 -0.0725,-0.0613 -0.15091,-0.11863 -0.24145,-0.14989 -0.62587,-0.20987 -0.35487,0.85912 -0.25289,1.12895 0.14106,0.37815 0.35487,0.85622 0.64112,1.14161 0.0627,0.0626 0.13693,0.11854 0.22207,0.13562 0.12995,0.028 0.25003,-0.0659 0.31581,-0.17407 0.0535,-0.0899 0.0753,-0.19698 0.088,-0.30109 0.0225,-0.22116 0.002,-0.44682 -0.0567,-0.66378 z" />
    <path
       style="fill:#f0f0f0;fill-opacity:1;stroke-width:0.0141199"
       id="path10"
       d="m 409.80069,540.04339 c -0.002,0.6266 -0.37716,1.25311 -1.2028,1.25311 -0.82553,0 -1.20968,-0.61651 -1.20968,-1.24596 0,-0.78496 0.535,-1.27021 1.22649,-1.27021 0.80185,0.008 1.19298,0.61512 1.18599,1.26306 z m -1.18599,-0.86769 c -0.51825,0 -0.80888,0.36826 -0.81162,0.8706 0,0.43673 0.23884,0.84632 0.80178,0.84632 0.56297,0 0.7781,-0.44381 0.7781,-0.8506 0.008,-0.4225 -0.21229,-0.85632 -0.76826,-0.86632 z m 1.53239,1.79968 c 0,0.0928 0.002,-0.44101 0,-0.52233 h 0.37996 l 0.0277,0.32686 c 0.12439,0.0728 0.31712,0.12703 0.47497,0.12703 0.2934,0 0.59931,-0.0757 0.59931,-0.36827 -0.01,-0.26547 -0.35063,-0.31968 -0.62581,-0.34827 -0.46797,-0.049 -0.84513,-0.16546 -0.84513,-0.70215 0,-0.47813 0.5294,-0.71638 0.92332,-0.71638 0.31712,-0.008 0.54201,0.0428 0.82836,0.2782 0,0.19277 -0.002,0.30691 -0.002,0.49954 h -0.36731 l -0.0225,-0.31677 c -0.14808,-0.0729 -0.30036,-0.0928 -0.41766,-0.0899 -0.25286,0.002 -0.52247,0.1241 -0.52247,0.34106 0,0.21262 0.17462,0.27114 0.48472,0.31687 0.50573,0.0685 0.99321,0.18548 0.99321,0.73641 -0.002,0.60223 -0.55598,0.76072 -1.03091,0.76072 -0.36179,10e-4 -0.58811,-0.0673 -0.87446,-0.32261 z"
       inkscape:connector-curvature="0" />
    <path
       style="fill:#ffdd55;fill-opacity:1;stroke-width:0.0141199"
       id="path12"
       d="m 406.87553,541.09103 c 0,0.10991 -0.0867,0.19834 -0.19414,0.19834 h -2.24489 c -0.10758,0 -0.19411,-0.0884 -0.19411,-0.19834 v -0.018 c 0,-0.10993 0.0865,-0.19828 0.19411,-0.19828 h 2.24489 c 0.10748,0 0.19414,0.0883 0.19414,0.19828 z"
       inkscape:connector-curvature="0" />
    <path
       d="m 413.60085,523.00325 h -1.59966 v -0.59051 c 0,-1.02553 -0.45005,-1.53099 -0.82764,-1.77468 -0.40491,-0.26115 -0.80252,-0.27448 -0.87849,-0.27448 h -14.05428 c -0.30099,0 -0.58386,-0.3173 -0.88326,-0.65333 -0.38108,-0.42773 -0.81302,-0.91225 -1.46871,-0.91225 H 387.617 c -1.16613,0 -2.04557,0.87767 -2.04557,2.04155 v 21.9169 c 0,1.12581 0.91758,2.04155 2.04557,2.04155 h 25.98385 c 1.12799,0 2.04558,-0.91574 2.04558,-2.04155 v -17.71166 c 0,-1.1258 -0.91759,-2.04155 -2.04558,-2.04154 z m 1.09208,19.7532 c 0,0.60099 -0.48979,1.08964 -1.09208,1.08964 H 387.617 c -0.60229,0 -1.09207,-0.48865 -1.09207,-1.08964 v -21.9169 c 0,-0.64128 0.4491,-1.08963 1.09207,-1.08963 h 6.27181 c 0.22789,0 0.4847,0.28811 0.75645,0.59304 0.38616,0.43312 0.86673,0.97223 1.59552,0.97223 h 14.04856 c 0.14398,0.004 0.5524,0.0666 0.70241,0.62128 h -21.88057 c -1.21576,0.025 -1.85142,0.65968 -1.85142,1.9289 l 0.0559,17.45179 h 0.57972 c 0,0 -0.1203,0.001 4.9e-4,0.001 0.18752,0 0.48358,0.0367 0.76009,-0.17942 0.49678,-0.38901 0.51776,-0.89321 0.51331,-1.03125 l -0.002,-14.3384 c 0,-1.90383 0,-1.90383 1.907,-1.90383 l 22.52741,0.0898 c 0.60229,0.002 1.09208,0.48896 1.09208,1.08962 v 17.71167 z"
       id="path2-3-3-3"
       sodipodi:nodetypes="scscsscssssssssscsssssscsccccccsccccsscc"
       style="fill:url(#linearGradient1482);fill-opacity:1;stroke-width:0.317569" />
  </g>
</svg>
