<?xml version="1.0" encoding="UTF-8" standalone="no"?>
<svg
   width="32"
   version="1.1"
   height="32"
   viewBox="0 0 32 32"
   id="svg15"
   sodipodi:docname="folder-Reddit.svg"
   inkscape:version="1.1.1 (3bf5ae0d25, 2021-09-20)"
   xmlns:inkscape="http://www.inkscape.org/namespaces/inkscape"
   xmlns:sodipodi="http://sodipodi.sourceforge.net/DTD/sodipodi-0.dtd"
   xmlns:xlink="http://www.w3.org/1999/xlink"
   xmlns="http://www.w3.org/2000/svg"
   xmlns:svg="http://www.w3.org/2000/svg"
   xmlns:rdf="http://www.w3.org/1999/02/22-rdf-syntax-ns#"
   xmlns:cc="http://creativecommons.org/ns#"
   xmlns:dc="http://purl.org/dc/elements/1.1/">
  <sodipodi:namedview
     pagecolor="#ffffff"
     bordercolor="#666666"
     borderopacity="1"
     objecttolerance="10"
     gridtolerance="10"
     guidetolerance="10"
     inkscape:pageopacity="0"
     inkscape:pageshadow="2"
     inkscape:window-width="1920"
     inkscape:window-height="1007"
     id="namedview17"
     showgrid="true"
     inkscape:zoom="9.8125"
     inkscape:cx="-18.853503"
     inkscape:cy="8.6624204"
     inkscape:window-x="0"
     inkscape:window-y="0"
     inkscape:window-maximized="1"
     inkscape:current-layer="layer1"
     inkscape:document-rotation="0"
     inkscape:pagecheckerboard="0">
    <inkscape:grid
       type="xygrid"
       id="grid847" />
  </sodipodi:namedview>
  <defs
     id="defs5455">
    <linearGradient
       inkscape:collect="always"
       xlink:href="#linearGradient887"
       id="linearGradient889"
       x1="419.3212"
       y1="522.77997"
       x2="435.82025"
       y2="522.77997"
       gradientUnits="userSpaceOnUse"
       gradientTransform="matrix(0.5,0,0,0.5,192.28571,273.899)" />
    <linearGradient
       inkscape:collect="always"
       id="linearGradient887">
      <stop
         style="stop-color:#ff2020;stop-opacity:1"
         offset="0"
         id="stop883" />
      <stop
         style="stop-color:#ffb584;stop-opacity:1"
         offset="1"
         id="stop885" />
    </linearGradient>
    <linearGradient
       inkscape:collect="always"
       xlink:href="#linearGradient991"
       id="linearGradient1482"
       x1="386.57144"
       y1="516.39801"
       x2="446.62146"
       y2="516.39801"
       gradientUnits="userSpaceOnUse"
       gradientTransform="matrix(0.5008323,0,0,0.5,191.96397,273.599)" />
    <linearGradient
       inkscape:collect="always"
       id="linearGradient991">
      <stop
         style="stop-color:#cccccc;stop-opacity:1"
         offset="0"
         id="stop987" />
      <stop
         style="stop-color:#cccccc;stop-opacity:1"
         offset="0.03132199"
         id="stop1929" />
      <stop
         style="stop-color:#0069a6;stop-opacity:1"
         offset="0.05527586"
         id="stop1263" />
      <stop
         style="stop-color:#0069a6;stop-opacity:1"
         offset="0.10902679"
         id="stop1027" />
      <stop
         style="stop-color:#cccccc;stop-opacity:1"
         offset="1"
         id="stop989" />
    </linearGradient>
  </defs>
  <metadata
     id="metadata5458">
    <rdf:RDF>
      <cc:Work
         rdf:about="">
        <dc:format>image/svg+xml</dc:format>
        <dc:type
           rdf:resource="http://purl.org/dc/dcmitype/StillImage" />
      </cc:Work>
    </rdf:RDF>
  </metadata>
  <g
     inkscape:label="Capa 1"
     inkscape:groupmode="layer"
     id="layer1"
     transform="translate(-384.57143,-515.798)">
    <path
       class="st1"
       d="m 406.07108,530.04865 c -2.90608,0 -5.2497,2.34362 -5.2497,5.2497 0,2.90608 2.34362,5.24969 5.2497,5.24969 2.90608,0 5.2497,-2.34361 5.2497,-5.24969 h 0.37497 c 0,2.17487 -0.78745,4.08726 -2.5311,5.1372 -0.89995,0.54372 -1.96864,0.86245 -3.09357,0.86245 -3.31856,0 -5.99965,-2.6811 -5.99965,-5.99965 0,-2.24987 1.25617,-4.2185 3.09357,-5.24969 0.86245,-0.46873 1.85614,-0.37499 2.90608,-0.37499 z"
       id="path6"
       sodipodi:nodetypes="csscccssccc"
       style="clip-rule:evenodd;fill:#33b4ff;fill-opacity:1;fill-rule:evenodd;stroke-width:0.187489" />
    <path
       class="st2"
       d="m 403.07125,530.1049 c 1.36868,-0.8062 3.01858,-1.01244 4.55599,-0.59996 1.53741,0.41247 2.84984,1.42492 3.63728,2.79359 0.78746,1.36867 1.01245,3.01857 0.59997,4.55598 -0.41248,1.53741 -1.42492,2.84983 -2.79359,3.63729 l -0.37498,-0.65621 c 1.19993,-0.69371 2.08114,-1.8374 2.43736,-3.18732 0.35623,-1.34992 0.1875,-2.77484 -0.52497,-3.97477 -0.69371,-1.19993 -1.83739,-2.08112 -3.18731,-2.43735 -1.33117,-0.37498 -2.77484,-0.18749 -3.97477,0.52497 z"
       id="path8"
       style="clip-rule:evenodd;fill:#f0f0f0;fill-opacity:1;fill-rule:evenodd;stroke-width:0.187489" />
    <path
       class="st3"
       d="m 404.62742,537.49197 c 0.0937,-0.13124 0.26248,-0.16874 0.39372,-0.075 0.24373,0.16874 0.58121,0.31873 1.06869,0.31873 0.48747,0 0.8062,-0.16874 1.06868,-0.31873 0.13125,-0.0937 0.29999,-0.0562 0.39373,0.075 0.0937,0.13124 0.0563,0.29998 -0.075,0.39373 -0.33748,0.20623 -0.76871,0.41247 -1.40617,0.41247 -0.63746,0 -1.06869,-0.20624 -1.36867,-0.43122 -0.13124,-0.075 -0.16874,-0.24374 -0.075,-0.37498 z m 2.84983,-0.8812 c 0.35623,0 0.65621,-0.29998 0.65621,-0.65621 0,-0.35623 -0.29998,-0.65621 -0.65621,-0.65621 -0.35623,0 -0.65621,0.29998 -0.65621,0.65621 0,0.35623 0.29998,0.65621 0.65621,0.65621 z m -2.81234,0 c 0.35623,0 0.65622,-0.29998 0.65622,-0.65621 0,-0.35623 -0.29999,-0.65621 -0.65622,-0.65621 -0.35622,0 -0.65621,0.29998 -0.65621,0.65621 0,0.35623 0.29999,0.65621 0.65621,0.65621 z m 1.85615,-5.0622 c -0.0937,-0.0188 -0.20625,0 -0.28124,0.0562 -0.075,0.0563 -0.13124,0.14999 -0.14999,0.24374 l -0.35623,1.94988 c -0.97495,0.0562 -1.85614,0.39373 -2.47486,0.8812 -0.13124,-0.0937 -0.29998,-0.13124 -0.46872,-0.13124 -0.46872,0 -0.8437,0.37498 -0.8437,0.8437 0,0.29998 0.16874,0.56247 0.39373,0.71246 -0.0188,0.11249 -0.0188,0.20624 -0.0188,0.31873 0,1.44367 1.6874,2.62485 3.74978,2.62485 2.06238,0 3.74978,-1.18118 3.74978,-2.62485 0,-0.11249 0,-0.20624 -0.0187,-0.31873 0.24373,-0.14999 0.39373,-0.41248 0.39373,-0.71246 0,-0.46872 -0.37498,-0.8437 -0.8437,-0.8437 -0.16875,0 -0.33748,0.0563 -0.46873,0.13124 -0.59996,-0.48747 -1.44366,-0.8062 -2.39986,-0.8812 l 0.26249,-1.44366 0.86245,0.16874 c 0.0937,0.29998 0.37498,0.50622 0.71246,0.50622 0.41247,0 0.74995,-0.33748 0.74995,-0.74996 0,-0.41247 -0.33748,-0.74995 -0.74995,-0.74995 -0.22499,0 -0.43123,0.0937 -0.56247,0.26248 z"
       id="path10"
       style="clip-rule:evenodd;fill:url(#linearGradient889);fill-opacity:1;fill-rule:evenodd;stroke-width:0.187489" />
    <path
       d="m 413.60085,523.00324 h -1.59966 v -0.5905 c 0,-1.02553 -0.45004,-1.53099 -0.82764,-1.77469 -0.40491,-0.26114 -0.80252,-0.27447 -0.87848,-0.27447 h -14.05429 c -0.30099,0 -0.58386,-0.3173 -0.88326,-0.65333 -0.38108,-0.42773 -0.81302,-0.91225 -1.46871,-0.91225 H 387.617 c -1.16613,0 -2.04557,0.87766 -2.04557,2.04154 v 21.91691 c 0,1.1258 0.91758,2.04155 2.04557,2.04155 h 25.98385 c 1.12799,0 2.04558,-0.91575 2.04558,-2.04155 v -17.71166 c 0,-1.1258 -0.91759,-2.04155 -2.04558,-2.04155 z m 1.09208,19.75321 c 0,0.60098 -0.48979,1.08964 -1.09208,1.08964 H 387.617 c -0.60229,0 -1.09207,-0.48866 -1.09207,-1.08964 v -21.9169 c 0,-0.64128 0.4491,-1.08964 1.09207,-1.08964 h 6.27181 c 0.22789,0 0.4847,0.28812 0.75645,0.59305 0.38617,0.43312 0.86673,0.97223 1.59552,0.97223 h 14.04856 c 0.14398,0.004 0.5524,0.0666 0.70241,0.62127 h -21.88057 c -1.21576,0.0251 -1.85142,0.65969 -1.85142,1.9289 l 0.0559,17.4518 h 0.57972 c 0,0 -0.1203,0.001 4.9e-4,0.001 0.18752,0 0.48358,0.0367 0.76009,-0.17942 0.49678,-0.38902 0.51776,-0.89322 0.51331,-1.03125 l -0.002,-14.3384 c 0,-1.90384 0,-1.90384 1.907,-1.90384 l 22.52741,0.0898 c 0.60229,0.002 1.09208,0.48896 1.09208,1.08962 v 17.71166 z"
       id="path2-3-3"
       sodipodi:nodetypes="scscsscssssssssscsssssscsccccccsccccsscc"
       style="fill:url(#linearGradient1482);fill-opacity:1;stroke-width:0.317569" />
  </g>
</svg>
