<?xml version="1.0" encoding="UTF-8" standalone="no"?>
<svg
   width="32"
   version="1.1"
   height="32"
   viewBox="0 0 32 32"
   id="svg15"
   sodipodi:docname="folder-mac.svg"
   inkscape:version="1.1.1 (3bf5ae0d25, 2021-09-20)"
   xmlns:inkscape="http://www.inkscape.org/namespaces/inkscape"
   xmlns:sodipodi="http://sodipodi.sourceforge.net/DTD/sodipodi-0.dtd"
   xmlns:xlink="http://www.w3.org/1999/xlink"
   xmlns="http://www.w3.org/2000/svg"
   xmlns:svg="http://www.w3.org/2000/svg"
   xmlns:rdf="http://www.w3.org/1999/02/22-rdf-syntax-ns#"
   xmlns:cc="http://creativecommons.org/ns#"
   xmlns:dc="http://purl.org/dc/elements/1.1/">
  <sodipodi:namedview
     pagecolor="#ffffff"
     bordercolor="#666666"
     borderopacity="1"
     objecttolerance="10"
     gridtolerance="10"
     guidetolerance="10"
     inkscape:pageopacity="0"
     inkscape:pageshadow="2"
     inkscape:window-width="1920"
     inkscape:window-height="1007"
     id="namedview17"
     showgrid="true"
     inkscape:zoom="9.8125"
     inkscape:cx="1.4267516"
     inkscape:cy="18.089172"
     inkscape:window-x="0"
     inkscape:window-y="0"
     inkscape:window-maximized="1"
     inkscape:current-layer="g4"
     inkscape:pagecheckerboard="0">
    <inkscape:grid
       type="xygrid"
       id="grid862" />
  </sodipodi:namedview>
  <defs
     id="defs5455">
    <linearGradient
       inkscape:collect="always"
       id="linearGradient991">
      <stop
         style="stop-color:#cccccc;stop-opacity:1"
         offset="0"
         id="stop987" />
      <stop
         style="stop-color:#cccccc;stop-opacity:1"
         offset="0.03132199"
         id="stop1929" />
      <stop
         style="stop-color:#0069a6;stop-opacity:1"
         offset="0.05527586"
         id="stop1263" />
      <stop
         style="stop-color:#0069a6;stop-opacity:1"
         offset="0.10902679"
         id="stop1027" />
      <stop
         style="stop-color:#cccccc;stop-opacity:1"
         offset="1"
         id="stop989" />
    </linearGradient>
    <linearGradient
       inkscape:collect="always"
       xlink:href="#linearGradient991"
       id="linearGradient1482-3"
       x1="386.57144"
       y1="516.39801"
       x2="446.62146"
       y2="516.39801"
       gradientUnits="userSpaceOnUse"
       gradientTransform="matrix(1.3906654,0,0,1.3461633,-466.08393,329.31684)" />
    <linearGradient
       inkscape:collect="always"
       xlink:href="#linearGradient1050"
       id="linearGradient914"
       x1="5"
       y1="34.25"
       x2="54"
       y2="34.25"
       gradientUnits="userSpaceOnUse" />
    <linearGradient
       inkscape:collect="always"
       id="linearGradient1050">
      <stop
         style="stop-color:#ff5555;stop-opacity:1"
         offset="0"
         id="stop1046" />
      <stop
         style="stop-color:#ffccaa;stop-opacity:1"
         offset="1"
         id="stop1048" />
    </linearGradient>
    <linearGradient
       inkscape:collect="always"
       xlink:href="#linearGradient1050"
       id="linearGradient916"
       x1="419.57144"
       y1="521.79797"
       x2="440.60892"
       y2="521.79797"
       gradientUnits="userSpaceOnUse"
       gradientTransform="matrix(1.3883544,0,0,1.3461633,-465.19053,330.12454)" />
  </defs>
  <metadata
     id="metadata5458">
    <rdf:RDF>
      <cc:Work
         rdf:about="">
        <dc:format>image/svg+xml</dc:format>
        <dc:type
           rdf:resource="http://purl.org/dc/dcmitype/StillImage" />
      </cc:Work>
    </rdf:RDF>
  </metadata>
  <g
     inkscape:label="Capa 1"
     inkscape:groupmode="layer"
     id="layer1"
     transform="translate(-384.57143,-515.798)">
    <g
       transform="matrix(0.36013848,0,0,0.37142583,359.81878,151.2823)"
       id="g4">
      <path
         d="m 149.33716,1000.7947 h -4.44177 v -1.58997 c 0,-2.76108 -1.24966,-4.12196 -2.29812,-4.77805 -1.12433,-0.70309 -2.22838,-0.73896 -2.43931,-0.73896 h -39.02464 c -0.83576,0 -1.621204,-0.85429 -2.452551,-1.75898 -1.058162,-1.15159 -2.25752,-2.45609 -4.07818,-2.45609 H 77.187598 c -3.238003,0 -5.679966,2.36296 -5.679966,5.49651 v 59.00764 c 0,3.031 2.547867,5.4965 5.679966,5.4965 h 72.149562 c 3.13212,0 5.67998,-2.4655 5.67998,-5.4965 v -47.6856 c 0,-3.031 -2.54786,-5.4965 -5.67998,-5.4965 z m 3.03239,53.1821 c 0,1.618 -1.35999,2.9336 -3.03239,2.9336 H 77.187598 c -1.672384,0 -3.032374,-1.3156 -3.032374,-2.9336 v -59.00764 c 0,-1.72653 1.24702,-2.93364 3.032374,-2.93364 h 17.414991 c 0.632771,0 1.345871,0.7757 2.100428,1.59667 1.072267,1.1661 2.406656,2.61755 4.430303,2.61755 h 39.00874 c 0.3998,0.0108 1.53386,0.17939 1.95041,1.67272 H 81.336488 c -3.375798,0.067 -5.140855,1.77614 -5.140855,5.19334 l 0.155329,46.9859 h 1.609728 c 0,0 -0.334038,0.01 0.0014,0.01 0.520689,0 1.342761,0.099 2.110563,-0.483 1.379399,-1.0474 1.437641,-2.4048 1.425298,-2.7765 l -0.0069,-38.6037 c 0,-5.1257 0,-5.1257 5.295184,-5.1257 l 62.552055,0.2418 c 1.67237,0.01 3.03237,1.3164 3.03237,2.9336 v 47.6856 z"
         id="path2-3-3-6"
         sodipodi:nodetypes="scscsscssssssssscsssssscsccccccsccccsscc"
         style="fill:url(#linearGradient1482-3);fill-opacity:1;stroke-width:0.868295" />
      <polygon
         class="st0"
         points="10,49 5,36 12,19.5 54,19.5 48,49 "
         id="polygon4"
         transform="matrix(0.5206329,0,0,0.50481123,115.24079,1016.3961)"
         style="fill:url(#linearGradient914);fill-opacity:1" />
      <path
         class="st1"
         d="m 143.8756,1025.9875 c -1.97841,-1.3125 -4.06094,-1.5145 -4.89395,-1.5145 -1.61396,0 -2.91554,0.5049 -4.06094,0.9087 -0.93714,0.3029 -1.71809,0.6058 -2.49903,0.6058 -0.78095,0 -1.50984,-0.3029 -2.34285,-0.6563 -1.04127,-0.4038 -2.18666,-0.8582 -3.59237,-0.8582 -1.66602,0 -9.16314,0.7573 -9.16314,9.7934 0,7.2188 6.19553,14.4376 9.05901,14.4376 1.1454,0 2.1346,-0.3029 3.1238,-0.6563 0.9892,-0.3028 1.97841,-0.6562 3.1238,-0.6562 1.14539,0 2.13459,0.3029 3.1238,0.6562 0.9892,0.3534 1.9784,0.6563 3.12379,0.6563 1.77015,0 4.78983,-2.8269 6.82029,-6.7645 0.15619,-0.3533 0.36445,-0.7067 0.52064,-1.0601 0.10412,-0.2524 0.20825,-0.5048 0.31238,-0.8077 -2.75936,-1.1106 -4.16507,-3.5841 -4.16507,-6.5625 0,-1.8678 0.46857,-3.5337 1.5619,-4.8462 0.41651,-0.5048 0.93714,-0.9592 1.5619,-1.3125 -0.52063,-0.5048 -1.09333,-1.0097 -1.61396,-1.363 z m -3.64443,7.5722 c 0,2.7764 -2.81142,5.149 -6.92442,6.3101 -1.40571,0.4543 -3.38411,0.7572 -5.57077,0.7572 -3.69649,0 -6.82029,-0.8077 -7.49711,-1.8678 -0.52064,-1.4639 -0.83302,-2.9784 -0.83302,-4.4928 0,-3.8871 1.5619,-5.6539 3.01967,-6.613 1.61397,-1.0097 3.43618,-1.1611 4.113,-1.1611 0.83302,0 1.5619,0.2524 2.49904,0.6058 0.10413,0.05 0.15619,0.05 0.26032,0.1009 0.72888,0.3029 1.92634,0.8077 3.1238,0.8077 0.72888,0 1.4057,-0.1514 1.9784,-0.3533 0.41651,-0.101 0.83301,-0.3029 1.24952,-0.4544 0.10413,-0.051 0.26032,-0.1009 0.36444,-0.1009 0.98921,-0.3534 1.92634,-0.6563 2.96761,-0.6563 0.5727,0 1.9784,0.1515 3.33205,0.9087 -1.50984,1.8173 -2.08253,4.0385 -2.08253,6.2092 z m -8.33013,-10.0963 c 0,-3.887 3.22793,-7.0169 7.2368,-7.0673 0.0521,0.3533 0.0521,0.6562 0.0521,1.0096 0,3.887 -3.22792,7.0169 -7.23679,7.0673 -0.0521,-0.3533 -0.0521,-0.6562 -0.0521,-1.0096 z"
         id="path6"
         style="clip-rule:evenodd;fill:url(#linearGradient916);fill-opacity:1;fill-rule:evenodd;stroke-width:0.51266" />
    </g>
  </g>
</svg>
