<?xml version="1.0" encoding="UTF-8" standalone="no"?>
<svg
   width="32"
   version="1.1"
   height="32"
   viewBox="0 0 32 32"
   id="svg15"
   sodipodi:docname="folder-android.svg"
   inkscape:version="1.1.1 (3bf5ae0d25, 2021-09-20)"
   xmlns:inkscape="http://www.inkscape.org/namespaces/inkscape"
   xmlns:sodipodi="http://sodipodi.sourceforge.net/DTD/sodipodi-0.dtd"
   xmlns:xlink="http://www.w3.org/1999/xlink"
   xmlns="http://www.w3.org/2000/svg"
   xmlns:svg="http://www.w3.org/2000/svg"
   xmlns:rdf="http://www.w3.org/1999/02/22-rdf-syntax-ns#"
   xmlns:cc="http://creativecommons.org/ns#"
   xmlns:dc="http://purl.org/dc/elements/1.1/">
  <sodipodi:namedview
     pagecolor="#ffffff"
     bordercolor="#666666"
     borderopacity="1"
     objecttolerance="10"
     gridtolerance="10"
     guidetolerance="10"
     inkscape:pageopacity="0"
     inkscape:pageshadow="2"
     inkscape:window-width="1920"
     inkscape:window-height="1007"
     id="namedview17"
     showgrid="true"
     inkscape:zoom="6.9384853"
     inkscape:cx="-17.006594"
     inkscape:cy="14.196182"
     inkscape:window-x="0"
     inkscape:window-y="0"
     inkscape:window-maximized="1"
     inkscape:current-layer="g4"
     inkscape:pagecheckerboard="0">
    <inkscape:grid
       type="xygrid"
       id="grid862" />
  </sodipodi:namedview>
  <defs
     id="defs5455">
    <linearGradient
       inkscape:collect="always"
       id="linearGradient991">
      <stop
         style="stop-color:#cccccc;stop-opacity:1"
         offset="0"
         id="stop987" />
      <stop
         style="stop-color:#cccccc;stop-opacity:1"
         offset="0.03132199"
         id="stop1929" />
      <stop
         style="stop-color:#0069a6;stop-opacity:1"
         offset="0.05527586"
         id="stop1263" />
      <stop
         style="stop-color:#0069a6;stop-opacity:1"
         offset="0.10902679"
         id="stop1027" />
      <stop
         style="stop-color:#cccccc;stop-opacity:1"
         offset="1"
         id="stop989" />
    </linearGradient>
    <linearGradient
       inkscape:collect="always"
       xlink:href="#linearGradient991"
       id="linearGradient1482-3"
       x1="386.57144"
       y1="516.39801"
       x2="446.62146"
       y2="516.39801"
       gradientUnits="userSpaceOnUse"
       gradientTransform="matrix(1.3906659,0,0,1.3461638,-466.08409,329.3166)" />
  </defs>
  <metadata
     id="metadata5458">
    <rdf:RDF>
      <cc:Work
         rdf:about="">
        <dc:format>image/svg+xml</dc:format>
        <dc:type
           rdf:resource="http://purl.org/dc/dcmitype/StillImage" />
      </cc:Work>
    </rdf:RDF>
  </metadata>
  <g
     inkscape:label="Capa 1"
     inkscape:groupmode="layer"
     id="layer1"
     transform="translate(-384.57143,-515.798)">
    <g
       transform="matrix(0.36013848,0,0,0.37142583,359.81878,151.2823)"
       id="g4">
      <path
         d="m 149.3372,1000.7944 h -4.44178 v -1.58968 c 0,-2.76106 -1.24966,-4.12194 -2.29812,-4.77803 -1.12433,-0.70309 -2.22838,-0.73897 -2.43931,-0.73897 h -39.02466 c -0.83576,0 -1.621212,-0.85429 -2.452553,-1.75898 -1.058162,-1.15159 -2.25752,-2.45609 -4.078181,-2.45609 H 77.187602 c -3.238,0 -5.67997,2.36297 -5.67997,5.49651 v 59.00724 c 0,3.031 2.54787,5.4965 5.67997,5.4965 H 149.3372 c 3.13211,0 5.67998,-2.4655 5.67998,-5.4965 v -47.6856 c 0,-3.031 -2.54787,-5.4964 -5.67998,-5.4964 z m 3.03239,53.182 c 0,1.6181 -1.36,2.9337 -3.03239,2.9337 H 77.187602 c -1.67238,0 -3.03238,-1.3156 -3.03238,-2.9337 v -59.00724 c 0,-1.72652 1.24703,-2.93364 3.03238,-2.93364 h 17.414994 c 0.632771,0 1.345871,0.7757 2.100428,1.59667 1.072268,1.1661 2.406656,2.61755 4.430306,2.61755 h 39.00876 c 0.3998,0.0108 1.53386,0.17939 1.95041,1.67269 H 81.336492 c -3.3758,0.0674 -5.14086,1.77608 -5.14086,5.19297 l 0.15533,46.986 h 1.60973 c 0,0 -0.33404,0.01 0.002,0.01 0.52069,0 1.34276,0.099 2.11057,-0.4831 1.3794,-1.0474 1.43764,-2.4048 1.4253,-2.7764 l -0.007,-38.6037 c 0,-5.1258 0,-5.1258 5.29518,-5.1258 l 62.552078,0.2418 c 1.67237,0.01 3.03238,1.3164 3.03238,2.9336 v 47.6856 z"
         id="path2-3-3-6"
         sodipodi:nodetypes="scscsscssssssssscsssssscsccccccsccccsscc"
         style="fill:url(#linearGradient1482-3);fill-opacity:1;stroke-width:0.868295" />
      <path
         class="st0"
         d="m 136.58677,1041.4317 c 0.88507,0 1.5619,-0.7878 1.5619,-1.818 0,-1.0302 -0.67683,-1.818 -1.5619,-1.818 -0.88508,0 -1.5619,0.7878 -1.5619,1.818 0,1.0302 0.67682,1.818 1.5619,1.818 z m -13.53646,0 c 0.88507,0 1.5619,-0.7878 1.5619,-1.818 0,-1.0302 -0.67683,-1.818 -1.5619,-1.818 -0.88508,0 -1.5619,0.7878 -1.5619,1.818 0,1.0302 0.67682,1.818 1.5619,1.818 z m 22.38722,6.06 c -0.52063,-9.4536 -7.34093,-16.9679 -15.61899,-16.9679 -8.27807,0 -15.09836,7.5143 -15.61899,16.9679 z"
         id="path4"
         style="clip-rule:evenodd;fill:#a1cd32;fill-opacity:1;fill-rule:evenodd;stroke-width:0.561695" />
      <path
         class="st1"
         d="m 117.89604,1024.6455 c 0.52063,-0.3635 1.14539,-0.1211 1.40571,0.4242 l 3.22792,6.2418 1.1454,1.9999 -0.98921,0.6667 c -1.9784,1.3332 -3.64443,3.151 -4.94601,5.3326 -0.10413,0.2424 -0.15619,0.4848 -0.15619,0.7272 0,2.1211 3.64443,3.8178 8.17394,3.8178 8.06981,0 14.57773,-2.6664 14.57773,-5.9994 0,-0.909 -0.46857,-1.7573 -1.35365,-2.4845 h 1.87428 l 5.20633,11.5139 h -6.76823 v 1.8179 h -26.13578 l 0.0521,-1.2725 c 0.36444,-6.2418 3.22792,-11.6351 7.44505,-14.9075 l -3.12381,-6.2415 c -0.2603,-0.5454 -0.10413,-1.3336 0.36446,-1.6366 z"
         id="path6"
         style="fill:#f0f0f0;fill-opacity:1;stroke-width:0.561695" />
      <path
         class="st2"
         d="m 138.0966,1048.7036 h 8.3822 l -0.0521,-1.2725 c -0.36445,-6.2418 -3.22793,-11.6351 -7.44506,-14.9075 l 3.1238,-6.2415 c 0.31238,-0.606 0.10413,-1.3336 -0.36444,-1.6366 -0.46854,-0.3029 -1.14539,-0.1818 -1.45776,0.4242 l -3.17588,6.2418 c -2.18666,-1.2725 -4.68569,-1.9997 -7.34092,-1.9997 -2.65523,0 -5.15427,0.7272 -7.39299,1.9997 l 1.04126,2.0605 v 0.062 c 1.92635,-1.0907 4.06094,-1.6967 6.35173,-1.6967 7.34092,0 13.43233,6.3023 14.42153,14.5437 h -6.09142 z"
         id="path8"
         style="fill:#2ca05a;fill-opacity:1;stroke-width:0.561695" />
      <path
         class="fil1"
         d="m 123.19724,1036.6312 c 1.46749,0 2.58968,1.1718 2.58968,2.511 0,1.4229 -1.12219,2.511 -2.58968,2.511 -1.46748,0 -2.58967,-1.1718 -2.58967,-2.511 0,-1.4229 1.12219,-2.511 2.58967,-2.511 z m 1.5538,1.8414 c 0.3453,0 0.69058,0.2511 0.69058,0.6696 0,0.3348 -0.25895,0.6696 -0.69058,0.6696 -0.34528,0 -0.69057,-0.2511 -0.69057,-0.6696 0,-0.3348 0.25896,-0.6696 0.69057,-0.6696 z"
         id="path12"
         style="fill:#263740;fill-opacity:1;stroke-width:0.085001;image-rendering:optimizeQuality;shape-rendering:geometricPrecision;text-rendering:geometricPrecision" />
      <path
         class="fil1"
         d="m 135.69243,1036.4966 c 1.46749,0 2.58969,1.1718 2.58969,2.511 0,1.4229 -1.1222,2.511 -2.58969,2.511 -1.46748,0 -2.58967,-1.1718 -2.58967,-2.511 0,-1.4229 1.12219,-2.511 2.58967,-2.511 z m 1.55381,1.8414 c 0.34529,0 0.69058,0.2511 0.69058,0.6696 0,0.3348 -0.25896,0.6696 -0.69058,0.6696 -0.34529,0 -0.69057,-0.2511 -0.69057,-0.6696 0,-0.3348 0.25895,-0.6696 0.69057,-0.6696 z"
         id="path12-3"
         style="fill:#263740;fill-opacity:1;stroke-width:0.085001;image-rendering:optimizeQuality;shape-rendering:geometricPrecision;text-rendering:geometricPrecision" />
    </g>
  </g>
</svg>
