<?xml version="1.0" encoding="UTF-8" standalone="no"?>
<svg
   width="32"
   version="1.1"
   height="32"
   viewBox="0 0 32 32"
   id="svg17"
   sodipodi:docname="folder-network.svg"
   inkscape:version="1.1.1 (3bf5ae0d25, 2021-09-20)"
   xmlns:inkscape="http://www.inkscape.org/namespaces/inkscape"
   xmlns:sodipodi="http://sodipodi.sourceforge.net/DTD/sodipodi-0.dtd"
   xmlns:xlink="http://www.w3.org/1999/xlink"
   xmlns="http://www.w3.org/2000/svg"
   xmlns:svg="http://www.w3.org/2000/svg"
   xmlns:rdf="http://www.w3.org/1999/02/22-rdf-syntax-ns#"
   xmlns:cc="http://creativecommons.org/ns#"
   xmlns:dc="http://purl.org/dc/elements/1.1/">
  <sodipodi:namedview
     pagecolor="#ffffff"
     bordercolor="#666666"
     borderopacity="1"
     objecttolerance="10"
     gridtolerance="10"
     guidetolerance="10"
     inkscape:pageopacity="0"
     inkscape:pageshadow="2"
     inkscape:window-width="1920"
     inkscape:window-height="1007"
     id="namedview19"
     showgrid="false"
     inkscape:zoom="9.8125"
     inkscape:cx="-20.993631"
     inkscape:cy="5.6050955"
     inkscape:window-x="0"
     inkscape:window-y="0"
     inkscape:window-maximized="1"
     inkscape:current-layer="layer1"
     inkscape:pagecheckerboard="0" />
  <defs
     id="defs5455">
    <linearGradient
       inkscape:collect="always"
       xlink:href="#linearGradient1011"
       id="linearGradient1013"
       x1="418.57144"
       y1="522.79797"
       x2="439.57144"
       y2="522.79797"
       gradientUnits="userSpaceOnUse"
       gradientTransform="matrix(0.5,0,0,0.5,192.28571,273.899)" />
    <linearGradient
       inkscape:collect="always"
       id="linearGradient1011">
      <stop
         style="stop-color:#2ad4ff;stop-opacity:1"
         offset="0"
         id="stop1007" />
      <stop
         style="stop-color:#aa87de;stop-opacity:1"
         offset="1"
         id="stop1009" />
    </linearGradient>
    <linearGradient
       inkscape:collect="always"
       xlink:href="#linearGradient991"
       id="linearGradient1482"
       x1="386.57144"
       y1="516.39801"
       x2="446.62146"
       y2="516.39801"
       gradientUnits="userSpaceOnUse"
       gradientTransform="matrix(0.5008323,0,0,0.5,191.96396,273.599)" />
    <linearGradient
       inkscape:collect="always"
       id="linearGradient991">
      <stop
         style="stop-color:#cccccc;stop-opacity:1"
         offset="0"
         id="stop987" />
      <stop
         style="stop-color:#cccccc;stop-opacity:1"
         offset="0.03132199"
         id="stop1929" />
      <stop
         style="stop-color:#0069a6;stop-opacity:1"
         offset="0.05527586"
         id="stop1263" />
      <stop
         style="stop-color:#0069a6;stop-opacity:1"
         offset="0.10902679"
         id="stop1027" />
      <stop
         style="stop-color:#cccccc;stop-opacity:1"
         offset="1"
         id="stop989" />
    </linearGradient>
  </defs>
  <metadata
     id="metadata5458">
    <rdf:RDF>
      <cc:Work
         rdf:about="">
        <dc:format>image/svg+xml</dc:format>
        <dc:type
           rdf:resource="http://purl.org/dc/dcmitype/StillImage" />
      </cc:Work>
    </rdf:RDF>
  </metadata>
  <g
     inkscape:label="Capa 1"
     inkscape:groupmode="layer"
     id="layer1"
     transform="translate(-384.57143,-515.798)">
    <path
       id="Share"
       class="st0"
       d="m 412.07143,531.173 c 0,1.03125 -0.84375,1.875 -1.875,1.875 -1.03125,0 -1.875,-0.84375 -1.875,-1.875 0,-1.03125 0.84375,-1.875 1.875,-1.875 1.03125,0 1.875,0.84375 1.875,1.875 z m -6.8625,3.4875 0.69375,-0.4125 -0.39375,-0.6375 -0.69375,0.4125 c -0.3375,-0.375 -0.825,-0.6 -1.36875,-0.6 -1.03125,0 -1.875,0.84375 -1.875,1.875 0,1.03125 0.84375,1.875 1.875,1.875 1.03125,0 1.875,-0.84375 1.875,-1.875 0,-0.225 -0.0375,-0.43125 -0.1125,-0.6375 z m 4.9875,6.6375 c 1.03125,0 1.875,-0.84375 1.875,-1.875 0,-1.03125 -0.84375,-1.875 -1.875,-1.875 -0.54375,0 -1.03125,0.225 -1.36875,0.6 l -0.69375,-0.43125 -0.39375,0.6375 0.69375,0.4125 c -0.075,0.225 -0.1125,0.43125 -0.1125,0.65625 0,1.03125 0.84375,1.875 1.875,1.875 z"
       style="fill:url(#linearGradient1013);fill-opacity:1;stroke-width:0.1875" />
    <path
       id="Share-s"
       class="st1"
       d="m 408.43393,531.8105 v 0 c 0.13125,0.3375 0.3375,0.6375 0.61875,0.84375 0.31875,0.24375 0.73125,0.39375 1.14375,0.39375 v 0.75 c -0.58125,0 -1.14375,-0.1875 -1.59375,-0.54375 -0.15,-0.1125 -0.3,-0.2625 -0.43125,-0.4125 l -2.2875,1.3875 -0.375,-0.61875 z m -0.69375,6.54375 0.39375,-0.6375 -2.925,-1.78125 c 0.075,-0.20625 0.1125,-0.4125 0.1125,-0.6375 0,-0.28125 -0.075,-0.5625 -0.1875,-0.825 -0.075,-0.16875 -0.1875,-0.31875 -0.31875,-0.45 l -0.65625,0.4125 c 0.2625,0.20625 0.4125,0.525 0.4125,0.88125 0,0.35625 -0.16875,0.675 -0.4125,0.88125 z m 1.74375,0.1875 -0.65625,-0.4125 c -0.31875,0.35625 -0.50625,0.80625 -0.50625,1.29375 0,1.03125 0.84375,1.875 1.875,1.875 v -0.75 c -0.61875,0 -1.125,-0.50625 -1.125,-1.125 0,-0.35625 0.16875,-0.675 0.4125,-0.88125 z"
       style="fill:#f2f2f2;fill-opacity:1;stroke-width:0.1875" />
    <path
       d="m 413.60085,523.00324 h -1.59966 v -0.5905 c 0,-1.02553 -0.45005,-1.531 -0.82764,-1.77469 -0.40491,-0.26114 -0.80252,-0.27447 -0.87849,-0.27447 h -14.05428 c -0.30099,0 -0.58385,-0.3173 -0.88326,-0.65333 -0.38108,-0.42773 -0.81302,-0.91225 -1.46871,-0.91225 H 387.617 c -1.16612,0 -2.04557,0.87766 -2.04557,2.04155 v 21.9169 c 0,1.12581 0.91759,2.04155 2.04557,2.04155 h 25.98385 c 1.12799,0 2.04558,-0.91575 2.04558,-2.04155 v -17.71166 c 0,-1.1258 -0.91759,-2.04155 -2.04558,-2.04155 z m 1.09208,19.75321 c 0,0.60098 -0.48979,1.08963 -1.09208,1.08963 H 387.617 c -0.60229,0 -1.09207,-0.48865 -1.09207,-1.08963 v -21.9169 c 0,-0.64128 0.4491,-1.08964 1.09207,-1.08964 h 6.27181 c 0.22789,0 0.48471,0.28812 0.75645,0.59305 0.38617,0.43312 0.86673,0.97223 1.59552,0.97223 h 14.04856 c 0.14398,0.004 0.5524,0.0666 0.70242,0.62127 h -21.88058 c -1.21576,0.0251 -1.85142,0.65968 -1.85142,1.9289 l 0.0559,17.4518 h 0.57972 c 0,0 -0.12029,0.001 4.9e-4,0.001 0.18752,0 0.48358,0.0367 0.7601,-0.17942 0.49677,-0.38902 0.51775,-0.89322 0.5133,-1.03125 l -0.002,-14.3384 c 0,-1.90384 0,-1.90384 1.907,-1.90384 l 22.52741,0.0898 c 0.60229,0.002 1.09208,0.48897 1.09208,1.08963 v 17.71166 z"
       id="path2-3-3-3"
       sodipodi:nodetypes="scscsscssssssssscsssssscsccccccsccccsscc"
       style="fill:url(#linearGradient1482);fill-opacity:1;stroke-width:0.317569" />
  </g>
</svg>
