<?xml version="1.0" encoding="UTF-8" standalone="no"?>
<svg
   width="32"
   version="1.1"
   height="32"
   viewBox="0 0 32 32"
   id="svg15"
   sodipodi:docname="folder-Plasma.svg"
   inkscape:version="1.1.1 (3bf5ae0d25, 2021-09-20)"
   xmlns:inkscape="http://www.inkscape.org/namespaces/inkscape"
   xmlns:sodipodi="http://sodipodi.sourceforge.net/DTD/sodipodi-0.dtd"
   xmlns:xlink="http://www.w3.org/1999/xlink"
   xmlns="http://www.w3.org/2000/svg"
   xmlns:svg="http://www.w3.org/2000/svg"
   xmlns:rdf="http://www.w3.org/1999/02/22-rdf-syntax-ns#"
   xmlns:cc="http://creativecommons.org/ns#"
   xmlns:dc="http://purl.org/dc/elements/1.1/">
  <sodipodi:namedview
     pagecolor="#ffffff"
     bordercolor="#666666"
     borderopacity="1"
     objecttolerance="10"
     gridtolerance="10"
     guidetolerance="10"
     inkscape:pageopacity="0"
     inkscape:pageshadow="2"
     inkscape:window-width="1920"
     inkscape:window-height="1007"
     id="namedview17"
     showgrid="true"
     inkscape:zoom="9.8125"
     inkscape:cx="-8.4585987"
     inkscape:cy="1.7324841"
     inkscape:window-x="0"
     inkscape:window-y="0"
     inkscape:window-maximized="1"
     inkscape:current-layer="g4"
     inkscape:pagecheckerboard="0">
    <inkscape:grid
       type="xygrid"
       id="grid862" />
  </sodipodi:namedview>
  <defs
     id="defs5455">
    <linearGradient
       inkscape:collect="always"
       xlink:href="#linearGradient1444"
       id="linearGradient874-3"
       x1="404.57144"
       y1="520.79797"
       x2="428.57144"
       y2="520.79797"
       gradientUnits="userSpaceOnUse"
       gradientTransform="matrix(1.3883549,0,0,1.3461638,-449.91879,332.81663)" />
    <linearGradient
       inkscape:collect="always"
       id="linearGradient1444">
      <stop
         style="stop-color:#cccccc;stop-opacity:1"
         offset="0"
         id="stop1434" />
      <stop
         style="stop-color:#cccccc;stop-opacity:1"
         offset="0"
         id="stop1436" />
      <stop
         style="stop-color:#0069a6;stop-opacity:1"
         offset="0"
         id="stop1438" />
      <stop
         style="stop-color:#0069a6;stop-opacity:1"
         offset="0.10902679"
         id="stop1440" />
      <stop
         style="stop-color:#cccccc;stop-opacity:1"
         offset="1"
         id="stop1442" />
    </linearGradient>
    <linearGradient
       inkscape:collect="always"
       xlink:href="#linearGradient991"
       id="linearGradient1482"
       x1="386.57144"
       y1="516.39801"
       x2="446.62146"
       y2="516.39801"
       gradientUnits="userSpaceOnUse"
       gradientTransform="matrix(1.3906659,0,0,1.3461638,-466.08409,329.3166)" />
    <linearGradient
       inkscape:collect="always"
       id="linearGradient991">
      <stop
         style="stop-color:#cccccc;stop-opacity:1"
         offset="0"
         id="stop987" />
      <stop
         style="stop-color:#cccccc;stop-opacity:1"
         offset="0.03132199"
         id="stop1929" />
      <stop
         style="stop-color:#0069a6;stop-opacity:1"
         offset="0.05527586"
         id="stop1263" />
      <stop
         style="stop-color:#0069a6;stop-opacity:1"
         offset="0.10902679"
         id="stop1027" />
      <stop
         style="stop-color:#cccccc;stop-opacity:1"
         offset="1"
         id="stop989" />
    </linearGradient>
  </defs>
  <metadata
     id="metadata5458">
    <rdf:RDF>
      <cc:Work
         rdf:about="">
        <dc:format>image/svg+xml</dc:format>
        <dc:type
           rdf:resource="http://purl.org/dc/dcmitype/StillImage" />
      </cc:Work>
    </rdf:RDF>
  </metadata>
  <g
     inkscape:label="Capa 1"
     inkscape:groupmode="layer"
     id="layer1"
     transform="translate(-384.57143,-515.798)">
    <g
       transform="matrix(0.36013848,0,0,0.37142583,359.81878,151.2823)"
       id="g4">
      <path
         d="m 120.10006,1017.7423 a 2.7767098,2.6923277 0 0 0 -2.77671,2.6923 2.7767098,2.6923277 0 0 0 2.77671,2.6923 2.7767098,2.6923277 0 0 0 2.77671,-2.6923 2.7767098,2.6923277 0 0 0 -2.77671,-2.6923 z m 13.88355,0 -4.16507,4.0385 6.94178,6.7308 -6.94178,6.7308 4.16507,4.0385 11.10683,-10.7693 z m -18.7428,12.1154 a 3.4708872,3.3654096 0 0 0 -3.47088,3.3654 3.4708872,3.3654096 0 0 0 3.47088,3.3654 3.4708872,3.3654096 0 0 0 3.47089,-3.3654 3.4708872,3.3654096 0 0 0 -3.47089,-3.3654 z m 9.02431,12.1155 a 4.1650646,4.0384915 0 0 0 -4.16506,4.0385 4.1650646,4.0384915 0 0 0 4.16506,4.0385 4.1650646,4.0384915 0 0 0 4.16507,-4.0385 4.1650646,4.0384915 0 0 0 -4.16507,-4.0385 z"
         class="ColorScheme-Text"
         id="path3-6"
         style="color:#eff0f1;fill:url(#linearGradient874-3);fill-opacity:1;stroke-width:2.73419" />
      <path
         d="m 149.3372,1000.7947 h -4.44178 v -1.5899 c 0,-2.76114 -1.24966,-4.12202 -2.29811,-4.77811 -1.12434,-0.70309 -2.22838,-0.73897 -2.43932,-0.73897 h -39.02465 c -0.83576,0 -1.621212,-0.85429 -2.452563,-1.75898 -1.058162,-1.15159 -2.25752,-2.45609 -4.07818,-2.45609 H 77.1876 c -3.238004,0 -5.679968,2.36297 -5.679968,5.49651 v 59.00764 c 0,3.031 2.547868,5.4965 5.679968,5.4965 h 72.1496 c 3.13211,0 5.67998,-2.4655 5.67998,-5.4965 v -47.6856 c 0,-3.031 -2.54787,-5.4965 -5.67998,-5.4965 z m 3.03239,53.1821 c 0,1.6181 -1.35999,2.9337 -3.03239,2.9337 H 77.1876 c -1.672384,0 -3.032375,-1.3156 -3.032375,-2.9337 v -59.00764 c 0,-1.72652 1.24702,-2.93364 3.032375,-2.93364 h 17.414997 c 0.63277,0 1.345871,0.7757 2.100428,1.59667 1.072268,1.1661 2.406661,2.61755 4.430315,2.61755 h 39.00876 c 0.39979,0.0108 1.53385,0.17939 1.9504,1.67269 H 81.336491 c -3.375799,0.0674 -5.140856,1.77621 -5.140856,5.19337 l 0.155329,46.986 h 1.609728 c 0,0 -0.334038,0.01 0.0014,0.01 0.520688,0 1.342761,0.099 2.110563,-0.4831 1.3794,-1.0474 1.437641,-2.4048 1.425299,-2.7764 l -0.0069,-38.6037 c 0,-5.1258 0,-5.1258 5.295185,-5.1258 l 62.552081,0.2418 c 1.67237,0.01 3.03238,1.3165 3.03238,2.9336 v 47.6856 z"
         id="path2-3-3"
         sodipodi:nodetypes="scscsscssssssssscsssssscsccccccsccccsscc"
         style="fill:url(#linearGradient1482);fill-opacity:1;stroke-width:0.868295" />
    </g>
  </g>
</svg>
