<?xml version="1.0" encoding="UTF-8" standalone="no"?>
<svg
   width="32"
   version="1.1"
   height="32"
   viewBox="0 0 32 32"
   id="svg15"
   sodipodi:docname="folder-language.svg"
   inkscape:version="1.1.1 (3bf5ae0d25, 2021-09-20)"
   xmlns:inkscape="http://www.inkscape.org/namespaces/inkscape"
   xmlns:sodipodi="http://sodipodi.sourceforge.net/DTD/sodipodi-0.dtd"
   xmlns:xlink="http://www.w3.org/1999/xlink"
   xmlns="http://www.w3.org/2000/svg"
   xmlns:svg="http://www.w3.org/2000/svg"
   xmlns:rdf="http://www.w3.org/1999/02/22-rdf-syntax-ns#"
   xmlns:cc="http://creativecommons.org/ns#"
   xmlns:dc="http://purl.org/dc/elements/1.1/">
  <sodipodi:namedview
     pagecolor="#ffffff"
     bordercolor="#666666"
     borderopacity="1"
     objecttolerance="10"
     gridtolerance="10"
     guidetolerance="10"
     inkscape:pageopacity="0"
     inkscape:pageshadow="2"
     inkscape:window-width="1920"
     inkscape:window-height="1007"
     id="namedview17"
     showgrid="true"
     inkscape:zoom="9.8125"
     inkscape:cx="1.4267516"
     inkscape:cy="-6.3694268"
     inkscape:window-x="0"
     inkscape:window-y="0"
     inkscape:window-maximized="1"
     inkscape:current-layer="g4"
     inkscape:pagecheckerboard="0">
    <inkscape:grid
       type="xygrid"
       id="grid862" />
  </sodipodi:namedview>
  <defs
     id="defs5455">
    <linearGradient
       inkscape:collect="always"
       id="linearGradient991">
      <stop
         style="stop-color:#cccccc;stop-opacity:1"
         offset="0"
         id="stop987" />
      <stop
         style="stop-color:#cccccc;stop-opacity:1"
         offset="0.03132199"
         id="stop1929" />
      <stop
         style="stop-color:#0069a6;stop-opacity:1"
         offset="0.05527586"
         id="stop1263" />
      <stop
         style="stop-color:#0069a6;stop-opacity:1"
         offset="0.10902679"
         id="stop1027" />
      <stop
         style="stop-color:#cccccc;stop-opacity:1"
         offset="1"
         id="stop989" />
    </linearGradient>
    <linearGradient
       inkscape:collect="always"
       xlink:href="#linearGradient991"
       id="linearGradient1482-3"
       x1="386.57144"
       y1="516.39801"
       x2="446.62146"
       y2="516.39801"
       gradientUnits="userSpaceOnUse"
       gradientTransform="matrix(1.3906659,0,0,1.3461638,-466.08412,329.3166)" />
    <linearGradient
       inkscape:collect="always"
       xlink:href="#linearGradient1027"
       id="linearGradient1029"
       x1="415.57144"
       y1="522.54797"
       x2="440.32187"
       y2="522.54797"
       gradientUnits="userSpaceOnUse"
       gradientTransform="matrix(1.3883549,0,0,1.3461638,-465.19072,330.1243)" />
    <linearGradient
       inkscape:collect="always"
       id="linearGradient1027">
      <stop
         style="stop-color:#ff8aff;stop-opacity:1"
         offset="0"
         id="stop1023" />
      <stop
         style="stop-color:#ffccaa;stop-opacity:1"
         offset="1"
         id="stop1025" />
    </linearGradient>
  </defs>
  <metadata
     id="metadata5458">
    <rdf:RDF>
      <cc:Work
         rdf:about="">
        <dc:format>image/svg+xml</dc:format>
        <dc:type
           rdf:resource="http://purl.org/dc/dcmitype/StillImage" />
      </cc:Work>
    </rdf:RDF>
  </metadata>
  <g
     inkscape:label="Capa 1"
     inkscape:groupmode="layer"
     id="layer1"
     transform="translate(-384.57143,-515.798)">
    <g
       transform="matrix(0.36013848,0,0,0.37142583,359.81878,151.2823)"
       id="g4">
      <path
         d="m 149.33719,1000.7948 h -4.44178 v -1.59002 c 0,-2.76112 -1.24966,-4.122 -2.29811,-4.77809 -1.12434,-0.70309 -2.22838,-0.73897 -2.43932,-0.73897 h -39.02465 c -0.83576,0 -1.621204,-0.85429 -2.452551,-1.75898 -1.058163,-1.15159 -2.257521,-2.45609 -4.078181,-2.45609 H 77.1876 c -3.238004,0 -5.679968,2.36297 -5.679968,5.49651 v 59.00774 c 0,3.031 2.547868,5.4965 5.679968,5.4965 h 72.14959 c 3.13212,0 5.67999,-2.4655 5.67999,-5.4965 v -47.6856 c 0,-3.031 -2.54787,-5.4965 -5.67999,-5.4965 z m 3.03239,53.1821 c 0,1.618 -1.35999,2.9336 -3.03239,2.9336 H 77.1876 c -1.672384,0 -3.032375,-1.3156 -3.032375,-2.9336 v -59.00774 c 0,-1.72652 1.24702,-2.93364 3.032375,-2.93364 h 17.414998 c 0.63277,0 1.345871,0.7757 2.100428,1.59667 1.072268,1.1661 2.406657,2.61755 4.430304,2.61755 h 39.00876 c 0.39979,0.0108 1.53385,0.17939 1.9504,1.67273 H 81.336492 c -3.375799,0.067 -5.140857,1.77617 -5.140857,5.19343 l 0.155329,46.9859 h 1.609729 c 0,0 -0.334038,0 0.0013,0 0.520688,0 1.342761,0.099 2.110563,-0.483 1.3794,-1.0474 1.437641,-2.4049 1.425299,-2.7765 l -0.0069,-38.6037 c 0,-5.1257 0,-5.1257 5.295185,-5.1257 l 62.55208,0.2418 c 1.67237,0.01 3.03237,1.3164 3.03237,2.9336 v 47.6856 z"
         id="path2-3-3-6"
         sodipodi:nodetypes="scscsscssssssssscsssssscsccccccsccccsscc"
         style="fill:url(#linearGradient1482-3);fill-opacity:1;stroke-width:0.868295" />
      <path
         style="color:#232629;fill:url(#linearGradient1029);fill-opacity:1;stroke:none;stroke-width:1.53798"
         d="m 130.35714,1038.103 -3.90474,-3.8103 0.0463,-0.045 c 2.6535,-2.8077 4.43407,-6.1395 5.57598,-9.7741 h 4.74817 v -3.0289 h -10.96453 v -3.0296 h -3.15504 v 3.0289 h -10.93329 v 3.0288 h 17.18089 c -1.09333,2.8775 -2.34285,5.6034 -4.6857,8.0265 -1.40571,-1.5144 -2.65523,-3.3317 -3.59237,-5.149 h -3.1238 c 1.14332,2.4231 2.70834,4.8461 4.6857,6.9209 l -7.96568,7.6176 2.18666,2.1202 7.82511,-7.5873 4.84189,4.6948 z m 8.90283,-7.7236 h -3.1238 l -7.13163,18.3247 h 3.1238 l 1.75409,-4.5585 h 7.49714 l 1.62896,4.5585 h 3.12378 z m -4.06094,10.6314 2.49904,-6.5727 2.49904,6.5727 z"
         class="ColorScheme-Text"
         id="path12" />
    </g>
  </g>
</svg>
