<?xml version="1.0" encoding="UTF-8" standalone="no"?>
<svg
   width="32"
   version="1.1"
   height="32"
   viewBox="0 0 32 32"
   id="svg15"
   sodipodi:docname="folder-deb.svg"
   inkscape:version="1.1.1 (3bf5ae0d25, 2021-09-20)"
   xmlns:inkscape="http://www.inkscape.org/namespaces/inkscape"
   xmlns:sodipodi="http://sodipodi.sourceforge.net/DTD/sodipodi-0.dtd"
   xmlns="http://www.w3.org/2000/svg"
   xmlns:svg="http://www.w3.org/2000/svg"
   xmlns:rdf="http://www.w3.org/1999/02/22-rdf-syntax-ns#"
   xmlns:cc="http://creativecommons.org/ns#"
   xmlns:dc="http://purl.org/dc/elements/1.1/">
  <sodipodi:namedview
     pagecolor="#ffffff"
     bordercolor="#666666"
     borderopacity="1"
     objecttolerance="10"
     gridtolerance="10"
     guidetolerance="10"
     inkscape:pageopacity="0"
     inkscape:pageshadow="2"
     inkscape:window-width="1920"
     inkscape:window-height="1007"
     id="namedview17"
     showgrid="true"
     inkscape:zoom="9.8125"
     inkscape:cx="1.4267516"
     inkscape:cy="18.089172"
     inkscape:window-x="0"
     inkscape:window-y="0"
     inkscape:window-maximized="1"
     inkscape:current-layer="g4"
     inkscape:pagecheckerboard="0">
    <inkscape:grid
       type="xygrid"
       id="grid862" />
  </sodipodi:namedview>
  <defs
     id="defs5455" />
  <metadata
     id="metadata5458">
    <rdf:RDF>
      <cc:Work
         rdf:about="">
        <dc:format>image/svg+xml</dc:format>
        <dc:type
           rdf:resource="http://purl.org/dc/dcmitype/StillImage" />
      </cc:Work>
    </rdf:RDF>
  </metadata>
  <g
     inkscape:label="Capa 1"
     inkscape:groupmode="layer"
     id="layer1"
     transform="translate(-384.57143,-515.798)">
    <g
       transform="matrix(0.36013848,0,0,0.37142583,359.81878,151.2823)"
       id="g4">
      <path
         d="m 149.33718,1000.7946 h -4.44177 v -1.58991 c 0,-2.76104 -1.24966,-4.12192 -2.29812,-4.77801 -1.12433,-0.70309 -2.22838,-0.73896 -2.43931,-0.73896 h -39.02465 c -0.83576,0 -1.621208,-0.85429 -2.452555,-1.75898 -1.058163,-1.15159 -2.25752,-2.45609 -4.078181,-2.45609 H 77.187599 c -3.238004,0 -5.679967,2.36296 -5.679967,5.49651 v 59.00754 c 0,3.031 2.547867,5.4965 5.679967,5.4965 h 72.149581 c 3.13212,0 5.67999,-2.4655 5.67999,-5.4965 v -47.6856 c 0,-3.0311 -2.54787,-5.4965 -5.67999,-5.4965 z m 3.03239,53.1821 c 0,1.618 -1.35999,2.9336 -3.03239,2.9336 H 77.187599 c -1.672384,0 -3.032374,-1.3156 -3.032374,-2.9336 v -59.00754 c 0,-1.72653 1.24702,-2.93364 3.032374,-2.93364 h 17.414995 c 0.632771,0 1.345871,0.7757 2.100428,1.59667 1.072268,1.1661 2.406657,2.61755 4.430308,2.61755 h 39.00875 c 0.39979,0.0108 1.53386,0.17939 1.95041,1.67269 H 81.336489 c -3.375798,0.0674 -5.140855,1.77607 -5.140855,5.19327 l 0.155329,46.9859 h 1.609728 c 0,0 -0.334038,0 0.0014,0 0.520688,0 1.342761,0.099 2.110562,-0.4831 1.3794,-1.0473 1.437642,-2.4048 1.425299,-2.7764 l -0.0069,-38.6037 c 0,-5.1257 0,-5.1257 5.295185,-5.1257 l 62.552073,0.2417 c 1.67237,0.01 3.03237,1.3165 3.03237,2.9337 v 47.6856 z"
         id="path2-3-3-3"
         sodipodi:nodetypes="scscsscssssssssscsssssscsccccccsccccsscc"
         style="fill:#f62459;fill-opacity:1;stroke-width:0.868295" />
      <path
         style="color:#232629;fill:#ff0000;fill-opacity:0.6;stroke:none;stroke-width:1.36709"
         d="m 136.06612,1048.5692 c -1.66602,-0.2692 -4.02622,-1.2115 -5.41458,-2.0865 -3.19321,-2.0193 -5.28329,-4.2654 -6.57505,-7.0688 -0.41651,-0.9423 -0.66365,-1.6154 -1.38836,-4.0384 -0.13883,-0.6058 -0.37434,-1.2846 -0.46125,-1.4962 -0.1466,-0.3568 -0.15304,-0.4772 -0.0891,-1.6673 0.0607,-1.0769 0.27767,-2.6923 0.41651,-2.8215 0.0206,-0.031 0.0689,-0.038 0.10745,-0.016 0.13051,0.075 0.25119,-0.2722 0.36977,-1.0643 0.065,-0.434 0.16704,-0.8892 0.22684,-1.0115 0.0598,-0.1222 0.16109,-0.3921 0.22511,-0.5996 0.14731,-0.4777 0.34818,-0.8449 0.96917,-1.7716 0.2731,-0.4076 0.55699,-0.8515 0.63085,-0.9865 0.0869,-0.1588 0.18187,-0.2366 0.26906,-0.2205 0.084,0.015 0.22263,-0.088 0.36781,-0.2733 0.63136,-0.808 3.60509,-3.1918 3.88028,-3.1105 0.0751,0.022 0.38891,-0.078 0.69733,-0.2225 0.55785,-0.2614 0.80366,-0.3219 0.80366,-0.1977 0,0.036 -0.0807,0.1171 -0.17918,0.1807 -0.17295,0.1116 -0.16948,0.1135 0.0995,0.053 0.1533,-0.034 0.41148,-0.084 0.57374,-0.1094 0.20046,-0.031 0.28197,-0.078 0.25432,-0.1452 -0.0243,-0.059 0.0335,-0.1171 0.14297,-0.1445 0.27414,-0.068 0.70133,-0.057 0.70133,0.018 0,0.091 -0.24426,0.1821 -0.438,0.1642 -0.13217,-0.012 -0.13892,0 -0.0398,0.062 0.0986,0.063 0.0998,0.077 0.007,0.077 -0.0621,0 -0.0923,0.02 -0.0675,0.043 0.025,0.023 0.19101,-0.027 0.369,-0.1114 0.178,-0.085 0.504,-0.1897 0.72444,-0.2337 0.27137,-0.054 0.40082,-0.1169 0.40082,-0.1945 0,-0.1 0.12606,-0.1082 0.97553,-0.066 0.53655,0.027 1.34621,0.1051 1.79925,0.1739 0.82365,0.1251 0.82372,0.1251 1.13067,-0.039 0.36817,-0.1972 0.96034,-0.2228 1.11595,-0.048 0.0569,0.064 0.21363,0.1691 0.34821,0.2338 0.21956,0.1057 0.23408,0.1058 0.14128,0 -0.17628,-0.1977 -0.001,-0.1928 0.67945,0.019 2.19439,0.6839 3.98333,1.9018 5.31077,3.6157 0.3148,0.4064 0.33386,0.5892 0.0357,0.3419 l -0.17065,-0.1416 0.13036,0.2371 c 0.0716,0.1305 0.13037,0.2771 0.13037,0.3258 0,0.049 0.21103,0.4088 0.46893,0.8003 0.58128,0.8822 0.74388,1.1794 0.70488,1.2882 -0.0168,0.047 -0.27424,-0.264 -0.57226,-0.6904 -0.29801,-0.4265 -0.73902,-1.001 -0.98001,-1.2768 -0.35989,-0.4119 -0.45415,-0.4823 -0.52758,-0.3943 -0.0491,0.059 -0.16925,0.1178 -0.26687,0.131 l -0.17746,0.024 0.17556,0.3202 c 0.0965,0.1761 0.18836,0.2845 0.20402,0.2408 0.0839,-0.2339 0.47404,0.074 0.65148,0.5134 0.0575,0.1427 0.21053,0.4365 0.33998,0.6528 0.1294,0.2164 0.21904,0.4086 0.19913,0.4272 -0.0198,0.018 -0.138,-0.041 -0.26224,-0.1318 l -0.22603,-0.1655 0.15415,0.2463 c 0.0848,0.1354 0.22676,0.3011 0.31549,0.3682 0.11066,0.084 0.16361,0.2159 0.16855,0.4214 0.01,0.3794 0.2427,0.8276 0.36972,0.7094 0.19788,-0.1841 0.23857,-0.069 0.18877,0.534 -0.0366,0.4442 -0.0172,0.7371 0.0698,1.0479 0.13217,0.472 0.10371,0.5885 -0.0896,0.3679 -0.12287,-0.1403 -0.12412,-0.1402 -0.0691,0 0.11801,0.312 0.20611,0.7789 0.18161,0.9621 -0.0457,0.342 -0.18371,0.1998 -0.23118,-0.2382 l -0.0464,-0.4275 -0.0139,0.4549 c -0.007,0.2503 -0.0705,0.7338 -0.14032,1.0745 -0.0705,0.3442 -0.10635,0.7613 -0.0805,0.9383 0.0485,0.3332 0.0142,0.3461 -0.28505,0.1075 -0.12176,-0.097 -0.14277,-0.078 -0.22642,0.2115 -0.0704,0.2432 -0.0698,0.3817 0.003,0.5854 0.0521,0.1468 0.0823,0.3458 0.0672,0.4424 -0.0349,0.2227 -0.22659,0.2921 -0.22659,0.082 0,-0.2642 -0.10802,-0.1702 -0.438,0.3813 -0.89116,1.489 -2.30123,2.6414 -3.89714,3.185 -0.94088,0.3205 -1.57194,0.4393 -2.63299,0.4958 l -0.95563,0.051 0.47216,0.1356 c 0.38073,0.1093 0.60431,0.1256 1.15471,0.084 0.72109,-0.054 1.56775,-0.1999 1.95165,-0.3357 0.15322,-0.054 0.2567,-0.057 0.30965,-0.01 0.12481,0.1162 -0.98421,0.573 -1.64255,0.6765 -1.12021,0.1761 -2.61971,-0.014 -3.94339,-0.5005 -0.89808,-0.33 -2.23079,-1.1893 -2.02656,-1.3067 0.0387,-0.022 0.29223,0.09 0.56343,0.2496 0.34666,0.204 0.49309,0.2577 0.49309,0.1809 0,-0.1451 0.0512,-0.1382 0.32668,0.044 0.24871,0.1648 1.01371,0.4708 1.56468,0.6258 0.6006,0.1691 0.36773,-0.036 -0.438,-0.3854 -2.54759,-1.1051 -3.60518,-2.2105 -4.13227,-4.3189 -0.19329,-0.7732 0.0139,-2.4681 0.36632,-2.999 0.0894,-0.1344 0.16243,-0.2999 0.16243,-0.3676 0,-0.2936 0.52626,-1.0695 1.06626,-1.572 0.95154,-0.8854 1.94084,-1.253 3.22508,-1.1983 0.62081,0.026 0.88596,0.077 1.40262,0.2687 0.58603,0.2172 1.32393,0.6718 1.09794,0.6765 -0.0532,0 -0.28607,-0.072 -0.51763,-0.1613 -0.352,-0.1365 -0.57771,-0.1638 -1.37667,-0.1667 -1.12191,0 -1.67027,0.144 -2.46871,0.6668 -1.13198,0.7411 -1.76145,1.5947 -1.98438,2.691 -0.14958,0.7357 -0.15416,0.9395 -0.0375,1.6692 0.0672,0.4204 0.11496,0.5438 0.19909,0.5138 0.0707,-0.025 0.11065,0.012 0.11065,0.102 0,0.2606 0.60938,1.3177 1.032,1.7903 1.0172,1.1374 2.66262,1.8633 4.22387,1.8633 0.81033,0 1.46535,-0.1447 2.0683,-0.457 0.24213,-0.1254 0.54775,-0.2787 0.67914,-0.3407 0.46362,-0.2186 0.75124,-0.4684 1.08752,-0.9443 0.18694,-0.2646 0.39016,-0.4811 0.45161,-0.4811 0.0908,0 0.0869,0.038 -0.021,0.2038 -0.35546,0.5459 0.47876,-0.4467 0.91076,-1.0836 l 0.48387,-0.7134 -0.0528,-0.4686 c -0.0507,-0.4503 -0.0433,-0.4778 0.18819,-0.704 0.223,-0.2178 0.24303,-0.2823 0.26873,-0.8645 0.023,-0.5211 0.007,-0.6293 -0.0916,-0.6299 -0.0919,-5e-4 -0.13134,-0.1377 -0.17091,-0.5935 -0.0523,-0.6032 -0.58015,-2.6329 -0.70303,-2.7036 -0.0371,-0.022 -0.14002,-0.2165 -0.22871,-0.4337 -0.29932,-0.733 -0.82435,-1.4379 -1.64296,-2.2058 -1.17791,-1.1049 -2.66168,-1.9581 -4.06326,-2.3364 -1.1922,-0.3218 -3.21669,-0.205 -4.65869,0.2688 -0.70377,0.2312 -1.39718,0.5374 -1.5142,0.6686 -0.053,0.06 -0.13008,0.089 -0.17104,0.065 -0.0432,-0.025 -0.0312,-0.091 0.0283,-0.1581 0.26565,-0.2978 -0.61587,0.2473 -1.18338,0.7318 -0.34309,0.293 -0.63631,0.5415 -0.65159,0.5524 -0.0153,0.011 0.0515,5e-4 0.1484,-0.023 0.16125,-0.039 0.16809,-0.029 0.0807,0.1233 -0.0561,0.097 -0.34801,0.2728 -0.70586,0.4238 -0.60125,0.2538 -0.99013,0.5327 -1.29909,0.9318 -0.12329,0.1593 -0.13051,0.1936 -0.0329,0.1588 0.0684,-0.024 0.12453,-0.01 0.12453,0.034 0,0.2116 -0.20664,0.4479 -0.51273,0.5863 -0.67817,0.3065 -1.8695,1.9442 -2.50766,3.4471 -0.28439,0.6697 -0.27988,0.6464 -0.12523,0.6464 0.16298,0 0.15164,0.1723 -0.0722,1.0975 -0.32611,1.3476 -0.3265,1.3045 0.0286,3.2005 0.43271,2.3101 0.6855,3.0817 1.16615,3.5599 0.11273,0.1121 0.22234,0.3508 0.2712,0.5905 0.0583,0.2862 0.15627,0.4751 0.33956,0.6549 0.1671,0.1639 0.22283,0.2644 0.15864,0.2862 -0.12593,0.043 0.26834,0.5897 0.62806,0.8714 0.18097,0.1417 0.31509,0.1893 0.46036,0.1634 0.31842,-0.057 0.64262,0.1141 1.14077,0.6005 0.51769,0.5055 0.56956,0.6414 0.22697,0.5946 -0.22097,-0.03 -0.22602,-0.024 -0.11731,0.1299 0.0626,0.089 0.29326,0.3024 0.51272,0.4746 0.30822,0.2418 0.38761,0.3465 0.34892,0.4599 -0.0557,0.1631 0.10301,0.3153 0.46208,0.4431 0.22262,0.079 0.29436,0.25 0.12676,0.3019 -0.0507,0.015 0.26286,0.3161 0.6968,0.6674 0.48891,0.3958 0.81778,0.6128 0.86465,0.5704 0.12385,-0.1118 0.28252,-0.078 0.28537,0.061 0.003,0.1518 0.14365,0.3112 0.64929,0.7364 0.31953,0.2687 0.39929,0.3025 0.59514,0.2523 0.17935,-0.046 0.29214,-0.016 0.54473,0.1425 0.50393,0.317 0.80949,0.4435 1.07112,0.4435 0.25745,0 0.2941,0.069 0.16043,0.3013 -0.0708,0.123 -0.0557,0.1433 0.10704,0.1433 0.10413,0 0.39774,0.067 0.65235,0.1482 0.57891,0.1854 0.8204,0.198 0.67531,0.035 -0.21434,-0.2403 0.0125,-0.1746 0.77877,0.225 1.07004,0.5583 1.61135,0.6221 3.74215,0.4409 0.31548,-0.026 0.41809,-0.011 0.41809,0.064 0,0.064 -0.27374,0.161 -0.77645,0.2741 -0.66084,0.1488 -1.01357,0.1776 -2.36916,0.1933 -1.06818,0.012 -1.79783,-0.014 -2.21556,-0.082 z m -1.08933,-11.1086 c 0,-0.016 -0.0986,-0.084 -0.219,-0.1526 l -0.21899,-0.1241 0.18801,0.1526 c 0.18345,0.1489 0.24998,0.1819 0.24998,0.1241 z m 10.96451,-7.7661 c -0.0254,-0.059 -0.0443,-0.042 -0.0482,0.045 -0.004,0.078 0.0154,0.1218 0.0418,0.097 0.0265,-0.024 0.0293,-0.089 0.006,-0.142 z m -18.0719,-7.7718 c 0.0991,-0.1175 0.0962,-0.1202 -0.0301,-0.028 -0.0766,0.056 -0.13936,0.1143 -0.13936,0.1296 0,0.061 0.0654,0.021 0.16943,-0.1016 z m 0.90566,-0.6855 c 0.0793,-0.082 0.1262,-0.1482 0.10426,-0.1482 -0.0219,0 -0.10468,0.067 -0.18394,0.1482 -0.0793,0.082 -0.1262,0.1482 -0.10427,0.1482 0.0219,0 0.10468,-0.067 0.18396,-0.1482 z m 1.00242,-0.5209 c 0.26251,-0.083 0.41167,-0.097 0.46702,-0.046 0.0554,0.052 0.26078,0.021 0.6431,-0.096 0.30897,-0.094 0.54756,-0.1845 0.5302,-0.2007 -0.0173,-0.016 -0.27175,0.045 -0.56531,0.1365 -0.40319,0.1253 -0.54829,0.1439 -0.59326,0.076 -0.0759,-0.1145 -0.8006,0.111 -1.11207,0.346 l -0.21283,0.1606 0.22871,-0.1277 c 0.12579,-0.07 0.40229,-0.1825 0.61444,-0.2493 z m 2.29586,-0.1881 c 0.23127,-0.064 0.40669,-0.1291 0.38984,-0.1447 -0.0372,-0.034 -0.86105,0.1849 -0.86105,0.2294 0,0.045 0.007,0.044 0.47121,-0.085 z m 1.32059,-0.404 0.31856,-0.054 -0.27873,-0.01 c -0.1533,0 -0.36831,0.044 -0.47781,0.107 -0.12884,0.074 -0.14293,0.095 -0.0398,0.061 0.0876,-0.029 0.3026,-0.077 0.4778,-0.107 z m 0.63251,-0.1398 c 0.0246,-0.037 -0.0271,-0.05 -0.11482,-0.029 -0.18596,0.045 -0.20946,0.096 -0.0446,0.096 0.0632,0 0.13481,-0.03 0.15938,-0.067 z m 2.57117,0.022 c -0.0265,-0.024 -0.0951,-0.027 -0.15263,0 -0.0636,0.024 -0.0447,0.041 0.0482,0.045 0.084,0 0.13092,-0.014 0.10454,-0.039 z m -0.47615,-0.08 c -0.0766,-0.019 -0.20207,-0.019 -0.27872,0 -0.0766,0.019 -0.0139,0.034 0.13936,0.034 0.1533,0 0.21602,-0.015 0.13936,-0.034 z m -0.79425,-0.077 c -0.16309,-0.016 -0.44978,-0.016 -0.63708,0 -0.18731,0.016 -0.0539,0.029 0.29652,0.029 0.35041,2e-4 0.50365,-0.012 0.34056,-0.029 z m -1.03903,-0.065 c -0.0265,-0.025 -0.0951,-0.028 -0.15263,0 -0.0636,0.023 -0.0447,0.041 0.0482,0.045 0.084,0 0.13092,-0.014 0.10454,-0.039 z m -0.53905,17.811 c -0.81118,-0.5408 -1.11173,-0.8206 -1.11173,-1.0348 0,-0.1136 0.0276,-0.2065 0.0614,-0.2065 0.11482,0 1.47094,1.3171 1.44128,1.3999 -0.0172,0.048 -0.1808,-0.019 -0.39095,-0.1586 z m -0.41741,-1.3732 c -0.42128,-0.3961 -0.55627,-0.6092 -0.38601,-0.6092 0.10233,0 0.88622,0.8352 0.88622,0.9442 0,0.051 -0.01,0.093 -0.0224,0.093 -0.0125,0 -0.22733,-0.1927 -0.47782,-0.4283 z m 4.66119,-1.6216 c -0.22241,-0.083 -0.0836,-0.2382 0.27873,-0.3106 0.20804,-0.041 0.53866,-0.1423 0.7347,-0.224 0.19604,-0.082 0.37059,-0.1354 0.38789,-0.1193 0.0174,0.016 -0.0715,0.1808 -0.19716,0.366 -0.22723,0.3347 -0.2313,0.3367 -0.66662,0.331 -0.2409,-0.01 -0.4828,-0.023 -0.53754,-0.043 z m 2.38907,-1.6576 c -0.21496,-0.08 -0.22386,-0.2172 -0.0444,-0.6831 0.15415,-0.4002 0.31403,-0.4792 0.22509,-0.1112 -0.0321,0.1324 -0.0747,0.3242 -0.095,0.4261 l -0.0368,0.1852 0.15915,-0.1686 c 0.0941,-0.1 0.18134,-0.334 0.21348,-0.5735 0.0298,-0.2226 0.0861,-0.3865 0.12495,-0.3642 0.0986,0.057 0.088,0.6426 -0.0185,1.0365 -0.0932,0.3441 -0.17688,0.3841 -0.52809,0.2528 z m -18.84526,-0.93 c -0.0265,-0.065 -0.0483,-0.3174 -0.0483,-0.562 0,-0.3227 0.0273,-0.4363 0.0995,-0.4141 0.11828,0.036 0.18766,1.0933 0.0718,1.0933 -0.0411,0 -0.0964,-0.053 -0.12301,-0.1172 z m 19.15811,-1.7333 c -0.1237,-0.1558 -0.16187,-0.2787 -0.12676,-0.4088 0.0721,-0.2672 0.2606,-0.2292 0.39968,0.081 0.21638,0.4819 0.0286,0.7077 -0.27291,0.3282 z m -19.1745,-1.1764 c -0.006,-0.4202 -4e-5,-0.4332 0.19986,-0.4261 0.1695,0 0.21043,0.047 0.22998,0.2335 0.0221,0.2098 -0.22313,0.626 -0.36879,0.626 -0.0301,0 -0.0576,-0.1951 -0.0611,-0.4334 z m 20.64249,-9.1097 c 0.0111,-0.6631 0.1312,-0.8878 0.22476,-0.4235 0.0652,0.3236 -0.0178,0.8949 -0.1441,0.9925 -0.0687,0.053 -0.0893,-0.091 -0.0807,-0.569 z m -10.46396,-0.3974 c 0.0321,-0.089 1.13057,-0.508 1.33321,-0.508 0.23807,0 -0.189,0.2715 -0.68157,0.4332 -0.54921,0.1804 -0.69546,0.1972 -0.65164,0.075 z"
         class="ColorScheme-Text"
         id="path12" />
    </g>
  </g>
</svg>
