<?xml version="1.0" encoding="UTF-8" standalone="no"?>
<svg
   width="32"
   version="1.1"
   height="32"
   viewBox="0 0 32 32"
   id="svg15"
   sodipodi:docname="folder-violet.svg"
   inkscape:version="1.1.1 (3bf5ae0d25, 2021-09-20)"
   xmlns:inkscape="http://www.inkscape.org/namespaces/inkscape"
   xmlns:sodipodi="http://sodipodi.sourceforge.net/DTD/sodipodi-0.dtd"
   xmlns:xlink="http://www.w3.org/1999/xlink"
   xmlns="http://www.w3.org/2000/svg"
   xmlns:svg="http://www.w3.org/2000/svg"
   xmlns:rdf="http://www.w3.org/1999/02/22-rdf-syntax-ns#"
   xmlns:cc="http://creativecommons.org/ns#"
   xmlns:dc="http://purl.org/dc/elements/1.1/">
  <sodipodi:namedview
     pagecolor="#ffffff"
     bordercolor="#666666"
     borderopacity="1"
     objecttolerance="10"
     gridtolerance="10"
     guidetolerance="10"
     inkscape:pageopacity="0"
     inkscape:pageshadow="2"
     inkscape:window-width="1920"
     inkscape:window-height="1007"
     id="namedview17"
     showgrid="false"
     inkscape:zoom="9.8125"
     inkscape:cx="-24.050955"
     inkscape:cy="3.8726115"
     inkscape:window-x="0"
     inkscape:window-y="0"
     inkscape:window-maximized="1"
     inkscape:current-layer="layer1"
     inkscape:pagecheckerboard="0" />
  <defs
     id="defs5455">
    <linearGradient
       id="linearGradient4194">
      <stop
         style="stop-color:#8e44ad"
         id="stop4196" />
      <stop
         offset="1"
         style="stop-color:#9d52bd"
         id="stop4198" />
    </linearGradient>
    <linearGradient
       inkscape:collect="always"
       xlink:href="#linearGradient991"
       id="linearGradient1482"
       x1="386.57144"
       y1="516.39801"
       x2="446.62146"
       y2="516.39801"
       gradientUnits="userSpaceOnUse"
       gradientTransform="matrix(0.5008323,0,0,0.5,191.96397,273.599)" />
    <linearGradient
       inkscape:collect="always"
       id="linearGradient991">
      <stop
         style="stop-color:#8e44ad;stop-opacity:1"
         offset="0"
         id="stop987" />
      <stop
         style="stop-color:#8e44ad;stop-opacity:1"
         offset="0.03132199"
         id="stop1929" />
      <stop
         style="stop-color:#8e44ad;stop-opacity:1"
         offset="0.05527586"
         id="stop1263" />
      <stop
         style="stop-color:#ab6dc5;stop-opacity:1"
         offset="0.10902679"
         id="stop1027" />
      <stop
         style="stop-color:#c090d5;stop-opacity:1"
         offset="1"
         id="stop989" />
    </linearGradient>
  </defs>
  <metadata
     id="metadata5458">
    <rdf:RDF>
      <cc:Work
         rdf:about="">
        <dc:format>image/svg+xml</dc:format>
        <dc:type
           rdf:resource="http://purl.org/dc/dcmitype/StillImage" />
      </cc:Work>
    </rdf:RDF>
  </metadata>
  <g
     inkscape:label="Capa 1"
     inkscape:groupmode="layer"
     id="layer1"
     transform="translate(-384.57143,-515.798)">
    <path
       d="m 413.60085,523.00324 h -1.59966 v -0.5905 c 0,-1.02553 -0.45005,-1.531 -0.82764,-1.77469 -0.40491,-0.26114 -0.80252,-0.27447 -0.87849,-0.27447 h -14.05428 c -0.30099,0 -0.58386,-0.3173 -0.88326,-0.65333 -0.38108,-0.42773 -0.81302,-0.91225 -1.46871,-0.91225 H 387.617 c -1.16613,0 -2.04557,0.87766 -2.04557,2.04154 v 21.91692 c 0,1.1258 0.91758,2.04154 2.04557,2.04154 h 25.98385 c 1.12799,0 2.04558,-0.91575 2.04558,-2.04154 v -17.71167 c 0,-1.1258 -0.91759,-2.04155 -2.04558,-2.04155 z m 1.09208,19.75322 c 0,0.60097 -0.48979,1.08962 -1.09208,1.08962 H 387.617 c -0.60229,0 -1.09207,-0.48865 -1.09207,-1.08962 v -21.91692 c 0,-0.64127 0.4491,-1.08963 1.09207,-1.08963 h 6.27181 c 0.22789,0 0.4847,0.28812 0.75645,0.59305 0.38616,0.43312 0.86673,0.97222 1.59552,0.97222 h 14.04856 c 0.14398,0.004 0.5524,0.0666 0.70241,0.62128 h -21.88057 c -1.21576,0.025 -1.85142,0.65968 -1.85142,1.9289 l 0.0559,17.4518 h 0.57972 c 0,0 -0.1203,0.001 4.9e-4,0.001 0.18752,0 0.48358,0.0367 0.76009,-0.17942 0.49678,-0.38902 0.51775,-0.89322 0.51331,-1.03125 l -0.002,-14.3384 c 0,-1.90384 0,-1.90384 1.907,-1.90384 l 22.52741,0.0898 c 0.60228,0.002 1.09208,0.48897 1.09208,1.08963 v 17.71166 z"
       id="path2-3-3"
       sodipodi:nodetypes="scscsscssssssssscsssssscsccccccsccccsscc"
       style="fill:url(#linearGradient1482);fill-opacity:1;stroke-width:0.317569" />
  </g>
</svg>
