<?xml version="1.0" encoding="UTF-8" standalone="no"?>
<svg
   width="32"
   version="1.1"
   height="32"
   viewBox="0 0 32 32"
   id="svg15"
   sodipodi:docname="folder-notes.svg"
   inkscape:version="1.1.1 (3bf5ae0d25, 2021-09-20)"
   xmlns:inkscape="http://www.inkscape.org/namespaces/inkscape"
   xmlns:sodipodi="http://sodipodi.sourceforge.net/DTD/sodipodi-0.dtd"
   xmlns:xlink="http://www.w3.org/1999/xlink"
   xmlns="http://www.w3.org/2000/svg"
   xmlns:svg="http://www.w3.org/2000/svg"
   xmlns:rdf="http://www.w3.org/1999/02/22-rdf-syntax-ns#"
   xmlns:cc="http://creativecommons.org/ns#"
   xmlns:dc="http://purl.org/dc/elements/1.1/">
  <sodipodi:namedview
     pagecolor="#ffffff"
     bordercolor="#666666"
     borderopacity="1"
     objecttolerance="10"
     gridtolerance="10"
     guidetolerance="10"
     inkscape:pageopacity="0"
     inkscape:pageshadow="2"
     inkscape:window-width="1920"
     inkscape:window-height="1007"
     id="namedview17"
     showgrid="true"
     inkscape:zoom="9.8125"
     inkscape:cx="1.4267516"
     inkscape:cy="18.089172"
     inkscape:window-x="0"
     inkscape:window-y="0"
     inkscape:window-maximized="1"
     inkscape:current-layer="g4"
     inkscape:pagecheckerboard="0">
    <inkscape:grid
       type="xygrid"
       id="grid862" />
  </sodipodi:namedview>
  <defs
     id="defs5455">
    <linearGradient
       inkscape:collect="always"
       id="linearGradient991">
      <stop
         style="stop-color:#cccccc;stop-opacity:1"
         offset="0"
         id="stop987" />
      <stop
         style="stop-color:#cccccc;stop-opacity:1"
         offset="0.03132199"
         id="stop1929" />
      <stop
         style="stop-color:#0069a6;stop-opacity:1"
         offset="0.05527586"
         id="stop1263" />
      <stop
         style="stop-color:#0069a6;stop-opacity:1"
         offset="0.10902679"
         id="stop1027" />
      <stop
         style="stop-color:#cccccc;stop-opacity:1"
         offset="1"
         id="stop989" />
    </linearGradient>
    <linearGradient
       inkscape:collect="always"
       xlink:href="#linearGradient991"
       id="linearGradient1482-3"
       x1="386.57144"
       y1="516.39801"
       x2="446.62146"
       y2="516.39801"
       gradientUnits="userSpaceOnUse"
       gradientTransform="matrix(1.3906659,0,0,1.3461637,-466.0841,329.31664)" />
    <linearGradient
       inkscape:collect="always"
       xlink:href="#linearGradient990"
       id="linearGradient992"
       x1="418.07144"
       y1="521.79797"
       x2="439.07144"
       y2="521.79797"
       gradientUnits="userSpaceOnUse"
       gradientTransform="matrix(1.3883549,0,0,1.3461637,-465.1907,330.12434)" />
    <linearGradient
       inkscape:collect="always"
       id="linearGradient990">
      <stop
         style="stop-color:#37c871;stop-opacity:1"
         offset="0"
         id="stop986" />
      <stop
         style="stop-color:#5f8dd3;stop-opacity:1"
         offset="1"
         id="stop988" />
    </linearGradient>
  </defs>
  <metadata
     id="metadata5458">
    <rdf:RDF>
      <cc:Work
         rdf:about="">
        <dc:format>image/svg+xml</dc:format>
        <dc:type
           rdf:resource="http://purl.org/dc/dcmitype/StillImage" />
      </cc:Work>
    </rdf:RDF>
  </metadata>
  <g
     inkscape:label="Capa 1"
     inkscape:groupmode="layer"
     id="layer1"
     transform="translate(-384.57143,-515.798)">
    <g
       transform="matrix(0.36013848,0,0,0.37142583,359.81878,151.2823)"
       id="g4">
      <path
         d="m 149.33719,1000.7947 h -4.44178 v -1.5899 c 0,-2.76115 -1.24965,-4.12203 -2.29811,-4.77812 -1.12433,-0.70309 -2.22838,-0.73896 -2.43931,-0.73896 h -39.02466 c -0.83576,0 -1.621207,-0.85429 -2.452552,-1.75898 -1.058163,-1.15159 -2.257522,-2.45609 -4.078182,-2.45609 H 77.187601 c -3.238006,0 -5.679969,2.36296 -5.679969,5.49651 v 59.00764 c 0,3.031 2.547867,5.4965 5.679969,5.4965 h 72.149589 c 3.13211,0 5.67998,-2.4655 5.67998,-5.4965 v -47.6856 c 0,-3.031 -2.54787,-5.4965 -5.67998,-5.4965 z m 3.03239,53.1821 c 0,1.6181 -1.35999,2.9336 -3.03239,2.9336 H 77.187601 c -1.672386,0 -3.032376,-1.3155 -3.032376,-2.9336 v -59.00764 c 0,-1.72653 1.24702,-2.93364 3.032376,-2.93364 h 17.414995 c 0.63277,0 1.345871,0.7757 2.100428,1.59667 1.072269,1.1661 2.406658,2.61755 4.430306,2.61755 h 39.00876 c 0.39979,0.0107 1.53385,0.17939 1.9504,1.67269 H 81.336491 c -3.375799,0.0674 -5.140856,1.77621 -5.140856,5.19337 l 0.155329,46.986 h 1.609728 c 0,0 -0.334038,0.01 0.0014,0.01 0.520689,0 1.342761,0.099 2.110563,-0.4831 1.3794,-1.0474 1.437642,-2.4048 1.425299,-2.7765 l -0.0069,-38.6036 c 0,-5.1258 0,-5.1258 5.295185,-5.1258 l 62.552071,0.2418 c 1.67237,0.01 3.03238,1.3164 3.03238,2.9336 v 47.6856 z"
         id="path2-3-3-6"
         sodipodi:nodetypes="scscsscssssssssscsssssscsccccccsccccsscc"
         style="fill:url(#linearGradient1482-3);fill-opacity:1;stroke-width:0.868295" />
      <path
         id="Edit"
         class="st0"
         d="m 144.39626,1023.413 -5.15427,-4.9977 -13.58852,13.1756 -2.08253,7.0169 7.2368,-2.0193 9.42345,-9.137 v 3.0793 l -2.08253,2.0192 v 10.0963 h -18.74279 v -18.1732 h 10.41266 l 4.16507,-4.0385 h -18.74279 v 26.2502 h 21.86659 c 2.86348,0 5.20633,-2.2717 5.20633,-5.0481 v -16.2045 z"
         style="fill:url(#linearGradient992);fill-opacity:1;stroke-width:0.51266" />
      <path
         id="Edit-s"
         class="st1"
         d="m 145.28133,1016.8504 c 1.61397,1.5649 1.61397,4.1395 0,5.7044 l -5.05014,4.8967 v -2.8775 l 3.54031,-3.4327 c 0.83301,-0.8077 0.83301,-2.0697 0,-2.8774 l -0.46857,-0.4543 1.45777,-1.4135 z m -9.2152,29.8344 h -18.74279 v 2.0192 h 18.74279 c 3.43618,0 6.2476,-2.726 6.2476,-6.0577 v -14.1347 l -2.08254,2.0192 v 12.1155 c 0,2.2211 -1.87428,4.0385 -4.16506,4.0385 z m -9.3714,-8.9352 -2.23872,-2.1707 -0.88507,3.0289 z"
         style="fill:#f0f0f0;fill-opacity:1;stroke-width:0.51266" />
    </g>
  </g>
</svg>
