<?xml version="1.0" encoding="UTF-8" standalone="no"?>
<svg
   height="32"
   width="32"
   version="1.1"
   id="svg25"
   sodipodi:docname="folder-games.svg"
   inkscape:version="1.1.1 (3bf5ae0d25, 2021-09-20)"
   xmlns:inkscape="http://www.inkscape.org/namespaces/inkscape"
   xmlns:sodipodi="http://sodipodi.sourceforge.net/DTD/sodipodi-0.dtd"
   xmlns:xlink="http://www.w3.org/1999/xlink"
   xmlns="http://www.w3.org/2000/svg"
   xmlns:svg="http://www.w3.org/2000/svg"
   xmlns:rdf="http://www.w3.org/1999/02/22-rdf-syntax-ns#"
   xmlns:cc="http://creativecommons.org/ns#"
   xmlns:dc="http://purl.org/dc/elements/1.1/">
  <metadata
     id="metadata31">
    <rdf:RDF>
      <cc:Work
         rdf:about="">
        <dc:format>image/svg+xml</dc:format>
        <dc:type
           rdf:resource="http://purl.org/dc/dcmitype/StillImage" />
      </cc:Work>
    </rdf:RDF>
  </metadata>
  <defs
     id="defs29">
    <linearGradient
       inkscape:collect="always"
       xlink:href="#linearGradient870"
       id="linearGradient872"
       x1="29.4"
       y1="39.599998"
       x2="55"
       y2="39.599998"
       gradientUnits="userSpaceOnUse"
       gradientTransform="scale(0.5)" />
    <linearGradient
       inkscape:collect="always"
       id="linearGradient870">
      <stop
         style="stop-color:#ff9cff;stop-opacity:1"
         offset="0"
         id="stop866" />
      <stop
         style="stop-color:#ffb584;stop-opacity:1"
         offset="1"
         id="stop868" />
    </linearGradient>
    <linearGradient
       inkscape:collect="always"
       xlink:href="#linearGradient991"
       id="linearGradient1482"
       x1="386.57144"
       y1="516.39801"
       x2="446.62146"
       y2="516.39801"
       gradientUnits="userSpaceOnUse"
       gradientTransform="matrix(0.5008323,0,0,0.5,-192.60746,-242.19901)" />
    <linearGradient
       inkscape:collect="always"
       id="linearGradient991">
      <stop
         style="stop-color:#cccccc;stop-opacity:1"
         offset="0"
         id="stop987" />
      <stop
         style="stop-color:#cccccc;stop-opacity:1"
         offset="0.03132199"
         id="stop1929" />
      <stop
         style="stop-color:#0069a6;stop-opacity:1"
         offset="0.05527586"
         id="stop1263" />
      <stop
         style="stop-color:#0069a6;stop-opacity:1"
         offset="0.10902679"
         id="stop1027" />
      <stop
         style="stop-color:#cccccc;stop-opacity:1"
         offset="1"
         id="stop989" />
    </linearGradient>
  </defs>
  <sodipodi:namedview
     pagecolor="#ffffff"
     bordercolor="#666666"
     borderopacity="1"
     objecttolerance="10"
     gridtolerance="10"
     guidetolerance="10"
     inkscape:pageopacity="0"
     inkscape:pageshadow="2"
     inkscape:window-width="1920"
     inkscape:window-height="1007"
     id="namedview27"
     showgrid="false"
     inkscape:zoom="9.8125"
     inkscape:cx="-7.9490446"
     inkscape:cy="19.363057"
     inkscape:window-x="0"
     inkscape:window-y="0"
     inkscape:window-maximized="1"
     inkscape:current-layer="svg25"
     inkscape:pagecheckerboard="0" />
  <linearGradient
     id="a"
     gradientUnits="userSpaceOnUse"
     x2="0"
     y1="29"
     y2="8">
    <stop
       offset="0"
       stop-color="#3daee9"
       id="stop2" />
    <stop
       offset="1"
       stop-color="#6cc1ef"
       id="stop4" />
  </linearGradient>
  <path
     id="Game"
     class="st0"
     d="m 16.7,17.000001 v 0.8 h -0.8 v 0.8 h 0.8 v 0.8 h 0.8 v -0.8 h 0.8 v -0.8 h -0.8 v -0.8 z M 24.3,18.4 c 0,0.34 -0.26,0.600001 -0.6,0.600001 -0.34,0 -0.6,-0.260001 -0.6,-0.600001 0,-0.34 0.26,-0.6 0.6,-0.6 0.34,0 0.6,0.26 0.6,0.6 z m 1.8,0.600001 c 0.34,0 0.6,-0.260001 0.6,-0.600001 0,-0.34 -0.26,-0.6 -0.6,-0.6 -0.34,0 -0.6,0.26 -0.6,0.6 0,0.34 0.26,0.600001 0.6,0.600001 z m -0.6,0.6 c 0,0.34 -0.26,0.6 -0.6,0.6 -0.34,0 -0.6,-0.26 -0.6,-0.6 0,-0.34 0.26,-0.6 0.6,-0.6 0.34,0 0.6,0.26 0.6,0.6 z m 0,-2.4 c 0,0.34 -0.26,0.6 -0.6,0.6 -0.34,0 -0.6,-0.26 -0.6,-0.6 0,-0.34 0.26,-0.6 0.6,-0.6 0.34,0 0.6,0.26 0.6,0.6 z m -10.8,0.6 v 5.2 c 0,0.66 0.54,1.2 1.2,1.2 h 0.36 c 0.76,0 1.46,-0.42 1.78,-1.1 l 1.06,-2.1 h 4 l 1.24,2.46 c 0.22,0.44 0.68,0.74 1.18,0.74 1.1,0 1.98,-0.88 1.98,-1.980001 V 17.4 c 0,-1.1 -0.9,-2 -2,-2 h -1.6 l -0.8,0.800001 h -4 L 18.3,15.4 h -1.2 c -1.32,0 -2.4,1.08 -2.4,2.400001 z"
     style="clip-rule:evenodd;fill:url(#linearGradient872);fill-opacity:1;fill-rule:evenodd;stroke-width:0.2" />
  <path
     id="Game-s"
     class="st1"
     d="m 23.9,13.000001 v 0.4 c 0,0.66 -0.54,1.2 -1.2,1.2 h -0.8 c -0.22,0 -0.4,0.18 -0.4,0.4 v 0.4 h -0.8 v -0.4 c 0,-0.66 0.54,-1.2 1.2,-1.2 h 0.8 c 0.22,0 0.4,-0.18 0.4,-0.4 v -0.4 z m 1.6,11.2 v 0.8 c 1.1,0 2,-0.9 2,-2 v -2.8 h -0.8 v 2.8 c 0,0.66 -0.54,1.2 -1.2,1.2 z M 22.9,20.6 H 18.46 L 17,23.540001 c -0.2,0.399999 -0.62,0.66 -1.08,0.66 H 15.9 v 0.8 h 0.02 c 0.76,0 1.46,-0.420001 1.78,-1.100001 l 1.24,-2.5 h 4.36 z"
     style="fill:#f2f2f2;fill-opacity:1;stroke-width:0.2" />
  <path
     d="M 29.02942,7.205245 H 27.429765 V 6.61474 c 0,-1.02553 -0.45005,-1.530995 -0.82764,-1.774685 C 26.19721,4.57891 25.7996,4.565585 25.723635,4.565585 h -14.05428 c -0.30099,0 -0.58386,-0.317305 -0.88326,-0.65333 C 10.40501,3.484525 9.973075,3 9.317385,3 H 3.045575 C 1.879445,3 1,3.877665 1,5.041545 v 21.916911 c 0,1.125799 0.917585,2.041545 2.045575,2.041545 H 29.02942 c 1.127995,0 2.04558,-0.915746 2.04558,-2.041545 V 9.24679 c 0,-1.1258 -0.917585,-2.041545 -2.04558,-2.041545 z m 1.09208,19.753211 c 0,0.60098 -0.489785,1.08963 -1.09208,1.08963 H 3.045575 c -0.60229,0 -1.092075,-0.48865 -1.092075,-1.08963 V 5.041545 c 0,-0.641275 0.4491,-1.08963 1.092075,-1.08963 h 6.27181 c 0.227885,0 0.4847,0.288115 0.756445,0.593045 0.386165,0.43312 0.86673,0.972225 1.595525,0.972225 H 25.71791 c 0.14398,0.004 0.5524,0.06663 0.702415,0.62128 H 4.53975 c -1.215755,0.02505 -1.85142,0.65968 -1.85142,1.9289 l 0.05594,17.451796 h 0.579725 c 0,0 -0.1203,0.001 4.85e-4,0.001 0.18752,0 0.48358,0.03665 0.760095,-0.17942 0.496775,-0.389015 0.51775,-0.893216 0.513305,-1.031245 L 4.59538,9.9710905 c 0,-1.9038355 0,-1.9038355 1.907,-1.9038355 l 22.52741,0.0898 c 0.602285,0.0025 1.092075,0.488965 1.092075,1.089625 v 17.711665 z"
     id="path2-3-3-3"
     sodipodi:nodetypes="scscsscssssssssscsssssscsccccccsccccsscc"
     style="fill:url(#linearGradient1482);fill-opacity:1;stroke-width:0.317569" />
</svg>
