<?xml version="1.0" encoding="UTF-8" standalone="no"?>
<svg
   width="32"
   version="1.1"
   height="32"
   viewBox="0 0 32 32"
   id="svg15"
   sodipodi:docname="folder-flatpak.svg"
   inkscape:version="1.1.1 (3bf5ae0d25, 2021-09-20)"
   xmlns:inkscape="http://www.inkscape.org/namespaces/inkscape"
   xmlns:sodipodi="http://sodipodi.sourceforge.net/DTD/sodipodi-0.dtd"
   xmlns:xlink="http://www.w3.org/1999/xlink"
   xmlns="http://www.w3.org/2000/svg"
   xmlns:svg="http://www.w3.org/2000/svg"
   xmlns:rdf="http://www.w3.org/1999/02/22-rdf-syntax-ns#"
   xmlns:cc="http://creativecommons.org/ns#"
   xmlns:dc="http://purl.org/dc/elements/1.1/">
  <sodipodi:namedview
     pagecolor="#ffffff"
     bordercolor="#666666"
     borderopacity="1"
     objecttolerance="10"
     gridtolerance="10"
     guidetolerance="10"
     inkscape:pageopacity="0"
     inkscape:pageshadow="2"
     inkscape:window-width="1920"
     inkscape:window-height="1007"
     id="namedview17"
     showgrid="true"
     inkscape:zoom="9.8125"
     inkscape:cx="1.4267516"
     inkscape:cy="18.089172"
     inkscape:window-x="0"
     inkscape:window-y="0"
     inkscape:window-maximized="1"
     inkscape:current-layer="g4"
     inkscape:pagecheckerboard="0">
    <inkscape:grid
       type="xygrid"
       id="grid862" />
  </sodipodi:namedview>
  <defs
     id="defs5455">
    <linearGradient
       inkscape:collect="always"
       id="linearGradient991">
      <stop
         style="stop-color:#cccccc;stop-opacity:1"
         offset="0"
         id="stop987" />
      <stop
         style="stop-color:#cccccc;stop-opacity:1"
         offset="0.03132199"
         id="stop1929" />
      <stop
         style="stop-color:#0069a6;stop-opacity:1"
         offset="0.05527586"
         id="stop1263" />
      <stop
         style="stop-color:#0069a6;stop-opacity:1"
         offset="0.10902679"
         id="stop1027" />
      <stop
         style="stop-color:#cccccc;stop-opacity:1"
         offset="1"
         id="stop989" />
    </linearGradient>
    <linearGradient
       inkscape:collect="always"
       xlink:href="#linearGradient991"
       id="linearGradient1482-3"
       x1="386.57144"
       y1="516.39801"
       x2="446.62146"
       y2="516.39801"
       gradientUnits="userSpaceOnUse"
       gradientTransform="matrix(1.3906661,0,0,1.3461641,-466.08418,329.31646)" />
    <linearGradient
       inkscape:collect="always"
       xlink:href="#linearGradient911"
       id="linearGradient913"
       x1="420.57144"
       y1="522.54797"
       x2="440.72064"
       y2="522.54797"
       gradientUnits="userSpaceOnUse"
       gradientTransform="matrix(1.3883551,0,0,1.3461641,-465.19078,330.12416)" />
    <linearGradient
       inkscape:collect="always"
       id="linearGradient911">
      <stop
         style="stop-color:#ffccaa;stop-opacity:1"
         offset="0"
         id="stop907" />
      <stop
         style="stop-color:#5fd35f;stop-opacity:1"
         offset="1"
         id="stop909" />
    </linearGradient>
  </defs>
  <metadata
     id="metadata5458">
    <rdf:RDF>
      <cc:Work
         rdf:about="">
        <dc:format>image/svg+xml</dc:format>
        <dc:type
           rdf:resource="http://purl.org/dc/dcmitype/StillImage" />
      </cc:Work>
    </rdf:RDF>
  </metadata>
  <g
     inkscape:label="Capa 1"
     inkscape:groupmode="layer"
     id="layer1"
     transform="translate(-384.57143,-515.798)">
    <g
       transform="matrix(0.36013848,0,0,0.37142583,359.81878,151.2823)"
       id="g4">
      <path
         d="m 149.33722,1000.7946 h -4.44178 v -1.58988 c 0,-2.76106 -1.24966,-4.12194 -2.29812,-4.77803 -1.12433,-0.70309 -2.22838,-0.73897 -2.43931,-0.73897 h -39.02466 c -0.83576,0 -1.62122,-0.85429 -2.452567,-1.75898 -1.058163,-1.15159 -2.257521,-2.45609 -4.078183,-2.45609 H 77.187601 c -3.238005,0 -5.679969,2.36297 -5.679969,5.49651 v 59.00754 c 0,3.0311 2.547868,5.4965 5.679969,5.4965 h 72.149619 c 3.13211,0 5.67998,-2.4654 5.67998,-5.4965 v -47.6856 c 0,-3.031 -2.54787,-5.4965 -5.67998,-5.4965 z m 3.03239,53.1821 c 0,1.6181 -1.35999,2.9337 -3.03239,2.9337 H 77.187601 c -1.672385,0 -3.032375,-1.3156 -3.032375,-2.9337 v -59.00754 c 0,-1.72652 1.24702,-2.93364 3.032375,-2.93364 H 94.6026 c 0.632771,0 1.345872,0.7757 2.100429,1.59667 1.072268,1.1661 2.406658,2.61755 4.430321,2.61755 h 39.00877 c 0.39979,0.0107 1.53385,0.17939 1.9504,1.67269 H 81.336493 c -3.3758,0.0674 -5.140857,1.77613 -5.140857,5.19327 l 0.155329,46.986 h 1.609728 c 0,0 -0.334038,0 0.0013,0 0.520689,0 1.342761,0.099 2.110564,-0.4831 1.3794,-1.0473 1.437641,-2.4048 1.425299,-2.7764 l -0.0069,-38.6037 c 0,-5.1258 0,-5.1258 5.295187,-5.1258 l 62.552097,0.2418 c 1.67237,0.01 3.03238,1.3164 3.03238,2.9336 v 47.6856 z"
         id="path2-3-3-6"
         sodipodi:nodetypes="scscsscssssssssscsssssscsccccccsccccsscc"
         style="fill:url(#linearGradient1482-3);fill-opacity:1;stroke-width:0.868295" />
      <path
         style="color:#232629;fill:url(#linearGradient913);fill-opacity:1;stroke:none;stroke-width:1.53049"
         d="m 132.699,1018.4152 -0.40428,0.3016 -13.58301,5.8768 v 18.0828 l 13.98729,6.0275 13.98696,-6.0275 v -18.0828 z m 0,1.7631 v 7.9866 l -0.77714,0.4972 -11.65585,-3.2248 z m 12.433,6.0276 v 15.5662 l -12.433,5.1236 v -16.8773 z"
         class="ColorScheme-Text"
         id="path12" />
    </g>
  </g>
</svg>
