<?xml version="1.0" encoding="UTF-8" standalone="no"?>
<svg
   width="32"
   version="1.1"
   height="32"
   viewBox="0 0 32 32"
   id="svg15"
   sodipodi:docname="folder-calculate.svg"
   inkscape:version="1.1.1 (3bf5ae0d25, 2021-09-20)"
   xmlns:inkscape="http://www.inkscape.org/namespaces/inkscape"
   xmlns:sodipodi="http://sodipodi.sourceforge.net/DTD/sodipodi-0.dtd"
   xmlns:xlink="http://www.w3.org/1999/xlink"
   xmlns="http://www.w3.org/2000/svg"
   xmlns:svg="http://www.w3.org/2000/svg"
   xmlns:rdf="http://www.w3.org/1999/02/22-rdf-syntax-ns#"
   xmlns:cc="http://creativecommons.org/ns#"
   xmlns:dc="http://purl.org/dc/elements/1.1/">
  <sodipodi:namedview
     pagecolor="#ffffff"
     bordercolor="#666666"
     borderopacity="1"
     objecttolerance="10"
     gridtolerance="10"
     guidetolerance="10"
     inkscape:pageopacity="0"
     inkscape:pageshadow="2"
     inkscape:window-width="1920"
     inkscape:window-height="1007"
     id="namedview17"
     showgrid="true"
     inkscape:zoom="9.8125"
     inkscape:cx="1.4267516"
     inkscape:cy="9.9363057"
     inkscape:window-x="0"
     inkscape:window-y="0"
     inkscape:window-maximized="1"
     inkscape:current-layer="g4"
     inkscape:pagecheckerboard="0">
    <inkscape:grid
       type="xygrid"
       id="grid862" />
  </sodipodi:namedview>
  <defs
     id="defs5455">
    <linearGradient
       inkscape:collect="always"
       id="linearGradient991">
      <stop
         style="stop-color:#cccccc;stop-opacity:1"
         offset="0"
         id="stop987" />
      <stop
         style="stop-color:#cccccc;stop-opacity:1"
         offset="0.03132199"
         id="stop1929" />
      <stop
         style="stop-color:#0069a6;stop-opacity:1"
         offset="0.05527586"
         id="stop1263" />
      <stop
         style="stop-color:#0069a6;stop-opacity:1"
         offset="0.10902679"
         id="stop1027" />
      <stop
         style="stop-color:#cccccc;stop-opacity:1"
         offset="1"
         id="stop989" />
    </linearGradient>
    <linearGradient
       inkscape:collect="always"
       xlink:href="#linearGradient991"
       id="linearGradient1482-3"
       x1="386.57144"
       y1="516.39801"
       x2="446.62146"
       y2="516.39801"
       gradientUnits="userSpaceOnUse"
       gradientTransform="matrix(1.3906657,0,0,1.3461636,-466.08405,329.31669)" />
    <linearGradient
       inkscape:collect="always"
       xlink:href="#linearGradient982"
       id="linearGradient984"
       x1="416.57144"
       y1="524.79797"
       x2="440.57144"
       y2="524.79797"
       gradientUnits="userSpaceOnUse"
       gradientTransform="matrix(1.3883547,0,0,1.3461636,-465.19065,330.12439)" />
    <linearGradient
       inkscape:collect="always"
       id="linearGradient982">
      <stop
         style="stop-color:#ccaaff;stop-opacity:1"
         offset="0"
         id="stop978" />
      <stop
         style="stop-color:#8080ff;stop-opacity:1"
         offset="1"
         id="stop980" />
    </linearGradient>
  </defs>
  <metadata
     id="metadata5458">
    <rdf:RDF>
      <cc:Work
         rdf:about="">
        <dc:format>image/svg+xml</dc:format>
        <dc:type
           rdf:resource="http://purl.org/dc/dcmitype/StillImage" />
      </cc:Work>
    </rdf:RDF>
  </metadata>
  <g
     inkscape:label="Capa 1"
     inkscape:groupmode="layer"
     id="layer1"
     transform="translate(-384.57143,-515.798)">
    <g
       transform="matrix(0.36013848,0,0,0.37142583,359.81878,151.2823)"
       id="g4">
      <path
         d="m 149.33718,1000.7946 h -4.44177 v -1.58989 c 0,-2.76106 -1.24966,-4.12194 -2.29812,-4.77803 -1.12433,-0.70309 -2.22838,-0.73896 -2.43931,-0.73896 h -39.02465 c -0.83576,0 -1.621207,-0.85429 -2.45256,-1.75898 -1.058158,-1.15159 -2.257515,-2.45609 -4.078176,-2.45609 H 77.187599 c -3.238004,0 -5.679967,2.36296 -5.679967,5.49651 v 59.00754 c 0,3.031 2.547867,5.4965 5.679967,5.4965 h 72.149581 c 3.13212,0 5.67998,-2.4655 5.67998,-5.4965 v -47.6856 c 0,-3.0311 -2.54786,-5.4965 -5.67998,-5.4965 z m 3.03239,53.1821 c 0,1.618 -1.35999,2.9336 -3.03239,2.9336 H 77.187599 c -1.672384,0 -3.032374,-1.3156 -3.032374,-2.9336 v -59.00754 c 0,-1.72653 1.24702,-2.93364 3.032374,-2.93364 h 17.414995 c 0.632771,0 1.345871,0.7757 2.100428,1.59667 1.072268,1.1661 2.406659,2.61755 4.430308,2.61755 h 39.00875 c 0.39979,0.0107 1.53386,0.17939 1.9504,1.67269 H 81.33649 c -3.375798,0.0674 -5.140856,1.77607 -5.140856,5.19327 l 0.155329,46.9859 h 1.609729 c 0,0 -0.334038,0 0.0014,0 0.520688,0 1.342761,0.099 2.110562,-0.4831 1.3794,-1.0473 1.437642,-2.4048 1.425299,-2.7764 l -0.0069,-38.6037 c 0,-5.1257 0,-5.1257 5.295185,-5.1257 l 62.552062,0.2417 c 1.67238,0.01 3.03238,1.3165 3.03238,2.9337 v 47.6856 z"
         id="path2-3-3-6"
         sodipodi:nodetypes="scscsscssssssssscsssssscsccccccsccccsscc"
         style="fill:url(#linearGradient1482-3);fill-opacity:1;stroke-width:0.868295" />
      <path
         id="Voucher"
         class="st0"
         d="m 137.10739,1036.5884 h 2.08253 v 4.8462 h -2.08253 z m 0,-2.4231 h 2.08253 v -4.8462 h -2.08253 z m 2.08253,12.1155 v -2.4231 h -2.08253 v 2.4231 z m -2.08253,-19.3848 v -2.4231 h -23.94912 v 7.2693 c 1.66603,0 3.0198,1.575 3.0198,3.5135 v 0.2423 c 0,1.9385 -1.35377,3.5135 -3.0198,3.5135 v 7.2693 h 22.90785 l 1.04127,2.4231 h 2.08253 l 1.04127,-2.4231 h 1.04126 c 2.86341,0 5.20633,-2.726 5.20633,-6.0578 v -1.2115 c -1.71789,0 -3.1238,-1.6356 -3.1238,-3.6347 0,-1.999 1.40591,-3.6346 3.1238,-3.6346 v -7.2693 h -7.28886 v 2.4231 z"
         style="clip-rule:evenodd;fill:url(#linearGradient984);fill-opacity:1;fill-rule:evenodd;stroke-width:0.56159" />
      <path
         id="Voucher-s"
         class="st1"
         d="m 144.39625,1041.4346 v -3.3318 c 0.57263,0.6058 1.30139,0.9087 2.08253,0.9087 v 2.4231 c 0,3.9981 -2.81129,7.2693 -6.24759,7.2693 h -1.04127 v -2.4231 h 1.04127 c 2.29078,0 4.16506,-2.1808 4.16506,-4.8462 z m 2.08253,-14.5386 h -2.08253 v 5.7549 c 0.57263,-0.6058 1.30139,-0.9087 2.08253,-0.9087 z m -22.90785,2.4231 c -1.14527,0 -2.08253,1.0904 -2.08253,2.4231 0,1.3327 0.93726,2.4231 2.08253,2.4231 1.14527,0 2.08253,-1.0904 2.08253,-2.4231 0,-1.3327 -0.93726,-2.4231 -2.08253,-2.4231 z m 6.2476,7.2693 c -1.14527,0 -2.08254,1.0904 -2.08254,2.4231 0,1.3327 0.93727,2.4231 2.08254,2.4231 1.14526,0 2.08253,-1.0904 2.08253,-2.4231 0,-1.3327 -0.93727,-2.4231 -2.08253,-2.4231 z m 7.28886,9.6924 H 115.2408 v 2.4231 h 21.86659 z m -14.16122,-4.8462 8.95489,-10.4193 -1.45777,-1.6962 -8.95489,10.4193 z"
         style="fill:#f0f0f0;fill-opacity:1;stroke-width:0.56159" />
    </g>
  </g>
</svg>
