<?xml version="1.0" encoding="UTF-8" standalone="no"?>
<svg
   width="32"
   version="1.1"
   height="32"
   viewBox="0 0 32 32"
   id="svg15"
   sodipodi:docname="folder-snap.svg"
   inkscape:version="1.1.1 (3bf5ae0d25, 2021-09-20)"
   xmlns:inkscape="http://www.inkscape.org/namespaces/inkscape"
   xmlns:sodipodi="http://sodipodi.sourceforge.net/DTD/sodipodi-0.dtd"
   xmlns:xlink="http://www.w3.org/1999/xlink"
   xmlns="http://www.w3.org/2000/svg"
   xmlns:svg="http://www.w3.org/2000/svg"
   xmlns:rdf="http://www.w3.org/1999/02/22-rdf-syntax-ns#"
   xmlns:cc="http://creativecommons.org/ns#"
   xmlns:dc="http://purl.org/dc/elements/1.1/">
  <sodipodi:namedview
     pagecolor="#ffffff"
     bordercolor="#666666"
     borderopacity="1"
     objecttolerance="10"
     gridtolerance="10"
     guidetolerance="10"
     inkscape:pageopacity="0"
     inkscape:pageshadow="2"
     inkscape:window-width="1920"
     inkscape:window-height="1007"
     id="namedview17"
     showgrid="true"
     inkscape:zoom="9.8125"
     inkscape:cx="1.4267516"
     inkscape:cy="9.9363057"
     inkscape:window-x="0"
     inkscape:window-y="0"
     inkscape:window-maximized="1"
     inkscape:current-layer="g4"
     inkscape:pagecheckerboard="0">
    <inkscape:grid
       type="xygrid"
       id="grid862" />
  </sodipodi:namedview>
  <defs
     id="defs5455">
    <linearGradient
       inkscape:collect="always"
       id="linearGradient991">
      <stop
         style="stop-color:#cccccc;stop-opacity:1"
         offset="0"
         id="stop987" />
      <stop
         style="stop-color:#cccccc;stop-opacity:1"
         offset="0.03132199"
         id="stop1929" />
      <stop
         style="stop-color:#0069a6;stop-opacity:1"
         offset="0.05527586"
         id="stop1263" />
      <stop
         style="stop-color:#0069a6;stop-opacity:1"
         offset="0.10902679"
         id="stop1027" />
      <stop
         style="stop-color:#cccccc;stop-opacity:1"
         offset="1"
         id="stop989" />
    </linearGradient>
    <linearGradient
       inkscape:collect="always"
       xlink:href="#linearGradient991"
       id="linearGradient1482-3"
       x1="386.57144"
       y1="516.39801"
       x2="446.62146"
       y2="516.39801"
       gradientUnits="userSpaceOnUse"
       gradientTransform="matrix(1.3906655,0,0,1.3461634,-466.08394,329.31679)" />
    <linearGradient
       inkscape:collect="always"
       xlink:href="#linearGradient911"
       id="linearGradient913"
       x1="414.57144"
       y1="521.79797"
       x2="440.57144"
       y2="521.79797"
       gradientUnits="userSpaceOnUse"
       gradientTransform="matrix(1.3883545,0,0,1.3461634,-465.19054,330.12449)" />
    <linearGradient
       inkscape:collect="always"
       id="linearGradient911">
      <stop
         style="stop-color:#00ffff;stop-opacity:1"
         offset="0"
         id="stop907" />
      <stop
         style="stop-color:#ffb380;stop-opacity:1"
         offset="1"
         id="stop909" />
    </linearGradient>
  </defs>
  <metadata
     id="metadata5458">
    <rdf:RDF>
      <cc:Work
         rdf:about="">
        <dc:format>image/svg+xml</dc:format>
        <dc:type
           rdf:resource="http://purl.org/dc/dcmitype/StillImage" />
      </cc:Work>
    </rdf:RDF>
  </metadata>
  <g
     inkscape:label="Capa 1"
     inkscape:groupmode="layer"
     id="layer1"
     transform="translate(-384.57143,-515.798)">
    <g
       transform="matrix(0.36013848,0,0,0.37142583,359.81878,151.2823)"
       id="g4">
      <path
         d="m 149.33718,1000.7946 h -4.44177 v -1.58989 c 0,-2.76106 -1.24966,-4.12194 -2.29812,-4.77803 -1.12433,-0.70309 -2.22838,-0.73896 -2.43931,-0.73896 h -39.02464 c -0.83577,0 -1.621213,-0.85429 -2.45256,-1.75898 -1.058162,-1.15159 -2.25752,-2.45609 -4.07818,-2.45609 H 77.187609 c -3.238004,0 -5.679967,2.36296 -5.679967,5.49651 v 59.00754 c 0,3.031 2.547867,5.4965 5.679967,5.4965 h 72.149571 c 3.13212,0 5.67999,-2.4655 5.67999,-5.4965 v -47.6856 c 0,-3.0311 -2.54787,-5.4965 -5.67999,-5.4965 z m 3.03239,53.1821 c 0,1.618 -1.35999,2.9336 -3.03239,2.9336 H 77.187609 c -1.672385,0 -3.032375,-1.3156 -3.032375,-2.9336 v -59.00754 c 0,-1.72653 1.24702,-2.93364 3.032375,-2.93364 H 94.6026 c 0.63277,0 1.345871,0.7757 2.100427,1.59667 1.072268,1.1661 2.406657,2.61755 4.430313,2.61755 h 39.00874 c 0.39979,0.0107 1.53386,0.17939 1.95041,1.67269 H 81.336498 c -3.375798,0.0674 -5.140855,1.77607 -5.140855,5.19327 l 0.155329,46.9859 H 77.9607 c 0,0 -0.334038,0.01 0.0014,0.01 0.520688,0 1.34276,0.099 2.110562,-0.4831 1.3794,-1.0473 1.437641,-2.4048 1.425299,-2.7764 l -0.0069,-38.6037 c 0,-5.1257 0,-5.1257 5.295184,-5.1257 l 62.552065,0.2417 c 1.67237,0.01 3.03237,1.3165 3.03237,2.9337 v 47.6856 z"
         id="path2-3-3-6"
         sodipodi:nodetypes="scscsscssssssssscsssssscsccccccsccccsscc"
         style="fill:url(#linearGradient1482-3);fill-opacity:1;stroke-width:0.868295" />
      <path
         style="color:#232629;fill:url(#linearGradient913);fill-opacity:1;stroke:none;stroke-width:1.36709"
         d="m 110.38157,1016.3959 19.43696,18.8463 v -12.1155 z m 20.82532,6.7308 15.27189,6.7309 -4.16506,-6.7309 z m -0.55535,0.4039 -0.13883,10.7693 7.63595,-7.1347 z m -5.69225,8.3462 -9.0243,16.827 13.3282,-12.7885 z"
         class="ColorScheme-Text"
         id="path12" />
    </g>
  </g>
</svg>
