<?xml version="1.0" encoding="UTF-8" standalone="no"?>
<svg
   width="32"
   version="1.1"
   height="32"
   viewBox="0 0 32 32"
   id="svg15"
   sodipodi:docname="folder-podcast.svg"
   inkscape:version="1.1.1 (3bf5ae0d25, 2021-09-20)"
   xmlns:inkscape="http://www.inkscape.org/namespaces/inkscape"
   xmlns:sodipodi="http://sodipodi.sourceforge.net/DTD/sodipodi-0.dtd"
   xmlns:xlink="http://www.w3.org/1999/xlink"
   xmlns="http://www.w3.org/2000/svg"
   xmlns:svg="http://www.w3.org/2000/svg"
   xmlns:rdf="http://www.w3.org/1999/02/22-rdf-syntax-ns#"
   xmlns:cc="http://creativecommons.org/ns#"
   xmlns:dc="http://purl.org/dc/elements/1.1/">
  <sodipodi:namedview
     pagecolor="#ffffff"
     bordercolor="#666666"
     borderopacity="1"
     objecttolerance="10"
     gridtolerance="10"
     guidetolerance="10"
     inkscape:pageopacity="0"
     inkscape:pageshadow="2"
     inkscape:window-width="1920"
     inkscape:window-height="1007"
     id="namedview17"
     showgrid="false"
     inkscape:zoom="9.8125"
     inkscape:cx="-13.757962"
     inkscape:cy="4.0254777"
     inkscape:window-x="0"
     inkscape:window-y="0"
     inkscape:window-maximized="1"
     inkscape:current-layer="layer1"
     inkscape:pagecheckerboard="0" />
  <defs
     id="defs5455">
    <linearGradient
       id="linearGradient4172-0">
      <stop
         style="stop-color:#f89406"
         id="stop4174-4" />
      <stop
         offset="1"
         style="stop-color:#faa938"
         id="stop4176-5" />
    </linearGradient>
    <linearGradient
       inkscape:collect="always"
       xlink:href="#linearGradient4172-0"
       id="linearGradient1482-3"
       x1="386.57144"
       y1="516.39801"
       x2="446.62146"
       y2="516.39801"
       gradientUnits="userSpaceOnUse"
       gradientTransform="matrix(0.5008323,0,0,0.5,191.96397,273.599)" />
    <linearGradient
       inkscape:collect="always"
       xlink:href="#linearGradient4172-0"
       id="linearGradient988"
       x1="0"
       y1="31.973534"
       x2="64"
       y2="31.973534"
       gradientUnits="userSpaceOnUse" />
    <linearGradient
       inkscape:collect="always"
       xlink:href="#linearGradient4172-0"
       id="linearGradient866"
       gradientUnits="userSpaceOnUse"
       x1="0"
       y1="31.973534"
       x2="64"
       y2="31.973534" />
  </defs>
  <metadata
     id="metadata5458">
    <rdf:RDF>
      <cc:Work
         rdf:about="">
        <dc:format>image/svg+xml</dc:format>
        <dc:type
           rdf:resource="http://purl.org/dc/dcmitype/StillImage" />
      </cc:Work>
    </rdf:RDF>
  </metadata>
  <g
     inkscape:label="Capa 1"
     inkscape:groupmode="layer"
     id="layer1"
     transform="translate(-384.57143,-515.798)">
    <path
       d="m 413.60085,523.00324 h -1.59966 v -0.5905 c 0,-1.02553 -0.45005,-1.531 -0.82764,-1.77469 -0.40491,-0.26114 -0.80252,-0.27447 -0.87849,-0.27447 h -14.05428 c -0.30099,0 -0.58386,-0.3173 -0.88326,-0.65333 -0.38108,-0.42773 -0.81302,-0.91225 -1.46871,-0.91225 H 387.617 c -1.16613,0 -2.04557,0.87766 -2.04557,2.04154 v 21.91691 c 0,1.1258 0.91758,2.04155 2.04557,2.04155 h 25.98385 c 1.12799,0 2.04558,-0.91575 2.04558,-2.04155 v -17.71166 c 0,-1.1258 -0.91759,-2.04155 -2.04558,-2.04155 z m 1.09208,19.75321 c 0,0.60098 -0.48979,1.08963 -1.09208,1.08963 H 387.617 c -0.60229,0 -1.09207,-0.48865 -1.09207,-1.08963 v -21.91691 c 0,-0.64127 0.4491,-1.08963 1.09207,-1.08963 h 6.27181 c 0.22789,0 0.4847,0.28812 0.75645,0.59305 0.38616,0.43312 0.86673,0.97222 1.59552,0.97222 h 14.04856 c 0.14398,0.004 0.5524,0.0666 0.70241,0.62128 h -21.88057 c -1.21576,0.025 -1.85142,0.65968 -1.85142,1.9289 l 0.0559,17.4518 h 0.57972 c 0,0 -0.1203,0.001 4.9e-4,0.001 0.18752,0 0.48358,0.0367 0.76009,-0.17942 0.49678,-0.38902 0.51775,-0.89322 0.51331,-1.03125 l -0.002,-14.3384 c 0,-1.90384 0,-1.90384 1.907,-1.90384 l 22.52741,0.0898 c 0.60228,0.003 1.09207,0.48897 1.09207,1.08963 v 17.71166 z"
       id="path2-3-3-5"
       sodipodi:nodetypes="scscsscssssssssscsssssscsccccccsccccsscc"
       style="fill:url(#linearGradient1482-3);fill-opacity:1;stroke-width:0.317569" />
    <g
       id="g1408"
       transform="matrix(0.1875,0,0,0.18734505,400.57143,528.80791)"
       style="fill:url(#linearGradient988);fill-opacity:1">
      <path
         class="st1"
         d="m 0,20.000001 h 2.031746 c 5.5873016,0 11.174602,1.099998 16.355556,3.199998 5.180952,2.100001 9.853968,5.200003 13.815873,9.100002 3.961905,3.9 7.111111,8.499999 9.244443,13.6 2.133334,5.1 3.250794,10.599999 3.250794,16.1 V 64 H 28.444445 v -1.999999 c 0,-14.400001 -11.784128,-26 -26.412699,-26 H 0 Z m 31.288888,28 c 2.234922,0 4.063493,-1.8 4.063493,-4.000001 0,-0.599999 -0.101589,-1.199999 -0.40635,-1.699999 -1.625396,-2.600001 -3.453967,-5 -5.688887,-7.099999 -3.555557,-3.500001 -7.822224,-6.300003 -12.49524,-8.2 C 12.698412,25.3 8.431746,24.399999 4.063492,24.200002 v 7.999997 c 10.260318,0.7 19.098413,6.300002 24.177778,14.500002 0.711111,0.799999 1.828571,1.3 3.047618,1.3 z M 10.15873,44 C 4.5714285,44 0,48.500001 0,54 c 0,5.500001 4.5714285,10 10.15873,10 5.587301,0 10.15873,-4.499999 10.15873,-10 0,-5.499999 -4.571429,-10 -10.15873,-10 z M 4.063492,54 c 0,-3.3 2.7428572,-5.999999 6.095238,-5.999999 3.35238,0 6.095239,2.699999 6.095239,5.999999 0,3.300001 -2.742859,6.200001 -6.095239,6.200001 -3.3523808,0 -6.095238,-2.9 -6.095238,-6.200001 z M 3.9707326,-0.05293123 C 1.2639211,-0.03687541 0,1.7268151 0,5.3333333 V 16 h 2.031746 c 25.803175,0 46.730159,20.600001 46.730159,46.000001 L 64,61.000001 53.84127,30 h -2.641271 c 0.304762,0.600001 0.507937,1.199999 0.507937,2.000001 0,2.2 -1.828571,4 -4.063491,4 -1.219049,0 -2.234922,-0.5 -3.04762,-1.300002 C 35.860317,21.600001 21.028571,12.700001 4.063492,12.000002 V 4 C 4.6730159,4 5.2825397,4.1000001 5.9936507,4.1000001 L 6.2984127,0.09999999 C 4.8761905,0 3.9707326,-0.05293123 3.9707326,-0.05293123 Z"
         id="path6"
         sodipodi:nodetypes="csssssccssccssccccccssssssssssssccsccccsscccccs"
         style="fill:url(#linearGradient866);fill-opacity:1;stroke-width:1.00789" />
      <path
         class="st2"
         d="M 4,4 C 34.4,5 58.9,29.499361 60,59.999361 L 55.712365,60 H 48 v 4 H 58.757973 C 63.999998,64 64,59.996692 64,59.996692 L 63.97753,58.767219 C 63.439154,29.309317 37.3,1.1 4,0 Z"
         id="path8"
         style="fill:#f0f0f0;fill-opacity:1"
         sodipodi:nodetypes="cccccccscc" />
    </g>
  </g>
</svg>
