<?xml version="1.0" encoding="UTF-8" standalone="no"?>
<svg
   height="32"
   width="32"
   version="1.1"
   id="svg23"
   sodipodi:docname="folder-root.svg"
   inkscape:version="1.1.1 (3bf5ae0d25, 2021-09-20)"
   xmlns:inkscape="http://www.inkscape.org/namespaces/inkscape"
   xmlns:sodipodi="http://sodipodi.sourceforge.net/DTD/sodipodi-0.dtd"
   xmlns:xlink="http://www.w3.org/1999/xlink"
   xmlns="http://www.w3.org/2000/svg"
   xmlns:svg="http://www.w3.org/2000/svg"
   xmlns:rdf="http://www.w3.org/1999/02/22-rdf-syntax-ns#"
   xmlns:cc="http://creativecommons.org/ns#"
   xmlns:dc="http://purl.org/dc/elements/1.1/">
  <metadata
     id="metadata29">
    <rdf:RDF>
      <cc:Work
         rdf:about="">
        <dc:format>image/svg+xml</dc:format>
        <dc:type
           rdf:resource="http://purl.org/dc/dcmitype/StillImage" />
      </cc:Work>
    </rdf:RDF>
  </metadata>
  <defs
     id="defs27">
    <linearGradient
       inkscape:collect="always"
       xlink:href="#linearGradient991"
       id="linearGradient1482"
       x1="386.57144"
       y1="516.39801"
       x2="446.62146"
       y2="516.39801"
       gradientUnits="userSpaceOnUse"
       gradientTransform="matrix(0.5008323,0,0,0.5,-192.60746,-242.199)" />
    <linearGradient
       inkscape:collect="always"
       id="linearGradient991">
      <stop
         style="stop-color:#cccccc;stop-opacity:1"
         offset="0"
         id="stop987" />
      <stop
         style="stop-color:#cccccc;stop-opacity:1"
         offset="0.03132199"
         id="stop1929" />
      <stop
         style="stop-color:#0069a6;stop-opacity:1"
         offset="0.05527586"
         id="stop1263" />
      <stop
         style="stop-color:#0069a6;stop-opacity:1"
         offset="0.10902679"
         id="stop1027" />
      <stop
         style="stop-color:#cccccc;stop-opacity:1"
         offset="1"
         id="stop989" />
    </linearGradient>
    <linearGradient
       inkscape:collect="always"
       xlink:href="#linearGradient1492"
       id="linearGradient1494"
       x1="4"
       y1="32"
       x2="60"
       y2="32"
       gradientUnits="userSpaceOnUse" />
    <linearGradient
       inkscape:collect="always"
       id="linearGradient1492">
      <stop
         style="stop-color:#2ad4ff;stop-opacity:1"
         offset="0"
         id="stop1488" />
      <stop
         style="stop-color:#2a7fff;stop-opacity:1"
         offset="1"
         id="stop1490" />
    </linearGradient>
  </defs>
  <sodipodi:namedview
     pagecolor="#ffffff"
     bordercolor="#666666"
     borderopacity="1"
     objecttolerance="10"
     gridtolerance="10"
     guidetolerance="10"
     inkscape:pageopacity="0"
     inkscape:pageshadow="2"
     inkscape:window-width="1920"
     inkscape:window-height="1007"
     id="namedview25"
     showgrid="false"
     inkscape:zoom="9.8125"
     inkscape:cx="-11.210191"
     inkscape:cy="12.535032"
     inkscape:window-x="0"
     inkscape:window-y="0"
     inkscape:window-maximized="1"
     inkscape:current-layer="svg23"
     inkscape:pagecheckerboard="0" />
  <linearGradient
     id="a"
     gradientUnits="userSpaceOnUse"
     x2="0"
     y1="29"
     y2="8">
    <stop
       offset="0"
       stop-color="#3daee9"
       id="stop2" />
    <stop
       offset="1"
       stop-color="#6cc1ef"
       id="stop4" />
  </linearGradient>
  <path
     d="M 29.02942,7.205245 H 27.429765 V 6.61474 c 0,-1.02553 -0.45005,-1.530995 -0.82764,-1.774685 C 26.19721,4.57891 25.7996,4.565585 25.723635,4.565585 h -14.05428 c -0.30099,0 -0.58386,-0.317305 -0.88326,-0.65333 C 10.40501,3.484525 9.973075,3 9.317385,3 H 3.0455749 C 1.8794449,3 1,3.877665 1,5.041545 v 21.91691 C 1,28.084255 1.9175849,29 3.0455749,29 H 29.02942 C 30.157415,29 31.075,28.084255 31.075,26.958455 V 9.24679 c 0,-1.1258 -0.917585,-2.041545 -2.04558,-2.041545 z m 1.09208,19.75321 c 0,0.60098 -0.489785,1.08963 -1.09208,1.08963 H 3.0455749 c -0.60229,0 -1.092075,-0.48865 -1.092075,-1.08963 V 5.041545 c 0,-0.641275 0.4491,-1.08963 1.092075,-1.08963 h 6.27181 c 0.227885,0 0.4847,0.288115 0.7564451,0.593045 0.386165,0.43312 0.86673,0.972225 1.595525,0.972225 H 25.71791 c 0.14398,0.004 0.5524,0.06663 0.702415,0.62128 H 4.5397499 c -1.215755,0.02505 -1.85142,0.65968 -1.85142,1.9289 l 0.05594,17.451795 h 0.579725 c 0,0 -0.1203,0.001 4.85e-4,0.001 0.18752,0 0.48358,0.03665 0.760095,-0.17942 0.496775,-0.389015 0.51775,-0.893215 0.513305,-1.031245 L 4.5953799,9.97109 c 0,-1.903835 0,-1.903835 1.907,-1.903835 l 22.5274101,0.0898 c 0.602285,0.0025 1.092075,0.488965 1.092075,1.089625 v 17.711665 z"
     id="path2-3-3-3"
     sodipodi:nodetypes="scscsscssssssssscsssssscsccccccsccccsscc"
     style="fill:url(#linearGradient1482);fill-opacity:1;stroke-width:0.317569" />
  <polygon
     id="X"
     class="st0"
     points="15.2,60 32,43.2 48.8,60 60,48.8 43.2,32 60,15.2 48.8,4 4,48.8 "
     transform="matrix(0.2141901,0,0,0.21419009,14.645917,12.746988)"
     style="fill:url(#linearGradient1494);fill-opacity:1" />
  <path
     id="X-s"
     class="st1"
     d="m 17.044847,16.880858 2.39893,2.39893 -0.599735,0.59973 -2.42035,-2.39893 c -0.663985,-0.66399 -0.663985,-1.73494 0,-2.420345 l 1.477915,-1.456495 0.59973,0.59973 -1.45649,1.456495 c -0.342705,0.342705 -0.342705,0.8996 0,1.220885 z m 9.852745,-0.27845 -2.998665,2.99866 0.599735,0.599735 2.99866,-2.99866 z m -2.87015,7.646585 -2.39893,-2.398925 -3.127175,3.148595 0.599735,0.59973 2.52744,-2.527445 1.77778,1.77778 c 1.006695,1.006695 2.634535,1.006695 3.64123,0 l 0.4498,-0.4498 -0.59973,-0.59973 -0.4498,0.449795 c -0.66399,0.66399 -1.75636,0.66399 -2.42035,0 z"
     style="fill:#f0f0f0;fill-opacity:1;stroke-width:0.21419" />
</svg>
