<?xml version="1.0" encoding="UTF-8" standalone="no"?>
<svg
   width="32"
   version="1.1"
   height="32"
   viewBox="0 0 32 32"
   id="svg15"
   sodipodi:docname="folder-design.svg"
   inkscape:version="1.1.1 (3bf5ae0d25, 2021-09-20)"
   xmlns:inkscape="http://www.inkscape.org/namespaces/inkscape"
   xmlns:sodipodi="http://sodipodi.sourceforge.net/DTD/sodipodi-0.dtd"
   xmlns:xlink="http://www.w3.org/1999/xlink"
   xmlns="http://www.w3.org/2000/svg"
   xmlns:svg="http://www.w3.org/2000/svg"
   xmlns:rdf="http://www.w3.org/1999/02/22-rdf-syntax-ns#"
   xmlns:cc="http://creativecommons.org/ns#"
   xmlns:dc="http://purl.org/dc/elements/1.1/">
  <sodipodi:namedview
     pagecolor="#ffffff"
     bordercolor="#666666"
     borderopacity="1"
     objecttolerance="10"
     gridtolerance="10"
     guidetolerance="10"
     inkscape:pageopacity="0"
     inkscape:pageshadow="2"
     inkscape:window-width="1920"
     inkscape:window-height="1007"
     id="namedview17"
     showgrid="true"
     inkscape:zoom="9.8125"
     inkscape:cx="1.4267516"
     inkscape:cy="18.089172"
     inkscape:window-x="0"
     inkscape:window-y="0"
     inkscape:window-maximized="1"
     inkscape:current-layer="g4"
     inkscape:pagecheckerboard="0">
    <inkscape:grid
       type="xygrid"
       id="grid862" />
  </sodipodi:namedview>
  <defs
     id="defs5455">
    <linearGradient
       inkscape:collect="always"
       id="linearGradient991">
      <stop
         style="stop-color:#cccccc;stop-opacity:1"
         offset="0"
         id="stop987" />
      <stop
         style="stop-color:#cccccc;stop-opacity:1"
         offset="0.03132199"
         id="stop1929" />
      <stop
         style="stop-color:#0069a6;stop-opacity:1"
         offset="0.05527586"
         id="stop1263" />
      <stop
         style="stop-color:#0069a6;stop-opacity:1"
         offset="0.10902679"
         id="stop1027" />
      <stop
         style="stop-color:#cccccc;stop-opacity:1"
         offset="1"
         id="stop989" />
    </linearGradient>
    <linearGradient
       inkscape:collect="always"
       xlink:href="#linearGradient991"
       id="linearGradient1482-3"
       x1="386.57144"
       y1="516.39801"
       x2="446.62146"
       y2="516.39801"
       gradientUnits="userSpaceOnUse"
       gradientTransform="matrix(1.3906658,0,0,1.3461637,-466.08408,329.31664)" />
    <linearGradient
       inkscape:collect="always"
       xlink:href="#linearGradient975"
       id="linearGradient977"
       x1="429.92029"
       y1="510.79843"
       x2="429.57144"
       y2="533.79797"
       gradientUnits="userSpaceOnUse"
       gradientTransform="matrix(1.3883548,0,0,1.3461637,-463.51518,329.85511)" />
    <linearGradient
       inkscape:collect="always"
       id="linearGradient975">
      <stop
         style="stop-color:#263740;stop-opacity:1"
         offset="0"
         id="stop971" />
      <stop
         style="stop-color:#263740;stop-opacity:1"
         offset="0.00867707"
         id="stop1397" />
      <stop
         style="stop-color:#ffccaa;stop-opacity:1"
         offset="0.00867707"
         id="stop1527" />
      <stop
         style="stop-color:#ffdd55;stop-opacity:1"
         offset="1"
         id="stop973" />
    </linearGradient>
  </defs>
  <metadata
     id="metadata5458">
    <rdf:RDF>
      <cc:Work
         rdf:about="">
        <dc:format>image/svg+xml</dc:format>
        <dc:type
           rdf:resource="http://purl.org/dc/dcmitype/StillImage" />
      </cc:Work>
    </rdf:RDF>
  </metadata>
  <g
     inkscape:label="Capa 1"
     inkscape:groupmode="layer"
     id="layer1"
     transform="translate(-384.57143,-515.798)">
    <g
       transform="matrix(0.36013848,0,0,0.37142583,359.81878,151.2823)"
       id="g4">
      <path
         d="m 149.33719,1000.7945 h -4.44178 v -1.58979 c 0,-2.76106 -1.24965,-4.12194 -2.29811,-4.77803 -1.12433,-0.70309 -2.22838,-0.73896 -2.43931,-0.73896 h -39.02466 c -0.83576,0 -1.621206,-0.85429 -2.452553,-1.75898 -1.058163,-1.15159 -2.257521,-2.45609 -4.078181,-2.45609 H 77.1876 c -3.238005,0 -5.679968,2.36296 -5.679968,5.49651 v 59.00734 c 0,3.0311 2.547867,5.4966 5.679968,5.4966 h 72.14959 c 3.13211,0 5.67998,-2.4655 5.67998,-5.4966 v -47.6856 c 0,-3.031 -2.54787,-5.4964 -5.67998,-5.4964 z m 3.03239,53.182 c 0,1.6181 -1.35999,2.9337 -3.03239,2.9337 H 77.1876 c -1.672385,0 -3.032375,-1.3156 -3.032375,-2.9337 v -59.00734 c 0,-1.72653 1.24702,-2.93364 3.032375,-2.93364 h 17.414996 c 0.63277,0 1.345871,0.7757 2.100428,1.59667 1.072268,1.1661 2.406657,2.61755 4.430306,2.61755 h 39.00876 c 0.39979,0.0107 1.53385,0.17939 1.9504,1.67269 H 81.336491 c -3.3758,0.0674 -5.140857,1.77607 -5.140857,5.19307 l 0.155329,46.986 h 1.609728 c 0,0 -0.334038,0.01 0.0014,0.01 0.520689,0 1.342761,0.099 2.110563,-0.4831 1.379401,-1.0474 1.437643,-2.4048 1.4253,-2.7765 l -0.0069,-38.6036 c 0,-5.1258 0,-5.1258 5.295185,-5.1258 l 62.552071,0.2418 c 1.67237,0.01 3.03238,1.3164 3.03238,2.9336 v 47.6856 z"
         id="path2-3-3-6"
         sodipodi:nodetypes="scscsscssssssssscsssssscsccccccsccccsscc"
         style="fill:url(#linearGradient1482-3);fill-opacity:1;stroke-width:0.868295" />
      <path
         style="color:#232629;fill:url(#linearGradient977);fill-opacity:1;stroke:none;stroke-width:1.14765"
         d="m 133.36645,1017.4727 c -0.61434,0 -1.11728,0.4446 -1.11728,0.9955 v 0.9106 c -1.97962,0.4558 -3.40392,2.0302 -3.40392,3.9224 0,1.3247 0.70529,2.5035 1.80611,3.2454 0.11718,0.1241 0.18936,0.2813 0.18936,0.4564 0,0.051 6e-5,0.1008 -0.007,0.1486 l -4.89284,9.2989 h -2.02389 c -0.33024,0 -0.60124,0.2387 -0.60124,0.5348 v 0.01 c 0,0.2962 0.271,0.5349 0.60124,0.5349 h 1.46053 l -3.77793,7.1806 c -0.23792,0.4554 -0.11967,0.9817 0.25328,1.3224 l -1.45577,2.651 2.30084,-2.235 c 0.61077,0.1433 1.26401,-0.1178 1.54099,-0.6431 l 4.3555,-8.2759 h 3.82763 v 0.7111 c 0,0.4521 0.41063,0.8172 0.91843,0.8172 h 0.0497 c 0.5078,0 0.92081,-0.3651 0.92081,-0.8172 v -0.7111 h 3.91522 l 4.35313,8.2759 c 0.27344,0.5285 0.93139,0.7864 1.53863,0.6431 l 2.30084,2.235 -1.45104,-2.651 c 0.36931,-0.3407 0.48884,-0.8639 0.25091,-1.3224 l -3.77792,-7.1806 h 1.37056 c 0.3338,0 0.60124,-0.2387 0.60124,-0.5349 0,-0.2961 -0.26744,-0.5338 -0.60124,-0.537 h -1.93394 l -4.89047,-9.2989 c -0.007,-0.048 -0.007,-0.098 -0.007,-0.1486 0,-0.1719 0.0711,-0.3321 0.18464,-0.4563 1.10083,-0.7419 1.81085,-1.9208 1.81085,-3.2454 0,-1.9182 -1.49128,-3.512 -3.49387,-3.9437 v -0.8893 c 0,-0.5509 -0.49703,-0.9955 -1.11492,-0.9955 z m 1.06284,3.672 c 0.94191,0.3548 1.60253,1.1863 1.60253,2.1565 0,1.2928 -1.17156,2.3412 -2.62039,2.3412 -1.45594,0 -2.62041,-1.0484 -2.62041,-2.3412 0,-0.9388 0.62243,-1.7434 1.51969,-2.1161 0.13301,0.4151 0.54486,0.7259 1.05574,0.7259 0.52409,0 0.94448,-0.3296 1.06284,-0.7663 z m -1.03917,7.775 h 0.0214 0.0214 c 0.14204,0 0.26748,0.059 0.3456,0.1485 l 3.88444,7.3823 h -3.35184 v -0.8639 c 0,-0.4554 -0.41301,-0.8214 -0.92081,-0.8214 h -0.0497 c -0.5078,0 -0.91844,0.3692 -0.91844,0.8214 v 0.8639 h -3.26425 l 3.88443,-7.3823 c 0.0816,-0.092 0.20594,-0.1485 0.34798,-0.1485 z"
         class="ColorScheme-Text"
         id="path12" />
    </g>
  </g>
</svg>
