<?xml version="1.0" encoding="UTF-8" standalone="no"?>
<svg
   width="32"
   version="1.1"
   height="32"
   viewBox="0 0 32 32"
   id="svg15"
   sodipodi:docname="folder-KDE.svg"
   inkscape:version="1.1.1 (3bf5ae0d25, 2021-09-20)"
   xmlns:inkscape="http://www.inkscape.org/namespaces/inkscape"
   xmlns:sodipodi="http://sodipodi.sourceforge.net/DTD/sodipodi-0.dtd"
   xmlns:xlink="http://www.w3.org/1999/xlink"
   xmlns="http://www.w3.org/2000/svg"
   xmlns:svg="http://www.w3.org/2000/svg"
   xmlns:rdf="http://www.w3.org/1999/02/22-rdf-syntax-ns#"
   xmlns:cc="http://creativecommons.org/ns#"
   xmlns:dc="http://purl.org/dc/elements/1.1/">
  <sodipodi:namedview
     pagecolor="#ffffff"
     bordercolor="#666666"
     borderopacity="1"
     objecttolerance="10"
     gridtolerance="10"
     guidetolerance="10"
     inkscape:pageopacity="0"
     inkscape:pageshadow="2"
     inkscape:window-width="1920"
     inkscape:window-height="1007"
     id="namedview17"
     showgrid="false"
     inkscape:zoom="9.8125"
     inkscape:cx="-26.089172"
     inkscape:cy="8.6624204"
     inkscape:window-x="0"
     inkscape:window-y="0"
     inkscape:window-maximized="1"
     inkscape:current-layer="layer1"
     inkscape:document-rotation="0"
     inkscape:pagecheckerboard="0" />
  <defs
     id="defs5455">
    <linearGradient
       inkscape:collect="always"
       xlink:href="#linearGradient957"
       id="linearGradient959"
       x1="418.86243"
       y1="521.65509"
       x2="439.54556"
       y2="521.65509"
       gradientUnits="userSpaceOnUse"
       gradientTransform="matrix(0.5,0,0,0.5,192.28571,273.899)" />
    <linearGradient
       inkscape:collect="always"
       id="linearGradient957">
      <stop
         style="stop-color:#80d0ff;stop-opacity:1"
         offset="0"
         id="stop953" />
      <stop
         style="stop-color:#0069a6;stop-opacity:1"
         offset="1"
         id="stop955" />
    </linearGradient>
    <linearGradient
       inkscape:collect="always"
       xlink:href="#linearGradient991"
       id="linearGradient1482"
       x1="386.57144"
       y1="516.39801"
       x2="446.62146"
       y2="516.39801"
       gradientUnits="userSpaceOnUse"
       gradientTransform="matrix(0.5008323,0,0,0.5,191.96397,273.599)" />
    <linearGradient
       inkscape:collect="always"
       id="linearGradient991">
      <stop
         style="stop-color:#cccccc;stop-opacity:1"
         offset="0"
         id="stop987" />
      <stop
         style="stop-color:#cccccc;stop-opacity:1"
         offset="0.03132199"
         id="stop1929" />
      <stop
         style="stop-color:#0069a6;stop-opacity:1"
         offset="0.05527586"
         id="stop1263" />
      <stop
         style="stop-color:#0069a6;stop-opacity:1"
         offset="0.10902679"
         id="stop1027" />
      <stop
         style="stop-color:#cccccc;stop-opacity:1"
         offset="1"
         id="stop989" />
    </linearGradient>
  </defs>
  <metadata
     id="metadata5458">
    <rdf:RDF>
      <cc:Work
         rdf:about="">
        <dc:format>image/svg+xml</dc:format>
        <dc:type
           rdf:resource="http://purl.org/dc/dcmitype/StillImage" />
      </cc:Work>
    </rdf:RDF>
  </metadata>
  <g
     inkscape:label="Capa 1"
     inkscape:groupmode="layer"
     id="layer1"
     transform="translate(-384.57143,-515.798)">
    <path
       style="fill:url(#linearGradient959);fill-opacity:1;stroke-width:0.517025"
       d="m 407.92132,529.298 -2.06806,0.31304 v 7.48062 l 2.06806,-0.5554 v -2.89003 l 2.0681,3.40706 2.06806,-0.77556 -2.58508,-3.10211 2.58609,-3.35958 -2.00647,-0.51804 -2.1307,3.39092 z m -4.21087,2.02871 c -0.0489,0 -0.0978,0.0189 -0.13532,0.0565 l -0.81288,0.81287 c -0.075,0.075 -0.0569,0.18216 0,0.27163 l 0.84118,1.32083 c -0.0623,0.12938 -0.1163,0.26261 -0.16159,0.3989 -0.002,0.006 -0.005,0.0113 -0.007,0.017 l -1.52579,0.3393 c -0.10354,0.0231 -0.19187,0.0858 -0.19187,0.19183 v 0.50796 0.50792 c 0,0.10606 0.0883,0.16886 0.19187,0.19187 l 1.52579,0.3393 c 0.003,0.0101 0.009,0.0194 0.0121,0.0291 0.0442,0.13235 0.0964,0.26186 0.15654,0.38775 l -0.84116,1.31982 c -0.057,0.0895 -0.075,0.19664 0,0.27162 l 0.81287,0.81291 c 0.075,0.075 0.19562,0.075 0.27065,0 l 1.3188,-0.84015 c 0.12965,0.063 0.2632,0.11769 0.39987,0.16357 0.009,0.003 0.0171,0.008 0.0262,0.0112 l 0.33828,1.52482 c 0,0.10605 0.0858,0.19186 0.19187,0.19186 h 1.14815 c 0.10606,0 0.16883,-0.0883 0.19183,-0.19186 l 0.33829,-1.57127 c 0.15543,-0.0584 0.30632,-0.12828 0.45139,-0.20903 l 1.28748,0.92096 c 0.075,0.075 0.19563,0.075 0.27065,0 l 0.81287,-0.81291 c 0.075,-0.075 0.057,-0.18214 0,-0.27162 l -0.48974,-0.7432 -0.0515,0.0193 c -0.11646,0.0439 -0.24755,-10e-4 -0.31203,-0.10804 l -0.51499,-0.84824 c -0.42907,1.02637 -1.44245,1.74794 -2.62447,1.74794 -1.57049,0 -2.84362,-1.27313 -2.84362,-2.84357 0,-1.20516 0.75113,-2.23269 1.80957,-2.64671 v -0.5665 l -0.004,0.0183 c -0.0115,0.004 -0.022,0.0102 -0.0334,0.014 -0.13484,0.0449 -0.26672,0.0981 -0.39483,0.15955 l -1.31678,-0.83914 c -0.0374,-0.0374 -0.0864,-0.0566 -0.13532,-0.0566 z"
       class="ColorScheme-Text"
       id="path10-7-7" />
    <path
       id="Power-s-5"
       class="st1"
       d="m 413.09153,535.8693 v 0 h -0.77555 v 0 c 0,2.57864 -2.59154,4.65318 -5.17017,4.65318 v 0.77552 c 3.00515,0 5.94572,-2.42354 5.94572,-5.4287 z"
       style="fill:#f1f2f3;fill-opacity:1;stroke-width:0.193883"
       sodipodi:nodetypes="ccccccc" />
    <path
       d="m 413.60085,523.00324 h -1.59966 v -0.5905 c 0,-1.02553 -0.45005,-1.531 -0.82764,-1.77469 -0.40491,-0.26114 -0.80252,-0.27447 -0.87849,-0.27447 h -14.05428 c -0.30099,0 -0.58385,-0.3173 -0.88326,-0.65333 -0.38108,-0.42773 -0.81302,-0.91225 -1.46871,-0.91225 H 387.617 c -1.16612,0 -2.04557,0.87766 -2.04557,2.04155 v 21.9169 c 0,1.1258 0.91759,2.04155 2.04557,2.04155 h 25.98385 c 1.12799,0 2.04558,-0.91575 2.04558,-2.04155 v -17.71166 c 0,-1.1258 -0.91759,-2.04155 -2.04558,-2.04155 z m 1.09208,19.75321 c 0,0.60098 -0.48979,1.08963 -1.09208,1.08963 H 387.617 c -0.60229,0 -1.09207,-0.48865 -1.09207,-1.08963 v -21.9169 c 0,-0.64128 0.4491,-1.08964 1.09207,-1.08964 h 6.27181 c 0.22789,0 0.48471,0.28812 0.75645,0.59305 0.38617,0.43312 0.86673,0.97223 1.59552,0.97223 h 14.04856 c 0.14398,0.004 0.5524,0.0666 0.70242,0.62127 h -21.88058 c -1.21576,0.0251 -1.85142,0.65968 -1.85142,1.9289 l 0.0559,17.4518 h 0.57972 c 0,0 -0.12029,0.001 4.9e-4,0.001 0.18752,0 0.48358,0.0367 0.7601,-0.17942 0.49677,-0.38902 0.51775,-0.89321 0.5133,-1.03125 l -0.002,-14.3384 c 0,-1.90384 0,-1.90384 1.907,-1.90384 l 22.52741,0.0898 c 0.60229,0.002 1.09208,0.48897 1.09208,1.08963 v 17.71166 z"
       id="path2-3-3"
       sodipodi:nodetypes="scscsscssssssssscsssssscsccccccsccccsscc"
       style="fill:url(#linearGradient1482);fill-opacity:1;stroke-width:0.317569" />
  </g>
</svg>
