<?xml version="1.0" encoding="UTF-8" standalone="no"?>
<svg
   width="32"
   version="1.1"
   height="32"
   viewBox="0 0 32 32"
   id="svg15"
   sodipodi:docname="folder-openSUSE.svg"
   inkscape:version="1.1.1 (3bf5ae0d25, 2021-09-20)"
   xmlns:inkscape="http://www.inkscape.org/namespaces/inkscape"
   xmlns:sodipodi="http://sodipodi.sourceforge.net/DTD/sodipodi-0.dtd"
   xmlns:xlink="http://www.w3.org/1999/xlink"
   xmlns="http://www.w3.org/2000/svg"
   xmlns:svg="http://www.w3.org/2000/svg"
   xmlns:rdf="http://www.w3.org/1999/02/22-rdf-syntax-ns#"
   xmlns:cc="http://creativecommons.org/ns#"
   xmlns:dc="http://purl.org/dc/elements/1.1/">
  <sodipodi:namedview
     pagecolor="#ffffff"
     bordercolor="#666666"
     borderopacity="1"
     objecttolerance="10"
     gridtolerance="10"
     guidetolerance="10"
     inkscape:pageopacity="0"
     inkscape:pageshadow="2"
     inkscape:window-width="1920"
     inkscape:window-height="1007"
     id="namedview17"
     showgrid="false"
     inkscape:zoom="9.8125"
     inkscape:cx="-26.089172"
     inkscape:cy="0.50955414"
     inkscape:window-x="0"
     inkscape:window-y="0"
     inkscape:window-maximized="1"
     inkscape:current-layer="layer1"
     inkscape:document-rotation="0"
     inkscape:pagecheckerboard="0" />
  <defs
     id="defs5455">
    <linearGradient
       inkscape:collect="always"
       xlink:href="#linearGradient1163"
       id="linearGradient1165"
       x1="415.57144"
       y1="522.79797"
       x2="439.57144"
       y2="522.79797"
       gradientUnits="userSpaceOnUse"
       gradientTransform="matrix(0.5,0,0,0.5,192.28572,273.899)" />
    <linearGradient
       inkscape:collect="always"
       id="linearGradient1163">
      <stop
         style="stop-color:#00a489;stop-opacity:1"
         offset="0"
         id="stop1159" />
      <stop
         style="stop-color:#55ddff;stop-opacity:1"
         offset="1"
         id="stop1161" />
    </linearGradient>
    <linearGradient
       inkscape:collect="always"
       xlink:href="#linearGradient991"
       id="linearGradient1482"
       x1="386.57144"
       y1="516.39801"
       x2="446.62146"
       y2="516.39801"
       gradientUnits="userSpaceOnUse"
       gradientTransform="matrix(0.5008323,0,0,0.5,191.96397,273.599)" />
    <linearGradient
       inkscape:collect="always"
       id="linearGradient991">
      <stop
         style="stop-color:#cccccc;stop-opacity:1"
         offset="0"
         id="stop987" />
      <stop
         style="stop-color:#cccccc;stop-opacity:1"
         offset="0.03132199"
         id="stop1929" />
      <stop
         style="stop-color:#0069a6;stop-opacity:1"
         offset="0.05527586"
         id="stop1263" />
      <stop
         style="stop-color:#0069a6;stop-opacity:1"
         offset="0.10902679"
         id="stop1027" />
      <stop
         style="stop-color:#cccccc;stop-opacity:1"
         offset="1"
         id="stop989" />
    </linearGradient>
  </defs>
  <metadata
     id="metadata5458">
    <rdf:RDF>
      <cc:Work
         rdf:about="">
        <dc:format>image/svg+xml</dc:format>
        <dc:type
           rdf:resource="http://purl.org/dc/dcmitype/StillImage" />
      </cc:Work>
    </rdf:RDF>
  </metadata>
  <g
     inkscape:label="Capa 1"
     inkscape:groupmode="layer"
     id="layer1"
     transform="translate(-384.57143,-515.798)">
    <path
       style="color:#4d4d4d;font-size:20.4884px;font-family:TrebuchetMS-Bold;fill:url(#linearGradient1165);fill-opacity:1;fill-rule:evenodd;stroke:none;stroke-width:0.0859095;stroke-miterlimit:4"
       d="m 406.07143,529.298 c -3.31341,0 -6,2.68633 -6,6 0,3.31367 2.68659,6 6,6 3.31341,0 6,-2.68633 6,-6 0,-3.31367 -2.68659,-6 -6,-6 z m 0.0279,0.83084 c 2.85499,0 5.17126,2.31448 5.17126,5.16916 0,2.85493 -2.31662,5.16915 -5.17126,5.16915 -1.54157,0 -2.92488,-0.67563 -3.87185,-1.74588 0.3894,-0.30223 1.04082,-0.22859 1.84311,-0.13718 0.38447,0.0444 0.82279,0.0939 1.27515,0.10395 1.26387,0.008 2.62368,-0.2233 3.46298,-0.59011 0.54261,-0.2379 0.88999,-0.3947 1.10716,-0.59215 0.0783,-0.0644 0.11945,-0.17155 0.16135,-0.28293 l 0.0279,-0.0752 c 0.0353,-0.0899 0.0856,-0.28339 0.10827,-0.38892 0.0104,-0.0465 0.0146,-0.0959 -0.0179,-0.12149 l -0.11712,0.0224 c -0.36826,0.22085 -1.28834,0.64138 -2.15028,0.65845 -1.06809,0.0226 -3.2208,-1.07522 -3.4453,-1.19103 l -0.0224,-0.0261 c -0.0535,-0.12847 -0.37598,-0.89331 -0.4442,-1.05421 1.54951,1.02043 2.83421,1.58514 3.81879,1.67296 1.09471,0.0973 1.9486,-0.50041 2.31381,-0.75578 0.0713,-0.0486 0.12572,-0.0868 0.14807,-0.0951 l 0.0242,-0.0392 c -0.0605,-0.38479 -0.63491,-2.24674 -1.0674,-2.69392 -0.1199,-0.12266 -0.21525,-0.24203 -0.40884,-0.3558 -1.56544,-0.91241 -5.28232,-1.46192 -5.45636,-1.4873 l -0.0279,0.009 -0.0112,0.0242 c 0,0 -0.0136,0.7718 -0.0149,0.85745 -0.12761,-0.0427 -0.52305,-0.1717 -1.08952,-0.32706 0.73912,-0.91454 1.87181,-1.72597 3.85409,-1.72597 z m 1.36578,2.73594 c 0.026,-3.4e-4 0.0523,-5e-4 0.0795,0 0.87696,0.0322 1.5659,0.77014 1.53592,1.6464 -0.015,0.42408 -0.19435,0.81569 -0.50389,1.10501 -0.31045,0.291 -0.71397,0.44254 -1.14027,0.42868 -0.87546,-0.0333 -1.56443,-0.77117 -1.53593,-1.64641 0.0145,-0.42438 0.19465,-0.81869 0.50606,-1.10705 0.29077,-0.27265 0.66289,-0.42069 1.05859,-0.42663 z m -0.0421,0.46862 c -0.2554,0.0149 -0.49643,0.11916 -0.68509,0.29618 -0.21502,0.20182 -0.3419,0.47519 -0.35139,0.77112 -0.0208,0.61178 0.45847,1.12658 1.0696,1.14924 0.29702,0.01 0.57874,-0.0949 0.79559,-0.29617 0.21626,-0.20279 0.34222,-0.47866 0.35136,-0.77337 0.021,-0.61274 -0.46038,-1.12556 -1.07179,-1.147 -0.0369,-10e-4 -0.0718,-10e-4 -0.10828,0 z m 0.29171,0.55464 c 0.27157,0 0.49061,0.1476 0.49061,0.3292 0,0.18085 -0.21904,0.3294 -0.49061,0.3294 -0.27252,0 -0.49286,-0.14881 -0.49286,-0.3294 0,-0.1816 0.22034,-0.3292 0.49286,-0.3292 z"
       id="path2445"
       class="ColorScheme-Text"
       inkscape:connector-curvature="0" />
    <path
       d="m 413.60085,523.00324 h -1.59966 v -0.5905 c 0,-1.02553 -0.45005,-1.531 -0.82764,-1.77469 -0.40491,-0.26114 -0.80252,-0.27447 -0.87849,-0.27447 h -14.05428 c -0.30099,0 -0.58386,-0.3173 -0.88326,-0.65333 -0.38108,-0.42773 -0.81302,-0.91225 -1.46871,-0.91225 H 387.617 c -1.16613,0 -2.04557,0.87766 -2.04557,2.04154 v 21.91691 c 0,1.1258 0.91758,2.04155 2.04557,2.04155 h 25.98385 c 1.12799,0 2.04558,-0.91575 2.04558,-2.04155 v -17.71166 c 0,-1.1258 -0.91759,-2.04155 -2.04558,-2.04155 z m 1.09208,19.75321 c 0,0.60099 -0.48979,1.08964 -1.09208,1.08964 H 387.617 c -0.60229,0 -1.09207,-0.48865 -1.09207,-1.08964 v -21.91691 c 0,-0.64127 0.4491,-1.08963 1.09207,-1.08963 h 6.27181 c 0.22789,0 0.4847,0.28812 0.75645,0.59305 0.38616,0.43312 0.86673,0.97222 1.59552,0.97222 h 14.04856 c 0.14398,0.004 0.5524,0.0666 0.70241,0.62128 h -21.88057 c -1.21576,0.025 -1.85142,0.65968 -1.85142,1.9289 l 0.0559,17.4518 h 0.57972 c 0,0 -0.1203,0.001 4.9e-4,0.001 0.18752,0 0.48358,0.0367 0.76009,-0.17942 0.49678,-0.38901 0.51775,-0.89322 0.51331,-1.03125 l -0.002,-14.3384 c 0,-1.90384 0,-1.90384 1.907,-1.90384 l 22.52741,0.0898 c 0.60228,0.002 1.09207,0.48897 1.09207,1.08963 v 17.71166 z"
       id="path2-3-3"
       sodipodi:nodetypes="scscsscssssssssscsssssscsccccccsccccsscc"
       style="fill:url(#linearGradient1482);fill-opacity:1;stroke-width:0.317569" />
    <path
       class="st2"
       d="m 403.07143,530.1479 c 1.36867,-0.8062 3.01857,-1.01244 4.55598,-0.59997 1.53741,0.41248 2.84984,1.42492 3.63729,2.79359 0.78745,1.36867 1.01244,3.01858 0.59996,4.55599 -0.41247,1.53741 -1.42491,2.84983 -2.79358,3.63728 l -0.37498,-0.6562 c 1.19993,-0.69372 2.08113,-1.8374 2.43736,-3.18732 0.35623,-1.34992 0.18749,-2.77484 -0.52497,-3.97477 -0.69371,-1.19993 -1.8374,-2.08112 -3.18732,-2.43736 -1.33117,-0.37498 -2.77483,-0.18749 -3.97476,0.52497 z"
       id="path8-3"
       style="clip-rule:evenodd;fill:#f2f2f2;fill-opacity:1;fill-rule:evenodd;stroke-width:0.187489" />
  </g>
</svg>
