<?xml version="1.0" encoding="UTF-8" standalone="no"?>
<svg
   width="32"
   version="1.1"
   height="32"
   viewBox="0 0 32 32"
   id="svg17"
   sodipodi:docname="folder-publicshare.svg"
   inkscape:version="1.1.1 (3bf5ae0d25, 2021-09-20)"
   xmlns:inkscape="http://www.inkscape.org/namespaces/inkscape"
   xmlns:sodipodi="http://sodipodi.sourceforge.net/DTD/sodipodi-0.dtd"
   xmlns:xlink="http://www.w3.org/1999/xlink"
   xmlns="http://www.w3.org/2000/svg"
   xmlns:svg="http://www.w3.org/2000/svg"
   xmlns:rdf="http://www.w3.org/1999/02/22-rdf-syntax-ns#"
   xmlns:cc="http://creativecommons.org/ns#"
   xmlns:dc="http://purl.org/dc/elements/1.1/">
  <sodipodi:namedview
     pagecolor="#ffffff"
     bordercolor="#666666"
     borderopacity="1"
     objecttolerance="10"
     gridtolerance="10"
     guidetolerance="10"
     inkscape:pageopacity="0"
     inkscape:pageshadow="2"
     inkscape:window-width="1920"
     inkscape:window-height="1007"
     id="namedview19"
     showgrid="false"
     inkscape:zoom="9.8125"
     inkscape:cx="-13.452229"
     inkscape:cy="8.0509554"
     inkscape:window-x="0"
     inkscape:window-y="0"
     inkscape:window-maximized="1"
     inkscape:current-layer="layer1"
     inkscape:pagecheckerboard="0" />
  <defs
     id="defs5455">
    <linearGradient
       inkscape:collect="always"
       xlink:href="#linearGradient1076"
       id="linearGradient1078"
       x1="418.92856"
       y1="520.94086"
       x2="439.5"
       y2="520.94086"
       gradientUnits="userSpaceOnUse"
       gradientTransform="matrix(0.5,0,0,0.5,192.28572,273.89901)" />
    <linearGradient
       inkscape:collect="always"
       id="linearGradient1076">
      <stop
         style="stop-color:#5599ff;stop-opacity:1"
         offset="0"
         id="stop1072" />
      <stop
         style="stop-color:#5f5fd3;stop-opacity:1"
         offset="1"
         id="stop1074" />
    </linearGradient>
    <linearGradient
       inkscape:collect="always"
       xlink:href="#linearGradient991"
       id="linearGradient1482"
       x1="386.57144"
       y1="516.39801"
       x2="446.62146"
       y2="516.39801"
       gradientUnits="userSpaceOnUse"
       gradientTransform="matrix(0.5008323,0,0,0.5,191.96397,273.59901)" />
    <linearGradient
       inkscape:collect="always"
       id="linearGradient991">
      <stop
         style="stop-color:#cccccc;stop-opacity:1"
         offset="0"
         id="stop987" />
      <stop
         style="stop-color:#cccccc;stop-opacity:1"
         offset="0.03132199"
         id="stop1929" />
      <stop
         style="stop-color:#0069a6;stop-opacity:1"
         offset="0.05527586"
         id="stop1263" />
      <stop
         style="stop-color:#0069a6;stop-opacity:1"
         offset="0.10902679"
         id="stop1027" />
      <stop
         style="stop-color:#cccccc;stop-opacity:1"
         offset="1"
         id="stop989" />
    </linearGradient>
  </defs>
  <metadata
     id="metadata5458">
    <rdf:RDF>
      <cc:Work
         rdf:about="">
        <dc:format>image/svg+xml</dc:format>
        <dc:type
           rdf:resource="http://purl.org/dc/dcmitype/StillImage" />
      </cc:Work>
    </rdf:RDF>
  </metadata>
  <g
     inkscape:label="Capa 1"
     inkscape:groupmode="layer"
     id="layer1"
     transform="translate(-384.57143,-515.798)">
    <path
       id="Friends"
       class="st0"
       d="m 404.32143,531.36943 c 0,-1.41429 1.15714,-2.57143 2.57143,-2.57143 1.41428,0 2.57142,1.15714 2.57142,2.57143 0,1.41428 -1.15714,2.57142 -2.57142,2.57142 -1.41429,0 -2.57143,-1.15714 -2.57143,-2.57142 z M 404.75,534.798 c -1.65,0 -3,1.35 -3,3 v 2.14285 h 8.57143 c 0.94285,0 1.71428,-0.77142 1.71428,-1.71428 V 537.798 c 0,-1.65 -1.35,-3 -3,-3 z"
       style="fill:url(#linearGradient1078);fill-opacity:1;stroke-width:0.214285" />
    <path
       id="Friends-s"
       class="st1"
       d="m 399.17857,531.798 c 0,-1.17857 0.96429,-2.14286 2.14286,-2.14286 1.17857,0 2.14285,0.96429 2.14285,2.14286 0,1.17857 -0.96428,2.14285 -2.14285,2.14285 -1.17857,0 -2.14286,-0.96428 -2.14286,-2.14285 z m 2.14286,-1.28572 c -0.70714,0 -1.28572,0.57858 -1.28572,1.28572 0,0.70715 0.57858,1.28571 1.28572,1.28571 0.70714,0 1.28571,-0.57857 1.28571,-1.28571 0,-0.70715 -0.57857,-1.28572 -1.28571,-1.28572 z m 1.28571,5.14286 c 0.0215,0 0.0215,0 0.0429,0 0.25715,-0.23571 0.53572,-0.44999 0.87858,-0.6 -0.27857,-0.17143 -0.57858,-0.25714 -0.92143,-0.25714 h -2.57143 c -0.94285,0 -1.71428,0.77143 -1.71428,1.71428 v 1.71429 h 0.85715 v -1.71429 c 0,-0.47143 0.3857,-0.85714 0.85713,-0.85714 z m 0,4.28571 v 0.85715 h 6.85714 c 1.41429,0 2.57143,-1.15714 2.57143,-2.57143 V 537.798 h -0.85714 v 0.42857 c 0,0.94286 -0.77143,1.71428 -1.71429,1.71428 z"
       style="clip-rule:evenodd;fill:#f0f0f0;fill-opacity:1;fill-rule:evenodd;stroke-width:0.214285" />
    <path
       d="m 413.60085,523.00324 h -1.59966 v -0.5905 c 0,-1.02553 -0.45005,-1.531 -0.82764,-1.77469 -0.40491,-0.26114 -0.80252,-0.27447 -0.87849,-0.27447 h -14.05428 c -0.30099,0 -0.58385,-0.3173 -0.88326,-0.65333 -0.38108,-0.42773 -0.81302,-0.91225 -1.46871,-0.91225 H 387.617 c -1.16612,0 -2.04557,0.87766 -2.04557,2.04154 v 21.91691 c 0,1.12581 0.91759,2.04155 2.04557,2.04155 h 25.98385 c 1.12799,0 2.04558,-0.91575 2.04558,-2.04155 v -17.71166 c 0,-1.1258 -0.91759,-2.04155 -2.04558,-2.04155 z m 1.09208,19.75321 c 0,0.60099 -0.48979,1.08964 -1.09208,1.08964 H 387.617 c -0.60229,0 -1.09207,-0.48865 -1.09207,-1.08964 v -21.91691 c 0,-0.64127 0.4491,-1.08963 1.09207,-1.08963 h 6.27181 c 0.22789,0 0.48471,0.28812 0.75645,0.59305 0.38617,0.43312 0.86673,0.97222 1.59552,0.97222 h 14.04856 c 0.14398,0.004 0.5524,0.0666 0.70241,0.62128 h -21.88057 c -1.21576,0.0251 -1.85142,0.65969 -1.85142,1.9289 l 0.0559,17.4518 h 0.57972 c 0,0 -0.12029,0.001 4.9e-4,0.001 0.18752,0 0.48358,0.0367 0.7601,-0.17942 0.49677,-0.38901 0.51775,-0.89322 0.5133,-1.03125 l -0.002,-14.3384 c 0,-1.90384 0,-1.90384 1.907,-1.90384 l 22.52741,0.0898 c 0.60228,0.002 1.09207,0.48897 1.09207,1.08963 v 17.71166 z"
       id="path2-3-3-3"
       sodipodi:nodetypes="scscsscssssssssscsssssscsccccccsccccsscc"
       style="fill:url(#linearGradient1482);fill-opacity:1;stroke-width:0.317569" />
  </g>
</svg>
