<?xml version="1.0" encoding="UTF-8" standalone="no"?>
<svg
   width="32"
   version="1.1"
   height="32"
   viewBox="0 0 32 32"
   id="svg15"
   sodipodi:docname="folder-blender.svg"
   inkscape:version="1.1.1 (3bf5ae0d25, 2021-09-20)"
   xmlns:inkscape="http://www.inkscape.org/namespaces/inkscape"
   xmlns:sodipodi="http://sodipodi.sourceforge.net/DTD/sodipodi-0.dtd"
   xmlns:xlink="http://www.w3.org/1999/xlink"
   xmlns="http://www.w3.org/2000/svg"
   xmlns:svg="http://www.w3.org/2000/svg"
   xmlns:rdf="http://www.w3.org/1999/02/22-rdf-syntax-ns#"
   xmlns:cc="http://creativecommons.org/ns#"
   xmlns:dc="http://purl.org/dc/elements/1.1/">
  <sodipodi:namedview
     pagecolor="#ffffff"
     bordercolor="#666666"
     borderopacity="1"
     objecttolerance="10"
     gridtolerance="10"
     guidetolerance="10"
     inkscape:pageopacity="0"
     inkscape:pageshadow="2"
     inkscape:window-width="1920"
     inkscape:window-height="1007"
     id="namedview17"
     showgrid="true"
     inkscape:zoom="9.8125"
     inkscape:cx="-24.56051"
     inkscape:cy="1.7834395"
     inkscape:window-x="0"
     inkscape:window-y="0"
     inkscape:window-maximized="1"
     inkscape:current-layer="g4"
     inkscape:pagecheckerboard="0">
    <inkscape:grid
       type="xygrid"
       id="grid862" />
  </sodipodi:namedview>
  <defs
     id="defs5455">
    <linearGradient
       inkscape:collect="always"
       id="linearGradient991">
      <stop
         style="stop-color:#cccccc;stop-opacity:1"
         offset="0"
         id="stop987" />
      <stop
         style="stop-color:#cccccc;stop-opacity:1"
         offset="0.03132199"
         id="stop1929" />
      <stop
         style="stop-color:#0069a6;stop-opacity:1"
         offset="0.05527586"
         id="stop1263" />
      <stop
         style="stop-color:#0069a6;stop-opacity:1"
         offset="0.10902679"
         id="stop1027" />
      <stop
         style="stop-color:#cccccc;stop-opacity:1"
         offset="1"
         id="stop989" />
    </linearGradient>
    <linearGradient
       inkscape:collect="always"
       xlink:href="#linearGradient991"
       id="linearGradient1482-3"
       x1="386.57144"
       y1="516.39801"
       x2="446.62146"
       y2="516.39801"
       gradientUnits="userSpaceOnUse"
       gradientTransform="matrix(1.3906657,0,0,1.3461636,-466.08402,329.31669)" />
    <linearGradient
       inkscape:collect="always"
       xlink:href="#linearGradient954"
       id="linearGradient956"
       x1="415.57144"
       y1="521.79797"
       x2="439.57162"
       y2="521.79797"
       gradientUnits="userSpaceOnUse"
       gradientTransform="matrix(1.3883547,0,0,1.3461636,-465.19063,330.12439)" />
    <linearGradient
       inkscape:collect="always"
       id="linearGradient954">
      <stop
         style="stop-color:#00ccff;stop-opacity:1"
         offset="0"
         id="stop950" />
      <stop
         style="stop-color:#8787de;stop-opacity:1"
         offset="1"
         id="stop952" />
    </linearGradient>
  </defs>
  <metadata
     id="metadata5458">
    <rdf:RDF>
      <cc:Work
         rdf:about="">
        <dc:format>image/svg+xml</dc:format>
        <dc:type
           rdf:resource="http://purl.org/dc/dcmitype/StillImage" />
      </cc:Work>
    </rdf:RDF>
  </metadata>
  <g
     inkscape:label="Capa 1"
     inkscape:groupmode="layer"
     id="layer1"
     transform="translate(-384.57143,-515.798)">
    <g
       transform="matrix(0.36013848,0,0,0.37142583,359.81878,151.2823)"
       id="g4">
      <path
         d="m 149.33718,1000.7947 h -4.44178 v -1.58992 c 0,-2.76113 -1.24965,-4.12201 -2.29811,-4.7781 -1.12433,-0.70309 -2.22838,-0.73896 -2.43931,-0.73896 h -39.02465 c -0.83577,0 -1.621207,-0.85429 -2.452557,-1.75898 -1.058162,-1.15159 -2.25752,-2.45609 -4.07818,-2.45609 H 77.187602 c -3.23801,0 -5.67997,2.36296 -5.67997,5.49651 v 59.00774 c 0,3.031 2.54786,5.4965 5.67997,5.4965 h 72.149578 c 3.13212,0 5.67998,-2.4655 5.67998,-5.4965 v -47.6857 c 0,-3.031 -2.54786,-5.4965 -5.67998,-5.4965 z m 3.03239,53.1822 c 0,1.618 -1.35999,2.9336 -3.03239,2.9336 H 77.187602 c -1.67239,0 -3.03238,-1.3156 -3.03238,-2.9336 v -59.00774 c 0,-1.72653 1.24702,-2.93364 3.03238,-2.93364 h 17.414991 c 0.63277,0 1.345871,0.7757 2.100427,1.59667 1.072268,1.1661 2.406658,2.61755 4.43031,2.61755 h 39.00875 c 0.39979,0.0107 1.53385,0.17939 1.9504,1.67269 H 81.336489 c -3.375797,0.0674 -5.140857,1.77621 -5.140857,5.19347 l 0.15533,46.9859 h 1.60973 c 0,0 -0.33404,0 0.001,0 0.52069,0 1.34276,0.099 2.11056,-0.4831 1.379401,-1.0473 1.437642,-2.4048 1.4253,-2.7764 l -0.0069,-38.6037 c 0,-5.1257 0,-5.1257 5.295185,-5.1257 l 62.552063,0.2417 c 1.67237,0.01 3.03238,1.3165 3.03238,2.9337 v 47.6856 z"
         id="path2-3-3-6"
         sodipodi:nodetypes="scscsscssssssssscsssssscsccccccsccccsscc"
         style="fill:url(#linearGradient1482-3);fill-opacity:1;stroke-width:0.868295" />
      <path
         style="color:#232629;fill:url(#linearGradient956);fill-opacity:1;stroke:none;stroke-width:1.4915"
         d="m 127.86233,1016.3961 a 2.2718536,2.2028137 0 0 0 -2.2719,2.2029 2.2718536,2.2028137 0 0 0 0.71945,1.4684 h -0.15161 l 5.30101,5.1399 h -17.41746 a 2.2718536,2.2028137 0 0 0 -2.27191,2.2029 2.2718536,2.2028137 0 0 0 2.27191,2.2028 h 8.33013 l -9.69322,9.3987 a 2.2718536,2.2028137 0 0 0 -0.90882,1.7621 2.2718536,2.2028137 0 0 0 2.27191,2.2029 2.2718536,2.2028137 0 0 0 1.66602,-0.7342 c 0,0 0,0 0,0 l 5.14941,-4.9929 a 12.116546,11.748334 0 0 0 12.11673,11.4545 12.116546,11.748334 0 0 0 12.11645,-11.7483 12.116546,11.748334 0 0 0 -4.54381,-9.2519 l -11.0563,-10.5736 a 2.2718536,2.2028137 0 0 0 -1.62799,-0.7342 z m 5.11165,13.2169 a 7.5728416,7.3427086 0 0 1 4.54353,1.4684 l 1.36308,1.322 v 0 a 7.5728416,7.3427086 0 0 1 1.66603,4.5524 7.5728416,7.3427086 0 0 1 -7.57264,7.3425 7.5728416,7.3427086 0 0 1 -7.57292,-7.3425 7.5728416,7.3427086 0 0 1 7.57292,-7.3428 z m 0,4.4058 a 3.0291372,2.937084 0 0 0 -3.02911,2.937 3.0291372,2.937084 0 0 0 3.02911,2.9371 3.0291372,2.937084 0 0 0 3.02911,-2.9371 3.0291372,2.937084 0 0 0 -3.02911,-2.937 z"
         class="ColorScheme-Text"
         id="path12" />
    </g>
  </g>
</svg>
