<?xml version="1.0" encoding="UTF-8" standalone="no"?>
<svg
   width="32"
   version="1.1"
   height="32"
   viewBox="0 0 32 32"
   id="svg15"
   sodipodi:docname="folder-build.svg"
   inkscape:version="1.1.1 (3bf5ae0d25, 2021-09-20)"
   xmlns:inkscape="http://www.inkscape.org/namespaces/inkscape"
   xmlns:sodipodi="http://sodipodi.sourceforge.net/DTD/sodipodi-0.dtd"
   xmlns:xlink="http://www.w3.org/1999/xlink"
   xmlns="http://www.w3.org/2000/svg"
   xmlns:svg="http://www.w3.org/2000/svg"
   xmlns:rdf="http://www.w3.org/1999/02/22-rdf-syntax-ns#"
   xmlns:cc="http://creativecommons.org/ns#"
   xmlns:dc="http://purl.org/dc/elements/1.1/">
  <sodipodi:namedview
     pagecolor="#ffffff"
     bordercolor="#666666"
     borderopacity="1"
     objecttolerance="10"
     gridtolerance="10"
     guidetolerance="10"
     inkscape:pageopacity="0"
     inkscape:pageshadow="2"
     inkscape:window-width="1920"
     inkscape:window-height="1007"
     id="namedview17"
     showgrid="true"
     inkscape:zoom="9.8125"
     inkscape:cx="-14.471338"
     inkscape:cy="18.089172"
     inkscape:window-x="0"
     inkscape:window-y="0"
     inkscape:window-maximized="1"
     inkscape:current-layer="g4"
     inkscape:pagecheckerboard="0">
    <inkscape:grid
       type="xygrid"
       id="grid862" />
  </sodipodi:namedview>
  <defs
     id="defs5455">
    <linearGradient
       inkscape:collect="always"
       id="linearGradient991">
      <stop
         style="stop-color:#cccccc;stop-opacity:1"
         offset="0"
         id="stop987" />
      <stop
         style="stop-color:#cccccc;stop-opacity:1"
         offset="0.03132199"
         id="stop1929" />
      <stop
         style="stop-color:#0069a6;stop-opacity:1"
         offset="0.05527586"
         id="stop1263" />
      <stop
         style="stop-color:#0069a6;stop-opacity:1"
         offset="0.10902679"
         id="stop1027" />
      <stop
         style="stop-color:#cccccc;stop-opacity:1"
         offset="1"
         id="stop989" />
    </linearGradient>
    <linearGradient
       inkscape:collect="always"
       xlink:href="#linearGradient991"
       id="linearGradient1482-3"
       x1="386.57144"
       y1="516.39801"
       x2="446.62146"
       y2="516.39801"
       gradientUnits="userSpaceOnUse"
       gradientTransform="matrix(1.3906662,0,0,1.346164,-466.08421,329.31651)" />
    <linearGradient
       inkscape:collect="always"
       xlink:href="#linearGradient1154"
       id="linearGradient1156"
       x1="425.57144"
       y1="522.79797"
       x2="431.57144"
       y2="524.79797"
       gradientUnits="userSpaceOnUse"
       gradientTransform="matrix(1.3883552,0,0,1.346164,-465.67621,330.17416)" />
    <linearGradient
       inkscape:collect="always"
       id="linearGradient1154">
      <stop
         style="stop-color:#ffffff;stop-opacity:1"
         offset="0"
         id="stop1150" />
      <stop
         style="stop-color:#ff5555;stop-opacity:1"
         offset="0.06666645"
         id="stop1768" />
      <stop
         style="stop-color:#ffb380;stop-opacity:1"
         offset="1"
         id="stop1152" />
    </linearGradient>
  </defs>
  <metadata
     id="metadata5458">
    <rdf:RDF>
      <cc:Work
         rdf:about="">
        <dc:format>image/svg+xml</dc:format>
        <dc:type
           rdf:resource="http://purl.org/dc/dcmitype/StillImage" />
      </cc:Work>
    </rdf:RDF>
  </metadata>
  <g
     inkscape:label="Capa 1"
     inkscape:groupmode="layer"
     id="layer1"
     transform="translate(-384.57143,-515.798)">
    <g
       transform="matrix(0.36013848,0,0,0.37142583,359.81878,151.2823)"
       id="g4">
      <path
         d="m 149.33721,1000.7945 h -4.44178 v -1.58978 c 0,-2.76106 -1.24966,-4.12194 -2.29812,-4.77803 -1.12433,-0.70309 -2.22838,-0.73897 -2.43931,-0.73897 h -39.02466 c -0.83576,0 -1.621209,-0.85429 -2.452556,-1.75898 -1.058163,-1.15159 -2.257522,-2.45609 -4.078183,-2.45609 H 77.187602 c -3.238006,0 -5.67997,2.36297 -5.67997,5.49651 v 59.00754 c 0,3.0311 2.547868,5.4965 5.67997,5.4965 h 72.149608 c 3.13211,0 5.67998,-2.4654 5.67998,-5.4965 v -47.6856 c 0,-3.0311 -2.54787,-5.4966 -5.67998,-5.4966 z m 3.03239,53.1822 c 0,1.6181 -1.35999,2.9337 -3.03239,2.9337 H 77.187602 c -1.672386,0 -3.032377,-1.3156 -3.032377,-2.9337 v -59.00754 c 0,-1.72652 1.247021,-2.93364 3.032377,-2.93364 h 17.414999 c 0.63277,0 1.345871,0.7757 2.100428,1.59667 1.072269,1.1661 2.406659,2.61755 4.430311,2.61755 h 39.00877 c 0.39979,0.0108 1.53385,0.17939 1.9504,1.67269 H 81.336493 c -3.375799,0.0674 -5.140857,1.77608 -5.140857,5.19327 l 0.155329,46.9859 h 1.609729 c 0,0 -0.334038,0.01 0.0014,0.01 0.520688,0 1.342761,0.099 2.110563,-0.483 1.3794,-1.0474 1.437642,-2.4049 1.425299,-2.7765 l -0.0069,-38.6037 c 0,-5.1257 0,-5.1257 5.295187,-5.1257 l 62.552087,0.2417 c 1.67237,0.01 3.03238,1.3165 3.03238,2.9337 v 47.6856 z"
         id="path2-3-3-6"
         sodipodi:nodetypes="scscsscssssssssscsssssscsccccccsccccsscc"
         style="fill:url(#linearGradient1482-3);fill-opacity:1;stroke-width:0.868295" />
      <path
         style="color:#232629;fill:url(#linearGradient1156);fill-opacity:1;stroke:none;stroke-width:1.3671"
         d="m 137.86666,1017.7421 -0.43114,1.4276 c -0.88299,-0.071 -1.77254,0.023 -2.61944,0.2761 l -0.73485,-1.3041 -2.43776,1.291 0.73486,1.3041 c -0.67891,0.5546 -1.2403,1.2285 -1.65681,1.9877 l -1.46699,-0.4154 -0.78095,2.5819 1.4724,0.418 c -0.0736,0.8562 0.021,1.7213 0.28202,2.5425 l -1.34497,0.7125 1.33141,2.3637 1.34497,-0.7152 c 0.572,0.6583 1.26967,1.2053 2.05271,1.6091 l -0.43116,1.4224 2.66553,0.7572 0.43116,-1.4276 c 0.88299,0.071 1.77254,-0.023 2.61943,-0.2761 l 0.73757,1.3041 2.43505,-1.291 -0.73486,-1.304 c 0.67891,-0.5547 1.2403,-1.2285 1.65681,-1.9877 l 1.46699,0.4154 0.78095,-2.5819 -1.47242,-0.4181 c 0.0736,-0.8561 -0.021,-1.7213 -0.282,-2.5424 l 1.34497,-0.7126 -1.33142,-2.3636 -1.34497,0.7151 c -0.572,-0.6583 -1.26967,-1.2052 -2.0527,-1.6091 l 0.43114,-1.4224 z m -1.37208,2.7581 c 0.27554,-0.017 0.55358,-0.015 0.82976,0.01 0.36824,0.03 0.73557,0.095 1.0955,0.1971 1.38558,0.3945 2.55939,1.2966 3.27023,2.5162 0.7386,1.2654 0.91828,2.7687 0.49622,4.1647 -0.40679,1.3435 -1.33718,2.4816 -2.59503,3.1708 -1.30505,0.7162 -2.8555,0.8904 -4.29522,0.4812 -1.38558,-0.3944 -2.5621,-1.2966 -3.27294,-2.5162 -0.7386,-1.2654 -0.91828,-2.7687 -0.49622,-4.1647 0.40678,-1.3434 1.33718,-2.4816 2.59503,-3.1708 0.73409,-0.4029 1.54604,-0.634 2.37267,-0.6862 z m -18.50689,3.9333 -2.76314,0.2629 0.14913,1.4803 c -0.84689,0.253 -1.63524,0.6604 -2.32387,1.2015 l -1.18769,-0.9439 -1.76256,2.0797 1.18499,0.9439 c -0.41651,0.7606 -0.6757,1.5917 -0.77011,2.4478 l -1.52122,0.1447 0.27116,2.6791 1.52665,-0.1446 c 0.26101,0.8212 0.6811,1.5856 1.23922,2.2533 l -0.97348,1.1516 2.1449,1.709 0.97348,-1.149 c 0.78442,0.4039 1.64153,0.6552 2.52452,0.7467 l 0.14914,1.475 2.76316,-0.2629 -0.14915,-1.4803 c 0.8469,-0.2531 1.63525,-0.6604 2.32387,-1.2015 l 1.1877,0.9439 1.76256,-2.0798 -1.18498,-0.9438 c 0.41651,-0.7606 0.67569,-1.5917 0.77009,-2.4479 l 1.52124,-0.1446 -0.27118,-2.6792 -1.52664,0.1447 c -0.26102,-0.8212 -0.68109,-1.5856 -1.23921,-2.2533 l 0.97347,-1.1516 -2.14489,-1.709 -0.97349,1.149 c -0.78442,-0.4039 -1.64152,-0.6552 -2.52452,-0.7467 z m -0.0379,2.808 c 1.06354,0.099 2.08369,0.4964 2.93128,1.1516 1.17316,0.9073 1.91778,2.2351 2.06355,3.6835 0.14161,1.3947 -0.28394,2.7876 -1.18499,3.8834 -0.93575,1.1375 -2.30783,1.8595 -3.8017,2.0009 -1.43834,0.1373 -2.87224,-0.2754 -4.00236,-1.149 -1.17317,-0.9073 -1.91778,-2.2377 -2.06356,-3.6862 -0.14161,-1.3946 0.28395,-2.7849 1.18499,-3.8807 0.93575,-1.1375 2.30513,-1.8595 3.799,-2.0009 0.35958,-0.034 0.71929,-0.035 1.07379,-0.01 z m 11.96372,5.361 v 1.4881 c -0.86911,0.1723 -1.69505,0.5043 -2.43505,0.9781 l -1.08465,-1.0517 -1.96322,1.9036 1.08466,1.0517 c -0.49009,0.7175 -0.83506,1.5183 -1.01416,2.361 h -1.52935 v 2.6923 h 1.53478 c 0.17771,0.8427 0.52002,1.6436 1.00873,2.3611 l -1.08466,1.0517 1.96322,1.9035 1.08465,-1.0517 c 0.74,0.4752 1.56594,0.8097 2.43505,0.9834 v 1.4829 h 2.77671 v -1.4882 c 0.86911,-0.1723 1.69505,-0.5042 2.43504,-0.9781 l 1.08465,1.0517 1.96323,-1.9035 -1.08465,-1.0517 c 0.49009,-0.7175 0.83504,-1.5184 1.01414,-2.3611 h 1.52937 v -2.6923 h -1.53479 c -0.17771,-0.8427 -0.52002,-1.6435 -1.00872,-2.361 l 1.08465,-1.0517 -1.96323,-1.9036 -1.08465,1.0517 c -0.73999,-0.4752 -1.56593,-0.8097 -2.43504,-0.9833 v -1.4829 z m 1.38836,2.6923 c 1.44528,0 2.83239,0.5464 3.8695,1.5223 1.07597,1.0137 1.68392,2.4072 1.68392,3.8624 0,1.4013 -0.56348,2.7463 -1.57004,3.7519 -1.04543,1.0433 -2.48257,1.6327 -3.98338,1.6327 -1.44528,0 -2.8324,-0.5463 -3.8695,-1.5223 -1.07598,-1.0137 -1.68392,-2.4071 -1.68392,-3.8623 0,-1.4014 0.56348,-2.7463 1.57003,-3.7519 1.04543,-1.0433 2.48258,-1.6328 3.98339,-1.6328 z"
         class="ColorScheme-Text"
         id="path12" />
    </g>
  </g>
</svg>
