<?xml version="1.0" encoding="UTF-8" standalone="no"?>
<svg
   width="32"
   version="1.1"
   height="32"
   viewBox="0 0 32 32"
   id="svg15"
   sodipodi:docname="folder-crash.svg"
   inkscape:version="1.1.1 (3bf5ae0d25, 2021-09-20)"
   xmlns:inkscape="http://www.inkscape.org/namespaces/inkscape"
   xmlns:sodipodi="http://sodipodi.sourceforge.net/DTD/sodipodi-0.dtd"
   xmlns:xlink="http://www.w3.org/1999/xlink"
   xmlns="http://www.w3.org/2000/svg"
   xmlns:svg="http://www.w3.org/2000/svg"
   xmlns:rdf="http://www.w3.org/1999/02/22-rdf-syntax-ns#"
   xmlns:cc="http://creativecommons.org/ns#"
   xmlns:dc="http://purl.org/dc/elements/1.1/">
  <sodipodi:namedview
     pagecolor="#ffffff"
     bordercolor="#666666"
     borderopacity="1"
     objecttolerance="10"
     gridtolerance="10"
     guidetolerance="10"
     inkscape:pageopacity="0"
     inkscape:pageshadow="2"
     inkscape:window-width="1920"
     inkscape:window-height="1007"
     id="namedview17"
     showgrid="true"
     inkscape:zoom="9.8125"
     inkscape:cx="1.4267516"
     inkscape:cy="18.089172"
     inkscape:window-x="0"
     inkscape:window-y="0"
     inkscape:window-maximized="1"
     inkscape:current-layer="g4"
     inkscape:pagecheckerboard="0">
    <inkscape:grid
       type="xygrid"
       id="grid862" />
  </sodipodi:namedview>
  <defs
     id="defs5455">
    <linearGradient
       inkscape:collect="always"
       xlink:href="#linearGradient1869"
       id="linearGradient2063"
       gradientUnits="userSpaceOnUse"
       x1="426.47894"
       y1="520.06909"
       x2="428.97894"
       y2="520.06909"
       gradientTransform="matrix(1.6191058,0,0,1.3461633,-566.83621,330.12457)" />
    <linearGradient
       inkscape:collect="always"
       id="linearGradient1869">
      <stop
         style="stop-color:#ff0000;stop-opacity:0.75300235"
         offset="0"
         id="stop1865" />
      <stop
         style="stop-color:#ff00ff;stop-opacity:1"
         offset="1"
         id="stop1867" />
    </linearGradient>
    <linearGradient
       inkscape:collect="always"
       xlink:href="#linearGradient1869"
       id="linearGradient1612"
       x1="430.27118"
       y1="522.54797"
       x2="432.77118"
       y2="522.54797"
       gradientUnits="userSpaceOnUse"
       gradientTransform="matrix(1.6191058,0,0,1.3461633,-566.83621,330.12457)" />
    <linearGradient
       inkscape:collect="always"
       xlink:href="#linearGradient1869"
       id="linearGradient1614"
       x1="426.16644"
       y1="527.56909"
       x2="428.66644"
       y2="527.56909"
       gradientUnits="userSpaceOnUse"
       gradientTransform="matrix(1.6191058,0,0,1.3461633,-566.83621,330.12457)" />
    <linearGradient
       inkscape:collect="always"
       xlink:href="#linearGradient1869"
       id="linearGradient1616"
       x1="434.37592"
       y1="527.56909"
       x2="436.87592"
       y2="527.56909"
       gradientUnits="userSpaceOnUse"
       gradientTransform="matrix(1.6191058,0,0,1.3461633,-566.83621,330.12457)" />
    <linearGradient
       inkscape:collect="always"
       xlink:href="#linearGradient1869"
       id="linearGradient1618"
       x1="428.83325"
       y1="526.23682"
       x2="431.33325"
       y2="526.23682"
       gradientUnits="userSpaceOnUse"
       gradientTransform="matrix(1.6191058,0,0,1.3461633,-566.83621,330.12457)" />
    <linearGradient
       inkscape:collect="always"
       xlink:href="#linearGradient1869"
       id="linearGradient1620"
       x1="431.70911"
       y1="526.23682"
       x2="434.20911"
       y2="526.23682"
       gradientUnits="userSpaceOnUse"
       gradientTransform="matrix(1.6191058,0,0,1.3461633,-566.83621,330.12457)" />
    <linearGradient
       inkscape:collect="always"
       xlink:href="#linearGradient1869"
       id="linearGradient1622"
       x1="433.97894"
       y1="520.06909"
       x2="436.47894"
       y2="520.06909"
       gradientUnits="userSpaceOnUse"
       gradientTransform="matrix(1.6191058,0,0,1.3461633,-566.83621,330.12457)" />
  </defs>
  <metadata
     id="metadata5458">
    <rdf:RDF>
      <cc:Work
         rdf:about="">
        <dc:format>image/svg+xml</dc:format>
        <dc:type
           rdf:resource="http://purl.org/dc/dcmitype/StillImage" />
      </cc:Work>
    </rdf:RDF>
  </metadata>
  <g
     inkscape:label="Capa 1"
     inkscape:groupmode="layer"
     id="layer1"
     transform="translate(-384.57143,-515.798)">
    <g
       transform="matrix(0.36013848,0,0,0.37142583,359.81878,151.2823)"
       id="g4">
      <path
         d="m 149.33715,1000.7945 h -4.44177 v -1.58979 c 0,-2.76106 -1.24966,-4.12194 -2.29812,-4.77803 -1.12433,-0.70309 -2.22838,-0.73896 -2.43931,-0.73896 h -39.02463 c -0.83576,0 -1.621203,-0.85429 -2.45255,-1.75898 -1.058162,-1.15159 -2.257521,-2.45609 -4.078181,-2.45609 h -17.41499 c -3.238004,0 -5.679967,2.36296 -5.679967,5.49651 v 59.00734 c 0,3.031 2.547867,5.4965 5.679967,5.4965 h 72.149551 c 3.13211,0 5.67998,-2.4655 5.67998,-5.4965 v -47.6855 c 0,-3.0311 -2.54787,-5.4965 -5.67998,-5.4965 z m 3.03239,53.182 c 0,1.618 -1.35999,2.9336 -3.03239,2.9336 H 77.187599 c -1.672385,0 -3.032375,-1.3156 -3.032375,-2.9336 v -59.00734 c 0,-1.72653 1.24702,-2.93364 3.032375,-2.93364 h 17.41499 c 0.63277,0 1.345871,0.7757 2.100428,1.59667 1.072268,1.1661 2.406657,2.61755 4.430303,2.61755 h 39.00873 c 0.39979,0.0108 1.53386,0.17939 1.9504,1.67269 H 81.336488 c -3.375798,0.0674 -5.140854,1.77607 -5.140854,5.19317 l 0.155329,46.9859 h 1.609727 c 0,0 -0.334038,0 0.0013,0 0.520689,0 1.342761,0.099 2.110563,-0.4831 1.379399,-1.0473 1.437641,-2.4048 1.425298,-2.7764 l -0.0069,-38.6037 c 0,-5.1257 0,-5.1257 5.295184,-5.1257 l 62.552035,0.2417 c 1.67237,0.01 3.03238,1.3165 3.03238,2.9337 v 47.6855 z"
         id="path2-3-3-3"
         sodipodi:nodetypes="scscsscssssssssscsssssscsccccccsccccsscc"
         style="fill:#d40000;fill-opacity:1;stroke-width:0.868295" />
      <g
         id="Book_1_"
         transform="matrix(0.60885128,0,0,0.44170985,112.39975,1020.4343)">
        <path
           id="Book-s"
           class="st1"
           d="m 16,4 c -2.2,0 -4,1.8 -4,4 0,2.2 1.8,4 4,4 H 12 C 9.8,12 8,10.2 8,8 8,3.6 11.6,0 16,0 h 40 v 4 z m 36,8 v 40 c 0,4.4 -3.6,8 -8,8 H 12 v 4 h 32 c 6.6,0 12,-5.4 12,-12 V 12 Z"
           style="fill:#f0f0f0;fill-opacity:1" />
      </g>
      <rect
         x="123.67779"
         y="1028.5399"
         width="4.0477724"
         height="3.3654146"
         id="rect6"
         style="fill:url(#linearGradient2063);fill-opacity:1;stroke-width:0.311729" />
      <rect
         x="129.81848"
         y="1031.8768"
         width="4.0477724"
         height="3.3654146"
         id="rect8"
         style="fill:url(#linearGradient1612);fill-opacity:1;stroke-width:0.311729" />
      <rect
         x="123.17273"
         y="1038.6361"
         width="4.0477724"
         height="3.3654146"
         id="rect10"
         style="fill:url(#linearGradient1614);fill-opacity:1;stroke-width:0.311729" />
      <rect
         x="136.46423"
         y="1038.6361"
         width="4.0477724"
         height="3.3654146"
         id="rect12"
         style="fill:url(#linearGradient1616);fill-opacity:1;stroke-width:0.311729" />
      <rect
         x="127.49043"
         y="1036.8427"
         width="4.0477724"
         height="3.3654146"
         id="rect14"
         style="fill:url(#linearGradient1618);fill-opacity:1;stroke-width:0.311729" />
      <rect
         x="132.14656"
         y="1036.8427"
         width="4.0477724"
         height="3.3654146"
         id="rect16"
         style="fill:url(#linearGradient1620);fill-opacity:1;stroke-width:0.311729" />
      <rect
         x="135.82158"
         y="1028.5399"
         width="4.0477724"
         height="3.3654146"
         id="rect18"
         style="fill:url(#linearGradient1622);fill-opacity:1;stroke-width:0.311729" />
    </g>
  </g>
</svg>
