<?xml version="1.0" encoding="UTF-8" standalone="no"?>
<svg
   width="32"
   version="1.1"
   height="32"
   viewBox="0 0 32 32"
   id="svg15"
   sodipodi:docname="folder-appimage.svg"
   inkscape:version="1.1.1 (3bf5ae0d25, 2021-09-20)"
   xmlns:inkscape="http://www.inkscape.org/namespaces/inkscape"
   xmlns:sodipodi="http://sodipodi.sourceforge.net/DTD/sodipodi-0.dtd"
   xmlns:xlink="http://www.w3.org/1999/xlink"
   xmlns="http://www.w3.org/2000/svg"
   xmlns:svg="http://www.w3.org/2000/svg"
   xmlns:rdf="http://www.w3.org/1999/02/22-rdf-syntax-ns#"
   xmlns:cc="http://creativecommons.org/ns#"
   xmlns:dc="http://purl.org/dc/elements/1.1/">
  <sodipodi:namedview
     pagecolor="#ffffff"
     bordercolor="#666666"
     borderopacity="1"
     objecttolerance="10"
     gridtolerance="10"
     guidetolerance="10"
     inkscape:pageopacity="0"
     inkscape:pageshadow="2"
     inkscape:window-width="1920"
     inkscape:window-height="1007"
     id="namedview17"
     showgrid="true"
     inkscape:zoom="9.8125"
     inkscape:cx="-0.10191083"
     inkscape:cy="18.089172"
     inkscape:window-x="0"
     inkscape:window-y="0"
     inkscape:window-maximized="1"
     inkscape:current-layer="g4"
     inkscape:pagecheckerboard="0">
    <inkscape:grid
       type="xygrid"
       id="grid862" />
  </sodipodi:namedview>
  <defs
     id="defs5455">
    <linearGradient
       inkscape:collect="always"
       id="linearGradient991">
      <stop
         style="stop-color:#cccccc;stop-opacity:1"
         offset="0"
         id="stop987" />
      <stop
         style="stop-color:#cccccc;stop-opacity:1"
         offset="0.03132199"
         id="stop1929" />
      <stop
         style="stop-color:#0069a6;stop-opacity:1"
         offset="0.05527586"
         id="stop1263" />
      <stop
         style="stop-color:#0069a6;stop-opacity:1"
         offset="0.10902679"
         id="stop1027" />
      <stop
         style="stop-color:#cccccc;stop-opacity:1"
         offset="1"
         id="stop989" />
    </linearGradient>
    <linearGradient
       inkscape:collect="always"
       xlink:href="#linearGradient991"
       id="linearGradient1482-3"
       x1="386.57144"
       y1="516.39801"
       x2="446.62146"
       y2="516.39801"
       gradientUnits="userSpaceOnUse"
       gradientTransform="matrix(1.3906658,0,0,1.3461637,-466.08407,329.31663)" />
    <linearGradient
       inkscape:collect="always"
       xlink:href="#linearGradient994"
       id="linearGradient996"
       x1="431.57144"
       y1="509.798"
       x2="431.57144"
       y2="533.79797"
       gradientUnits="userSpaceOnUse"
       gradientTransform="matrix(1.3883548,0,0,1.3461637,-462.79272,330.07587)" />
    <linearGradient
       inkscape:collect="always"
       id="linearGradient994">
      <stop
         style="stop-color:#00d4aa;stop-opacity:1"
         offset="0"
         id="stop990" />
      <stop
         style="stop-color:#00aad4;stop-opacity:1"
         offset="0.37289742"
         id="stop1224" />
      <stop
         style="stop-color:#f0f0f0;stop-opacity:1"
         offset="0.45780349"
         id="stop1290" />
      <stop
         style="stop-color:#f0f0f0;stop-opacity:1"
         offset="1"
         id="stop992" />
    </linearGradient>
  </defs>
  <metadata
     id="metadata5458">
    <rdf:RDF>
      <cc:Work
         rdf:about="">
        <dc:format>image/svg+xml</dc:format>
        <dc:type
           rdf:resource="http://purl.org/dc/dcmitype/StillImage" />
      </cc:Work>
    </rdf:RDF>
  </metadata>
  <g
     inkscape:label="Capa 1"
     inkscape:groupmode="layer"
     id="layer1"
     transform="translate(-384.57143,-515.798)">
    <g
       transform="matrix(0.36013848,0,0,0.37142583,359.81878,151.2823)"
       id="g4">
      <path
         d="m 149.33719,1000.7945 h -4.44178 v -1.5898 c 0,-2.76106 -1.24966,-4.12194 -2.29812,-4.77803 -1.12433,-0.70309 -2.22837,-0.73896 -2.43931,-0.73896 h -39.02465 c -0.83576,0 -1.621207,-0.85429 -2.452554,-1.75898 -1.058163,-1.15159 -2.257521,-2.45609 -4.078181,-2.45609 H 77.1876 c -3.238005,0 -5.679968,2.36296 -5.679968,5.49651 v 59.00755 c 0,3.031 2.547867,5.4965 5.679968,5.4965 h 72.14959 c 3.13211,0 5.67998,-2.4655 5.67998,-5.4965 v -47.6857 c 0,-3.031 -2.54787,-5.4965 -5.67998,-5.4965 z m 3.03239,53.1822 c 0,1.618 -1.35999,2.9336 -3.03239,2.9336 H 77.1876 c -1.672385,0 -3.032375,-1.3156 -3.032375,-2.9336 v -59.00755 c 0,-1.72653 1.24702,-2.93364 3.032375,-2.93364 h 17.414995 c 0.63277,0 1.345871,0.7757 2.100428,1.59667 1.072268,1.1661 2.406657,2.61755 4.430307,2.61755 h 39.00876 c 0.39979,0.0107 1.53385,0.17939 1.9504,1.67269 h -60.756 c -3.375799,0.0674 -5.140856,1.77607 -5.140856,5.19328 l 0.155329,46.9859 h 1.609728 c 0,0 -0.334038,0.01 0.0014,0.01 0.520689,0 1.342761,0.099 2.110563,-0.4831 1.3794,-1.0473 1.437642,-2.4048 1.425299,-2.7764 l -0.0069,-38.6037 c 0,-5.1257 0,-5.1257 5.295185,-5.1257 l 62.552072,0.2417 c 1.67237,0.01 3.03237,1.3165 3.03237,2.9337 v 47.6856 z"
         id="path2-3-3-6"
         sodipodi:nodetypes="scscsscssssssssscsssssscsccccccsccccsscc"
         style="fill:url(#linearGradient1482-3);fill-opacity:1;stroke-width:0.868295" />
      <path
         style="color:#232629;fill:url(#linearGradient996);fill-opacity:1;stroke:none;stroke-width:1.4915"
         d="m 133.10005,1016.3959 v 5.8741 h -3.02912 l 6.05823,6.4134 6.05822,-6.4134 h -3.02911 v -5.8741 z m 1.51469,14.6853 v 1.6178 c -0.94825,0.1895 -1.84916,0.5544 -2.65663,1.0727 l -1.18323,-1.1473 -2.14148,2.0767 1.18323,1.1473 c -0.53313,0.7826 -0.90654,1.6565 -1.10063,2.5756 h -1.67418 v 2.9371 h 1.66847 c 0.1952,0.9194 0.57154,1.7929 1.10634,2.5759 l -1.18323,1.1472 2.14148,2.0764 1.18323,-1.1472 c 0.80747,0.5169 1.70838,0.879 2.65663,1.0672 v 1.6233 h 3.02911 v -1.6178 c 0.94797,-0.1893 1.84917,-0.5542 2.65636,-1.0727 l 1.18322,1.1472 2.14176,-2.0764 -1.18322,-1.1472 c 0.53312,-0.783 0.90654,-1.6565 1.10035,-2.5759 h 1.67445 v -2.9371 h -1.66847 c -0.19548,-0.9191 -0.57182,-1.793 -1.10633,-2.5756 l 1.18322,-1.1473 -2.14176,-2.0767 -1.18322,1.1473 c -0.80719,-0.5169 -1.70839,-0.879 -2.65636,-1.0669 v -1.6236 z m 1.51442,4.4058 c 2.50938,0 4.54381,1.9726 4.54381,4.4057 0,2.4331 -2.03443,4.4054 -4.54381,4.4054 -2.50938,0 -4.54353,-1.9723 -4.54353,-4.4054 0,-2.4331 2.03415,-4.4057 4.54353,-4.4057 z"
         class="ColorScheme-Text"
         id="path12" />
    </g>
  </g>
</svg>
