<?xml version="1.0" encoding="UTF-8" standalone="no"?>
<svg
   id="svg2"
   viewBox="0 0 32 32"
   height="32"
   version="1.1"
   width="32"
   sodipodi:docname="folder-unlocked.svg"
   inkscape:version="1.1.1 (3bf5ae0d25, 2021-09-20)"
   xmlns:inkscape="http://www.inkscape.org/namespaces/inkscape"
   xmlns:sodipodi="http://sodipodi.sourceforge.net/DTD/sodipodi-0.dtd"
   xmlns:xlink="http://www.w3.org/1999/xlink"
   xmlns="http://www.w3.org/2000/svg"
   xmlns:svg="http://www.w3.org/2000/svg"
   xmlns:rdf="http://www.w3.org/1999/02/22-rdf-syntax-ns#"
   xmlns:cc="http://creativecommons.org/ns#"
   xmlns:dc="http://purl.org/dc/elements/1.1/">
  <sodipodi:namedview
     pagecolor="#ffffff"
     bordercolor="#666666"
     borderopacity="1"
     objecttolerance="10"
     gridtolerance="10"
     guidetolerance="10"
     inkscape:pageopacity="0"
     inkscape:pageshadow="2"
     inkscape:window-width="1920"
     inkscape:window-height="1007"
     id="namedview18"
     showgrid="false"
     inkscape:zoom="9.8125"
     inkscape:cx="-7.9490446"
     inkscape:cy="2.8535032"
     inkscape:window-x="0"
     inkscape:window-y="0"
     inkscape:window-maximized="1"
     inkscape:current-layer="svg2"
     inkscape:pagecheckerboard="0" />
  <defs
     id="defs5455">
    <linearGradient
       id="linearGradient4172-5">
      <stop
         id="stop4174-6"
         style="stop-color:#3daee9" />
      <stop
         id="stop4176-6"
         style="stop-color:#6cc1ef"
         offset="1" />
    </linearGradient>
    <linearGradient
       x2="0"
       gradientUnits="userSpaceOnUse"
       y2="8"
       y1="29"
       xlink:href="#linearGradient4172-5"
       id="linearGradient4342" />
    <linearGradient
       inkscape:collect="always"
       xlink:href="#linearGradient991"
       id="linearGradient1482"
       x1="386.57144"
       y1="516.39801"
       x2="446.62146"
       y2="516.39801"
       gradientUnits="userSpaceOnUse"
       gradientTransform="matrix(0.5008323,0,0,0.5,-192.60746,-242.199)" />
    <linearGradient
       inkscape:collect="always"
       id="linearGradient991">
      <stop
         style="stop-color:#cccccc;stop-opacity:1"
         offset="0"
         id="stop987" />
      <stop
         style="stop-color:#cccccc;stop-opacity:1"
         offset="0.03132199"
         id="stop1929" />
      <stop
         style="stop-color:#0069a6;stop-opacity:1"
         offset="0.05527586"
         id="stop1263" />
      <stop
         style="stop-color:#0069a6;stop-opacity:1"
         offset="0.10902679"
         id="stop1027" />
      <stop
         style="stop-color:#cccccc;stop-opacity:1"
         offset="1"
         id="stop989" />
    </linearGradient>
    <linearGradient
       inkscape:collect="always"
       xlink:href="#linearGradient1535"
       id="linearGradient1537"
       x1="421.57144"
       y1="526.54797"
       x2="439.57144"
       y2="526.54797"
       gradientUnits="userSpaceOnUse"
       gradientTransform="matrix(0.47083334,0,0,0.44139194,-179.48988,-210.56212)" />
    <linearGradient
       inkscape:collect="always"
       id="linearGradient1535">
      <stop
         style="stop-color:#00ffcc;stop-opacity:1"
         offset="0"
         id="stop1531" />
      <stop
         style="stop-color:#00a3cc;stop-opacity:1"
         offset="1"
         id="stop1533" />
    </linearGradient>
  </defs>
  <metadata
     id="metadata5458">
    <rdf:RDF>
      <cc:Work
         rdf:about="">
        <dc:format>image/svg+xml</dc:format>
        <dc:type
           rdf:resource="http://purl.org/dc/dcmitype/StillImage" />
      </cc:Work>
    </rdf:RDF>
  </metadata>
  <path
     d="M 29.02942,7.205245 H 27.429765 V 6.61474 c 0,-1.02553 -0.45005,-1.530995 -0.82764,-1.774685 C 26.19721,4.57891 25.7996,4.565585 25.723635,4.565585 h -14.05428 c -0.30099,0 -0.58386,-0.317305 -0.88326,-0.65333 C 10.40501,3.484525 9.973075,3 9.317385,3 H 3.045575 C 1.879445,3 1,3.877665 1,5.041545 v 21.91691 C 1,28.084255 1.917585,29 3.045575,29 H 29.02942 C 30.157415,29 31.075,28.084255 31.075,26.958455 V 9.24679 c 0,-1.1258 -0.917585,-2.041545 -2.04558,-2.041545 z m 1.09208,19.75321 c 0,0.60098 -0.489785,1.08963 -1.09208,1.08963 H 3.045575 c -0.60229,0 -1.092075,-0.48865 -1.092075,-1.08963 V 5.041545 c 0,-0.641275 0.4491,-1.08963 1.092075,-1.08963 h 6.27181 c 0.227885,0 0.4847,0.288115 0.756445,0.593045 0.386165,0.43312 0.86673,0.972225 1.595525,0.972225 H 25.71791 c 0.14398,0.004 0.5524,0.06663 0.702415,0.62128 H 4.53975 c -1.215755,0.02505 -1.85142,0.65968 -1.85142,1.9289 L 2.74427,25.51916 h 0.579725 c 0,0 -0.1203,0.001 4.85e-4,0.001 0.18752,0 0.48358,0.03665 0.760095,-0.17942 0.496775,-0.389015 0.51775,-0.893215 0.513305,-1.031245 L 4.59538,9.97109 c 0,-1.903835 0,-1.903835 1.907,-1.903835 l 22.52741,0.0898 c 0.602285,0.0025 1.092075,0.488965 1.092075,1.089625 v 17.711665 z"
     id="path2-3-3-3"
     sodipodi:nodetypes="scscsscssssssssscsssssscsccccccsccccsscc"
     style="fill:url(#linearGradient1482);fill-opacity:1;stroke-width:0.317569" />
  <path
     id="Lock"
     class="st0"
     d="m 23.94375,21.851923 c 0,0.248283 -0.14125,0.463461 -0.353125,0.579327 v 0.744849 c 0,0.182074 -0.158905,0.331044 -0.353125,0.331044 -0.19422,0 -0.353125,-0.14897 -0.353125,-0.331044 V 22.43125 C 22.6725,22.315384 22.53125,22.100206 22.53125,21.851923 c 0,-0.364149 0.317815,-0.662088 0.70625,-0.662088 0.38844,0 0.70625,0.297939 0.70625,0.662088 z m 1.765625,-2.979396 h 0.70625 v 0.662088 H 27.475 v 3.641484 c 0,0.910371 -0.79453,1.655219 -1.765625,1.655219 H 19 v -5.296703 h 6.709375 z"
     style="clip-rule:evenodd;fill:url(#linearGradient1537);fill-opacity:1;fill-rule:evenodd;stroke-width:0.170953" />
  <path
     id="Lock-s"
     class="st1"
     d="m 20.765625,17.984499 h -0.70625 V 17.879395 C 20.059375,16.240728 21.48953,14.9 23.2375,14.9 c 1.74797,0 3.178125,1.340728 3.178125,2.979395 v 0.993132 h -0.70625 v -0.993132 c 0,-1.274519 -1.112345,-2.317307 -2.471875,-2.317307 -1.35953,0 -2.471875,1.042788 -2.471875,2.317307 z M 27.475,19.534615 h -1.765625 v 0.662088 h 1.059375 v 3.31044 c 0,0.728296 -0.635625,1.324175 -1.4125,1.324175 h -5.65 v 0.662088 h 5.65 c 1.165315,0 2.11875,-0.893818 2.11875,-1.986263 z"
     style="fill:#f3f3f3;fill-opacity:1;stroke-width:0.170953"
     sodipodi:nodetypes="ccsssccssscccccssccssc" />
</svg>
