<?xml version="1.0" encoding="UTF-8" standalone="no"?>
<svg
   width="32"
   version="1.1"
   height="32"
   viewBox="0 0 32 32"
   id="svg15"
   sodipodi:docname="folder-Arch.svg"
   inkscape:version="1.1.1 (3bf5ae0d25, 2021-09-20)"
   xmlns:inkscape="http://www.inkscape.org/namespaces/inkscape"
   xmlns:sodipodi="http://sodipodi.sourceforge.net/DTD/sodipodi-0.dtd"
   xmlns:xlink="http://www.w3.org/1999/xlink"
   xmlns="http://www.w3.org/2000/svg"
   xmlns:svg="http://www.w3.org/2000/svg"
   xmlns:rdf="http://www.w3.org/1999/02/22-rdf-syntax-ns#"
   xmlns:cc="http://creativecommons.org/ns#"
   xmlns:dc="http://purl.org/dc/elements/1.1/">
  <sodipodi:namedview
     pagecolor="#ffffff"
     bordercolor="#666666"
     borderopacity="1"
     objecttolerance="10"
     gridtolerance="10"
     guidetolerance="10"
     inkscape:pageopacity="0"
     inkscape:pageshadow="2"
     inkscape:window-width="1920"
     inkscape:window-height="1007"
     id="namedview17"
     showgrid="true"
     inkscape:zoom="6.9384853"
     inkscape:cx="-9.6562862"
     inkscape:cy="5.0443286"
     inkscape:window-x="0"
     inkscape:window-y="0"
     inkscape:window-maximized="1"
     inkscape:current-layer="layer1"
     inkscape:pagecheckerboard="0">
    <inkscape:grid
       type="xygrid"
       id="grid862" />
  </sodipodi:namedview>
  <defs
     id="defs5455">
    <linearGradient
       inkscape:collect="always"
       xlink:href="#linearGradient860"
       id="linearGradient862"
       x1="22.747"
       y1="99.715874"
       x2="188.90276"
       y2="99.715874"
       gradientUnits="userSpaceOnUse" />
    <linearGradient
       inkscape:collect="always"
       id="linearGradient860">
      <stop
         style="stop-color:#0069a6;stop-opacity:1;"
         offset="0"
         id="stop856" />
      <stop
         style="stop-color:#55ddff;stop-opacity:1"
         offset="1"
         id="stop858" />
    </linearGradient>
    <linearGradient
       inkscape:collect="always"
       xlink:href="#linearGradient991"
       id="linearGradient1482"
       x1="386.57144"
       y1="516.39801"
       x2="446.62146"
       y2="516.39801"
       gradientUnits="userSpaceOnUse"
       gradientTransform="matrix(0.50083249,0,0,0.50000019,191.96389,273.5989)" />
    <linearGradient
       inkscape:collect="always"
       id="linearGradient991">
      <stop
         style="stop-color:#cccccc;stop-opacity:1"
         offset="0"
         id="stop987" />
      <stop
         style="stop-color:#cccccc;stop-opacity:1"
         offset="0.03132199"
         id="stop1929" />
      <stop
         style="stop-color:#0069a6;stop-opacity:1"
         offset="0.05527586"
         id="stop1263" />
      <stop
         style="stop-color:#0069a6;stop-opacity:1"
         offset="0.10902679"
         id="stop1027" />
      <stop
         style="stop-color:#cccccc;stop-opacity:1"
         offset="1"
         id="stop989" />
    </linearGradient>
  </defs>
  <metadata
     id="metadata5458">
    <rdf:RDF>
      <cc:Work
         rdf:about="">
        <dc:format>image/svg+xml</dc:format>
        <dc:type
           rdf:resource="http://purl.org/dc/dcmitype/StillImage" />
      </cc:Work>
    </rdf:RDF>
  </metadata>
  <g
     inkscape:label="Capa 1"
     inkscape:groupmode="layer"
     id="layer1"
     transform="translate(-384.57143,-515.798)">
    <g
       id="start-here-kde-3"
       transform="matrix(0.0722073,0,0,0.0722073,399.57146,528.79908)"
       inkscape:label="#start-here-kde">
      <g
         id="22-22-start-here-kde-3-7-2-6">
        <g
           transform="translate(-50.6,-139.51)"
           id="g6-5-9-7">
          <g
             transform="matrix(0.87464,0,0,0.87464,14.731,23.409)"
             id="g4-3-1-5">
            <path
               transform="matrix(1.1433,0,0,1.1433,22.92,121.64)"
               d="M 105.81,16.625 C 98.4131,34.76 93.952,46.623 85.716,64.219 90.7654,69.5713 96.963,75.804 107.028,82.844 96.207,78.3912 88.825,73.9206 83.309,69.282 c -10.54,21.993 -27.053,53.321 -60.562,113.53 26.338,-15.205 46.754,-24.579 65.781,-28.156 -0.81703,-3.514 -1.2816,-7.3152 -1.25,-11.281 l 0.03125,-0.84375 c 0.41792,-16.874 9.1957,-29.85 19.594,-28.969 10.398,0.88104 18.48,15.282 18.062,32.156 -0.0786,3.1751 -0.43674,6.2296 -1.0625,9.0625 18.821,3.6816 39.019,13.032 65,28.031 -5.123,-9.4318 -9.6957,-17.934 -14.062,-26.031 -6.8784,-5.3312 -14.053,-12.27 -28.688,-19.781 10.059,2.6138 17.261,5.6293 22.875,9 -44.398,-82.662 -47.994,-93.646 -63.219,-129.38 z"
               id="path2-5-2-3"
               style="fill:url(#linearGradient862);fill-opacity:1" />
          </g>
        </g>
      </g>
    </g>
    <path
       d="m 413.60087,523.00325 h -1.59966 v -0.59051 c 0,-1.02553 -0.45005,-1.53099 -0.82764,-1.77468 -0.40492,-0.26115 -0.80253,-0.27447 -0.87849,-0.27447 h -14.05429 c -0.30099,0 -0.58386,-0.31731 -0.88326,-0.65333 -0.38109,-0.42773 -0.81302,-0.91226 -1.46871,-0.91226 h -6.27181 c -1.16613,0 -2.04558,0.87767 -2.04558,2.04155 v 21.91691 c 0,1.12581 0.91759,2.04154 2.04558,2.04154 h 25.98386 c 1.12799,0 2.04558,-0.91573 2.04558,-2.04154 v -17.71167 c 0,-1.1258 -0.91759,-2.04154 -2.04558,-2.04154 z m 1.09208,19.75321 c 0,0.60098 -0.48979,1.08963 -1.09208,1.08963 h -25.98386 c -0.60229,0 -1.09208,-0.48865 -1.09208,-1.08963 v -21.91691 c 0,-0.64128 0.44911,-1.08963 1.09208,-1.08963 h 6.27181 c 0.22788,0 0.4847,0.28811 0.75644,0.59304 0.38617,0.43312 0.86673,0.97223 1.59553,0.97223 h 14.04856 c 0.14398,0.004 0.5524,0.0666 0.70242,0.62128 h -21.88058 c -1.21576,0.0251 -1.85143,0.65968 -1.85143,1.9289 l 0.0559,17.45179 h 0.57973 c 0,0 -0.1203,0.002 5e-4,0.002 0.18752,0 0.48358,0.0367 0.7601,-0.17942 0.49677,-0.38901 0.51775,-0.89321 0.5133,-1.03124 l -0.002,-14.33841 c 0,-1.90384 0,-1.90384 1.907,-1.90384 l 22.52742,0.0898 c 0.60229,0.002 1.09208,0.48897 1.09208,1.08963 v 17.71166 z"
       id="path2-3-3"
       sodipodi:nodetypes="scscsscssssssssscsssssscsccccccsccccsscc"
       style="fill:url(#linearGradient1482);fill-opacity:1;stroke-width:0.317569" />
  </g>
</svg>
