<?xml version="1.0" encoding="UTF-8" standalone="no"?>
<svg
   width="32"
   version="1.1"
   height="32"
   viewBox="0 0 32 32"
   id="svg15"
   sodipodi:docname="folder-git.svg"
   inkscape:version="1.1.1 (3bf5ae0d25, 2021-09-20)"
   xmlns:inkscape="http://www.inkscape.org/namespaces/inkscape"
   xmlns:sodipodi="http://sodipodi.sourceforge.net/DTD/sodipodi-0.dtd"
   xmlns:xlink="http://www.w3.org/1999/xlink"
   xmlns="http://www.w3.org/2000/svg"
   xmlns:svg="http://www.w3.org/2000/svg"
   xmlns:rdf="http://www.w3.org/1999/02/22-rdf-syntax-ns#"
   xmlns:cc="http://creativecommons.org/ns#"
   xmlns:dc="http://purl.org/dc/elements/1.1/">
  <sodipodi:namedview
     pagecolor="#ffffff"
     bordercolor="#666666"
     borderopacity="1"
     objecttolerance="10"
     gridtolerance="10"
     guidetolerance="10"
     inkscape:pageopacity="0"
     inkscape:pageshadow="2"
     inkscape:window-width="1920"
     inkscape:window-height="1007"
     id="namedview17"
     showgrid="true"
     inkscape:zoom="9.8125"
     inkscape:cx="1.4267516"
     inkscape:cy="18.089172"
     inkscape:window-x="0"
     inkscape:window-y="0"
     inkscape:window-maximized="1"
     inkscape:current-layer="g4"
     inkscape:pagecheckerboard="0">
    <inkscape:grid
       type="xygrid"
       id="grid862" />
  </sodipodi:namedview>
  <defs
     id="defs5455">
    <linearGradient
       inkscape:collect="always"
       id="linearGradient991">
      <stop
         style="stop-color:#cccccc;stop-opacity:1"
         offset="0"
         id="stop987" />
      <stop
         style="stop-color:#cccccc;stop-opacity:1"
         offset="0.03132199"
         id="stop1929" />
      <stop
         style="stop-color:#0069a6;stop-opacity:1"
         offset="0.05527586"
         id="stop1263" />
      <stop
         style="stop-color:#0069a6;stop-opacity:1"
         offset="0.10902679"
         id="stop1027" />
      <stop
         style="stop-color:#cccccc;stop-opacity:1"
         offset="1"
         id="stop989" />
    </linearGradient>
    <linearGradient
       inkscape:collect="always"
       xlink:href="#linearGradient991"
       id="linearGradient1482-3"
       x1="386.57144"
       y1="516.39801"
       x2="446.62146"
       y2="516.39801"
       gradientUnits="userSpaceOnUse"
       gradientTransform="matrix(1.3906656,0,0,1.3461636,-466.08399,329.31669)" />
    <linearGradient
       inkscape:collect="always"
       xlink:href="#linearGradient1030"
       id="linearGradient1032"
       x1="422.57144"
       y1="522.14801"
       x2="440.47244"
       y2="522.14801"
       gradientUnits="userSpaceOnUse"
       gradientTransform="matrix(1.3883546,0,0,1.3461636,-465.19059,330.12439)" />
    <linearGradient
       inkscape:collect="always"
       id="linearGradient1030">
      <stop
         style="stop-color:#37abc8;stop-opacity:1"
         offset="0"
         id="stop1025" />
      <stop
         style="stop-color:#ffb380;stop-opacity:1"
         offset="1"
         id="stop1028" />
    </linearGradient>
  </defs>
  <metadata
     id="metadata5458">
    <rdf:RDF>
      <cc:Work
         rdf:about="">
        <dc:format>image/svg+xml</dc:format>
        <dc:type
           rdf:resource="http://purl.org/dc/dcmitype/StillImage" />
      </cc:Work>
    </rdf:RDF>
  </metadata>
  <g
     inkscape:label="Capa 1"
     inkscape:groupmode="layer"
     id="layer1"
     transform="translate(-384.57143,-515.798)">
    <g
       transform="matrix(0.36013848,0,0,0.37142583,359.81878,151.2823)"
       id="g4">
      <path
         d="m 149.33719,1000.7948 h -4.44178 v -1.58985 c 0,-2.7613 -1.24965,-4.12218 -2.29811,-4.77827 -1.12433,-0.70309 -2.22838,-0.73896 -2.43931,-0.73896 h -39.02465 c -0.83577,0 -1.62122,-0.85429 -2.452567,-1.75898 -1.058163,-1.15159 -2.25752,-2.45609 -4.078181,-2.45609 H 77.187599 c -3.238004,0 -5.679967,2.36296 -5.679967,5.49651 v 59.00784 c 0,3.031 2.547867,5.4965 5.679967,5.4965 h 72.149591 c 3.13212,0 5.67998,-2.4655 5.67998,-5.4965 v -47.6857 c 0,-3.031 -2.54786,-5.4965 -5.67998,-5.4965 z m 3.03239,53.1822 c 0,1.618 -1.35999,2.9336 -3.03239,2.9336 H 77.187599 c -1.672384,0 -3.032374,-1.3156 -3.032374,-2.9336 v -59.00784 c 0,-1.72653 1.24702,-2.93364 3.032374,-2.93364 h 17.414993 c 0.632771,0 1.345871,0.7757 2.100428,1.59667 1.072268,1.1661 2.406657,2.61755 4.43032,2.61755 h 39.00875 c 0.39979,0.0108 1.53385,0.17939 1.9504,1.67278 H 81.336489 c -3.375798,0.067 -5.140855,1.77629 -5.140855,5.19338 l 0.155329,46.986 h 1.609728 c 0,0 -0.334038,0 0.0014,0 0.520688,0 1.342761,0.099 2.110562,-0.4831 1.3794,-1.0473 1.437642,-2.4048 1.425299,-2.7765 l -0.0069,-38.6036 c 0,-5.1258 0,-5.1258 5.295185,-5.1258 l 62.552073,0.2418 c 1.67237,0.01 3.03238,1.3164 3.03238,2.9336 v 47.6857 z"
         id="path2-3-3-6"
         sodipodi:nodetypes="scscsscssssssssscsssssscsccccccsccccsscc"
         style="fill:url(#linearGradient1482-3);fill-opacity:1;stroke-width:0.868295" />
      <path
         style="color:#232629;fill:url(#linearGradient1032);fill-opacity:1;stroke:none;stroke-width:1.46877"
         d="m 124.59659,1017.7423 a 3.1064068,2.7779922 0 0 0 -3.10642,2.778 3.1064068,2.7779922 0 0 0 1.55321,2.3613 v 20.1405 a 3.1064068,2.7779922 0 0 0 -1.55321,2.5002 3.1064068,2.7779922 0 0 0 3.10642,2.778 3.1064068,2.7779922 0 0 0 3.1064,-2.778 3.1064068,2.7779922 0 0 0 -1.5532,-2.3613 v -20.2377 a 3.1064068,2.7779922 0 0 0 1.5532,-2.403 3.1064068,2.7779922 0 0 0 -3.1064,-2.778 m 3.1064,2.778 4.65954,2.917 v -1.5279 h 6.21279 c 1.72099,0 3.1064,1.2501 3.1064,2.7779 v 18.432 a 3.1064068,2.7779922 0 0 0 -1.55321,2.403 3.1064068,2.7779922 0 0 0 3.10642,2.778 3.1064068,2.7779922 0 0 0 3.10641,-2.778 3.1064068,2.7779922 0 0 0 -1.5532,-2.3613 v -19.8627 c 0,-2.3613 -2.17449,-4.1211 -4.65963,-4.1669 h -7.76598 v -1.3891 z m -3.1064,-1.3889 a 1.5532034,1.3889965 0 0 1 1.5532,1.3889 1.5532034,1.3889965 0 0 1 -1.5532,1.3891 1.5532034,1.3889965 0 0 1 -1.55321,-1.3891 1.5532034,1.3889965 0 0 1 1.55321,-1.3889 m 0,25.0018 a 1.5532034,1.3889965 0 0 1 1.5532,1.3891 1.5532034,1.3889965 0 0 1 -1.5532,1.3889 1.5532034,1.3889965 0 0 1 -1.55321,-1.3889 1.5532034,1.3889965 0 0 1 1.55321,-1.3891 m 18.63834,0 a 1.5532034,1.3889965 0 0 1 1.55321,1.3891 1.5532034,1.3889965 0 0 1 -1.55321,1.3889 1.5532034,1.3889965 0 0 1 -1.55321,-1.3889 1.5532034,1.3889965 0 0 1 1.55321,-1.3891"
         class="ColorScheme-Text"
         id="path12" />
    </g>
  </g>
</svg>
