<?xml version="1.0" encoding="UTF-8" standalone="no"?>
<svg
   width="32"
   version="1.1"
   height="32"
   viewBox="0 0 32 32"
   id="svg15"
   sodipodi:docname="folder-mega.svg"
   inkscape:version="1.1.1 (3bf5ae0d25, 2021-09-20)"
   xmlns:inkscape="http://www.inkscape.org/namespaces/inkscape"
   xmlns:sodipodi="http://sodipodi.sourceforge.net/DTD/sodipodi-0.dtd"
   xmlns:xlink="http://www.w3.org/1999/xlink"
   xmlns="http://www.w3.org/2000/svg"
   xmlns:svg="http://www.w3.org/2000/svg"
   xmlns:rdf="http://www.w3.org/1999/02/22-rdf-syntax-ns#"
   xmlns:cc="http://creativecommons.org/ns#"
   xmlns:dc="http://purl.org/dc/elements/1.1/">
  <sodipodi:namedview
     pagecolor="#ffffff"
     bordercolor="#666666"
     borderopacity="1"
     objecttolerance="10"
     gridtolerance="10"
     guidetolerance="10"
     inkscape:pageopacity="0"
     inkscape:pageshadow="2"
     inkscape:window-width="1920"
     inkscape:window-height="1007"
     id="namedview17"
     showgrid="true"
     inkscape:zoom="9.8125"
     inkscape:cx="-1.3248408"
     inkscape:cy="33.579618"
     inkscape:window-x="0"
     inkscape:window-y="0"
     inkscape:window-maximized="1"
     inkscape:current-layer="g4"
     inkscape:pagecheckerboard="0">
    <inkscape:grid
       type="xygrid"
       id="grid862" />
  </sodipodi:namedview>
  <defs
     id="defs5455">
    <linearGradient
       inkscape:collect="always"
       xlink:href="#linearGradient991"
       id="linearGradient1482"
       x1="386.57144"
       y1="516.39801"
       x2="446.62146"
       y2="516.39801"
       gradientUnits="userSpaceOnUse"
       gradientTransform="matrix(1.3906657,0,0,1.3461636,-466.08404,329.3167)" />
    <linearGradient
       inkscape:collect="always"
       id="linearGradient991">
      <stop
         style="stop-color:#cccccc;stop-opacity:1"
         offset="0"
         id="stop987" />
      <stop
         style="stop-color:#cccccc;stop-opacity:1"
         offset="0.03132199"
         id="stop1929" />
      <stop
         style="stop-color:#0069a6;stop-opacity:1"
         offset="0.05527586"
         id="stop1263" />
      <stop
         style="stop-color:#0069a6;stop-opacity:1"
         offset="0.10902679"
         id="stop1027" />
      <stop
         style="stop-color:#cccccc;stop-opacity:1"
         offset="1"
         id="stop989" />
    </linearGradient>
  </defs>
  <metadata
     id="metadata5458">
    <rdf:RDF>
      <cc:Work
         rdf:about="">
        <dc:format>image/svg+xml</dc:format>
        <dc:type
           rdf:resource="http://purl.org/dc/dcmitype/StillImage" />
      </cc:Work>
    </rdf:RDF>
  </metadata>
  <g
     inkscape:label="Capa 1"
     inkscape:groupmode="layer"
     id="layer1"
     transform="translate(-384.57143,-515.798)">
    <g
       transform="matrix(0.36013848,0,0,0.37142583,359.81878,151.2823)"
       id="g4">
      <path
         d="m 149.33718,1000.7946 h -4.44178 v -1.58989 c 0,-2.76106 -1.24966,-4.12194 -2.29811,-4.77803 -1.12434,-0.70309 -2.22838,-0.73896 -2.43932,-0.73896 h -39.02465 c -0.83575,0 -1.621198,-0.85429 -2.452545,-1.75898 -1.058163,-1.15159 -2.25752,-2.45609 -4.078181,-2.45609 H 77.187599 c -3.238004,0 -5.679967,2.36296 -5.679967,5.49651 v 59.00754 c 0,3.031 2.547867,5.4965 5.679967,5.4965 h 72.149581 c 3.13211,0 5.67998,-2.4655 5.67998,-5.4965 v -47.6856 c 0,-3.031 -2.54787,-5.4965 -5.67998,-5.4965 z m 3.03239,53.1821 c 0,1.618 -1.35999,2.9337 -3.03239,2.9337 H 77.187599 c -1.672384,0 -3.032374,-1.3157 -3.032374,-2.9337 v -59.00754 c 0,-1.72653 1.24702,-2.93364 3.032374,-2.93364 h 17.414995 c 0.632771,0 1.345871,0.7757 2.100428,1.59667 1.072268,1.1661 2.406657,2.61755 4.430298,2.61755 h 39.00876 c 0.39979,0.0108 1.53385,0.17939 1.9504,1.67269 H 81.33649 c -3.375799,0.0674 -5.140856,1.77607 -5.140856,5.19327 l 0.155329,46.986 h 1.609728 c 0,0 -0.334038,0 0.0013,0 0.520688,0 1.342761,0.099 2.110562,-0.4831 1.379401,-1.0474 1.437643,-2.4048 1.4253,-2.7765 l -0.0069,-38.6036 c 0,-5.1258 0,-5.1258 5.295185,-5.1258 l 62.552072,0.2418 c 1.67237,0.01 3.03237,1.3164 3.03237,2.9336 v 47.6856 z"
         id="path2-3-3"
         sodipodi:nodetypes="scscsscssssssssscsssssscsccccccsccccsscc"
         style="fill:url(#linearGradient1482);fill-opacity:1;stroke-width:0.868295" />
      <rect
         class="st0"
         height="29.279058"
         width="30.196714"
         x="113.8872"
         y="1017.9104"
         id="rect4"
         style="fill:#ff5555;stroke-width:0.51266" />
      <path
         class="st1"
         d="m 116.49033,1016.396 c -2.29079,0 -4.16507,1.8173 -4.16507,4.0385 v 24.2309 c 0,2.2212 1.87428,4.0385 4.16507,4.0385 h 22.90785 l 4.68569,-1.5144 v -20.6973 h -0.52063 c 0,6.1587 -4.00887,11.5097 -9.89203,14.2357 -1.82221,1.161 -5.1022,1.9183 -8.85075,1.9183 -5.72697,0 -10.41267,-1.8174 -10.41267,-4.0385 v -18.1732 c 0,-1.1106 0.93714,-2.0193 2.08254,-2.0193 h 6.24759 v -2.0192 z"
         id="path6"
         style="fill:#ff8080;stroke-width:0.51266" />
      <path
         class="st2"
         d="m 120.65539,1016.396 h 20.82532 c 2.29078,0 4.16507,1.8173 4.16507,4.0385 v 24.2309 c 0,2.2212 -1.87429,4.0385 -4.16507,4.0385 h -4.16507 v -2.0192 h 4.16507 c 1.14539,0 2.08253,-0.9087 2.08253,-2.0193 v -24.2309 c 0,-1.1106 -0.93714,-2.0193 -2.08253,-2.0193 h -20.82532 z"
         id="path8"
         style="clip-rule:evenodd;fill:#f0f0f0;fill-opacity:1;fill-rule:evenodd;stroke-width:0.51266" />
      <path
         id="path3360-3-6"
         d="m 124.46945,1022.7236 c -0.61822,0 -1.24527,0.1214 -1.84851,0.3851 -3.7e-4,10e-5 -0.001,3e-4 -0.001,5e-4 -0.0493,0.022 -0.0984,0.044 -0.14744,0.068 -1.03619,0.4873 -1.92344,1.3537 -2.44813,2.5386 l -3.93476,8.8855 c -1.15871,2.6167 -0.12676,5.7487 2.30456,6.9957 2.15805,1.1068 4.6924,0.3554 6.04539,-1.6568 1.35302,2.0122 3.88735,2.7636 6.04541,1.6568 0.80681,-0.4138 1.45837,-1.0359 1.92806,-1.7771 1.33139,2.103 3.92458,2.9058 6.12544,1.7771 2.43142,-1.247 3.46326,-4.379 2.30456,-6.9957 l -3.93482,-8.8855 c -0.83281,-1.8807 -2.57064,-2.9834 -4.38507,-2.9918 -0.70997,0 -1.43163,0.1609 -2.11546,0.5117 -0.80701,0.4138 -1.45866,1.0361 -1.9284,1.7776 -0.91771,-1.4497 -2.43457,-2.282 -4.00963,-2.2893 z m -0.008,2.6729 c 0.8906,0.01 1.7435,0.5453 2.15229,1.4684 l 3.94306,8.9056 c 0.55474,1.2803 0.0478,2.8048 -1.13938,3.4137 -1.19345,0.612 -2.62196,0.067 -3.1907,-1.2173 l -3.93479,-8.8855 c -0.56873,-1.2844 -0.0623,-2.8217 1.13113,-3.4338 0.33565,-0.1721 0.68993,-0.2528 1.03842,-0.2511 z m 8.05351,0 c 0.89057,0.01 1.7435,0.5453 2.15228,1.4684 l 3.93481,8.8855 c 0.56873,1.2844 0.0623,2.8217 -1.13112,3.4338 -1.19346,0.612 -2.62198,0.067 -3.1907,-1.2173 l -3.94246,-8.904 c -0.55587,-1.2806 -0.049,-2.8061 1.1388,-3.4153 0.33563,-0.1721 0.68991,-0.2528 1.0384,-0.2511 z m -12.10176,5.6539 2.65169,5.9882 -0.41113,0.9283 c -0.56875,1.2843 -1.99727,1.8293 -3.19072,1.2173 -1.19346,-0.6121 -1.69987,-2.1494 -1.13115,-3.4338 z m 10.07243,10.5462 z m -6.04538,-1.6568 v 0 0 l 10e-4,-0.011 -10e-4,0.011 v 0 0 0 l 10e-4,-0.011 -10e-4,0.011 v 0 0 0 0 0 0 0 0 0 0 0 c -0.0167,0 0.008,-0.017 10e-4,-0.011 z m 7.97346,-0.1204 z m 6.12543,1.7771 z m 0,0 z"
         style="fill:#fdfeff;fill-opacity:1;fill-rule:nonzero;stroke:none;stroke-width:0;stroke-linecap:round;stroke-linejoin:round;stroke-miterlimit:4;stroke-dasharray:none;stroke-opacity:1"
         inkscape:connector-curvature="0"
         sodipodi:nodetypes="scccccccscsccsscssccccccsscccccssccccccccccccccccccccccccccccccccccccccccccccccccscccccccccccccccccccccccccccccccccccccccccc" />
    </g>
  </g>
</svg>
