<?xml version="1.0" encoding="UTF-8" standalone="no"?>
<svg
   width="32"
   version="1.1"
   height="32"
   viewBox="0 0 32 32"
   id="svg15"
   sodipodi:docname="folder-rpm.svg"
   inkscape:version="1.1.1 (3bf5ae0d25, 2021-09-20)"
   xmlns:inkscape="http://www.inkscape.org/namespaces/inkscape"
   xmlns:sodipodi="http://sodipodi.sourceforge.net/DTD/sodipodi-0.dtd"
   xmlns:xlink="http://www.w3.org/1999/xlink"
   xmlns="http://www.w3.org/2000/svg"
   xmlns:svg="http://www.w3.org/2000/svg"
   xmlns:rdf="http://www.w3.org/1999/02/22-rdf-syntax-ns#"
   xmlns:cc="http://creativecommons.org/ns#"
   xmlns:dc="http://purl.org/dc/elements/1.1/">
  <sodipodi:namedview
     pagecolor="#ffffff"
     bordercolor="#666666"
     borderopacity="1"
     objecttolerance="10"
     gridtolerance="10"
     guidetolerance="10"
     inkscape:pageopacity="0"
     inkscape:pageshadow="2"
     inkscape:window-width="1920"
     inkscape:window-height="1007"
     id="namedview17"
     showgrid="false"
     inkscape:zoom="9.8125"
     inkscape:cx="-14.165605"
     inkscape:cy="8.1019108"
     inkscape:window-x="0"
     inkscape:window-y="0"
     inkscape:window-maximized="1"
     inkscape:current-layer="g4261"
     inkscape:pagecheckerboard="0" />
  <defs
     id="defs5455">
    <linearGradient
       inkscape:collect="always"
       xlink:href="#linearGradient1243"
       id="linearGradient1245"
       x1="0"
       y1="30"
       x2="64"
       y2="30"
       gradientUnits="userSpaceOnUse" />
    <linearGradient
       inkscape:collect="always"
       id="linearGradient1243">
      <stop
         style="stop-color:#d40000;stop-opacity:1"
         offset="0"
         id="stop1239" />
      <stop
         style="stop-color:#ffaaaa;stop-opacity:1"
         offset="1"
         id="stop1241" />
    </linearGradient>
  </defs>
  <metadata
     id="metadata5458">
    <rdf:RDF>
      <cc:Work
         rdf:about="">
        <dc:format>image/svg+xml</dc:format>
        <dc:type
           rdf:resource="http://purl.org/dc/dcmitype/StillImage" />
      </cc:Work>
    </rdf:RDF>
  </metadata>
  <g
     inkscape:label="Capa 1"
     inkscape:groupmode="layer"
     id="g4261"
     transform="translate(-384.57143,-515.798)">
    <path
       d="m 413.60085,523.00324 h -1.59966 v -0.5905 c 0,-1.02553 -0.45005,-1.531 -0.82764,-1.77469 -0.40491,-0.26114 -0.80252,-0.27447 -0.87849,-0.27447 h -14.05428 c -0.30099,0 -0.58385,-0.3173 -0.88326,-0.65333 -0.38108,-0.42773 -0.81302,-0.91225 -1.46871,-0.91225 H 387.617 c -1.16612,0 -2.04557,0.87766 -2.04557,2.04154 v 21.91691 c 0,1.12581 0.91759,2.04155 2.04557,2.04155 h 25.98385 c 1.128,0 2.04558,-0.91575 2.04558,-2.04155 v -17.71166 c 0,-1.1258 -0.91758,-2.04155 -2.04558,-2.04155 z m 1.09208,19.75321 c 0,0.60098 -0.48979,1.08963 -1.09208,1.08963 H 387.617 c -0.60229,0 -1.09207,-0.48865 -1.09207,-1.08963 v -21.91691 c 0,-0.64127 0.4491,-1.08963 1.09207,-1.08963 h 6.27181 c 0.22789,0 0.4847,0.28812 0.75645,0.59305 0.38616,0.43312 0.86673,0.97222 1.59552,0.97222 h 14.04856 c 0.14398,0.004 0.5524,0.0666 0.70241,0.62128 h -21.88057 c -1.21576,0.0251 -1.85142,0.65968 -1.85142,1.9289 l 0.0559,17.4518 h 0.57972 c 0,0 -0.12029,0.001 4.9e-4,0.001 0.18752,0 0.48358,0.0367 0.76009,-0.17942 0.49678,-0.38902 0.51776,-0.89322 0.51331,-1.03125 l -0.002,-14.3384 c 0,-1.90384 0,-1.90384 1.907,-1.90384 l 22.52741,0.0898 c 0.60228,0.002 1.09208,0.48897 1.09208,1.08963 v 17.71166 z"
       id="path2-3-3-3"
       sodipodi:nodetypes="scscsscssssssssscsssssscsccccccsccccsscc"
       style="fill:#eb0a42;fill-opacity:1;stroke-width:0.317569" />
    <g
       id="Dashboard_1_"
       transform="matrix(0.17857143,0,0,0.17857143,401.30357,530.11943)">
      <path
         id="Dashboard"
         class="st0"
         d="M 58.8,44 C 59.6,41.5 60,38.8 60,36 60,20.5 47.5,8 32,8 16.5,8 4,20.5 4,36 c 0,2.8 0.4,5.5 1.2,8 H 20 c 0,-6.6 5.4,-12 12,-12 6.6,0 12,5.4 12,12 z M 64,36 c 0,6 -1.6,11.5 -4.5,16.3 L 54,56 H 7 C 2.6,50.5 0,43.6 0,36 0,18.3 14.3,4 32,4 49.7,4 64,18.3 64,36 Z"
         style="fill:url(#linearGradient1245);fill-opacity:1" />
      <path
         id="Dashboard-s"
         class="st1"
         d="m 22.1,14.2 c 2.2,-1 4.5,-1.6 6.8,-1.9 l 0.5,4 c -2,0.3 -3.9,0.8 -5.7,1.6 -2.2,1 -4.2,2.4 -5.9,4.1 L 15,19 c 2.1,-2 4.4,-3.7 7.1,-4.8 z m 13,-2 -0.5,4 c 1.9,0.3 3.8,0.8 5.6,1.6 2.5,1.1 4.7,2.7 6.5,4.7 L 29.6,39.6 32.4,42.4 52,22.8 v 0 c -0.6,-0.9 -1.3,-1.8 -2,-2.6 -2.3,-2.6 -5,-4.6 -8.1,-6 -2.2,-1 -4.5,-1.7 -6.8,-2 z M 9,29.1 C 8,32.4 7.7,35.8 8.2,39.2 l 4,-0.5 c -0.4,-2.8 -0.1,-5.7 0.7,-8.4 0.4,-1.5 1.1,-2.9 1.8,-4.2 l -3.5,-2 c -0.9,1.5 -1.6,3.2 -2.2,5 z m 45,-2.6 -3.1,3.1 c 0.1,0.2 0.1,0.4 0.2,0.6 0.8,2.7 1.1,5.6 0.7,8.4 l 4,0.5 C 56.2,35.7 56,32.3 55,29 54.7,28.1 54.4,27.3 54,26.5 Z M 58.8,44 c -0.3,1.1 -0.7,2.2 -1.2,3.2 -1.1,2.4 -2.4,4.7 -4.1,6.7 -1.1,1.4 -3,2.1 -5.1,2.1 H 12 v 4 h 36.5 c 3,0 6.1,-1.1 8.1,-3.6 1.9,-2.3 3.5,-4.9 4.7,-7.6 C 62,47.2 62.5,45.6 63,44 Z"
         style="fill:#f0f0f0;fill-opacity:1" />
    </g>
  </g>
</svg>
