<?xml version="1.0" encoding="UTF-8" standalone="no"?>
<svg
   width="32"
   version="1.1"
   height="32"
   viewBox="0 0 32 32"
   id="svg15"
   sodipodi:docname="folder-trash.svg"
   inkscape:version="1.1.1 (3bf5ae0d25, 2021-09-20)"
   xmlns:inkscape="http://www.inkscape.org/namespaces/inkscape"
   xmlns:sodipodi="http://sodipodi.sourceforge.net/DTD/sodipodi-0.dtd"
   xmlns:xlink="http://www.w3.org/1999/xlink"
   xmlns="http://www.w3.org/2000/svg"
   xmlns:svg="http://www.w3.org/2000/svg"
   xmlns:rdf="http://www.w3.org/1999/02/22-rdf-syntax-ns#"
   xmlns:cc="http://creativecommons.org/ns#"
   xmlns:dc="http://purl.org/dc/elements/1.1/">
  <sodipodi:namedview
     pagecolor="#ffffff"
     bordercolor="#666666"
     borderopacity="1"
     objecttolerance="10"
     gridtolerance="10"
     guidetolerance="10"
     inkscape:pageopacity="0"
     inkscape:pageshadow="2"
     inkscape:window-width="1920"
     inkscape:window-height="1007"
     id="namedview17"
     showgrid="true"
     inkscape:zoom="9.8125"
     inkscape:cx="1.4267516"
     inkscape:cy="18.089172"
     inkscape:window-x="0"
     inkscape:window-y="0"
     inkscape:window-maximized="1"
     inkscape:current-layer="g4"
     inkscape:pagecheckerboard="0">
    <inkscape:grid
       type="xygrid"
       id="grid862" />
  </sodipodi:namedview>
  <defs
     id="defs5455">
    <linearGradient
       inkscape:collect="always"
       xlink:href="#linearGradient917"
       id="linearGradient919"
       x1="417.07144"
       y1="522.3302"
       x2="440.6886"
       y2="522.3302"
       gradientUnits="userSpaceOnUse"
       gradientTransform="matrix(1.3883543,0,0,1.3461633,-465.19048,330.12454)" />
    <linearGradient
       inkscape:collect="always"
       id="linearGradient917">
      <stop
         style="stop-color:#00d455;stop-opacity:1"
         offset="0"
         id="stop913" />
      <stop
         style="stop-color:#00d4aa;stop-opacity:1"
         offset="1"
         id="stop915" />
    </linearGradient>
  </defs>
  <metadata
     id="metadata5458">
    <rdf:RDF>
      <cc:Work
         rdf:about="">
        <dc:format>image/svg+xml</dc:format>
        <dc:type
           rdf:resource="http://purl.org/dc/dcmitype/StillImage" />
      </cc:Work>
    </rdf:RDF>
  </metadata>
  <g
     inkscape:label="Capa 1"
     inkscape:groupmode="layer"
     id="layer1"
     transform="translate(-384.57143,-515.798)">
    <g
       transform="matrix(0.36013848,0,0,0.37142583,359.81878,151.2823)"
       id="g4">
      <path
         d="m 149.33716,1000.7947 h -4.44177 v -1.5899 c 0,-2.76115 -1.24966,-4.12203 -2.29811,-4.77812 -1.12433,-0.70309 -2.22838,-0.73896 -2.43931,-0.73896 h -39.02464 c -0.83576,0 -1.621216,-0.85429 -2.452563,-1.75898 -1.058162,-1.15159 -2.25752,-2.45609 -4.07818,-2.45609 H 77.187598 c -3.238003,0 -5.679966,2.36296 -5.679966,5.49651 v 59.00764 c 0,3.031 2.547867,5.4965 5.679966,5.4965 h 72.149562 c 3.13212,0 5.67999,-2.4655 5.67999,-5.4965 v -47.6856 c 0,-3.031 -2.54787,-5.4965 -5.67999,-5.4965 z m 3.03239,53.1821 c 0,1.618 -1.35999,2.9336 -3.03239,2.9336 H 77.187598 c -1.672384,0 -3.032374,-1.3156 -3.032374,-2.9336 v -59.00764 c 0,-1.72653 1.24702,-2.93364 3.032374,-2.93364 h 17.414989 c 0.632771,0 1.345871,0.7757 2.100428,1.59667 1.072267,1.1661 2.406656,2.61755 4.430315,2.61755 h 39.00874 c 0.39979,0.0108 1.53386,0.17939 1.95041,1.67269 H 81.336487 c -3.375798,0.0674 -5.140854,1.77621 -5.140854,5.19337 l 0.155329,46.9859 h 1.609727 c 0,0 -0.334038,0.01 0.0014,0.01 0.520689,0 1.342761,0.099 2.110563,-0.483 1.379399,-1.0474 1.437641,-2.4048 1.425298,-2.7765 l -0.0069,-38.6036 c 0,-5.1258 0,-5.1258 5.295183,-5.1258 l 62.552057,0.2418 c 1.67237,0.01 3.03237,1.3165 3.03237,2.9336 v 47.6856 z"
         id="path2-3-3-3"
         sodipodi:nodetypes="scscsscssssssssscsssssscsccccccsccccsscc"
         style="fill:#3bad7e;fill-opacity:1;stroke-width:0.868295" />
      <path
         style="color:#232629;fill:url(#linearGradient919);fill-opacity:1;stroke:none;stroke-width:1.36709"
         d="m 127.48381,1017.7423 c 0.83934,0.3391 1.53971,0.9525 2.06353,1.8325 l 3.73934,6.3049 -2.34013,1.2857 7.58443,0.1052 3.7068,-6.4443 -2.30489,1.3252 -2.13405,-3.5259 c -0.35088,-0.5768 -0.94443,-0.8834 -1.71375,-0.8834 z m -1.99035,0.3049 c -1.32745,0 -2.41415,0.6103 -3.07769,1.7301 l -3.18075,5.3215 6.67603,3.7625 4.1271,-6.9149 -1.1904,-1.9325 c -0.80326,-1.3204 -1.92142,-1.9667 -3.35429,-1.9667 z m 17.47646,9.2865 -6.67603,3.6941 4.12438,6.9174 h 2.3076 c 0.73215,0 1.46778,-0.1717 1.99305,-0.4443 1.11733,-0.6095 1.92254,-1.8977 1.92254,-3.1182 0,-0.5874 -0.17528,-1.1849 -0.4908,-1.7275 z m -21.49509,1.5618 -7.62239,0.1393 2.34285,1.2857 -2.0988,3.56 c -0.13973,0.2369 -0.24405,0.609 -0.24405,0.9149 0,0.3056 0.10399,0.6445 0.24405,0.8808 l 4.37115,7.2856 c -0.0343,-0.2363 -0.0353,-0.405 -0.0353,-0.539 0,-0.5772 0.27964,-1.4947 0.6291,-2.1034 h -0.003 l 3.74205,-6.2707 2.3781,1.3225 z m 13.83745,7.2171 -3.91289,6.3391 3.91289,6.3391 v -2.6109 h 4.09184 c 0.73394,0 1.36159,-0.3391 1.71105,-0.9149 l 4.33588,-7.3198 c -0.73358,0.5412 -1.60702,0.8124 -2.65468,0.8124 h -7.48409 z m -14.33097,2.5793 -1.1172,1.9298 c -0.34945,0.5759 -0.59384,1.4925 -0.59384,2.0582 0,1.9088 1.64116,3.5027 3.63359,3.5027 h 6.36419 v -7.4907 z"
         class="ColorScheme-Text"
         id="path12" />
    </g>
  </g>
</svg>
