<?xml version="1.0" encoding="UTF-8" standalone="no"?>
<svg
   width="32"
   version="1.1"
   height="32"
   viewBox="0 0 32 32"
   id="svg17"
   sodipodi:docname="folder-development.svg"
   inkscape:version="1.1.1 (3bf5ae0d25, 2021-09-20)"
   xmlns:inkscape="http://www.inkscape.org/namespaces/inkscape"
   xmlns:sodipodi="http://sodipodi.sourceforge.net/DTD/sodipodi-0.dtd"
   xmlns:xlink="http://www.w3.org/1999/xlink"
   xmlns="http://www.w3.org/2000/svg"
   xmlns:svg="http://www.w3.org/2000/svg"
   xmlns:rdf="http://www.w3.org/1999/02/22-rdf-syntax-ns#"
   xmlns:cc="http://creativecommons.org/ns#"
   xmlns:dc="http://purl.org/dc/elements/1.1/">
  <sodipodi:namedview
     pagecolor="#ffffff"
     bordercolor="#666666"
     borderopacity="1"
     objecttolerance="10"
     gridtolerance="10"
     guidetolerance="10"
     inkscape:pageopacity="0"
     inkscape:pageshadow="2"
     inkscape:window-width="1920"
     inkscape:window-height="1007"
     id="namedview19"
     showgrid="false"
     inkscape:zoom="9.8125"
     inkscape:cx="-22.420382"
     inkscape:cy="8.5605096"
     inkscape:window-x="0"
     inkscape:window-y="0"
     inkscape:window-maximized="1"
     inkscape:current-layer="layer1"
     inkscape:pagecheckerboard="0" />
  <defs
     id="defs5455">
    <linearGradient
       inkscape:collect="always"
       xlink:href="#linearGradient991-6"
       id="linearGradient1482-3"
       x1="386.57144"
       y1="516.39801"
       x2="446.62146"
       y2="516.39801"
       gradientUnits="userSpaceOnUse"
       gradientTransform="matrix(0.5008323,0,0,0.5,191.96397,273.599)" />
    <linearGradient
       inkscape:collect="always"
       id="linearGradient991-6">
      <stop
         style="stop-color:#cccccc;stop-opacity:1"
         offset="0"
         id="stop987-7" />
      <stop
         style="stop-color:#cccccc;stop-opacity:1"
         offset="0.03132199"
         id="stop1929-5" />
      <stop
         style="stop-color:#0069a6;stop-opacity:1"
         offset="0.05527586"
         id="stop1263-3" />
      <stop
         style="stop-color:#0069a6;stop-opacity:1"
         offset="0.10902679"
         id="stop1027-5" />
      <stop
         style="stop-color:#cccccc;stop-opacity:1"
         offset="1"
         id="stop989-6" />
    </linearGradient>
    <linearGradient
       inkscape:collect="always"
       xlink:href="#linearGradient1344"
       id="linearGradient867"
       x1="0"
       y1="28"
       x2="64"
       y2="28"
       gradientUnits="userSpaceOnUse" />
    <linearGradient
       inkscape:collect="always"
       id="linearGradient1344">
      <stop
         style="stop-color:#b380ff;stop-opacity:1"
         offset="0"
         id="stop1340" />
      <stop
         style="stop-color:#00c49d;stop-opacity:1"
         offset="1"
         id="stop1342" />
    </linearGradient>
    <linearGradient
       inkscape:collect="always"
       xlink:href="#linearGradient1344"
       id="linearGradient1116"
       x1="0"
       y1="6"
       x2="12"
       y2="6"
       gradientUnits="userSpaceOnUse" />
  </defs>
  <metadata
     id="metadata5458">
    <rdf:RDF>
      <cc:Work
         rdf:about="">
        <dc:format>image/svg+xml</dc:format>
        <dc:type
           rdf:resource="http://purl.org/dc/dcmitype/StillImage" />
      </cc:Work>
    </rdf:RDF>
  </metadata>
  <g
     inkscape:label="Capa 1"
     inkscape:groupmode="layer"
     id="layer1"
     transform="translate(-384.57143,-515.798)">
    <path
       d="m 413.60085,523.00324 h -1.59966 v -0.5905 c 0,-1.02553 -0.45005,-1.531 -0.82764,-1.77469 -0.40491,-0.26114 -0.80252,-0.27447 -0.87849,-0.27447 h -14.05428 c -0.30099,0 -0.58386,-0.3173 -0.88326,-0.65333 -0.38108,-0.42773 -0.81302,-0.91225 -1.46871,-0.91225 H 387.617 c -1.16613,0 -2.04557,0.87766 -2.04557,2.04154 v 21.91691 c 0,1.12581 0.91758,2.04155 2.04557,2.04155 h 25.98385 c 1.12799,0 2.04558,-0.91575 2.04558,-2.04155 v -17.71166 c 0,-1.1258 -0.91759,-2.04155 -2.04558,-2.04155 z m 1.09208,19.75322 c 0,0.60097 -0.48979,1.08963 -1.09208,1.08963 H 387.617 c -0.60229,0 -1.09207,-0.48866 -1.09207,-1.08963 v -21.91691 c 0,-0.64128 0.4491,-1.08963 1.09207,-1.08963 h 6.27181 c 0.22789,0 0.4847,0.28811 0.75645,0.59304 0.38616,0.43312 0.86673,0.97223 1.59552,0.97223 h 14.04856 c 0.14398,0.004 0.5524,0.0666 0.70241,0.62128 h -21.88057 c -1.21576,0.0251 -1.85142,0.65968 -1.85142,1.9289 l 0.0559,17.45179 h 0.57972 c 0,0 -0.1203,0.001 4.9e-4,0.001 0.18752,0 0.48358,0.0367 0.76009,-0.17942 0.49678,-0.38901 0.51775,-0.89322 0.51331,-1.03124 l -0.002,-14.33841 c 0,-1.90384 0,-1.90384 1.907,-1.90384 l 22.52741,0.0898 c 0.60228,0.002 1.09207,0.48897 1.09207,1.08963 v 17.71166 z"
       id="path2-3-3-2"
       sodipodi:nodetypes="scscsscssssssssscsssssscsccccccsccccsscc"
       style="fill:url(#linearGradient1482-3);fill-opacity:1;stroke-width:0.317569" />
    <g
       id="Computer_1_"
       transform="matrix(0.21428571,0,0,0.21428571,398.37143,530.14085)">
      <path
         id="Computer"
         class="st0"
         d="m 60,4 h 4 v 36 c 0,4.4 -3.6,8 -8,8 H 0 V 40 H 60 Z M 32,52 Z"
         style="fill:url(#linearGradient867);fill-opacity:1"
         sodipodi:nodetypes="ccssccccccccc" />
      <path
         id="Computer-s"
         class="st1"
         d="M 4,40 H 0 V 12 C 0,7.6 3.6,4 8,4 H 64 V 8 H 8 C 5.8,8 4,9.8 4,12 Z m 56,0 c 0,4.4 -3.6,8 -8,8 H 32 v 4 h 4 v 0 0 0 0 h 16 c 6.6,0 12,-5.4 12,-12 z"
         style="fill:#f2f2f2;fill-opacity:1"
         sodipodi:nodetypes="ccssccssccscccccccscc" />
    </g>
    <g
       id="g8"
       style="image-rendering:optimizeQuality;shape-rendering:geometricPrecision;text-rendering:geometricPrecision"
       transform="matrix(0.5,0,0,0.5,402.17143,532.298)">
      <path
         class="fil0"
         d="M 7.3777778,1.7333333 C 7.6,1.8222222 7.8222222,1.9111111 8.0444444,2 L 9.1111111,1.2 C 9.3333333,1.0666667 9.6,1.1111111 9.7333333,1.2444444 L 10.711111,2.2222222 C 10.888889,2.4 10.888889,2.6666667 10.755556,2.8444444 L 10,3.9555556 C 10.088889,4.1777778 10.177778,4.4 10.266667,4.6222222 L 11.6,4.8444444 c 0.222222,0 0.4,0.2222223 0.4,0.4444445 v 1.3777778 c 0,0.2222222 -0.177778,0.4444444 -0.4,0.4888889 L 10.266667,7.3777778 C 10.177778,7.6 10.088889,7.8222222 10,8.0444444 l 0.8,1.0666667 C 10.933333,9.3333333 10.888889,9.6 10.755556,9.7333333 L 9.7777778,10.711111 C 9.6,10.888889 9.3333333,10.888889 9.1555556,10.755556 L 8.0444444,10 C 7.8222222,10.088889 7.6,10.177778 7.3777778,10.266667 L 7.1555556,11.6 C 7.1111111,11.822222 6.8888889,12 6.6666667,12 H 5.2888889 C 5.0666667,12 4.8444444,11.822222 4.8444444,11.6 L 4.6222222,10.266667 C 4.4,10.177778 4.1777778,10.088889 3.9555556,10 L 2.8444444,10.755556 C 2.6666667,10.888889 2.4,10.888889 2.2222222,10.711111 L 1.2444444,9.7333333 C 1.1111111,9.6 1.0666667,9.3333333 1.2,9.1555556 L 2,8.0444444 C 1.8666667,7.8222222 1.7777778,7.6 1.7333333,7.3777778 L 0.4,7.1555556 C 0.17777778,7.1111111 0,6.8888889 0,6.6666667 V 5.2888889 C 0,5.0666667 0.17777778,4.8444444 0.4,4.8444444 L 1.7333333,4.6222222 C 1.7777778,4.3555556 1.8666667,4.1777778 2,3.9555556 L 1.2,2.8444444 C 1.0666667,2.6666667 1.1111111,2.4 1.2888889,2.2222222 L 2.2666667,1.2444444 C 2.4,1.1111111 2.6666667,1.0666667 2.8444444,1.2 L 3.9555556,2 C 4.1777778,1.9111111 4.4,1.8222222 4.6222222,1.7333333 L 4.8444444,0.4 c 0,-0.22222222 0.2222223,-0.4 0.4444445,-0.4 H 6.6666667 C 6.8888889,0 7.1111111,0.17777778 7.1555556,0.4 Z M 6,3.4666667 C 4.6222222,3.4666667 3.4666667,4.6222222 3.4666667,6 3.4666667,7.3777778 4.6222222,8.5333333 6,8.5333333 7.3777778,8.5333333 8.5333333,7.3777778 8.5333333,6 8.5333333,4.6222222 7.3777778,3.4666667 6,3.4666667 Z"
         id="path6"
         style="fill:url(#linearGradient1116);fill-opacity:1;stroke-width:0.0444444" />
    </g>
  </g>
</svg>
