<?xml version="1.0" encoding="UTF-8" standalone="no"?>
<svg
   width="32"
   version="1.1"
   height="32"
   viewBox="0 0 32 32"
   id="svg15"
   sodipodi:docname="folder-Github.svg"
   inkscape:version="1.1.1 (3bf5ae0d25, 2021-09-20)"
   xmlns:inkscape="http://www.inkscape.org/namespaces/inkscape"
   xmlns:sodipodi="http://sodipodi.sourceforge.net/DTD/sodipodi-0.dtd"
   xmlns:xlink="http://www.w3.org/1999/xlink"
   xmlns="http://www.w3.org/2000/svg"
   xmlns:svg="http://www.w3.org/2000/svg"
   xmlns:rdf="http://www.w3.org/1999/02/22-rdf-syntax-ns#"
   xmlns:cc="http://creativecommons.org/ns#"
   xmlns:dc="http://purl.org/dc/elements/1.1/">
  <sodipodi:namedview
     pagecolor="#ffffff"
     bordercolor="#666666"
     borderopacity="1"
     objecttolerance="10"
     gridtolerance="10"
     guidetolerance="10"
     inkscape:pageopacity="0"
     inkscape:pageshadow="2"
     inkscape:window-width="1920"
     inkscape:window-height="1007"
     id="namedview17"
     showgrid="true"
     inkscape:zoom="9.8125"
     inkscape:cx="-26.292994"
     inkscape:cy="8.6624204"
     inkscape:window-x="0"
     inkscape:window-y="0"
     inkscape:window-maximized="1"
     inkscape:current-layer="layer1"
     inkscape:document-rotation="0"
     inkscape:pagecheckerboard="0">
    <inkscape:grid
       type="xygrid"
       id="grid847" />
  </sodipodi:namedview>
  <defs
     id="defs5455">
    <linearGradient
       inkscape:collect="always"
       xlink:href="#linearGradient1228"
       id="linearGradient1230"
       x1="415.57144"
       y1="522.49341"
       x2="439.56207"
       y2="522.49341"
       gradientUnits="userSpaceOnUse"
       gradientTransform="matrix(0.5,0,0,0.5,192.28571,273.899)" />
    <linearGradient
       inkscape:collect="always"
       id="linearGradient1228">
      <stop
         style="stop-color:#aa87de;stop-opacity:1"
         offset="0"
         id="stop1224" />
      <stop
         style="stop-color:#00d4aa;stop-opacity:1"
         offset="1"
         id="stop1226" />
    </linearGradient>
    <linearGradient
       inkscape:collect="always"
       xlink:href="#linearGradient991"
       id="linearGradient1482"
       x1="386.57144"
       y1="516.39801"
       x2="446.62146"
       y2="516.39801"
       gradientUnits="userSpaceOnUse"
       gradientTransform="matrix(0.5008323,0,0,0.5,191.96396,273.599)" />
    <linearGradient
       inkscape:collect="always"
       id="linearGradient991">
      <stop
         style="stop-color:#cccccc;stop-opacity:1"
         offset="0"
         id="stop987" />
      <stop
         style="stop-color:#cccccc;stop-opacity:1"
         offset="0.03132199"
         id="stop1929" />
      <stop
         style="stop-color:#0069a6;stop-opacity:1"
         offset="0.05527586"
         id="stop1263" />
      <stop
         style="stop-color:#0069a6;stop-opacity:1"
         offset="0.10902679"
         id="stop1027" />
      <stop
         style="stop-color:#cccccc;stop-opacity:1"
         offset="1"
         id="stop989" />
    </linearGradient>
  </defs>
  <metadata
     id="metadata5458">
    <rdf:RDF>
      <cc:Work
         rdf:about="">
        <dc:format>image/svg+xml</dc:format>
        <dc:type
           rdf:resource="http://purl.org/dc/dcmitype/StillImage" />
      </cc:Work>
    </rdf:RDF>
  </metadata>
  <g
     inkscape:label="Capa 1"
     inkscape:groupmode="layer"
     id="layer1"
     transform="translate(-384.57143,-515.798)">
    <path
       class="st0"
       d="m 412.06674,535.29565 c 0,2.66147 -1.72432,4.91059 -4.12339,5.69778 h -3.74853 c -2.39907,-0.78719 -4.12339,-3.03631 -4.12339,-5.69778 0,-3.31745 2.6802,-5.99765 5.99765,-5.99765 3.31746,0 5.99766,2.6802 5.99766,5.99765 z"
       id="path4"
       style="fill:url(#linearGradient1230);fill-opacity:1;stroke-width:0.187427" />
    <path
       class="st2"
       d="m 408.31821,537.73221 c 0.56228,-0.18743 1.49942,-0.74971 1.49942,-2.43656 0,-0.65598 -0.16869,-1.25575 -0.54354,-1.74306 0.41233,-0.99336 -0.0375,-1.63061 -0.20618,-1.63061 -0.14993,0 -0.78719,0.11245 -1.36821,0.58102 -0.46857,-0.1312 -1.01211,-0.20617 -1.63062,-0.20617 -0.6185,0 -1.16204,0.075 -1.6306,0.20617 -0.58103,-0.46857 -1.21828,-0.58102 -1.36822,-0.58102 -0.16869,0 -0.61851,0.63725 -0.20617,1.63061 -0.37486,0.48731 -0.54354,1.08708 -0.54354,1.74306 0,1.68685 0.93714,2.24913 1.49942,2.43656 0.44982,0.14994 0.93713,0.24365 1.12455,0.28114 -0.11245,0.11245 -0.29987,0.41233 -0.3561,0.82468 -0.14994,0.11245 -0.37486,0.20616 -0.67474,0.20616 -0.56228,0 -0.84342,-0.37485 -1.12456,-0.74971 -0.28114,-0.37485 -0.65599,-0.56227 -0.84342,-0.56227 -0.18743,0 -0.37485,0.0937 -0.18743,0.28114 0.18743,0.18742 0.43108,0.0375 0.93714,0.93713 0.37485,0.67474 0.84342,0.656 1.21827,0.656 0.33737,0 0.656,-0.18743 0.656,-0.18743 h 2.81139 l 0.18743,-0.37485 c 0,-0.5248 -0.24366,-0.89965 -0.37485,-1.03085 0.18742,-0.0375 0.67473,-0.1312 1.12456,-0.28114 z"
       id="path8"
       style="fill:#f2f2f2;fill-opacity:1;stroke-width:0.187427" />
    <path
       class="st3"
       d="m 401.75827,538.01335 c -0.11246,-0.11246 -0.0937,-0.18743 -0.0187,-0.22492 0.33736,0.33737 0.76845,0.59977 1.2745,0.78719 0.22491,0.26241 0.48731,0.46857 0.89965,0.46857 0.18742,0 0.35611,-0.0562 0.50605,-0.11246 0.52479,0.075 1.08707,0.11246 1.64935,0.11246 0.5248,0 1.03085,-0.0187 1.49942,-0.0937 0,0.0375 0,0.0562 0,0.0937 v 1.49942 l 0.43108,0.43108 c -1.25576,0.43108 -2.60523,0.43108 -3.86099,0 l 0.43108,-0.43108 v -0.89965 c -0.14994,0.0562 -0.41234,0.14994 -0.65599,0.14994 -0.37486,0 -0.93714,-0.075 -1.31199,-0.74971 -0.37485,-0.69347 -0.56228,-0.82468 -0.71222,-0.91839 -0.0375,-0.0375 -0.0937,-0.075 -0.1312,-0.11245 z"
       id="path10"
       style="clip-rule:evenodd;fill:#f2f2f2;fill-opacity:1;fill-rule:evenodd;stroke-width:0.187427" />
    <path
       d="m 413.60085,523.00324 h -1.59966 v -0.5905 c 0,-1.02553 -0.45005,-1.53099 -0.82764,-1.77469 -0.40491,-0.26114 -0.80252,-0.27447 -0.87849,-0.27447 h -14.05428 c -0.30099,0 -0.58386,-0.3173 -0.88326,-0.65333 -0.38108,-0.42773 -0.81302,-0.91225 -1.46871,-0.91225 H 387.617 c -1.16613,0 -2.04557,0.87766 -2.04557,2.04154 v 21.91691 c 0,1.1258 0.91758,2.04155 2.04557,2.04155 h 25.98385 c 1.12799,0 2.04558,-0.91575 2.04558,-2.04155 v -17.71166 c 0,-1.1258 -0.91759,-2.04155 -2.04558,-2.04155 z m 1.09208,19.75321 c 0,0.60098 -0.48979,1.08964 -1.09208,1.08964 H 387.617 c -0.60229,0 -1.09207,-0.48866 -1.09207,-1.08964 v -21.9169 c 0,-0.64128 0.4491,-1.08964 1.09207,-1.08964 h 6.27181 c 0.22789,0 0.4847,0.28812 0.75645,0.59305 0.38617,0.43312 0.86673,0.97223 1.59552,0.97223 h 14.04856 c 0.14398,0.004 0.5524,0.0666 0.70241,0.62127 h -21.88057 c -1.21576,0.0251 -1.85142,0.65969 -1.85142,1.9289 l 0.0559,17.4518 h 0.57972 c 0,0 -0.1203,0.001 4.9e-4,0.001 0.18752,0 0.48358,0.0367 0.76009,-0.17942 0.49678,-0.38902 0.51775,-0.89321 0.51331,-1.03125 l -0.002,-14.3384 c 0,-1.90384 0,-1.90384 1.907,-1.90384 l 22.52741,0.0898 c 0.60228,0.002 1.09208,0.48896 1.09208,1.08962 v 17.71166 z"
       id="path2-3-3"
       sodipodi:nodetypes="scscsscssssssssscsssssscsccccccsccccsscc"
       style="fill:url(#linearGradient1482);fill-opacity:1;stroke-width:0.317569" />
  </g>
</svg>
