<?xml version="1.0" encoding="UTF-8" standalone="no"?>
<svg
   width="32"
   version="1.1"
   height="32"
   viewBox="0 0 32 32"
   id="svg15"
   sodipodi:docname="folder-godot.svg"
   inkscape:version="1.1.1 (3bf5ae0d25, 2021-09-20)"
   xmlns:inkscape="http://www.inkscape.org/namespaces/inkscape"
   xmlns:sodipodi="http://sodipodi.sourceforge.net/DTD/sodipodi-0.dtd"
   xmlns:xlink="http://www.w3.org/1999/xlink"
   xmlns="http://www.w3.org/2000/svg"
   xmlns:svg="http://www.w3.org/2000/svg"
   xmlns:rdf="http://www.w3.org/1999/02/22-rdf-syntax-ns#"
   xmlns:cc="http://creativecommons.org/ns#"
   xmlns:dc="http://purl.org/dc/elements/1.1/">
  <sodipodi:namedview
     pagecolor="#ffffff"
     bordercolor="#666666"
     borderopacity="1"
     objecttolerance="10"
     gridtolerance="10"
     guidetolerance="10"
     inkscape:pageopacity="0"
     inkscape:pageshadow="2"
     inkscape:window-width="1920"
     inkscape:window-height="1007"
     id="namedview17"
     showgrid="true"
     inkscape:zoom="9.8125"
     inkscape:cx="1.4267516"
     inkscape:cy="18.089172"
     inkscape:window-x="0"
     inkscape:window-y="0"
     inkscape:window-maximized="1"
     inkscape:current-layer="g4"
     inkscape:pagecheckerboard="0">
    <inkscape:grid
       type="xygrid"
       id="grid862" />
  </sodipodi:namedview>
  <defs
     id="defs5455">
    <linearGradient
       inkscape:collect="always"
       id="linearGradient991">
      <stop
         style="stop-color:#cccccc;stop-opacity:1"
         offset="0"
         id="stop987" />
      <stop
         style="stop-color:#cccccc;stop-opacity:1"
         offset="0.03132199"
         id="stop1929" />
      <stop
         style="stop-color:#0069a6;stop-opacity:1"
         offset="0.05527586"
         id="stop1263" />
      <stop
         style="stop-color:#0069a6;stop-opacity:1"
         offset="0.10902679"
         id="stop1027" />
      <stop
         style="stop-color:#cccccc;stop-opacity:1"
         offset="1"
         id="stop989" />
    </linearGradient>
    <linearGradient
       inkscape:collect="always"
       xlink:href="#linearGradient991"
       id="linearGradient1482-3"
       x1="386.57144"
       y1="516.39801"
       x2="446.62146"
       y2="516.39801"
       gradientUnits="userSpaceOnUse"
       gradientTransform="matrix(1.3906655,0,0,1.3461633,-466.08395,329.31684)" />
    <linearGradient
       inkscape:collect="always"
       xlink:href="#linearGradient911"
       id="linearGradient913"
       x1="418.07144"
       y1="522.54797"
       x2="440.57144"
       y2="522.54797"
       gradientUnits="userSpaceOnUse"
       gradientTransform="matrix(1.3883545,0,0,1.3461633,-465.19055,330.12454)" />
    <linearGradient
       inkscape:collect="always"
       id="linearGradient911">
      <stop
         style="stop-color:#5599ff;stop-opacity:1"
         offset="0"
         id="stop907" />
      <stop
         style="stop-color:#cd87de;stop-opacity:1"
         offset="1"
         id="stop909" />
    </linearGradient>
  </defs>
  <metadata
     id="metadata5458">
    <rdf:RDF>
      <cc:Work
         rdf:about="">
        <dc:format>image/svg+xml</dc:format>
        <dc:type
           rdf:resource="http://purl.org/dc/dcmitype/StillImage" />
      </cc:Work>
    </rdf:RDF>
  </metadata>
  <g
     inkscape:label="Capa 1"
     inkscape:groupmode="layer"
     id="layer1"
     transform="translate(-384.57143,-515.798)">
    <g
       transform="matrix(0.36013848,0,0,0.37142583,359.81878,151.2823)"
       id="g4">
      <path
         d="m 149.33716,1000.7946 h -4.44178 v -1.58989 c 0,-2.76106 -1.24965,-4.12194 -2.29811,-4.77803 -1.12433,-0.70309 -2.22838,-0.73896 -2.43931,-0.73896 h -39.02465 c -0.83575,0 -1.621193,-0.85429 -2.45254,-1.75898 -1.058162,-1.15159 -2.257521,-2.45609 -4.078181,-2.45609 h -17.41499 c -3.238004,0 -5.679967,2.36296 -5.679967,5.49651 v 59.00754 c 0,3.031 2.547867,5.4965 5.679967,5.4965 h 72.149561 c 3.13211,0 5.67998,-2.4655 5.67998,-5.4965 v -47.6856 c 0,-3.031 -2.54787,-5.4965 -5.67998,-5.4965 z m 3.03239,53.1821 c 0,1.618 -1.35999,2.9336 -3.03239,2.9336 H 77.187599 c -1.672385,0 -3.032375,-1.3156 -3.032375,-2.9336 v -59.00754 c 0,-1.72653 1.24702,-2.93364 3.032375,-2.93364 h 17.41499 c 0.63277,0 1.345871,0.7757 2.100428,1.59667 1.072268,1.1661 2.406657,2.61755 4.430293,2.61755 h 39.00875 c 0.39979,0.0108 1.53385,0.17939 1.9504,1.67269 H 81.336488 c -3.375798,0.0674 -5.140854,1.77612 -5.140854,5.19327 l 0.155329,46.986 h 1.609727 c 0,0 -0.334038,0.01 0.0013,0.01 0.520689,0 1.342761,0.099 2.110563,-0.4831 1.379399,-1.0473 1.437641,-2.4048 1.425298,-2.7764 l -0.0069,-38.6037 c 0,-5.1258 0,-5.1258 5.295184,-5.1258 l 62.552045,0.2418 c 1.67237,0.01 3.03238,1.3165 3.03238,2.9336 v 47.6856 z"
         id="path2-3-3-6"
         sodipodi:nodetypes="scscsscssssssssscsssssscsccccccsccccsscc"
         style="fill:url(#linearGradient1482-3);fill-opacity:1;stroke-width:0.868295" />
      <path
         style="color:#232629;fill:url(#linearGradient913);fill-opacity:1;stroke:none;stroke-width:1.53798"
         d="m 127.73598,1018.4153 -4.6857,1.5144 v 3.7861 l -2.34285,2.2716 -2.65523,-1.9687 -2.81141,3.4832 1.56189,3.0288 v 9.0866 h 6.2476 v 3.0289 h 4.6857 v -3.0289 h 6.24759 v 3.0289 h 4.6857 v -3.0289 h 6.24759 v -9.0866 l 1.5619,-3.0288 -2.81142,-3.4832 -2.65523,1.9687 -2.34284,-2.2716 v -3.7861 c 0,0 -3.27999,-1.2116 -4.6857,-1.5144 -0.62476,0.9086 -1.09333,1.9687 -1.5619,3.0288 h -3.1238 c -0.46857,-1.0601 -1.56189,-3.0288 -1.56189,-3.0288 z m -3.90475,12.1154 a 3.9047469,3.7860844 0 0 1 3.90475,3.7861 3.9047469,3.7860844 0 0 1 -3.90475,3.7861 3.9047469,3.7860844 0 0 1 -3.90475,-3.7861 3.9047469,3.7860844 0 0 1 3.90475,-3.7861 z m 14.05709,0 a 3.9047469,3.7860844 0 0 1 3.90474,3.7861 3.9047469,3.7860844 0 0 1 -3.90474,3.7861 3.9047469,3.7860844 0 0 1 -3.90475,-3.7861 3.9047469,3.7860844 0 0 1 3.90475,-3.7861 z m -14.05709,1.5145 a 2.3428481,2.2716506 0 0 0 -2.34285,2.2716 2.3428481,2.2716506 0 0 0 2.34285,2.2717 2.3428481,2.2716506 0 0 0 2.34285,-2.2717 2.3428481,2.2716506 0 0 0 -2.34285,-2.2716 z m 7.02854,0 c 0.78095,0 1.5619,0.7572 1.5619,1.5144 v 3.0289 c 0,0.7572 -0.78095,1.5144 -1.5619,1.5144 -0.78095,0 -1.5619,-0.7572 -1.5619,-1.5144 v -3.0289 c 0,-0.7572 0.69661,-1.5144 1.5619,-1.5144 z m 7.02855,0 a 2.3428481,2.2716506 0 0 0 -2.34285,2.2716 2.3428481,2.2716506 0 0 0 2.34285,2.2717 2.3428481,2.2716506 0 0 0 2.34285,-2.2717 2.3428481,2.2716506 0 0 0 -2.34285,-2.2716 z m -21.08564,9.0866 v 0.7572 c 0,4.9976 6.40379,6.8149 14.05709,6.8149 v 0 0 c 7.65331,0 14.05709,-2.2716 14.05709,-7.2692 0,-0.1515 0,0.1514 0,-0.3029 h -4.68569 v 3.0288 h -7.8095 v -3.0288 h -3.1238 v 3.0288 h -7.80949 v -3.0288 z"
         class="ColorScheme-Text"
         id="path12" />
    </g>
  </g>
</svg>
