<?xml version="1.0" encoding="UTF-8" standalone="no"?>
<svg
   width="32"
   version="1.1"
   height="32"
   viewBox="0 0 32 32"
   id="svg15"
   sodipodi:docname="folder-sign.svg"
   inkscape:version="1.1.1 (3bf5ae0d25, 2021-09-20)"
   xmlns:inkscape="http://www.inkscape.org/namespaces/inkscape"
   xmlns:sodipodi="http://sodipodi.sourceforge.net/DTD/sodipodi-0.dtd"
   xmlns:xlink="http://www.w3.org/1999/xlink"
   xmlns="http://www.w3.org/2000/svg"
   xmlns:svg="http://www.w3.org/2000/svg"
   xmlns:rdf="http://www.w3.org/1999/02/22-rdf-syntax-ns#"
   xmlns:cc="http://creativecommons.org/ns#"
   xmlns:dc="http://purl.org/dc/elements/1.1/">
  <sodipodi:namedview
     pagecolor="#ffffff"
     bordercolor="#666666"
     borderopacity="1"
     objecttolerance="10"
     gridtolerance="10"
     guidetolerance="10"
     inkscape:pageopacity="0"
     inkscape:pageshadow="2"
     inkscape:window-width="1920"
     inkscape:window-height="1007"
     id="namedview17"
     showgrid="true"
     inkscape:zoom="9.8125"
     inkscape:cx="1.4267516"
     inkscape:cy="18.089172"
     inkscape:window-x="0"
     inkscape:window-y="0"
     inkscape:window-maximized="1"
     inkscape:current-layer="g4"
     inkscape:pagecheckerboard="0">
    <inkscape:grid
       type="xygrid"
       id="grid862" />
  </sodipodi:namedview>
  <defs
     id="defs5455">
    <linearGradient
       inkscape:collect="always"
       id="linearGradient991">
      <stop
         style="stop-color:#cccccc;stop-opacity:1"
         offset="0"
         id="stop987" />
      <stop
         style="stop-color:#cccccc;stop-opacity:1"
         offset="0.03132199"
         id="stop1929" />
      <stop
         style="stop-color:#0069a6;stop-opacity:1"
         offset="0.05527586"
         id="stop1263" />
      <stop
         style="stop-color:#0069a6;stop-opacity:1"
         offset="0.10902679"
         id="stop1027" />
      <stop
         style="stop-color:#cccccc;stop-opacity:1"
         offset="1"
         id="stop989" />
    </linearGradient>
    <linearGradient
       inkscape:collect="always"
       xlink:href="#linearGradient991"
       id="linearGradient1482-3"
       x1="386.57144"
       y1="516.39801"
       x2="446.62146"
       y2="516.39801"
       gradientUnits="userSpaceOnUse"
       gradientTransform="matrix(1.3906654,0,0,1.3461633,-466.08393,329.31684)" />
    <linearGradient
       inkscape:collect="always"
       xlink:href="#linearGradient994"
       id="linearGradient996"
       x1="425.88034"
       y1="527.9989"
       x2="416.88034"
       y2="510.99893"
       gradientUnits="userSpaceOnUse"
       gradientTransform="matrix(1.3883544,0,0,1.3461633,-464.23108,331.20021)" />
    <linearGradient
       inkscape:collect="always"
       id="linearGradient994">
      <stop
         style="stop-color:#56ddff;stop-opacity:1"
         offset="0"
         id="stop990" />
      <stop
         style="stop-color:#263740;stop-opacity:1"
         offset="0.00913309"
         id="stop1610" />
      <stop
         style="stop-color:#f0f0f0;stop-opacity:1"
         offset="0"
         id="stop1224" />
      <stop
         style="stop-color:#f0f0f0;stop-opacity:1"
         offset="1"
         id="stop992" />
    </linearGradient>
  </defs>
  <metadata
     id="metadata5458">
    <rdf:RDF>
      <cc:Work
         rdf:about="">
        <dc:format>image/svg+xml</dc:format>
        <dc:type
           rdf:resource="http://purl.org/dc/dcmitype/StillImage" />
      </cc:Work>
    </rdf:RDF>
  </metadata>
  <g
     inkscape:label="Capa 1"
     inkscape:groupmode="layer"
     id="layer1"
     transform="translate(-384.57143,-515.798)">
    <g
       transform="matrix(0.36013848,0,0,0.37142583,359.81878,151.2823)"
       id="g4">
      <path
         d="m 149.33716,1000.7946 h -4.44177 v -1.58989 c 0,-2.76106 -1.24966,-4.12194 -2.29812,-4.77803 -1.12433,-0.70309 -2.22838,-0.73896 -2.43931,-0.73896 h -39.02464 c -0.83576,0 -1.621204,-0.85429 -2.452551,-1.75898 -1.058162,-1.15159 -2.25752,-2.45609 -4.07818,-2.45609 H 77.187598 c -3.238003,0 -5.679966,2.36296 -5.679966,5.49651 v 59.00744 c 0,3.031 2.547867,5.4965 5.679966,5.4965 h 72.149562 c 3.13211,0 5.67998,-2.4655 5.67998,-5.4965 v -47.6855 c 0,-3.0311 -2.54787,-5.4965 -5.67998,-5.4965 z m 3.03239,53.182 c 0,1.618 -1.35999,2.9336 -3.03239,2.9336 H 77.187598 c -1.672384,0 -3.032374,-1.3156 -3.032374,-2.9336 v -59.00744 c 0,-1.72653 1.24702,-2.93364 3.032374,-2.93364 h 17.414991 c 0.63277,0 1.345871,0.7757 2.100428,1.59667 1.072267,1.1661 2.406656,2.61755 4.430303,2.61755 h 39.00874 c 0.39979,0.0108 1.53386,0.17939 1.9504,1.67269 H 81.336488 c -3.375798,0.0674 -5.140855,1.77607 -5.140855,5.19327 l 0.155329,46.9859 h 1.609728 c 0,0 -0.334038,0 0.0013,0 0.520689,0 1.342761,0.099 2.110563,-0.4831 1.379399,-1.0473 1.437641,-2.4048 1.425298,-2.7764 l -0.0069,-38.6037 c 0,-5.1257 0,-5.1257 5.295184,-5.1257 l 62.552045,0.2417 c 1.67237,0.01 3.03238,1.3165 3.03238,2.9337 v 47.6855 z"
         id="path2-3-3-6"
         sodipodi:nodetypes="scscsscssssssssscsssssscsccccccsccccsscc"
         style="fill:url(#linearGradient1482-3);fill-opacity:1;stroke-width:0.868295" />
      <path
         style="color:#232629;fill:url(#linearGradient996);fill-opacity:1;stroke:none;stroke-width:1.16753"
         d="m 145.26717,1019.3576 c -0.20714,0 -0.41967,0.035 -0.62005,0.113 -0.1076,0.045 -0.57185,0.391 -1.02859,0.7682 l -0.8316,0.6927 -0.30131,-0.1276 c -0.42174,-0.1721 -0.8287,-0.2102 -1.20824,-0.1035 -0.26236,0.073 -0.87719,0.5646 -4.91122,3.8871 -2.54584,2.0944 -4.61602,3.8245 -4.6099,3.8513 0.004,0.021 1.03887,0.5222 2.28904,1.1036 l 2.28608,1.0643 3.0076,-2.482 c 1.65528,-1.3655 3.03249,-2.4705 3.0655,-2.4551 0.10774,0.048 0.30204,1.1215 0.26369,1.4663 -0.0158,0.188 -0.12897,0.5259 -0.2463,0.75 -0.20928,0.4009 -0.23208,0.4244 -3.96087,3.5105 -2.06222,1.706 -3.77931,3.155 -3.81014,3.2123 -0.0882,0.1579 0.0111,0.4533 0.20279,0.6227 0.32256,0.2856 1.12039,0.3759 1.57334,0.1723 0.31292,-0.1414 7.69844,-6.2993 7.9333,-6.6203 0.68598,-0.916 0.82804,-2.089 0.39405,-3.243 -0.17147,-0.458 -0.39571,-0.8983 -0.61426,-1.2114 -0.0636,-0.085 0.0429,-0.1948 0.73304,-0.7699 0.65276,-0.549 0.80242,-0.703 0.81418,-0.8453 0.0256,-0.3025 -0.12328,-0.4709 -0.60265,-0.7017 l -0.44622,-0.2154 0.88664,-0.7374 c 0.72681,-0.6103 0.88391,-0.7695 0.8953,-0.9118 0.0331,-0.4532 -0.5317,-0.7853 -1.1532,-0.7896 z m -14.9365,10.2294 c -0.0212,0.01 -2.73439,2.2345 -6.03251,4.955 -5.30452,4.3809 -6.05905,5.0294 -6.54832,5.5867 -0.97189,1.1096 -2.02965,2.8012 -2.73231,4.3466 -0.45535,0.9912 -0.47826,0.9015 0.15649,0.6909 1.95793,-0.655 4.5155,-1.7182 6.00354,-2.4999 1.45513,-0.7653 1.7029,-0.9599 7.86669,-6.0443 l 5.92823,-4.8958 -2.30351,-1.0714 c -1.26688,-0.5892 -2.31651,-1.0697 -2.3383,-1.0678 z m 0.66644,11.3385 c -0.29111,-0.012 -0.59087,0 -0.78517,0.018 v 0.01 c -0.92127,0.1203 -1.94711,0.6148 -2.44263,1.1845 -0.13384,0.1479 -0.34606,0.483 -0.47804,0.7357 -0.12453,0.2574 -0.24025,0.4719 -0.24921,0.4775 -0.0716,0.054 -1.833,0.3169 -2.86852,0.427 -2.43443,0.2637 -3.09897,0.3621 -3.33785,0.4989 -0.46874,0.2684 -0.10607,0.5386 0.55924,0.4182 0.17648,-0.034 0.92899,-0.1255 1.65446,-0.2028 0.7269,-0.076 1.83238,-0.2195 2.45992,-0.3069 0.62898,-0.093 1.16129,-0.1547 1.18797,-0.1381 0.0264,0.016 -0.0787,0.3288 -0.24622,0.6962 l -0.30136,0.6587 -0.66642,0.1812 c -0.36352,0.099 -0.88462,0.2683 -1.15899,0.3841 -0.8323,0.34 -0.99303,0.767 -0.40856,1.0409 0.31893,0.148 1.20403,0.1426 1.75292,-0.01 0.48664,-0.1369 0.76041,-0.3284 1.14163,-0.8273 0.20323,-0.2582 0.36368,-0.3945 0.48677,-0.411 0.098,-0.017 0.9768,-0.1263 1.95004,-0.2531 0.97467,-0.1203 1.85894,-0.2365 1.97317,-0.253 0.18543,-0.027 0.20408,-0.015 0.15029,0.088 -0.0358,0.067 -0.19598,0.2589 -0.36507,0.4289 -0.16764,0.17 -0.30134,0.3723 -0.30134,0.4541 0,0.17 0.2318,0.3402 0.41723,0.2961 0.0716,-0.016 0.16699,-0.033 0.2115,-0.033 0.045,0 0.24033,-0.088 0.43463,-0.1974 0.36348,-0.2031 1.24016,-1.1966 1.24016,-1.4052 0,-0.1038 0.13328,-0.1302 0.21148,-0.046 0.0264,0.027 0.22804,0.076 0.44911,0.1094 0.31007,0.048 0.39985,0.087 0.39985,0.174 0,0.17 0.45282,0.418 0.85183,0.4666 0.31007,0.034 0.70868,-0.01 1.13292,-0.1148 0.14951,-0.04 0.15916,-0.027 0.10787,0.1148 -0.0358,0.088 -0.29341,0.3682 -0.56791,0.6264 -0.58448,0.5375 -1.29225,1.3928 -1.47764,1.7713 -0.14951,0.3234 -0.0887,0.5653 0.18539,0.6802 0.24774,0.099 0.65418,0.053 0.86633,-0.09 0.18548,-0.1259 1.19667,-1.4468 1.56754,-2.0495 0.26558,-0.4226 0.38864,-0.5381 0.99095,-0.9332 0.49548,-0.3234 0.65731,-0.4005 0.55051,-0.2746 -0.17654,0.2362 -0.16824,0.4164 0.0258,0.5258 0.41537,0.2362 1.01779,0.01 1.54146,-0.5868 0.31002,-0.3511 0.54091,-0.4543 1.69212,-0.7896 l 0.59977,-0.1705 -0.0607,0.2028 c -0.0358,0.1093 -0.23987,0.4226 -0.45201,0.6909 -0.41687,0.543 -0.49403,0.8886 -0.24629,1.1844 0.16763,0.2031 0.34453,0.2097 1.15898,0.035 1.13341,-0.2361 2.61176,-0.7805 2.996,-1.0929 0.52217,-0.4392 0.68256,-0.8607 0.3651,-1.0032 -0.32788,-0.1479 -0.51325,-0.088 -0.93011,0.2907 -0.55781,0.5156 -1.24772,0.9168 -1.91234,1.1199 -0.31004,0.099 -0.58467,0.1637 -0.61136,0.1472 -0.0358,-0.021 0.672,-1.2011 1.05179,-1.7552 0.0804,-0.1149 0.14451,-0.258 0.14451,-0.3176 0,-0.1535 -0.31105,-0.3285 -0.57658,-0.3285 -0.12454,0 -0.71069,0.1472 -1.29519,0.3339 -1.21352,0.373 -1.13294,0.4058 -0.82289,-0.2961 0.18543,-0.4329 0.12426,-0.5486 -0.30131,-0.5761 -0.40798,-0.027 -0.56646,0.055 -0.93879,0.4666 -0.23886,0.2793 -0.5565,0.5104 -1.16769,0.8614 -0.80553,0.4604 -0.84168,0.4765 -1.02858,0.3948 -0.28338,-0.1259 -0.44313,-0.1092 -1.13294,0.1042 -0.6735,0.2085 -0.89572,0.2361 -1.06335,0.1093 -0.1428,-0.1038 0.0807,-0.1589 1.31252,-0.3069 1.19572,-0.1425 1.34445,-0.1821 1.34445,-0.3356 0,-0.2472 -0.32822,-0.4817 -0.91273,-0.6407 -1.01025,-0.2793 -1.12251,-0.2968 -1.56463,-0.2261 -0.47767,0.076 -1.18716,0.499 -1.28356,0.7628 -0.098,0.2747 -0.39985,0.1918 -0.39985,-0.1095 0,-0.1258 -0.24876,-0.4438 -0.39115,-0.4989 -0.30115,-0.1258 -0.78663,0.1488 -1.15903,0.6532 l -0.29265,0.3895 -0.65479,0.088 c -0.85005,0.1149 -3.32003,0.4217 -3.64793,0.4613 -0.21211,0.021 -0.24732,0.012 -0.20281,-0.068 0.0358,-0.054 0.14138,-0.2948 0.24625,-0.542 0.27448,-0.6799 0.35577,-0.7687 0.75338,-0.856 0.47769,-0.1035 2.09089,-0.5326 2.50628,-0.6639 0.19436,-0.061 0.59151,-0.2466 0.88377,-0.4111 0.89455,-0.5155 1.03487,-0.9931 0.39696,-1.3442 -0.17658,-0.093 -0.40758,-0.1914 -0.5129,-0.2189 -0.16313,-0.04 -0.44481,-0.066 -0.73596,-0.075 z m -0.8924,0.6406 c 0.12273,0 0.26845,0 0.452,0.01 0.46877,0.016 0.65605,0.044 0.78814,0.131 0.1765,0.1093 0.17607,0.1144 0.0171,0.323 -0.10746,0.1314 -0.35344,0.2859 -0.66352,0.4181 -0.53996,0.2308 -2.23264,0.6524 -2.28605,0.5762 -0.0716,-0.1259 0.47137,-0.8782 0.81701,-1.1199 0.34495,-0.2426 0.50623,-0.3209 0.87508,-0.3338 z m -4.54612,4.5925 c 0.0678,0 0.069,0.041 0.0125,0.1077 -0.1151,0.1369 -0.41759,0.2359 -0.58528,0.1974 -0.1943,-0.048 -0.14247,-0.1143 0.16806,-0.2136 0.20394,-0.064 0.33815,-0.095 0.4057,-0.092 z"
         class="ColorScheme-Text"
         id="path12" />
    </g>
  </g>
</svg>
