<?xml version="1.0" encoding="UTF-8" standalone="no"?>
<svg
   width="32"
   version="1.1"
   height="32"
   viewBox="0 0 32 32"
   id="svg17"
   sodipodi:docname="folder-music.svg"
   inkscape:version="1.1.1 (3bf5ae0d25, 2021-09-20)"
   xmlns:inkscape="http://www.inkscape.org/namespaces/inkscape"
   xmlns:sodipodi="http://sodipodi.sourceforge.net/DTD/sodipodi-0.dtd"
   xmlns:xlink="http://www.w3.org/1999/xlink"
   xmlns="http://www.w3.org/2000/svg"
   xmlns:svg="http://www.w3.org/2000/svg"
   xmlns:rdf="http://www.w3.org/1999/02/22-rdf-syntax-ns#"
   xmlns:cc="http://creativecommons.org/ns#"
   xmlns:dc="http://purl.org/dc/elements/1.1/">
  <sodipodi:namedview
     pagecolor="#ffffff"
     bordercolor="#666666"
     borderopacity="1"
     objecttolerance="10"
     gridtolerance="10"
     guidetolerance="10"
     inkscape:pageopacity="0"
     inkscape:pageshadow="2"
     inkscape:window-width="1920"
     inkscape:window-height="1007"
     id="namedview19"
     showgrid="false"
     inkscape:zoom="9.8125"
     inkscape:cx="-14.267516"
     inkscape:cy="2.6496815"
     inkscape:window-x="0"
     inkscape:window-y="0"
     inkscape:window-maximized="1"
     inkscape:current-layer="layer1"
     inkscape:pagecheckerboard="0" />
  <defs
     id="defs5455">
    <linearGradient
       inkscape:collect="always"
       xlink:href="#linearGradient1006"
       id="linearGradient1008"
       x1="418.57144"
       y1="522.79797"
       x2="439.57144"
       y2="522.79797"
       gradientUnits="userSpaceOnUse"
       gradientTransform="matrix(0.5,0,0,0.5,192.28572,273.89901)" />
    <linearGradient
       inkscape:collect="always"
       id="linearGradient1006">
      <stop
         style="stop-color:#ffb380;stop-opacity:1"
         offset="0"
         id="stop1002" />
      <stop
         style="stop-color:#ff58ff;stop-opacity:1"
         offset="1"
         id="stop1004" />
    </linearGradient>
    <linearGradient
       inkscape:collect="always"
       xlink:href="#linearGradient991"
       id="linearGradient1482"
       x1="386.57144"
       y1="516.39801"
       x2="446.62146"
       y2="516.39801"
       gradientUnits="userSpaceOnUse"
       gradientTransform="matrix(0.5008323,0,0,0.5,191.96398,273.59901)" />
    <linearGradient
       inkscape:collect="always"
       id="linearGradient991">
      <stop
         style="stop-color:#cccccc;stop-opacity:1"
         offset="0"
         id="stop987" />
      <stop
         style="stop-color:#cccccc;stop-opacity:1"
         offset="0.03132199"
         id="stop1929" />
      <stop
         style="stop-color:#0069a6;stop-opacity:1"
         offset="0.05527586"
         id="stop1263" />
      <stop
         style="stop-color:#0069a6;stop-opacity:1"
         offset="0.10902679"
         id="stop1027" />
      <stop
         style="stop-color:#cccccc;stop-opacity:1"
         offset="1"
         id="stop989" />
    </linearGradient>
  </defs>
  <metadata
     id="metadata5458">
    <rdf:RDF>
      <cc:Work
         rdf:about="">
        <dc:format>image/svg+xml</dc:format>
        <dc:type
           rdf:resource="http://purl.org/dc/dcmitype/StillImage" />
      </cc:Work>
    </rdf:RDF>
  </metadata>
  <g
     inkscape:label="Capa 1"
     inkscape:groupmode="layer"
     id="layer1"
     transform="translate(-384.57143,-515.798)">
    <path
       id="Music"
       class="st0"
       d="m 404.57143,532.6355 c 0,-0.8625 0.58125,-1.6125 1.425,-1.81875 l 6.075,-1.51875 v 8.625 c 0,1.03125 -0.84375,1.875 -1.875,1.875 -1.03125,0 -1.875,-0.84375 -1.875,-1.875 0,-1.03125 0.84375,-1.875 1.875,-1.875 h 1.125 v -3.5625 l -6.75,1.6875 z m 0.75,4.9125 h -1.875 c -1.03125,0 -1.875,0.84375 -1.875,1.875 0,1.03125 0.84375,1.875 1.875,1.875 1.03125,0 1.875,-0.84375 1.875,-1.875 z"
       style="fill:url(#linearGradient1008);fill-opacity:1;stroke-width:0.1875" />
    <path
       id="Music-s"
       class="st1"
       d="m 412.07143,532.298 -0.75,0.1875 v -2.25 l 0.75,-0.1875 z m -6.1875,-0.675 0.1875,-0.0562 v -0.76875 l -0.35625,0.0937 c -0.675,0.16875 -1.14375,0.76875 -1.14375,1.4625 v 5.19375 h 0.75 v -5.2125 c 0,-0.3375 0.225,-0.6375 0.5625,-0.7125 z m 5.4375,4.425 v 2.625 c 0,0.61875 -0.50625,1.125 -1.125,1.125 v 0.75 c 1.03125,0 1.875,-0.84375 1.875,-1.875 v -2.625 z"
       style="fill:#f2f2f2;fill-opacity:1;stroke-width:0.1875" />
    <path
       d="m 413.60085,523.00324 h -1.59966 v -0.5905 c 0,-1.02553 -0.45005,-1.531 -0.82764,-1.77469 -0.40491,-0.26114 -0.80252,-0.27447 -0.87848,-0.27447 h -14.05428 c -0.301,0 -0.58387,-0.3173 -0.88327,-0.65333 -0.38108,-0.42773 -0.81301,-0.91225 -1.4687,-0.91225 h -6.27181 c -1.16614,0 -2.04558,0.87766 -2.04558,2.04154 v 21.91691 c 0,1.1258 0.91758,2.04155 2.04558,2.04155 h 25.98384 c 1.12799,0 2.04558,-0.91575 2.04558,-2.04155 v -17.71166 c 0,-1.1258 -0.91759,-2.04155 -2.04558,-2.04155 z m 1.09208,19.75321 c 0,0.60098 -0.48979,1.08963 -1.09208,1.08963 H 387.617 c -0.60228,0 -1.09207,-0.48865 -1.09207,-1.08963 v -21.91691 c 0,-0.64127 0.4491,-1.08963 1.09207,-1.08963 h 6.27182 c 0.22788,0 0.48469,0.28812 0.75644,0.59305 0.38617,0.43312 0.86673,0.97222 1.59553,0.97222 h 14.04855 c 0.14398,0.004 0.5524,0.0666 0.70241,0.62128 h -21.88057 c -1.21575,0.025 -1.85142,0.65968 -1.85142,1.9289 l 0.0559,17.4518 h 0.57973 c 0,0 -0.12031,0.001 4.8e-4,0.001 0.18752,0 0.48358,0.0367 0.7601,-0.17942 0.49677,-0.38902 0.51775,-0.89322 0.5133,-1.03125 l -0.002,-14.3384 c 0,-1.90384 0,-1.90384 1.907,-1.90384 l 22.52741,0.0898 c 0.60228,0.002 1.09208,0.48897 1.09208,1.08963 v 17.71166 z"
       id="path2-3-3"
       sodipodi:nodetypes="scscsscssssssssscsssssscsccccccsccccsscc"
       style="fill:url(#linearGradient1482);fill-opacity:1;stroke-width:0.317569" />
  </g>
</svg>
