<?xml version="1.0" encoding="UTF-8" standalone="no"?>
<svg
   width="136.53334"
   height="136.53334"
   id="svg5048"
   version="1.1"
   inkscape:version="1.1.1 (3bf5ae0d25, 2021-09-20)"
   sodipodi:docname="suspend_primary.svg"
   viewBox="0 0 128 128"
   xmlns:inkscape="http://www.inkscape.org/namespaces/inkscape"
   xmlns:sodipodi="http://sodipodi.sourceforge.net/DTD/sodipodi-0.dtd"
   xmlns:xlink="http://www.w3.org/1999/xlink"
   xmlns="http://www.w3.org/2000/svg"
   xmlns:svg="http://www.w3.org/2000/svg"
   xmlns:rdf="http://www.w3.org/1999/02/22-rdf-syntax-ns#"
   xmlns:cc="http://creativecommons.org/ns#"
   xmlns:dc="http://purl.org/dc/elements/1.1/">
  <defs
     id="defs5050">
    <filter
       id="filter4004-4"
       inkscape:label="Colorize"
       inkscape:menu="Color"
       inkscape:menu-tooltip="Blend image or object with a flood color and set lightness and contrast"
       x="0"
       y="0"
       width="1"
       height="1"
       color-interpolation-filters="sRGB">
      <feColorMatrix
         id="feColorMatrix4006-0"
         values="1"
         in="SourceGraphic"
         type="saturate"
         result="result2" />
      <feFlood
         id="feFlood4008-2"
         flood-color="rgb(250,247,247)"
         flood-opacity="1"
         result="result1" />
      <feBlend
         id="feBlend4010-1"
         in2="result2"
         mode="multiply"
         in="result1"
         result="result3" />
      <feComposite
         id="feComposite4012-3"
         in2="SourceGraphic"
         operator="in"
         result="result4" />
    </filter>
    <style
       id="current-color-scheme"
       type="text/css">      .ColorScheme-Text {
        color:#31363b;
      }
      .ColorScheme-Background{
        color:#eff0f1;
      }
      .ColorScheme-ViewText {
        color:#31363b;
      }
      .ColorScheme-ViewBackground{
        color:#fcfcfc;
      }
      .ColorScheme-ViewHover {
        color:#3daee9;
      }
      .ColorScheme-ViewFocus{
        color:#3daee9;
      }
      .ColorScheme-ButtonText {
        color:#31363b;
      }
      .ColorScheme-ButtonBackground{
        color:#eff0f1;
      }
      .ColorScheme-ButtonHover {
        color:#3daee9;
      }
      .ColorScheme-ButtonFocus{
        color:#3daee9;
      }</style>
    <linearGradient
       inkscape:collect="always"
       xlink:href="#linearGradient1268"
       id="linearGradient2381"
       x1="3"
       y1="15.00563"
       x2="29.156263"
       y2="15.00563"
       gradientUnits="userSpaceOnUse"
       gradientTransform="matrix(4.3164637,0,0,4.424455,0.74653469,907.44688)" />
    <linearGradient
       inkscape:collect="always"
       id="linearGradient1268">
      <stop
         style="stop-color:#08ceff;stop-opacity:1"
         offset="0"
         id="stop1264" />
      <stop
         style="stop-color:#3083ff;stop-opacity:1"
         offset="1"
         id="stop1266" />
    </linearGradient>
    <linearGradient
       inkscape:collect="always"
       xlink:href="#linearGradient1978"
       id="linearGradient1980"
       x1="3"
       y1="15.00563"
       x2="29.156263"
       y2="15.00563"
       gradientUnits="userSpaceOnUse"
       gradientTransform="matrix(4.3164637,0,0,4.424455,0.74653469,907.44688)" />
    <linearGradient
       inkscape:collect="always"
       id="linearGradient1978">
      <stop
         style="stop-color:#08ceff;stop-opacity:1;"
         offset="0"
         id="stop1974" />
      <stop
         style="stop-color:#08ceff;stop-opacity:0;"
         offset="1"
         id="stop1976" />
    </linearGradient>
  </defs>
  <sodipodi:namedview
     id="base"
     pagecolor="#ffffff"
     bordercolor="#000000"
     borderopacity="1"
     inkscape:pageopacity="0.12941176"
     inkscape:pageshadow="2"
     inkscape:zoom="4"
     inkscape:cx="76.625"
     inkscape:cy="65.5"
     inkscape:document-units="px"
     inkscape:current-layer="layer1"
     showgrid="true"
     inkscape:window-width="1920"
     inkscape:window-height="1007"
     inkscape:window-x="0"
     inkscape:window-y="0"
     inkscape:window-maximized="1"
     fit-margin-top="0"
     fit-margin-left="0"
     fit-margin-right="0"
     fit-margin-bottom="0"
     inkscape:snap-bbox="true"
     inkscape:document-rotation="0"
     inkscape:pagecheckerboard="0"
     inkscape:lockguides="true">
    <inkscape:grid
       type="xygrid"
       id="grid3001"
       empspacing="4"
       visible="true"
       enabled="true"
       snapvisiblegridlinesonly="true"
       color="#0101ff"
       opacity="0.01960784"
       empcolor="#0000ff"
       empopacity="0.03921569"
       originx="0"
       originy="0"
       spacingx="1"
       spacingy="1" />
  </sodipodi:namedview>
  <metadata
     id="metadata5053">
    <rdf:RDF>
      <cc:Work
         rdf:about="">
        <dc:format>image/svg+xml</dc:format>
        <dc:type
           rdf:resource="http://purl.org/dc/dcmitype/StillImage" />
      </cc:Work>
    </rdf:RDF>
  </metadata>
  <g
     inkscape:label="Layer 1"
     inkscape:groupmode="layer"
     id="layer1"
     transform="translate(-6.129729,-913.75296)">
    <path
       id="Cloud-Upload"
       class="st0"
       d="m 115.30812,975.38799 c 0.18191,-1.9921 0.36468,-3.98418 0.36468,-5.97623 -3.1e-4,-21.91348 -14.7505,-39.84253 -32.77847,-39.84253 -12.200604,0 -22.762616,7.96847 -28.407674,19.92114 -2.367359,-1.54943 -5.098859,-2.21344 -8.012467,-2.21344 -10.015574,0 -18.210085,9.96061 -18.210085,22.13483 0,1.54932 0.182332,3.32006 0.364191,4.86963 -8.376649,1.77077 -14.932291,10.84596 -14.932291,21.69184 v 22.13297 h 94.692436 c 10.01554,0 18.21011,-9.9604 18.21011,-22.13297 0,-9.29651 -4.73466,-17.26499 -11.29033,-20.58524 z"
       style="fill:url(#linearGradient2381);fill-opacity:1;stroke:url(#linearGradient1980);stroke-width:2.00755" />
    <path
       id="CloudUpload-s"
       class="st1"
       d="m 108.38833,1026.9605 -12.679601,-0.015 v -8.8661 l 12.679601,0.025 c 8.0125,0.015 14.56809,-7.9683 14.56809,-17.7072 0,-9.73779 -6.55559,-17.70636 -14.56809,-17.70636 v -8.85388 c 12.01864,0 21.85208,11.95276 21.85208,26.56014 0,14.6083 -9.83344,26.5617 -21.85208,26.5617 z m -16.988772,-8.8603 -70.419622,0.01 v 8.8544 c 24.302176,-6e-4 -37.85813,0.04 70.443823,0.04 z"
       sodipodi:nodetypes="sccssccssccccc"
       style="fill:#eff0f1;fill-opacity:1;stroke-width:2.00755" />
    <path
       d="m 68.364355,977.13607 h -6.606059 l 9.061311,-13.38972 c 0.77517,-1.15828 0.936779,-2.74863 0.419907,-4.10329 -0.532896,-1.35467 -1.64754,-2.21848 -2.875069,-2.21848 H 55.039166 c -1.760613,0 -3.182032,1.7277 -3.182032,3.8677 0,2.14 1.421419,3.86778 3.182032,3.86778 h 6.606097 l -9.061348,13.38972 c -0.775261,1.15838 -0.936679,2.74859 -0.419906,4.10331 0.533028,1.35465 1.647485,2.21854 2.875206,2.21854 h 13.32523 c 1.760656,0 3.18203,-1.72774 3.18203,-3.86776 0,-2.13997 -1.437671,-3.8678 -3.18203,-3.8678 z"
       id="path4-3-3"
       style="fill:#1a1a1a;fill-opacity:1;stroke-width:0.17807" />
    <path
       d="m 94.980318,1000.1793 h -5.326756 l 7.306459,-10.79489 c 0.625016,-0.93392 0.755272,-2.2164 0.338413,-3.30856 -0.430052,-1.09221 -1.328536,-1.78876 -2.318393,-1.78876 h -10.74445 c -1.419623,0 -2.565848,1.39304 -2.565848,3.1187 0,1.72542 1.146225,3.11853 2.565848,3.11853 h 5.326583 l -7.306398,10.79458 c -0.625071,0.9344 -0.755285,2.2167 -0.338418,3.3086 0.430041,1.0921 1.328372,1.7887 2.318374,1.7887 h 10.744444 c 1.419617,0 2.565792,-1.3926 2.565792,-3.1182 0,-1.726 -1.159182,-3.1187 -2.565792,-3.1187 z"
       id="path4-3-6-6"
       style="fill:#1a1a1a;fill-opacity:1;stroke-width:0.143578" />
  </g>
</svg>
