<?xml version="1.0" encoding="UTF-8" standalone="no"?>
<svg
   version="1.0"
   width="27.733332"
   height="27.733332"
   id="svg2"
   inkscape:version="1.1.1 (3bf5ae0d25, 2021-09-20)"
   sodipodi:docname="keepbelow.svg"
   viewBox="0 0 26.000001 25.999998"
   xmlns:inkscape="http://www.inkscape.org/namespaces/inkscape"
   xmlns:sodipodi="http://sodipodi.sourceforge.net/DTD/sodipodi-0.dtd"
   xmlns:xlink="http://www.w3.org/1999/xlink"
   xmlns="http://www.w3.org/2000/svg"
   xmlns:svg="http://www.w3.org/2000/svg"
   xmlns:rdf="http://www.w3.org/1999/02/22-rdf-syntax-ns#"
   xmlns:cc="http://creativecommons.org/ns#"
   xmlns:dc="http://purl.org/dc/elements/1.1/">
  <g
     id="pressed-inactive-center">
    <rect
       style="opacity:0.00100002;fill:#3daee9;fill-opacity:1;stroke:none;stroke-width:1.3"
       id="rect3863"
       width="26"
       height="26"
       x="4.0798949e-07"
       y="6.6894529e-08" />
    <path
       d="m 17.72526,5.3841262 c 1.63411,0 2.95312,1.318993 2.95312,2.953124 v 9.3862878 c 0,1.634118 -1.31901,2.953125 -2.95312,2.953125 H 8.3372402 c -1.63411,0 -2.95312,-1.319007 -2.95312,-2.953125 V 8.3372502 c 0,-1.634131 1.31901,-2.953124 2.95312,-2.953124 H 17.72526 m 0,-0.790376 H 8.3372402 c -2.05599,0 -3.74349,1.687498 -3.74349,3.7435 v 9.3862878 c 0,2.057703 1.6875,3.745215 3.74349,3.745215 H 17.72354 c 2.05771,0 3.74521,-1.687512 3.74521,-3.743501 V 8.3372502 c 0,-2.056002 -1.6875,-3.7435 -3.74349,-3.7435 z"
       id="path4-3-7-3-6-3"
       style="clip-rule:evenodd;fill:#496a83;fill-opacity:1;fill-rule:evenodd;stroke-width:0.0172195;stroke-linejoin:round;stroke-miterlimit:1.41421" />
    <path
       fill-rule="evenodd"
       clip-rule="evenodd"
       d="M 12.74937,18.504039 9.6319202,13.506518 c -0.003,-0.0026 -0.008,-0.0094 -0.0105,-0.01553 l -3.11082,-4.9819328 c -0.0874,-0.142952 -0.0337,-0.329475 0.12095,-0.410305 0.11087,-0.05895 0.24186,-0.05276 0.34267,0.0096 L 13.03116,11.8066 v 0 l 6.05689,-3.6982958 c 0.15128,-0.09327 0.3528,-0.05291 0.45357,0.08696 0.0706,0.09939 0.0671,0.22371 0.004,0.320094 l -3.11396,4.9911788 -3.11744,4.997518 c -0.0605,0.09635 -0.17129,0.152228 -0.28557,0.152228 h -0.003 v 0 0 h -0.003 -0.003 -0.003 v 0 0 l -0.003,-0.0031 h -0.003 v 0 h -0.003 v 0 h -0.003 v 0 h -0.003 -0.003 -0.003 v 0 0 h -0.003 -0.003 v 0 h -0.003 v -0.0032 h -0.003 v 0 h -0.003 -0.003 v 0 h -0.003 v 0 h -0.003 l -0.003,-0.0031 v 0 h -0.003 v 0 h -0.003 v 0 h -0.003 -0.003 v -0.0033 h -0.003 v 0 h -0.003 -0.003 v 0 -0.003 h -0.003 -0.003 v 0 h -0.003 v -0.0033 h -0.003 -0.003 v 0 h -0.003 v -0.0031 h -0.003 v 0 h -0.003 l -0.003,-0.0031 v 0 0 h -0.003 -0.003 v -0.0031 h -0.003 -0.003 l -0.004,-0.0032 v 0 h -0.003 v -0.0031 h -0.003 v 0 h -0.003 v -0.0032 h -0.003 v 0 h -0.003 l -0.003,-0.0032 v 0 c -0.0533,-0.02792 -0.0934,-0.06519 -0.12033,-0.111817 z m 0.61137,-7.629897 v 0 l -0.0134,0.0095 v 0 l -0.0134,0.007 h -0.003 l -0.003,0.0026 h -0.003 l -0.003,0.0027 h -0.003 v 0 l -0.003,0.0027 h -0.003 l -0.003,0.0026 c -0.084,0.03409 -0.17123,0.05279 -0.25861,0.05593 h -0.0105 v 0 h -0.008 v 0 h -0.008 -0.003 -0.0105 -0.003 -0.003 c -0.0773,-0.0027 -0.15114,-0.01869 -0.22174,-0.04651 h -0.003 l -0.008,-0.0027 -0.008,-0.0026 v 0 l -0.0104,-0.0026 -0.003,-0.0026 h -0.003 c -0.0303,-0.01571 -0.0605,-0.03124 -0.0875,-0.04675 L 8.8277802,8.5131912 c -0.29911,-0.183431 -0.38304,-0.556352 -0.18484,-0.832922 0.19824,-0.279721 0.60137,-0.357366 0.90021,-0.174119 l 3.4846898,2.128563 3.48704,-2.12899 c 0.29825,-0.183553 0.70134,-0.105906 0.89958,0.173813 0.19831,0.276568 0.11424,0.649491 -0.18483,0.832918 l -3.68522,2.2499938 v 0 l -0.14436,0.08704 -0.003,0.0027 v 0 c -0.0133,0.0068 -0.0269,0.01553 -0.0403,0.02165 z"
       id="path2-6"
       style="fill:#00cc9a;fill-opacity:1;stroke-width:0.0318322" />
  </g>
  <sodipodi:namedview
     pagecolor="#e7e7e7"
     bordercolor="#666666"
     borderopacity="1"
     objecttolerance="10"
     gridtolerance="10"
     guidetolerance="10"
     inkscape:pageopacity="1"
     inkscape:pageshadow="2"
     inkscape:window-width="1920"
     inkscape:window-height="1007"
     id="namedview32"
     showgrid="true"
     inkscape:zoom="5.951482"
     inkscape:cx="-55.532387"
     inkscape:cy="16.802538"
     inkscape:window-x="0"
     inkscape:window-y="0"
     inkscape:window-maximized="1"
     inkscape:current-layer="svg2"
     inkscape:document-rotation="0"
     showguides="false"
     inkscape:pagecheckerboard="0">
    <inkscape:grid
       type="xygrid"
       id="grid3218"
       empspacing="5"
       visible="true"
       enabled="true"
       snapvisiblegridlinesonly="true"
       color="#0000ff"
       opacity="0.01960784"
       empcolor="#0000ff"
       empopacity="0.03921569"
       originx="-130.00008"
       originy="5.9999931"
       spacingx="1"
       spacingy="1" />
  </sodipodi:namedview>
  <metadata
     id="metadata11">
    <rdf:RDF>
      <cc:Work
         rdf:about="">
        <dc:format>image/svg+xml</dc:format>
        <dc:type
           rdf:resource="http://purl.org/dc/dcmitype/StillImage" />
      </cc:Work>
    </rdf:RDF>
  </metadata>
  <defs
     id="defs4">
    <linearGradient
       id="linearGradient3587-6-5">
      <stop
         id="stop3589-9-2"
         style="stop-color:#000000;stop-opacity:1"
         offset="0" />
      <stop
         id="stop3591-7-4"
         style="stop-color:#646464;stop-opacity:1"
         offset="1" />
    </linearGradient>
    <linearGradient
       x1="7.0799088"
       y1="7.6944885"
       x2="11.317808"
       y2="11.932388"
       id="linearGradient2388"
       xlink:href="#linearGradient3587-6-5"
       gradientUnits="userSpaceOnUse"
       gradientTransform="rotate(45,12.12132,10.707107)" />
    <linearGradient
       x1="8.1313992"
       y1="19.049677"
       x2="8.1313992"
       y2="15.935893"
       id="linearGradient5038"
       xlink:href="#linearGradient3732-77"
       gradientUnits="userSpaceOnUse"
       gradientTransform="matrix(0.8666667,0,0,0.73333335,2.0666666,-16.066667)" />
    <linearGradient
       id="linearGradient3732-77">
      <stop
         id="stop3734-3"
         style="stop-color:#000000;stop-opacity:1"
         offset="0" />
      <stop
         id="stop3736-71"
         style="stop-color:#000000;stop-opacity:0"
         offset="1" />
    </linearGradient>
    <linearGradient
       x1="8.1313992"
       y1="19.049677"
       x2="8.1313992"
       y2="15.935893"
       id="linearGradient3794"
       xlink:href="#linearGradient3788"
       gradientUnits="userSpaceOnUse"
       gradientTransform="matrix(1.1333334,0,0,0.99999997,-0.06666673,-2.9999999)" />
    <linearGradient
       id="linearGradient3788">
      <stop
         id="stop3790"
         style="stop-color:#ffffff;stop-opacity:1"
         offset="0" />
      <stop
         id="stop3792"
         style="stop-color:#ffffff;stop-opacity:0"
         offset="1" />
    </linearGradient>
    <linearGradient
       x1="22.863201"
       y1="-0.94923496"
       x2="26.23391"
       y2="2.4214737"
       id="linearGradient6695"
       xlink:href="#linearGradient3587-6-5-1-5"
       gradientUnits="userSpaceOnUse"
       gradientTransform="rotate(45,4.0355353,-15.642136)" />
    <linearGradient
       id="linearGradient3587-6-5-1-5">
      <stop
         id="stop3589-9-2-8-5"
         style="stop-color:#000000;stop-opacity:1"
         offset="0" />
      <stop
         id="stop3591-7-4-3-0"
         style="stop-color:#646464;stop-opacity:1"
         offset="1" />
    </linearGradient>
    <linearGradient
       x1="19.490692"
       y1="-4.321744"
       x2="22.886868"
       y2="-0.92556846"
       id="linearGradient6693"
       xlink:href="#linearGradient3587-6-5-1-5"
       gradientUnits="userSpaceOnUse"
       gradientTransform="rotate(45,4.0355353,-15.642136)" />
    <linearGradient
       id="linearGradient3059">
      <stop
         id="stop3061"
         style="stop-color:#000000;stop-opacity:1"
         offset="0" />
      <stop
         id="stop3063"
         style="stop-color:#646464;stop-opacity:1"
         offset="1" />
    </linearGradient>
    <linearGradient
       x1="20.534313"
       y1="-4.3515615"
       x2="26.152533"
       y2="1.2666581"
       id="linearGradient6693-5"
       xlink:href="#linearGradient3587-6-5-1-5-2"
       gradientUnits="userSpaceOnUse"
       gradientTransform="rotate(45,4.0355353,-15.642136)" />
    <linearGradient
       id="linearGradient3587-6-5-1-5-2">
      <stop
         id="stop3589-9-2-8-5-0"
         style="stop-color:#000000;stop-opacity:1"
         offset="0" />
      <stop
         id="stop3591-7-4-3-0-1"
         style="stop-color:#646464;stop-opacity:1"
         offset="1" />
    </linearGradient>
    <linearGradient
       x1="19.490692"
       y1="-4.321744"
       x2="22.886868"
       y2="-0.92556846"
       id="linearGradient3054"
       xlink:href="#linearGradient3587-6-5-1-5-2"
       gradientUnits="userSpaceOnUse"
       gradientTransform="rotate(45,3.1568563,-28.006097)" />
    <linearGradient
       x1="20.534313"
       y1="-4.3515615"
       x2="26.152533"
       y2="1.2666581"
       id="linearGradient6693-5-4"
       xlink:href="#linearGradient3587-6-5-1-5-2-1"
       gradientUnits="userSpaceOnUse"
       gradientTransform="rotate(45,-6.6146827,-50.612924)" />
    <linearGradient
       id="linearGradient3587-6-5-1-5-2-1">
      <stop
         id="stop3589-9-2-8-5-0-2"
         style="stop-color:#000000;stop-opacity:1"
         offset="0" />
      <stop
         id="stop3591-7-4-3-0-1-4"
         style="stop-color:#646464;stop-opacity:1"
         offset="1" />
    </linearGradient>
    <linearGradient
       x1="8.1313992"
       y1="19.049677"
       x2="8.1313992"
       y2="15.935893"
       id="linearGradient5038-3"
       xlink:href="#linearGradient3732-77-1"
       gradientUnits="userSpaceOnUse"
       gradientTransform="matrix(0.8666667,0,0,0.73333335,-25.780791,-13.354803)" />
    <linearGradient
       id="linearGradient3732-77-1">
      <stop
         id="stop3734-3-1"
         style="stop-color:#000000;stop-opacity:1"
         offset="0" />
      <stop
         id="stop3736-71-8"
         style="stop-color:#000000;stop-opacity:0"
         offset="1" />
    </linearGradient>
    <linearGradient
       x1="8.1313992"
       y1="19.049677"
       x2="8.1313992"
       y2="15.935893"
       id="linearGradient3794-3"
       xlink:href="#linearGradient3788-3"
       gradientUnits="userSpaceOnUse"
       gradientTransform="matrix(1.1333334,0,0,0.99999997,-27.914124,-5.7118643)" />
    <linearGradient
       id="linearGradient3788-3">
      <stop
         id="stop3790-8"
         style="stop-color:#ffffff;stop-opacity:1"
         offset="0" />
      <stop
         id="stop3792-3"
         style="stop-color:#ffffff;stop-opacity:0"
         offset="1" />
    </linearGradient>
    <linearGradient
       inkscape:collect="always"
       xlink:href="#linearGradient3788-3"
       id="linearGradient3210"
       gradientUnits="userSpaceOnUse"
       gradientTransform="matrix(1.1333334,0,0,0.99999997,-27.914124,-5.7118643)"
       x1="8.1313992"
       y1="19.049677"
       x2="8.1313992"
       y2="15.935893" />
    <linearGradient
       inkscape:collect="always"
       xlink:href="#linearGradient3732-77-1"
       id="linearGradient3212"
       gradientUnits="userSpaceOnUse"
       gradientTransform="matrix(0.8666667,0,0,0.73333335,-25.780791,-13.354803)"
       x1="8.1313992"
       y1="19.049677"
       x2="8.1313992"
       y2="15.935893" />
    <linearGradient
       inkscape:collect="always"
       xlink:href="#linearGradient3587-6-5-1-5-2-1"
       id="linearGradient3214"
       gradientUnits="userSpaceOnUse"
       gradientTransform="rotate(45,-6.6146827,-50.612924)"
       x1="20.534313"
       y1="-4.3515615"
       x2="26.152533"
       y2="1.2666581" />
    <linearGradient
       id="linearGradient3587-6-5-1-5-2-7">
      <stop
         offset="0"
         style="stop-color:#000000;stop-opacity:1"
         id="stop3589-9-2-8-5-0-9" />
      <stop
         offset="1"
         style="stop-color:#646464;stop-opacity:1"
         id="stop3591-7-4-3-0-1-5" />
    </linearGradient>
    <linearGradient
       id="linearGradient3732-77-2"
       inkscape:collect="always">
      <stop
         id="stop3734-3-2"
         offset="0"
         style="stop-color:#000000;stop-opacity:1;" />
      <stop
         id="stop3736-71-0"
         offset="1"
         style="stop-color:#000000;stop-opacity:0;" />
    </linearGradient>
    <linearGradient
       inkscape:collect="always"
       id="linearGradient3788-8">
      <stop
         style="stop-color:#ffffff;stop-opacity:1;"
         offset="0"
         id="stop3790-7" />
      <stop
         style="stop-color:#ffffff;stop-opacity:0;"
         offset="1"
         id="stop3792-4" />
    </linearGradient>
    <linearGradient
       inkscape:collect="always"
       xlink:href="#linearGradient3788-8"
       id="linearGradient3298"
       gradientUnits="userSpaceOnUse"
       gradientTransform="matrix(1.1333334,0,0,0.99999997,-5.0666667,42)"
       x1="8.1313992"
       y1="19.049677"
       x2="8.1313992"
       y2="15.935893" />
    <linearGradient
       inkscape:collect="always"
       xlink:href="#linearGradient3732-77-2"
       id="linearGradient3300"
       gradientUnits="userSpaceOnUse"
       gradientTransform="matrix(0.8666667,0,0,0.73333335,-2.9333334,-61.066667)"
       x1="8.1313992"
       y1="19.049677"
       x2="8.1313992"
       y2="15.935893" />
    <linearGradient
       inkscape:collect="always"
       xlink:href="#linearGradient3587-6-5-1-5-2-7"
       id="linearGradient3302"
       gradientUnits="userSpaceOnUse"
       gradientTransform="rotate(45,-52.784269,0.82232777)"
       x1="20.534313"
       y1="-4.3515615"
       x2="26.152533"
       y2="1.2666581" />
    <linearGradient
       x1="20.534313"
       y1="-4.3515615"
       x2="26.152533"
       y2="1.2666581"
       id="linearGradient6693-5-9"
       xlink:href="#linearGradient3587-6-5-1-5-2-4"
       gradientUnits="userSpaceOnUse"
       gradientTransform="rotate(45,24.578427,37.367009)" />
    <linearGradient
       id="linearGradient3587-6-5-1-5-2-4">
      <stop
         id="stop3589-9-2-8-5-0-4"
         style="stop-color:#000000;stop-opacity:1"
         offset="0" />
      <stop
         id="stop3591-7-4-3-0-1-0"
         style="stop-color:#646464;stop-opacity:1"
         offset="1" />
    </linearGradient>
  </defs>
  <g
     id="active-center"
     transform="translate(-130)">
    <rect
       y="-2.6757814e-07"
       x="0"
       height="26"
       width="26"
       id="rect3073"
       style="opacity:0.00100002;fill:#3daee9;fill-opacity:1;stroke:none;stroke-width:1.3" />
    <path
       d="m 17.725257,5.3841262 c 1.634118,0 2.953125,1.318993 2.953125,2.953124 v 9.3862878 c 0,1.634118 -1.319007,2.953125 -2.953125,2.953125 H 8.3372442 c -1.634119,0 -2.953125,-1.319007 -2.953125,-2.953125 V 8.3372502 c 0,-1.634131 1.319006,-2.953124 2.953125,-2.953124 h 9.3880128 m 0,-0.790376 H 8.3372442 c -2.055995,0 -3.743494,1.687498 -3.743494,3.7435 v 9.3862878 c 0,2.057703 1.687499,3.745215 3.743494,3.745215 h 9.3862918 c 2.057715,0 3.745214,-1.687512 3.745214,-3.743501 V 8.3372502 c 0,-2.056002 -1.687499,-3.7435 -3.743493,-3.7435 z"
       id="path4-3-7-3-6"
       style="clip-rule:evenodd;fill:#5a84a5;fill-opacity:1;fill-rule:evenodd;stroke-width:0.0172195;stroke-linejoin:round;stroke-miterlimit:1.41421" />
    <path
       fill-rule="evenodd"
       clip-rule="evenodd"
       d="M 12.749372,18.504039 9.6319215,13.506518 c -0.0027,-0.0026 -0.0081,-0.0094 -0.01046,-0.01553 L 6.5106394,8.5090549 c -0.08743,-0.142952 -0.03367,-0.329475 0.120951,-0.410305 0.110868,-0.05895 0.241864,-0.05276 0.342671,0.0096 L 13.031196,11.8066 v 0 l 6.056899,-3.6982961 c 0.151278,-0.09327 0.352793,-0.05291 0.453567,0.08696 0.07063,0.09939 0.06711,0.22371 0.0035,0.320094 l -3.113957,4.9911791 -3.11744,4.997518 c -0.06049,0.09635 -0.171295,0.152228 -0.285577,0.152228 h -0.0027 v 0 0 h -0.0027 -0.0026 -0.0027 v 0 0 l -0.0027,-0.0031 h -0.0027 v 0 h -0.0027 v 0 h -0.0027 v 0 h -0.0026 -0.0026 -0.0027 v 0 0 h -0.0027 -0.0027 v 0 h -0.0027 v -0.0032 h -0.0026 v 0 h -0.0027 -0.0026 v 0 h -0.0028 v 0 h -0.0027 l -0.0027,-0.0031 v 0 h -0.0026 v 0 h -0.0026 v 0 h -0.0027 -0.0027 v -0.0033 h -0.0027 v 0 h -0.0027 -0.0026 v 0 -0.003 h -0.0027 -0.0026 v 0 h -0.0027 v -0.0033 h -0.0027 -0.0027 v 0 h -0.0027 v -0.0031 h -0.0027 v 0 h -0.0026 l -0.0027,-0.0031 v 0 0 h -0.0027 -0.0027 v -0.0031 h -0.0027 -0.0027 l -0.0035,-0.0032 v 0 h -0.0027 v -0.0031 h -0.0026 v 0 h -0.0027 v -0.0032 h -0.0027 v 0 h -0.0027 l -0.0026,-0.0032 v 0 c -0.0533,-0.02792 -0.09342,-0.06519 -0.120329,-0.111817 z m 0.611365,-7.629897 v 0 l -0.01344,0.0095 v 0 l -0.01336,0.007 h -0.0025 l -0.0028,0.0026 h -0.0026 l -0.0027,0.0027 h -0.0027 v 0 l -0.0027,0.0027 h -0.0027 l -0.0027,0.0026 c -0.08396,0.03409 -0.171231,0.05279 -0.258605,0.05593 h -0.01046 v 0 h -0.008 v 0 h -0.008 -0.0027 -0.01046 -0.0027 -0.0027 c -0.07733,-0.0027 -0.151147,-0.01869 -0.221739,-0.04651 h -0.0027 l -0.008,-0.0027 -0.0081,-0.0026 v 0 l -0.01038,-0.0026 -0.0027,-0.0026 h -0.0027 c -0.0303,-0.01571 -0.06049,-0.03124 -0.08745,-0.04675 L 8.8322285,8.5131909 C 8.5331165,8.3297599 8.4491865,7.9568389 8.6473925,7.6802689 8.8456315,7.4005477 9.2487555,7.3229027 9.5476045,7.5061497 L 13.032286,9.634713 16.519334,7.5057227 c 0.298243,-0.183553 0.701339,-0.105906 0.899578,0.1738132 0.198305,0.276568 0.114237,0.649491 -0.184836,0.832918 L 13.54886,10.762448 v 0 l -0.144363,0.08704 -0.0027,0.0027 v 0 c -0.01328,0.0068 -0.02687,0.01553 -0.04032,0.02165 z"
       id="path2"
       style="fill:#fcfcfc;fill-opacity:1;stroke-width:0.0318322" />
  </g>
  <g
     id="g2569"
     transform="translate(-104)">
    <g
       id="hover-center">
      <rect
         style="opacity:0.00100002;fill:#3daee9;fill-opacity:1;stroke:none;stroke-width:1.3"
         id="rect3079"
         width="26"
         height="26"
         x="0"
         y="2.6757814e-07" />
      <path
         d="m 17.725256,5.3841262 c 1.634118,0 2.953125,1.318993 2.953125,2.953124 v 9.3862888 c 0,1.634118 -1.319007,2.953125 -2.953125,2.953125 H 8.3372443 c -1.6341191,0 -2.9531251,-1.319007 -2.9531251,-2.953125 V 8.3372502 c 0,-1.634131 1.319006,-2.953124 2.9531251,-2.953124 h 9.3880117 m 0,-0.790376 H 8.3372443 c -2.0559951,0 -3.7434941,1.687498 -3.7434941,3.7435 v 9.3862878 c 0,2.057703 1.687499,3.745215 3.7434941,3.745215 h 9.3862907 c 2.057715,0 3.745214,-1.687512 3.745214,-3.743501 V 8.3372502 c 0,-2.056002 -1.687499,-3.7435 -3.743493,-3.7435 z"
         id="path4-3-7-3-6-6"
         style="clip-rule:evenodd;fill:#5a84a5;fill-opacity:1;fill-rule:evenodd;stroke-width:0.0172195;stroke-linejoin:round;stroke-miterlimit:1.41421" />
      <path
         fill-rule="evenodd"
         clip-rule="evenodd"
         d="m 12.749371,18.504039 -3.1174494,-4.99752 c -0.0027,-0.0026 -0.0081,-0.0094 -0.01046,-0.01553 L 6.5106394,8.5090552 c -0.08743,-0.142952 -0.03367,-0.329475 0.120951,-0.410305 0.110868,-0.05895 0.2418641,-0.05276 0.3426711,0.0096 l 6.0569335,3.6982508 v 0 l 6.056899,-3.6982968 c 0.151278,-0.09327 0.352793,-0.05291 0.453567,0.08696 0.07063,0.09939 0.06711,0.22371 0.0035,0.320094 l -3.113957,4.9911788 -3.11744,4.997518 c -0.06049,0.09635 -0.171295,0.152228 -0.285577,0.152228 h -0.0027 v 0 0 h -0.0027 -0.0026 -0.0027 v 0 0 l -0.0027,-0.0031 h -0.0027 v 0 h -0.0027 v 0 h -0.0027 v 0 h -0.0026 -0.0026 -0.0027 v 0 0 h -0.0027 -0.0027 v 0 h -0.0027 v -0.0032 h -0.0026 v 0 h -0.0027 -0.0026 v 0 h -0.0028 v 0 h -0.0027 l -0.0027,-0.0031 v 0 h -0.0026 v 0 h -0.0026 v 0 h -0.0027 -0.0027 v -0.0033 h -0.0027 v 0 h -0.0027 -0.0026 v 0 -0.003 h -0.0027 -0.0026 v 0 h -0.0027 v -0.0033 h -0.0027 -0.0027 v 0 h -0.0027 v -0.0031 h -0.0027 v 0 h -0.0026 l -0.0027,-0.0031 v 0 0 h -0.0027 -0.0027 v -0.0031 h -0.0027 -0.0027 l -0.0035,-0.0032 v 0 h -0.0027 v -0.0031 h -0.0026 v 0 h -0.0027 v -0.0032 h -0.0027 v 0 h -0.0027 l -0.0026,-0.0032 v 0 c -0.0533,-0.02792 -0.09342,-0.06519 -0.120329,-0.111817 z m 0.611365,-7.629897 v 0 l -0.01344,0.0095 v 0 l -0.01336,0.007 h -0.0025 l -0.0028,0.0026 h -0.0026 l -0.0027,0.0027 h -0.0027 v 0 l -0.0027,0.0027 h -0.0027 l -0.0027,0.0026 c -0.08396,0.03409 -0.171231,0.05279 -0.258605,0.05593 h -0.01046 v 0 h -0.008 v 0 h -0.008 -0.0027 -0.01046 -0.0027 -0.0027 c -0.07733,-0.0027 -0.151147,-0.01869 -0.221739,-0.04651 h -0.0027 l -0.008,-0.0027 -0.0081,-0.0026 v 0 l -0.01038,-0.0026 -0.0027,-0.0026 h -0.0027 c -0.0303,-0.01571 -0.06049,-0.03124 -0.08745,-0.04675 L 8.8322286,8.5131912 c -0.299112,-0.183431 -0.383042,-0.556352 -0.184836,-0.832922 0.198239,-0.279721 0.601363,-0.357366 0.900212,-0.174119 l 3.4846804,2.128563 3.487048,-2.12899 c 0.298243,-0.183553 0.701339,-0.105906 0.899578,0.173813 0.198305,0.276568 0.114237,0.649491 -0.184836,0.832918 l -3.685216,2.2499938 v 0 l -0.144363,0.08704 -0.0027,0.0027 v 0 c -0.01328,0.0068 -0.02687,0.01553 -0.04032,0.02165 z"
         id="path2-2"
         style="opacity:0.7;fill:#fcfcfc;fill-opacity:1;stroke-width:0.0318322" />
    </g>
  </g>
  <g
     id="pressed-center"
     transform="translate(-78)">
    <rect
       y="6.6894543e-08"
       x="0"
       height="26"
       width="26"
       id="rect3075"
       style="opacity:0.00100002;fill:#3daee9;fill-opacity:1;stroke:none;stroke-width:1.3" />
    <path
       d="m 17.725257,5.3841262 c 1.634118,0 2.953125,1.318993 2.953125,2.953124 v 9.3862878 c 0,1.634118 -1.319007,2.953125 -2.953125,2.953125 H 8.3372442 c -1.634119,0 -2.953125,-1.319007 -2.953125,-2.953125 V 8.3372502 c 0,-1.634131 1.319006,-2.953124 2.953125,-2.953124 h 9.3880128 m 0,-0.790376 H 8.3372442 c -2.055995,0 -3.743494,1.687498 -3.743494,3.7435 v 9.3862878 c 0,2.057703 1.687499,3.745215 3.743494,3.745215 h 9.3862918 c 2.057715,0 3.745214,-1.687512 3.745214,-3.743501 V 8.3372502 c 0,-2.056002 -1.687499,-3.7435 -3.743493,-3.7435 z"
       id="path4-3-7-3-6-9"
       style="clip-rule:evenodd;fill:#5a84a5;fill-opacity:1;fill-rule:evenodd;stroke-width:0.0172195;stroke-linejoin:round;stroke-miterlimit:1.41421" />
    <path
       fill-rule="evenodd"
       clip-rule="evenodd"
       d="M 12.749372,18.504039 9.6319222,13.506518 c -0.0027,-0.0026 -0.0081,-0.0094 -0.01046,-0.01553 L 6.5106392,8.5090552 c -0.08743,-0.142952 -0.03367,-0.329475 0.120951,-0.410305 0.110868,-0.05895 0.241864,-0.05276 0.342671,0.0096 L 13.031196,11.8066 v 0 l 6.056899,-3.6982958 c 0.151278,-0.09327 0.352793,-0.05291 0.453567,0.08696 0.07063,0.09939 0.06711,0.22371 0.0035,0.320094 l -3.113957,4.9911788 -3.11744,4.997518 c -0.06049,0.09635 -0.171295,0.152228 -0.285577,0.152228 h -0.0027 v 0 0 h -0.0027 -0.0026 -0.0027 v 0 0 l -0.0027,-0.0031 h -0.0027 v 0 h -0.0027 v 0 h -0.0027 v 0 h -0.0026 -0.0026 -0.0027 v 0 0 h -0.0027 -0.0027 v 0 h -0.0027 v -0.0032 h -0.0026 v 0 h -0.0027 -0.0026 v 0 h -0.0028 v 0 h -0.0027 l -0.0027,-0.0031 v 0 h -0.0026 v 0 h -0.0026 v 0 h -0.0027 -0.0027 v -0.0033 h -0.0027 v 0 h -0.0027 -0.0026 v 0 -0.003 h -0.0027 -0.0026 v 0 h -0.0027 v -0.0033 h -0.0027 -0.0027 v 0 h -0.0027 v -0.0031 h -0.0027 v 0 h -0.0026 l -0.0027,-0.0031 v 0 0 h -0.0027 -0.0027 v -0.0031 h -0.0027 -0.0027 l -0.0035,-0.0032 v 0 h -0.0027 v -0.0031 h -0.0026 v 0 h -0.0027 v -0.0032 h -0.0027 v 0 h -0.0027 l -0.0026,-0.0032 v 0 c -0.0533,-0.02792 -0.09342,-0.06519 -0.120329,-0.111817 z m 0.611365,-7.629897 v 0 l -0.01344,0.0095 v 0 l -0.01336,0.007 h -0.0025 l -0.0028,0.0026 h -0.0026 l -0.0027,0.0027 h -0.0027 v 0 l -0.0027,0.0027 h -0.0027 l -0.0027,0.0026 c -0.08396,0.03409 -0.171231,0.05279 -0.258605,0.05593 h -0.01046 v 0 h -0.008 v 0 h -0.008 -0.0027 -0.01046 -0.0027 -0.0027 c -0.07733,-0.0027 -0.151147,-0.01869 -0.221739,-0.04651 h -0.0027 l -0.008,-0.0027 -0.0081,-0.0026 v 0 l -0.01038,-0.0026 -0.0027,-0.0026 h -0.0027 c -0.0303,-0.01571 -0.06049,-0.03124 -0.08745,-0.04675 L 8.8322282,8.5131912 c -0.299112,-0.183431 -0.383042,-0.556352 -0.184835,-0.832922 0.198238,-0.279721 0.601363,-0.357366 0.900211,-0.174119 L 13.032286,9.634713 16.519334,7.5057232 c 0.298243,-0.183553 0.701339,-0.105906 0.899578,0.173813 0.198305,0.276568 0.114237,0.649491 -0.184836,0.832918 L 13.54886,10.762448 v 0 l -0.144363,0.08704 -0.0027,0.0027 v 0 c -0.01328,0.0068 -0.02687,0.01553 -0.04032,0.02165 z"
       id="path2-1"
       style="fill:#00cc9a;fill-opacity:1;stroke-width:0.0318322" />
  </g>
  <g
     id="inactive-center"
     transform="translate(-52)">
    <rect
       style="opacity:0.00100002;fill:#bfc3c7;fill-opacity:1;stroke:none;stroke-width:1.3"
       id="rect3924"
       width="26"
       height="26"
       x="0"
       y="-6.6894536e-08" />
    <path
       d="m 17.725257,5.3841262 c 1.634118,0 2.953125,1.318993 2.953125,2.953124 v 9.3862878 c 0,1.634118 -1.319007,2.953125 -2.953125,2.953125 H 8.3372443 c -1.6341191,0 -2.9531251,-1.319007 -2.9531251,-2.953125 V 8.3372502 c 0,-1.634131 1.319006,-2.953124 2.9531251,-2.953124 h 9.3880127 m 0,-0.790376 H 8.3372443 c -2.0559951,0 -3.7434941,1.687498 -3.7434941,3.7435 v 9.3862878 c 0,2.057703 1.687499,3.745215 3.7434941,3.745215 h 9.3862917 c 2.057715,0 3.745214,-1.687512 3.745214,-3.743501 V 8.3372502 c 0,-2.056002 -1.687499,-3.7435 -3.743493,-3.7435 z"
       id="path4-3-7-3-6-2"
       style="clip-rule:evenodd;fill:#496a83;fill-opacity:1;fill-rule:evenodd;stroke-width:0.0172195;stroke-linejoin:round;stroke-miterlimit:1.41421" />
    <path
       fill-rule="evenodd"
       clip-rule="evenodd"
       d="M 12.749372,18.504039 9.6319223,13.506518 c -0.0027,-0.0026 -0.0081,-0.0094 -0.01046,-0.01553 L 6.5106402,8.5090552 c -0.08743,-0.142952 -0.03367,-0.329475 0.120951,-0.410305 0.110868,-0.05895 0.2418641,-0.05276 0.3426711,0.0096 L 13.031197,11.8066 v 0 l 6.056899,-3.6982958 c 0.151278,-0.09327 0.352793,-0.05291 0.453567,0.08696 0.07063,0.09939 0.06711,0.22371 0.0035,0.320094 l -3.113957,4.9911788 -3.11744,4.997518 c -0.06049,0.09635 -0.171295,0.152228 -0.285577,0.152228 h -0.0027 v 0 0 h -0.0027 -0.0026 -0.0027 v 0 0 l -0.0027,-0.0031 h -0.0027 v 0 h -0.0027 v 0 h -0.0027 v 0 h -0.0026 -0.0026 -0.0027 v 0 0 h -0.0027 -0.0027 v 0 h -0.0027 v -0.0032 h -0.0026 v 0 h -0.0027 -0.0026 v 0 h -0.0028 v 0 h -0.0027 l -0.0027,-0.0031 v 0 h -0.0026 v 0 h -0.0026 v 0 h -0.0027 -0.0027 v -0.0033 h -0.0027 v 0 h -0.0027 -0.0026 v 0 -0.003 h -0.0027 -0.0026 v 0 h -0.0027 v -0.0033 h -0.0027 -0.0027 v 0 h -0.0027 v -0.0031 h -0.0027 v 0 h -0.0026 l -0.0027,-0.0031 v 0 0 h -0.0027 -0.0027 v -0.0031 h -0.0027 -0.0027 l -0.0035,-0.0032 v 0 h -0.0027 v -0.0031 h -0.0026 v 0 h -0.0027 v -0.0032 h -0.0027 v 0 h -0.0027 l -0.0026,-0.0032 v 0 c -0.0533,-0.02792 -0.09342,-0.06519 -0.120329,-0.111817 z m 0.611365,-7.629897 v 0 l -0.01344,0.0095 v 0 l -0.01336,0.007 h -0.0025 l -0.0028,0.0026 h -0.0026 l -0.0027,0.0027 h -0.0027 v 0 l -0.0027,0.0027 h -0.0027 l -0.0027,0.0026 c -0.08396,0.03409 -0.171231,0.05279 -0.258605,0.05593 h -0.01046 v 0 h -0.008 v 0 h -0.008 -0.0027 -0.01046 -0.0027 -0.0027 c -0.07733,-0.0027 -0.151147,-0.01869 -0.221739,-0.04651 h -0.0027 l -0.008,-0.0027 -0.0081,-0.0026 v 0 l -0.01038,-0.0026 -0.0027,-0.0026 h -0.0027 c -0.0303,-0.01571 -0.06049,-0.03124 -0.08745,-0.04675 L 8.8322283,8.5131912 c -0.299111,-0.183431 -0.383042,-0.556352 -0.184836,-0.832922 0.198239,-0.279721 0.601364,-0.357366 0.900213,-0.174119 l 3.4846807,2.128563 3.487048,-2.12899 c 0.298243,-0.183553 0.701339,-0.105906 0.899578,0.173813 0.198305,0.276568 0.114237,0.649491 -0.184836,0.832918 L 13.54886,10.762448 v 0 l -0.144363,0.08704 -0.0027,0.0027 v 0 c -0.01328,0.0068 -0.02687,0.01553 -0.04032,0.02165 z"
       id="path2-7"
       style="opacity:0.5;fill:#fcfcfc;fill-opacity:1;stroke-width:0.0318322" />
  </g>
  <g
     id="hover-inactive-center"
     transform="translate(-26)">
    <rect
       y="-3.5889697e-15"
       x="-1.8530274e-07"
       height="26"
       width="26"
       id="rect3853"
       style="opacity:0.00100002;fill:#3daee9;fill-opacity:1;stroke:none;stroke-width:1.3" />
    <path
       d="m 17.72526,5.3841262 c 1.63412,0 2.95312,1.318993 2.95312,2.953124 v 9.3862878 c 0,1.634118 -1.319,2.953124 -2.95312,2.953124 H 8.3372442 c -1.634119,0 -2.953125,-1.319006 -2.953125,-2.953124 V 8.3372502 c 0,-1.634131 1.319006,-2.953124 2.953125,-2.953124 H 17.72526 m 0,-0.790376 H 8.3372442 c -2.055995,0 -3.743494,1.687498 -3.743494,3.7435 v 9.3862888 c 0,2.057703 1.687499,3.745213 3.743494,3.745213 H 17.72354 c 2.05771,0 3.74521,-1.687511 3.74521,-3.7435 V 8.3372502 c 0,-2.056002 -1.6875,-3.7435 -3.74349,-3.7435 z"
       id="path4-3-7-3-6-0"
       style="clip-rule:evenodd;fill:#496a83;fill-opacity:1;fill-rule:evenodd;stroke-width:0.0172195;stroke-linejoin:round;stroke-miterlimit:1.41421" />
    <path
       fill-rule="evenodd"
       clip-rule="evenodd"
       d="m 12.74937,18.504039 -3.117448,-4.99752 c -0.0027,-0.0026 -0.0081,-0.0094 -0.01046,-0.01553 L 6.5106402,8.5090552 c -0.08743,-0.142952 -0.03367,-0.329475 0.120951,-0.410305 0.110868,-0.05895 0.241864,-0.05276 0.342671,0.0096 L 13.0312,11.8066 v 0 l 6.05689,-3.6982958 c 0.15128,-0.09327 0.3528,-0.05291 0.45357,0.08696 0.0706,0.09939 0.0671,0.22371 0.004,0.320094 l -3.11395,4.9911798 -3.11744,4.997518 c -0.0605,0.09635 -0.1713,0.152228 -0.28558,0.152228 h -0.003 v 0 0 h -0.003 -0.003 -0.003 v 0 0 l -0.003,-0.0031 h -0.003 v 0 h -0.003 v 0 h -0.003 v 0 h -0.003 -0.003 -0.003 v 0 0 h -0.003 -0.003 v 0 h -0.003 v -0.0032 h -0.003 v 0 h -0.003 -0.003 v 0 h -0.003 v 0 h -0.003 l -0.003,-0.0031 v 0 h -0.003 v 0 h -0.003 v 0 h -0.003 -0.003 v -0.0033 h -0.003 v 0 h -0.003 -0.003 v 0 -0.003 h -0.003 -0.003 v 0 h -0.003 v -0.0033 h -0.003 -0.003 v 0 h -0.003 v -0.0031 h -0.003 v 0 h -0.003 l -0.003,-0.0031 v 0 0 h -0.003 -0.003 v -0.0031 h -0.003 -0.003 l -0.004,-0.0032 v 0 h -0.003 v -0.0031 h -0.003 v 0 h -0.003 v -0.0032 h -0.003 v 0 h -0.003 l -0.003,-0.0032 v 0 c -0.0533,-0.02792 -0.0934,-0.06519 -0.12033,-0.111817 z m 0.61137,-7.629897 v 0 l -0.0134,0.0095 v 0 l -0.0134,0.007 h -0.002 l -0.003,0.0026 h -0.003 l -0.003,0.0027 h -0.003 v 0 l -0.003,0.0027 h -0.003 l -0.003,0.0026 c -0.084,0.03409 -0.17123,0.05279 -0.25861,0.05593 h -0.0105 v 0 h -0.008 v 0 h -0.008 -0.003 -0.0105 -0.003 -0.003 c -0.0773,-0.0027 -0.15114,-0.01869 -0.22174,-0.04651 h -0.003 l -0.008,-0.0027 -0.008,-0.0026 v 0 l -0.0104,-0.0026 -0.003,-0.0026 h -0.003 c -0.0303,-0.01571 -0.0605,-0.03124 -0.0875,-0.04675 L 8.828778,8.5131912 C 8.5296672,8.3297602 8.4457362,7.9568392 8.6439422,7.6802692 8.842181,7.4005482 9.245306,7.3229032 9.544155,7.5061502 l 3.484685,2.128563 3.48704,-2.12899 c 0.29825,-0.183553 0.70134,-0.105906 0.89958,0.173813 0.19831,0.276568 0.11424,0.649491 -0.18483,0.832918 l -3.68522,2.2499938 v 0 l -0.14436,0.08704 -0.003,0.0027 v 0 c -0.0133,0.0068 -0.0269,0.01553 -0.0403,0.02165 z"
       id="path2-9"
       style="opacity:0.8;fill:#fcfcfc;fill-opacity:1;stroke-width:0.0318322" />
  </g>
</svg>
