<?xml version="1.0" encoding="UTF-8" standalone="no"?>
<svg
   width="31.999998"
   height="31.999998"
   viewBox="0 0 8.466666 8.4666664"
   version="1.1"
   id="svg847"
   inkscape:version="1.1.1 (3bf5ae0d25, 2021-09-20)"
   sodipodi:docname="activities.svg"
   xmlns:inkscape="http://www.inkscape.org/namespaces/inkscape"
   xmlns:sodipodi="http://sodipodi.sourceforge.net/DTD/sodipodi-0.dtd"
   xmlns:xlink="http://www.w3.org/1999/xlink"
   xmlns="http://www.w3.org/2000/svg"
   xmlns:svg="http://www.w3.org/2000/svg"
   xmlns:rdf="http://www.w3.org/1999/02/22-rdf-syntax-ns#"
   xmlns:cc="http://creativecommons.org/ns#"
   xmlns:dc="http://purl.org/dc/elements/1.1/">
  <defs
     id="defs841">
    <linearGradient
       inkscape:collect="always"
       id="linearGradient993">
      <stop
         style="stop-color:#eff0f1;stop-opacity:1"
         offset="0"
         id="stop989" />
      <stop
         style="stop-color:#eff0f1;stop-opacity:1"
         offset="0.22893952"
         id="stop1221" />
      <stop
         style="stop-color:#17a8ff;stop-opacity:1"
         offset="0.42241922"
         id="stop1785" />
      <stop
         style="stop-color:#0077be;stop-opacity:1"
         offset="1"
         id="stop991" />
    </linearGradient>
    <linearGradient
       id="oomox"
       x1="0.00021740334"
       x2="0.00021740334"
       y1="2.2170208"
       y2="16.152622"
       gradientTransform="matrix(0.60065215,0,0,0.45566747,0.06601531,0.04810909)"
       gradientUnits="userSpaceOnUse">
      <stop
         offset="0%"
         style="stop-color:#303b3d; stop-opacity:1"
         id="stop18" />
      <stop
         offset="100%"
         style="stop-color:#bc985d; stop-opacity:1"
         id="stop20" />
    </linearGradient>
    <linearGradient
       inkscape:collect="always"
       xlink:href="#linearGradient993"
       id="linearGradient851"
       x1="0.74083334"
       y1="4.2333331"
       x2="7.7161999"
       y2="4.2333331"
       gradientUnits="userSpaceOnUse"
       gradientTransform="matrix(1.2137959,0,0,1.1999996,-0.89921997,-0.84666634)" />
    <linearGradient
       inkscape:collect="always"
       xlink:href="#linearGradient993"
       id="linearGradient852"
       x1="8.5989599"
       y1="5.5562501"
       x2="14.179252"
       y2="5.5562501"
       gradientUnits="userSpaceOnUse" />
  </defs>
  <sodipodi:namedview
     id="base"
     pagecolor="#ffffff"
     bordercolor="#000000"
     borderopacity="1"
     inkscape:pageopacity="0.0"
     inkscape:pageshadow="2"
     inkscape:zoom="11.2"
     inkscape:cx="28.303571"
     inkscape:cy="13.839286"
     inkscape:document-units="px"
     inkscape:current-layer="layer1"
     inkscape:document-rotation="0"
     showgrid="false"
     units="px"
     inkscape:window-width="1920"
     inkscape:window-height="1007"
     inkscape:window-x="0"
     inkscape:window-y="0"
     inkscape:window-maximized="1"
     inkscape:snap-bbox="true"
     inkscape:bbox-nodes="true"
     inkscape:showpageshadow="false"
     inkscape:lockguides="false"
     inkscape:pagecheckerboard="0">
    <inkscape:grid
       type="xygrid"
       id="grid1410"
       originx="9.9999998e-07"
       originy="0" />
  </sodipodi:namedview>
  <metadata
     id="metadata844">
    <rdf:RDF>
      <cc:Work
         rdf:about="">
        <dc:format>image/svg+xml</dc:format>
        <dc:type
           rdf:resource="http://purl.org/dc/dcmitype/StillImage" />
      </cc:Work>
    </rdf:RDF>
    <style
       id="current-color-scheme" />
  </metadata>
  <g
     inkscape:label="Layer 1"
     inkscape:groupmode="layer"
     id="layer1">
    <g
       id="activities">
      <rect
         y="0"
         x="0"
         height="8.4666662"
         width="8.4666662"
         id="rect1430"
         style="opacity:0.003;fill:#000000;stroke-width:0.529167" />
      <path
         style="color:#d5c289;isolation:isolate;fill:url(#linearGradient851);fill-opacity:1;stroke-width:0.526148"
         class="ColorScheme-Text"
         fill-rule="evenodd"
         d="M 4.23327,1.7980824 3.6734013,1.2445785 v 0 C 3.5479879,1.1205894 3.379709,1.0583333 3.2114294,1.0583333 c -0.1682738,0 -0.3365521,0.062289 -0.4624974,0.1862452 L 0.18825406,3.7766754 C -0.06310379,4.025176 -0.06257485,4.4410901 0.18878352,4.6901146 L 2.7494628,7.2216884 C 3.0008218,7.47019 3.4220434,7.4707123 3.6734013,7.2222172 L 4.2337968,6.6687141 4.7931358,7.221695 c 0.2513573,0.2485012 0.6725813,0.2490242 0.9244667,5.287e-4 L 8.2777527,4.6901274 c 0.2518857,-0.2485031 0.2518857,-0.6649377 0,-0.9134392 L 5.7176025,1.2445785 C 5.5916585,1.1205894 5.4233833,1.0583333 5.255105,1.0583333 c -0.168278,0 -0.3365534,0.062289 -0.462498,0.1862452 z M 3.8586145,2.1679564 3.3019211,1.6175915 v 0 c -0.026476,-0.026158 -0.058207,-0.036617 -0.089952,-0.036617 -0.031731,0 -0.068802,0.01041 -0.089943,0.036617 L 0.56608481,4.1444564 c -0.026466,0.026159 -0.037049,0.05755 -0.037049,0.088955 0,0.031393 0.0105068,0.062784 0.037049,0.088931 L 3.1220006,6.8492132 c 0.026474,0.026157 0.058211,0.03663 0.089949,0.03663 0.031729,0 0.063469,-0.01041 0.089948,-0.03663 L 3.8591405,6.2983097 2.2324558,4.6901146 C 1.9810972,4.4410901 1.980571,4.025176 2.23193,3.7766754 Z"
         id="path58" />
    </g>
    <g
       id="22-22-activities">
      <rect
         style="opacity:0.003;fill:#000000;stroke-width:0.363802"
         id="rect1430-3-7-5"
         width="5.8208323"
         height="5.8208323"
         x="8.4666681"
         y="2.6458333" />
      <path
         style="color:#d5c289;isolation:isolate;fill:url(#linearGradient852);fill-opacity:1.0;stroke-width:0.34877"
         class="ColorScheme-Text"
         fill-rule="evenodd"
         d="M 11.389064,3.9327489 11.020056,3.563747 v 0 c -0.0827,-0.082664 -0.193565,-0.1241637 -0.30448,-0.1241637 -0.110905,0 -0.221811,0.041517 -0.304823,0.1241637 L 8.7230452,5.251812 c -0.1656771,0.1656677 -0.1653301,0.4429429 3.39e-4,0.6089594 l 1.6877128,1.6877159 c 0.165667,0.1656673 0.443294,0.166016 0.608959,3.522e-4 l 0.369352,-0.3690028 0.368654,0.3686546 c 0.165671,0.1656671 0.443291,0.1660161 0.60931,3.52e-4 l 1.68737,-1.6880643 c 0.166013,-0.1656673 0.166013,-0.4432913 0,-0.6089594 L 12.367372,3.563747 c -0.083,-0.082664 -0.193918,-0.1241637 -0.304831,-0.1241637 -0.110908,0 -0.221816,0.041517 -0.304826,0.1241637 z M 11.142131,4.179333 10.775223,3.8124238 v 0 c -0.01742,-0.017438 -0.03835,-0.024417 -0.05931,-0.024417 -0.02095,0 -0.04533,0.007 -0.05931,0.024417 L 8.9720242,5.4969997 c -0.01741,0.017439 -0.02438,0.038363 -0.02438,0.059295 0,0.020926 0.0069,0.041848 0.02438,0.059285 l 1.6845728,1.6845836 c 0.01741,0.017438 0.03835,0.024408 0.05931,0.024408 0.02095,0 0.04185,-0.00704 0.05931,-0.024408 L 11.142478,6.9329061 10.070346,5.8607757 C 9.9046832,5.69476 9.9043312,5.4174845 10.069998,5.2518173 Z"
         id="path58-5" />
    </g>
  </g>
</svg>
