<?xml version="1.0" encoding="UTF-8" standalone="no"?>
<svg
   xmlns:dc="http://purl.org/dc/elements/1.1/"
   xmlns:cc="http://creativecommons.org/ns#"
   xmlns:rdf="http://www.w3.org/1999/02/22-rdf-syntax-ns#"
   xmlns:svg="http://www.w3.org/2000/svg"
   xmlns="http://www.w3.org/2000/svg"
   xmlns:sodipodi="http://sodipodi.sourceforge.net/DTD/sodipodi-0.dtd"
   xmlns:inkscape="http://www.inkscape.org/namespaces/inkscape"
   width="32"
   height="32"
   version="1.1"
   id="svg12"
   sodipodi:docname="akonadi.svg"
   inkscape:version="1.0.2 (e86c870879, 2021-01-15)">
  <g
     id="akonadi">
    <path
       style="opacity:0.00100002"
       d="M 0,0 H 32.000001 V 32.000001 H 0 Z"
       id="path7" />
    <path
       style="color:#d5c289;isolation:isolate;fill:#eff0f1;fill-opacity:1;stroke-width:1.56301"
       class="ColorScheme-Text"
       fill-rule="evenodd"
       d="m 8.452943,16.000208 -1.723131,1.587033 v 0 C 6.343811,17.942741 6.15,18.419753 6.15,18.896758 c 0,0.477007 0.193845,0.954006 0.579812,1.311019 l 7.882777,7.258603 c 0.773621,0.712514 2.068426,0.711015 2.843677,-0.0016 l 7.881149,-7.258612 c 0.773619,-0.712512 0.775244,-1.906528 0.0018,-2.619034 l -1.723192,-1.588487 1.721505,-1.585519 c 0.773621,-0.712511 0.775249,-1.906526 0.0018,-2.620536 L 17.456557,4.5355081 c -0.773619,-0.7140108 -2.070042,-0.7140108 -2.843667,0 L 6.72998,11.792588 c -0.386005,0.357005 -0.579812,0.83401 -0.579812,1.311016 0,0.477005 0.193848,0.954013 0.579812,1.311019 z m 1.151479,1.062015 -1.713367,1.578028 v 0 c -0.08141,0.07499 -0.114002,0.164974 -0.114002,0.255002 0,0.08999 0.0328,0.195034 0.114002,0.254966 l 7.866492,7.245148 c 0.08141,0.07499 0.179129,0.105002 0.276881,0.105002 0.09772,0 0.195405,-0.02999 0.276838,-0.105002 l 7.866526,-7.245102 c 0.08141,-0.07499 0.113977,-0.164992 0.113977,-0.254995 0,-0.08999 -0.03279,-0.179977 -0.113977,-0.254985 l -1.714993,-1.579558 -5.006533,4.611075 c -0.775251,0.712512 -2.070056,0.71401 -2.843677,0.0016 z"
       id="path58" />
  </g>
  <metadata
     id="metadata18">
    <rdf:RDF>
      <cc:Work
         rdf:about="">
        <dc:format>image/svg+xml</dc:format>
        <dc:type
           rdf:resource="http://purl.org/dc/dcmitype/StillImage" />
        <dc:title />
      </cc:Work>
    </rdf:RDF>
  </metadata>
  <defs
     id="defs16" />
  <sodipodi:namedview
     pagecolor="#ffffff"
     bordercolor="#000000"
     borderopacity="1"
     objecttolerance="10"
     gridtolerance="10"
     guidetolerance="10"
     inkscape:pageopacity="0"
     inkscape:pageshadow="2"
     inkscape:window-width="1920"
     inkscape:window-height="1013"
     id="namedview14"
     showgrid="false"
     inkscape:zoom="9.8125"
     inkscape:cx="32.228977"
     inkscape:cy="24.681119"
     inkscape:window-x="0"
     inkscape:window-y="0"
     inkscape:window-maximized="1"
     inkscape:current-layer="svg12"
     inkscape:document-rotation="0"
     inkscape:lockguides="false"
     inkscape:showpageshadow="false">
    <inkscape:grid
       type="xygrid"
       id="grid907"
       originx="32.000001"
       originy="10.000001" />
  </sodipodi:namedview>
  <g
     id="22-22-akonadi"
     transform="translate(32.000001,10.000001)">
    <path
       style="opacity:0.00100002"
       d="M 0,0 H 22 V 22 H 0 Z"
       id="path2" />
    <path
       style="color:#d5c289;isolation:isolate;fill:#eff0f1;fill-opacity:1;stroke-width:1.04202"
       class="ColorScheme-Text"
       fill-rule="evenodd"
       d="m 5.93528,11.000184 -1.148746,1.058018 v 0 C 4.5292,12.295201 4.4,12.613208 4.4,12.931211 c 0,0.318002 0.129223,0.636001 0.386534,0.874009 l 5.255165,4.839047 c 0.515755,0.475011 1.378955,0.474011 1.895785,-0.0012 l 5.254076,-4.839053 c 0.515735,-0.475006 0.516833,-1.271014 0.0018,-1.746016 l -1.149018,-1.058933 1.147664,-1.057009 c 0.515746,-0.4750048 0.516827,-1.2710118 0.0018,-1.7470161 L 11.938469,3.3569996 c -0.515741,-0.4759995 -1.380024,-0.4759995 -1.895767,0 L 4.787409,8.1950501 C 4.530077,8.4330523 4.400872,8.751054 4.400872,9.069057 c 0,0.3180025 0.129231,0.6360071 0.386537,0.874009 z m 0.767667,0.708008 -1.14224,1.052014 v 0 c -0.05421,0.05 -0.07604,0.109982 -0.07604,0.170001 0,0.05999 0.02179,0.130022 0.07604,0.169977 l 5.244303,4.83008 c 0.05421,0.05 0.11941,0.07 0.18458,0.07 0.06511,0 0.130278,-0.02 0.184565,-0.07 l 5.244327,-4.83005 c 0.05421,-0.04999 0.07599,-0.109994 0.07599,-0.169995 0,-0.05999 -0.02178,-0.119985 -0.07599,-0.16999 l -1.143331,-1.053035 -3.337667,3.074038 c -0.51683,0.475007 -1.38003,0.476005 -1.895785,0.001 z"
       id="path58-3" />
  </g>
</svg>
