<?xml version="1.0" encoding="UTF-8" standalone="no"?>
<svg
   version="1.1"
   id="svg2"
   viewBox="0 0 32 32"
   inkscape:version="1.1.1 (3bf5ae0d25, 2021-09-20)"
   sodipodi:docname="cantata.svg"
   width="32"
   height="32"
   xmlns:inkscape="http://www.inkscape.org/namespaces/inkscape"
   xmlns:sodipodi="http://sodipodi.sourceforge.net/DTD/sodipodi-0.dtd"
   xmlns="http://www.w3.org/2000/svg"
   xmlns:svg="http://www.w3.org/2000/svg"
   xmlns:rdf="http://www.w3.org/1999/02/22-rdf-syntax-ns#"
   xmlns:cc="http://creativecommons.org/ns#"
   xmlns:dc="http://purl.org/dc/elements/1.1/">
  <sodipodi:namedview
     pagecolor="#ffffff"
     bordercolor="#000000"
     borderopacity="1"
     objecttolerance="10"
     gridtolerance="10"
     guidetolerance="10"
     inkscape:pageopacity="0"
     inkscape:pageshadow="2"
     inkscape:window-width="1920"
     inkscape:window-height="1007"
     id="namedview14"
     showgrid="false"
     inkscape:zoom="10.429825"
     inkscape:cx="31.160638"
     inkscape:cy="16.778805"
     inkscape:window-x="0"
     inkscape:window-y="0"
     inkscape:window-maximized="1"
     inkscape:current-layer="svg2"
     inkscape:lockguides="true"
     inkscape:document-rotation="0"
     inkscape:showpageshadow="false"
     inkscape:pagecheckerboard="0">
    <inkscape:grid
       type="xygrid"
       id="grid838"
       originx="0"
       originy="0" />
  </sodipodi:namedview>
  <metadata
     id="metadata20">
    <rdf:RDF>
      <cc:Work
         rdf:about="">
        <dc:format>image/svg+xml</dc:format>
        <dc:type
           rdf:resource="http://purl.org/dc/dcmitype/StillImage" />
      </cc:Work>
    </rdf:RDF>
  </metadata>
  <defs
     id="defs3051">
    <style
       id="current-color-scheme"
       type="text/css" />
  </defs>
  <g
     id="cantata">
    <path
       id="path18"
       d="M 0,0 V 32 H 32 V 0 Z"
       style="fill:none" />
    <path
       id="Playlist"
       class="st0"
       d="M 19.392857,16 H 2.25 v -5.142857 h 17.142857 z m -8.571428,1.714286 H 2.25 v 5.142857 h 8.571429 z m 13.2,2.057143 c 0.342857,-0.6 0.514285,-1.328572 0.514285,-2.057143 h -4.714285 c -0.514286,0 -1.028572,0.08571 -1.542858,0.214285 -2.742857,0.685715 -4.5,3.085715 -3.9,5.357143 0.6,2.271429 3.342858,3.514286 6.128572,2.785715 2.785714,-0.728572 4.542857,-3.128572 3.9,-5.357143 -0.08571,-0.342857 -0.214286,-0.642857 -0.385714,-0.942857 z"
       style="fill:#eff0f1;fill-opacity:1;stroke-width:0.428571" />
    <path
       id="Playlist-s"
       class="st1"
       d="M 3.964286,9.1428571 H 2.25 V 7.428571 C 2.25,5.542857 3.792857,4 5.678571,4 H 19.392857 V 5.714286 H 5.678571 c -0.942857,0 -1.714285,0.771428 -1.714285,1.714285 z m 21.428571,0 H 22.821429 V 22 c 0,2.357143 -1.928572,4.285714 -4.285715,4.285714 V 28 c 3.3,0 6,-2.7 6,-6 V 10.857143 h 0.857143 c 1.414286,0 2.571429,1.157143 2.571429,2.571428 h 1.714285 c 0,-2.357142 -1.928571,-4.2857139 -4.285714,-4.2857139 z"
       style="fill:#009fff;fill-opacity:1;stroke-width:0.428571" />
  </g>
  <g
     id="22-22-cantata"
     transform="translate(32,10)">
    <path
       id="path11"
       d="M 0,0 V 22 H 22 V 0 Z"
       style="fill:none" />
    <path
       id="Playlist-3"
       class="st0"
       d="M 13.25,11 H 2 V 7.571429 H 13.25 Z M 7.6250004,12.142857 H 2 v 3.428572 h 5.6250004 z m 8.6625006,1.371429 c 0.224999,-0.4 0.337499,-0.885715 0.337499,-1.371429 h -3.09375 c -0.3375,0 -0.675,0.05714 -1.0125,0.142857 -1.800001,0.457143 -2.9531252,2.057143 -2.5593752,3.571429 C 10.353125,17.371429 12.153125,18.2 13.98125,17.714286 15.809375,17.228571 16.9625,15.628571 16.540626,14.142857 16.484378,13.914286 16.4,13.714286 16.287501,13.514286 Z"
       style="fill:#eff0f1;fill-opacity:1;stroke-width:0.283473" />
    <path
       id="Playlist-s-6"
       class="st1"
       d="M 3.1250002,6.428571 H 2 V 5.285714 C 2,4.028571 3.0124999,3 4.2499998,3 H 13.25 V 4.142857 H 4.2499998 c -0.6187499,0 -1.1249996,0.514286 -1.1249996,1.142857 z m 14.0624998,0 H 15.5 V 15 c 0,1.571429 -1.265625,2.857143 -2.812501,2.857143 V 19 C 14.853124,19 16.625,17.2 16.625,15 V 7.571429 h 0.5625 c 0.928126,0 1.6875,0.771428 1.6875,1.714285 H 20 C 20,7.714286 18.734375,6.428571 17.1875,6.428571 Z"
       style="fill:#009fff;fill-opacity:1;stroke-width:0.283473" />
  </g>
</svg>
