<?xml version="1.0" encoding="UTF-8" standalone="no"?>
<svg
   width="32"
   height="32"
   version="1.1"
   id="svg12"
   sodipodi:docname="choqok.svg"
   inkscape:version="1.1.1 (3bf5ae0d25, 2021-09-20)"
   xmlns:inkscape="http://www.inkscape.org/namespaces/inkscape"
   xmlns:sodipodi="http://sodipodi.sourceforge.net/DTD/sodipodi-0.dtd"
   xmlns="http://www.w3.org/2000/svg"
   xmlns:svg="http://www.w3.org/2000/svg"
   xmlns:rdf="http://www.w3.org/1999/02/22-rdf-syntax-ns#"
   xmlns:cc="http://creativecommons.org/ns#"
   xmlns:dc="http://purl.org/dc/elements/1.1/">
  <g
     id="choqok"
     transform="translate(32,10)">
    <rect
       style="opacity:0.00100002"
       width="22"
       height="22"
       x="0"
       y="0"
       id="rect2" />
    <path
       id="Review-3"
       class="st0"
       d="m 6.021874,10.457143 z m 0,0 z m 0,0 z M 18.875,5.285714 H 2 V 15.571429 H 6.5 V 19 c 2.025,0 3.796874,-1.314286 4.44375,-3.257143 L 11,15.571429 h 6.187499 c 1.546875,0 2.812499,-1.285715 2.812499,-2.857143 V 4.1428573 H 18.875 Z"
       sodipodi:nodetypes="cccccccccccccccccccccccccccccccccccccccccccccccccccccccssccc"
       style="clip-rule:evenodd;fill:#eff0f1;fill-opacity:1;fill-rule:evenodd;stroke-width:0.283474" />
    <path
       id="Review-s-6"
       class="st1"
       d="M 3.125,5.285714 C 3.125,4.0285713 4.1375,3 5.374999,3 H 8.75 V 4.1428573 H 5.374999 C 4.75625,4.1428573 4.25,4.6571427 4.25,5.285714 Z M 6.5,16.714286 V 15.571429 H 3.125 v 1.142857 z M 20,13.285714 v -8 h -1.125 v 8 c 0,1.257143 -1.0125,2.285715 -2.25,2.285715 H 11 l -0.05625,0.171428 C 10.831247,16.085714 10.690622,16.4 10.493748,16.714286 h 6.131249 c 1.85625,0 3.375,-1.542857 3.375,-3.428572 z"
       style="fill:#009fff;fill-opacity:1;stroke-width:0.283474" />
    <path
       inkscape:connector-curvature="0"
       style="fill:#eff0f1;fill-opacity:1;fill-rule:evenodd;stroke-width:0.295796"
       id="path4411-1-6-36-7"
       d="m 8.152041,13.029721 c 2.327799,2.22666 4.483408,2.144766 5.532862,0.874266 1.049447,-1.270493 0.264199,-2.355746 0.264199,-2.355746 z" />
    <path
       inkscape:connector-curvature="0"
       style="color:#000000;fill:#009fff;fill-opacity:1;stroke:#eff0f1;stroke-width:0.887385;stroke-linecap:round;stroke-linejoin:round;stroke-opacity:1"
       id="path4170-2-7-5"
       d="m 5.937304,7.4000867 c -0.499193,0 -0.958453,0.016733 -1.328841,0.2963 v 3.7011003 c 0.370388,0.279594 0.829648,0.447047 1.328841,0.447047 1.22316,0 2.519267,-0.55048 2.519267,-1.77778 0,-1.2273 -1.296107,-2.6666673 -2.519267,-2.6666673 z" />
    <path
       inkscape:connector-curvature="0"
       style="color:#000000;fill:#009fff;fill-opacity:1;stroke:#eff0f1;stroke-width:0.887385;stroke-linecap:round;stroke-linejoin:round;stroke-opacity:1"
       id="path4170-8-9-5-3"
       d="m 13.762713,6.5112 c -0.629718,0.77232 -1.031163,1.7082073 -0.732903,2.6197407 0.417222,1.2751133 1.856559,1.4343663 3.038186,1.0451063 0.124398,-0.041 0.241018,-0.09463 0.352404,-0.155673 V 6.5112 Z" />
    <ellipse
       cx="6.5279036"
       cy="9.6223097"
       style="color:#000000;fill:#1f252f;fill-opacity:1;stroke-width:0.887385;stroke-linecap:round;stroke-linejoin:round"
       id="path4267-1-3-5"
       rx="1.0335443"
       ry="1.037037" />
    <ellipse
       cx="14.205652"
       cy="8.437108"
       style="color:#000000;fill:#1f252f;fill-opacity:1;stroke-width:0.887385;stroke-linecap:round;stroke-linejoin:round"
       id="path4267-9-2-5-6"
       rx="1.0335443"
       ry="1.037037" />
    <path
       inkscape:connector-curvature="0"
       style="fill:#1f252f;fill-opacity:1;fill-rule:evenodd;stroke-width:0.295796"
       id="path4411-7-6-2"
       d="m 8.447342,13.031694 c 1.768882,1.82876 4.099545,1.736433 4.897018,0.692967 0.797471,-1.043454 0.200768,-1.93478 0.200768,-1.93478 z" />
    <path
       inkscape:connector-curvature="0"
       style="fill:#009fff;fill-opacity:1;fill-rule:evenodd;stroke-width:0.295796"
       id="path4284-9-2-9"
       d="m 8.152041,13.029721 c 0,0 0.422777,-1.27968 2.637268,-1.8568 2.214496,-0.577107 3.268049,0.37532 3.268049,0.37532 0.294889,0.861666 -2.558428,2.200486 -2.558428,2.200486 0,0 -3.159302,0.170627 -3.346889,-0.719006 z" />
  </g>
  <g
     id="g1271">
    <rect
       style="opacity:0.00100002"
       width="32"
       height="32"
       x="0"
       y="0"
       id="rect7" />
    <path
       id="Review"
       class="st0"
       d="m 8.428571,15.185714 z m 0,0 z m 0,0 z M 28.014287,7.428571 H 2.3 V 22.857143 H 9.157143 V 28 c 3.085715,0 5.785714,-1.971429 6.771429,-4.885714 l 0.08571,-0.257143 h 9.428572 c 2.357143,0 4.285713,-1.928572 4.285713,-4.285714 V 5.714286 h -1.714285 z"
       sodipodi:nodetypes="cccccccccccccccccccccccccccccccccccccccccccccccccccccccssccc"
       style="clip-rule:evenodd;fill:#eff0f1;fill-opacity:1;fill-rule:evenodd;stroke-width:0.428571" />
    <path
       id="Review-s"
       class="st1"
       d="M 4.014286,7.428571 C 4.014286,5.542857 5.557143,4 7.442857,4 h 5.142857 V 5.714286 H 7.442857 C 6.5,5.714286 5.728571,6.485714 5.728571,7.428571 Z M 9.157143,24.571429 V 22.857143 H 4.014286 v 1.714286 z m 20.571429,-5.142858 v -12 h -1.714285 v 12 c 0,1.885715 -1.542858,3.428572 -3.428572,3.428572 h -8.571428 l -0.08571,0.257143 C 15.757144,23.628571 15.542858,24.1 15.242858,24.571429 h 9.342857 c 2.828572,0 5.142857,-2.314286 5.142857,-5.142858 z"
       style="fill:#009fff;fill-opacity:1;stroke-width:0.428571" />
    <path
       inkscape:connector-curvature="0"
       style="fill:#eff0f1;fill-opacity:1;fill-rule:evenodd;stroke-width:0.447202"
       id="path4411-1-6-36"
       d="m 11.674539,19.044581 c 3.547123,3.33999 6.83186,3.21715 8.431028,1.3114 1.599158,-1.90574 0.40259,-3.53362 0.40259,-3.53362 z" />
    <path
       inkscape:connector-curvature="0"
       style="color:#000000;fill:#009fff;fill-opacity:1;stroke:#eff0f1;stroke-width:1.3416;stroke-linecap:round;stroke-linejoin:round;stroke-opacity:1"
       id="path4170-2-7"
       d="m 8.299703,10.60013 c -0.760675,0 -1.460502,0.0251 -2.024903,0.44445 v 5.551651 c 0.564401,0.41939 1.264228,0.67057 2.024903,0.67057 1.863863,0 3.838882,-0.82572 3.838882,-2.66667 0,-1.84095 -1.975019,-4.000001 -3.838882,-4.000001 z" />
    <path
       inkscape:connector-curvature="0"
       style="color:#000000;fill:#009fff;fill-opacity:1;stroke:#eff0f1;stroke-width:1.3416;stroke-linecap:round;stroke-linejoin:round;stroke-opacity:1"
       id="path4170-8-9-5"
       d="m 20.224135,9.2668 c -0.95957,1.15848 -1.571295,2.562311 -1.116805,3.929611 0.635767,1.91267 2.829043,2.15155 4.629618,1.56766 0.189559,-0.0615 0.367265,-0.14194 0.536994,-0.23351 V 9.2668 Z" />
    <ellipse
       cx="9.1996641"
       cy="13.933464"
       style="color:#000000;fill:#1f252f;fill-opacity:1;stroke-width:1.3416;stroke-linecap:round;stroke-linejoin:round"
       id="path4267-1-3"
       rx="1.5749246"
       ry="1.5555556" />
    <ellipse
       cx="20.899092"
       cy="12.155663"
       style="color:#000000;fill:#1f252f;fill-opacity:1;stroke-width:1.3416;stroke-linecap:round;stroke-linejoin:round"
       id="path4267-9-2-5"
       rx="1.5749246"
       ry="1.5555556" />
    <path
       inkscape:connector-curvature="0"
       style="fill:#1f252f;fill-opacity:1;fill-rule:evenodd;stroke-width:0.447202"
       id="path4411-7-6"
       d="m 12.124522,19.047541 c 2.69544,2.74314 6.246927,2.60465 7.462123,1.03945 1.215194,-1.56518 0.305932,-2.90217 0.305932,-2.90217 z" />
    <path
       inkscape:connector-curvature="0"
       style="fill:#009fff;fill-opacity:1;fill-rule:evenodd;stroke-width:0.447202"
       id="path4284-9-2"
       d="m 11.674539,19.044581 c 0,0 0.644233,-1.91952 4.018693,-2.7852 3.374471,-0.86566 4.979884,0.56298 4.979884,0.56298 0.449357,1.2925 -3.898555,3.30073 -3.898555,3.30073 0,0 -4.814176,0.25594 -5.100022,-1.07851 z" />
  </g>
  <metadata
     id="metadata18">
    <rdf:RDF>
      <cc:Work
         rdf:about="">
        <dc:format>image/svg+xml</dc:format>
        <dc:type
           rdf:resource="http://purl.org/dc/dcmitype/StillImage" />
      </cc:Work>
    </rdf:RDF>
  </metadata>
  <defs
     id="defs16" />
  <sodipodi:namedview
     pagecolor="#ffffff"
     bordercolor="#000000"
     borderopacity="1"
     objecttolerance="10"
     gridtolerance="10"
     guidetolerance="10"
     inkscape:pageopacity="0"
     inkscape:pageshadow="2"
     inkscape:window-width="1920"
     inkscape:window-height="1007"
     id="namedview14"
     showgrid="false"
     inkscape:zoom="9.8125003"
     inkscape:cx="19.464968"
     inkscape:cy="19.872611"
     inkscape:window-x="0"
     inkscape:window-y="0"
     inkscape:window-maximized="1"
     inkscape:current-layer="svg12"
     inkscape:document-rotation="0"
     inkscape:lockguides="true"
     inkscape:showpageshadow="false"
     inkscape:pagecheckerboard="0">
    <inkscape:grid
       type="xygrid"
       id="grid941"
       originx="0"
       originy="0" />
  </sodipodi:namedview>
</svg>
