<?xml version="1.0" encoding="UTF-8" standalone="no"?>
<svg
   id="svg2"
   width="22"
   height="22"
   version="1.1"
   sodipodi:docname="configure.svg"
   inkscape:version="1.1.1 (3bf5ae0d25, 2021-09-20)"
   xmlns:inkscape="http://www.inkscape.org/namespaces/inkscape"
   xmlns:sodipodi="http://sodipodi.sourceforge.net/DTD/sodipodi-0.dtd"
   xmlns="http://www.w3.org/2000/svg"
   xmlns:svg="http://www.w3.org/2000/svg"
   xmlns:rdf="http://www.w3.org/1999/02/22-rdf-syntax-ns#"
   xmlns:cc="http://creativecommons.org/ns#"
   xmlns:dc="http://purl.org/dc/elements/1.1/">
  <metadata
     id="metadata13">
    <rdf:RDF>
      <cc:Work
         rdf:about="">
        <dc:format>image/svg+xml</dc:format>
        <dc:type
           rdf:resource="http://purl.org/dc/dcmitype/StillImage" />
      </cc:Work>
    </rdf:RDF>
  </metadata>
  <defs
     id="defs11" />
  <sodipodi:namedview
     pagecolor="#ffffff"
     bordercolor="#666666"
     borderopacity="1"
     objecttolerance="10"
     gridtolerance="10"
     guidetolerance="10"
     inkscape:pageopacity="0"
     inkscape:pageshadow="2"
     inkscape:window-width="1920"
     inkscape:window-height="1007"
     id="namedview9"
     showgrid="false"
     inkscape:zoom="14.272727"
     inkscape:cx="-7.356688"
     inkscape:cy="11.700637"
     inkscape:window-x="0"
     inkscape:window-y="0"
     inkscape:window-maximized="1"
     inkscape:current-layer="svg2"
     inkscape:document-rotation="0"
     inkscape:pagecheckerboard="0">
    <inkscape:grid
       type="xygrid"
       id="grid855"
       originx="0"
       originy="0" />
  </sodipodi:namedview>
  <g
     id="configure">
    <rect
       id="rect856"
       style="opacity:0.00100002"
       width="22"
       height="22"
       x="0"
       y="0" />
    <path
       id="Adjust"
       class="st0"
       d="m 10.993,17.285714 v -1.142857 h 1.770496 c 0.252929,-1 1.124125,-1.714286 2.163942,-1.714286 1.236537,0 2.248249,1.028572 2.248249,2.285715 C 17.175687,17.971429 16.163975,19 14.927438,19 13.887621,19 12.988322,18.285714 12.763496,17.285714 Z M 10.515247,5.8571429 c 0.252928,1 1.124125,1.7142857 2.163941,1.7142857 1.236537,0 2.24825,-1.0285715 2.24825,-2.2857143 C 14.927438,4.0285714 13.915725,3 12.679188,3 11.639372,3 10.740071,3.7142857 10.515247,4.7142857 H 8.7447501 V 5.8571429 Z M 9.3068126,11 c 0,-1.257143 -1.0117125,-2.2857143 -2.2482501,-2.2857143 -1.0398157,0 -1.9391152,0.7142853 -2.1639406,1.7142853 h -1.770497 v 1.142858 h 1.770497 c 0.2529281,1 1.1241249,1.714285 2.1639406,1.714285 1.2365376,0 2.2482501,-1.028571 2.2482501,-2.285714 z"
       style="fill:#009fff;fill-opacity:1;stroke-width:0.283363" />
    <path
       id="Adjust-s"
       class="st1"
       d="m 18.861875,7 c 0,-0.6285714 -0.505856,-1.1428571 -1.124125,-1.1428571 h -2.894621 c 0.05621,-0.1714286 0.0843,-0.3714286 0.0843,-0.5714286 0,-0.2 -0.02809,-0.4 -0.0843,-0.5714286 H 17.73775 C 18.974288,4.7142857 19.986,5.7428571 19.986,7 Z M 9.2225031,11.571429 H 19.986 V 10.428571 H 9.2225031 C 9.2787101,10.6 9.3068121,10.8 9.3068121,11 c 0,0.2 -0.028103,0.4 -0.084309,0.571429 z M 19.986,16.142857 h -2.894621 c 0.05621,0.171429 0.0843,0.371429 0.0843,0.571429 0,0.2 -0.02809,0.4 -0.0843,0.571428 H 19.986 Z M 2,17.285714 h 9.555063 V 16.142857 H 2 Z M 2,5.8571429 H 9.3068126 V 4.7142857 H 2 Z M 2,11.571429 H 3.6861878 V 10.428571 H 2 Z m 12.927438,6.285714 c -0.618269,0 -1.124125,-0.514286 -1.124125,-1.142857 v -0.571429 h -1.124125 v 0.571429 C 12.679188,17.971429 13.6909,19 14.927438,19 Z M 7.0585625,12.142857 C 6.4402941,12.142857 5.9344376,11.628571 5.9344376,11 V 10.428571 H 4.8103127 V 11 c 0,1.257143 1.0117121,2.285714 2.2482498,2.285714 z M 11.555063,4.7142857 h -1.124125 v 0.5714286 c 0,1.2571428 1.011712,2.2857143 2.24825,2.2857143 V 6.4285714 c -0.618269,0 -1.124125,-0.5142857 -1.124125,-1.1428571 z"
       style="fill:#eff0f1;fill-opacity:1;stroke-width:0.283363" />
  </g>
  <g
     id="22-22-configure"
     transform="translate(-16,6)">
    <rect
       id="rect817"
       style="opacity:0.00100002"
       width="16"
       height="16"
       x="0"
       y="0" />
    <path
       id="Adjust-3"
       class="st0"
       d="m 8.04475,12.714285 v -0.857143 h 1.327872 c 0.1896967,-0.75 0.843094,-1.285714 1.622956,-1.285714 0.927403,0 1.686187,0.771429 1.686187,1.714286 C 12.681765,13.228571 11.922981,14 10.995578,14 10.215716,14 9.5412415,13.464285 9.372622,12.714285 Z M 7.686435,4.1428572 c 0.189696,0.75 0.843094,1.2857143 1.622956,1.2857143 0.927403,0 1.686187,-0.7714287 1.686187,-1.7142858 C 10.995578,2.7714285 10.236794,2 9.309391,2 8.529529,2 7.855053,2.5357143 7.686435,3.2857143 H 6.358563 V 4.1428572 Z M 6.780109,8 c 0,-0.9428573 -0.758784,-1.7142857 -1.686187,-1.7142857 -0.779862,0 -1.454337,0.535714 -1.622955,1.2857139 H 2.143094 V 8.4285717 H 3.470967 C 3.660663,9.1785718 4.31406,9.7142855 5.093922,9.7142855 6.021325,9.7142855 6.780109,8.9428573 6.780109,8 Z"
       style="fill:#009fff;fill-opacity:1;stroke-width:0.212522" />
    <path
       id="Adjust-s-6"
       class="st1"
       d="m 13.946406,5 c 0,-0.4714286 -0.379392,-0.8571428 -0.843093,-0.8571428 h -2.170966 c 0.04216,-0.1285715 0.06322,-0.2785715 0.06322,-0.4285715 0,-0.15 -0.02107,-0.3 -0.06322,-0.4285714 h 2.170966 C 14.030716,3.2857143 14.7895,4.0571428 14.7895,5 Z M 6.716877,8.4285717 H 14.7895 V 7.5714282 H 6.716877 C 6.759033,7.7 6.780109,7.85 6.780109,8 c 0,0.15 -0.02108,0.3 -0.06323,0.4285717 z M 14.7895,11.857143 h -2.170966 c 0.04216,0.128572 0.06322,0.278572 0.06322,0.428572 0,0.15 -0.02107,0.3 -0.06322,0.428571 H 14.7895 Z M 1.3,12.714285 H 8.4662972 V 11.857143 H 1.3 Z m 0,-8.5714278 H 6.780109 V 3.2857143 H 1.3 Z m 0,4.2857146 H 2.564641 V 7.5714282 H 1.3 Z m 9.695578,4.7142862 c -0.463701,0 -0.843093,-0.385715 -0.843093,-0.857144 V 11.857143 H 9.309391 v 0.428572 c 0,0.942857 0.758784,1.714286 1.686187,1.714286 z M 5.093922,8.8571427 C 4.63022,8.8571427 4.250828,8.4714282 4.250828,8 V 7.5714282 H 3.407735 V 8 c 0,0.9428572 0.758784,1.7142855 1.686187,1.7142855 z M 8.4662972,3.2857143 H 7.623203 v 0.4285714 c 0,0.9428571 0.7587845,1.7142858 1.686188,1.7142858 v -0.857143 c -0.4637018,0 -0.8430938,-0.3857142 -0.8430938,-0.8571428 z"
       style="fill:#eff0f1;fill-opacity:1;stroke-width:0.212522" />
  </g>
</svg>
