<?xml version="1.0" encoding="UTF-8" standalone="no"?>
<svg
   id="svg2"
   width="22"
   height="22"
   version="1.1"
   sodipodi:docname="configure.svg"
   inkscape:version="1.1.2 (0a00cf5339, 2022-02-04)"
   xmlns:inkscape="http://www.inkscape.org/namespaces/inkscape"
   xmlns:sodipodi="http://sodipodi.sourceforge.net/DTD/sodipodi-0.dtd"
   xmlns="http://www.w3.org/2000/svg"
   xmlns:svg="http://www.w3.org/2000/svg"
   xmlns:rdf="http://www.w3.org/1999/02/22-rdf-syntax-ns#"
   xmlns:cc="http://creativecommons.org/ns#"
   xmlns:dc="http://purl.org/dc/elements/1.1/">
  <metadata
     id="metadata13">
    <rdf:RDF>
      <cc:Work
         rdf:about="">
        <dc:format>image/svg+xml</dc:format>
        <dc:type
           rdf:resource="http://purl.org/dc/dcmitype/StillImage" />
      </cc:Work>
    </rdf:RDF>
  </metadata>
  <defs
     id="defs11" />
  <sodipodi:namedview
     pagecolor="#ffffff"
     bordercolor="#666666"
     borderopacity="1"
     objecttolerance="10"
     gridtolerance="10"
     guidetolerance="10"
     inkscape:pageopacity="0"
     inkscape:pageshadow="2"
     inkscape:window-width="1920"
     inkscape:window-height="1009"
     id="namedview9"
     showgrid="false"
     inkscape:zoom="14.272727"
     inkscape:cx="1.0859873"
     inkscape:cy="8.3375798"
     inkscape:window-x="0"
     inkscape:window-y="0"
     inkscape:window-maximized="1"
     inkscape:current-layer="svg2"
     inkscape:document-rotation="0"
     inkscape:pagecheckerboard="0"
     inkscape:lockguides="true"
     showguides="false">
    <inkscape:grid
       type="xygrid"
       id="grid855"
       originx="0"
       originy="0" />
  </sodipodi:namedview>
  <g
     id="configure">
    <rect
       id="rect856"
       style="opacity:0.00100002"
       width="22"
       height="22"
       x="0"
       y="0" />
    <path
       id="Adjust"
       class="st0"
       d="m 10.993,17 v -1 h 1.770496 c -0.03712,-1 1.124125,-1.971429 2.163942,-1.971429 1.236537,0 2.248249,1.028572 2.248249,2.285715 0,1.257143 -1.011712,2.285714 -2.248249,2.285714 -1.039817,0 -1.939116,-0.6 -2.163942,-1.6 z M 10.515247,5 c -0.09136,1 1.124125,1.971 2.163941,1.971 C 13.915725,6.971 14.927,6.1428571 14.927,4.8857143 14.927,3.6285714 14.015537,2.6 12.779,2.6 11.739184,2.6 11.069,3 10.6,4 H 8.7447501 v 1 z m -1.2084344,5.6 c 0,-1.257143 -1.0117125,-2.2857143 -2.2482501,-2.2857143 -1.0398157,0 -1.9391152,0.7142853 -2.1639406,1.7142853 H 3.1241249 V 11 h 1.770497 C 5,12 6.0187468,12.885714 7.0585625,12.885714 c 1.2365376,0 2.2482501,-1.028571 2.2482501,-2.285714 z"
       style="fill:#009fff;fill-opacity:1;stroke-width:0.283363"
       sodipodi:nodetypes="cccssscccsssccccssccccss" />
    <path
       id="Adjust-s"
       class="st1"
       d="m 19.062,6 c 0,-0.6285714 -0.405731,-1 -1.024,-1 H 14.843129 C 14.899339,4.8285714 14.910483,4.6188905 14.9,4.486 14.886729,4.3177712 14.898782,4.169924 14.8,4 h 2.93775 C 18.974288,4 19.986,4.7428571 19.986,6 Z M 9.2225031,11 H 19.986 V 10.028571 H 9.2225031 C 9.2787101,10.2 9.3068121,10.4 9.3068121,10.6 c 0,0.2 -0.028103,0.228571 -0.084309,0.4 z M 19.986,16 h -2.895 c 0.05621,0.171429 0.08468,0.214 0.08468,0.414 0,0.2 -0.02809,0.300286 -0.0843,0.471714 H 19.986 Z M 2,17 h 9.555063 V 16 H 2 Z M 2,5 H 9.3068126 V 4 H 2 Z m 0,6 H 3.6861878 V 10.028571 H 2 Z m 12.927438,6.657 C 14.309169,17.657 13.703,16.942857 13.703,16.314286 V 16 h -1.023812 v 0.314286 c 0,1.257143 1.011712,2.285714 2.24825,2.285714 z M 7.0585625,11.742857 C 6.4402941,11.742857 5.9344376,11.228571 5.9344376,10.6 V 10.028571 H 4.8103127 V 10.6 c 0,1.257143 1.0117121,2.285714 2.2482498,2.285714 z M 11.355,4 H 10.5 v 1 c 0,1.0004804 0.94265,1.971 2.179188,1.971 V 6.229 C 12.060919,6.229 11.355,5.6970145 11.355,5 Z"
       style="fill:#eff0f1;fill-opacity:1;stroke-width:0.283363"
       sodipodi:nodetypes="cscscsccccccscccscccccccccccccccccccsccscccsccsccccsccsc" />
  </g>
  <g
     id="22-22-configure">
    <rect
       id="rect817"
       style="opacity:0.00100002"
       width="16"
       height="16"
       x="-16"
       y="6" />
    <path
       id="Adjust-8"
       class="st0"
       d="m -8.0002801,19 v -1 h 1.3780615 c -0.028893,-0.774999 0.8749636,-1.442855 1.6843016,-1.442855 0.962454,0 1.749917,0.79714 1.749917,1.771423 C -3.188,19.302854 -3.975463,20 -4.937917,20 -5.747255,20 -6.6222186,19 -6.6222186,19 Z m -0.371858,-9 c 0.1968658,0.775 0.8749601,1.242857 1.6842987,1.242857 0.9624544,0 1.7499224,-0.797142 1.7499224,-1.7714283 C -4.937917,8.4971425 -5.725385,7.7 -6.6878394,7.7 c -0.8093386,0 -1.5095,0.5750001 -1.6844907,1.35 H -9.7502 V 10 Z m -0.9405815,3.9 c 0,-0.974285 -0.7874644,-1.771429 -1.7499204,-1.771429 -0.809338,0 -1.509306,0.496429 -1.684298,1.271429 H -14.125 V 14 h 1.378062 c 0.196866,0.775 0.87496,1.671428 1.684298,1.671428 0.962456,0 1.7499204,-0.797143 1.7499204,-1.771428 z"
       style="fill:#009fff;fill-opacity:1;stroke-width:0.22008"
       sodipodi:nodetypes="cccssscccsssccccssccccss" />
    <path
       id="Adjust-s-7"
       class="st1"
       d="m -1.875001,10.595 c 0,-0.487143 -0.393752,-0.595 -0.875001,-0.595 h -2.253122 c 0.04375,-0.1328574 0.06563,-0.4235713 0.06563,-0.5785713 0,-0.1549999 -0.02186,-0.2885711 -0.06563,-0.4214287 h 2.253122 C -1.787505,9 -1,9.6207146 -1,10.595 Z M -9.278,14 H -1 V 13.407142 H -9.378126 C -9.334376,13.54 -9.312501,13.695 -9.312501,13.85 c 0,0.155 0.078251,0.01714 0.034501,0.15 z M -1,18 h -2.25342 c 0.04375,0.132855 0.06592,0.200853 0.06592,0.355847 0,0.155 -0.02189,0.511292 -0.06564,0.644153 h 2.25312 z m -14,1 h 7.437499 V 18 H -15 Z m 0,-9 h 5.6874991 V 9.0449999 L -15,9 Z m 0,4 h 1.3125 V 13.407142 H -15 Z m 10.062501,5.164284 c -0.481253,0 -0.875,-0.398569 -0.875,-0.885716 V 18.035 h -0.8750021 v 0.243568 c 0,0.974286 0.7874991,1.771432 1.7500021,1.771432 z m -6.125001,-4.42857 c -0.48125,0 -0.875001,-0.398572 -0.875001,-0.885714 v -0.442858 h -0.874998 V 13.85 c 0,0.974285 0.787499,1.771428 1.749999,1.771428 z M -7.5625011,9.0449999 -8.4374527,9 -8.437501,9.4214287 c -1.117e-4,0.9742863 0.7874994,1.7714283 1.7499999,1.7714283 v -0.885714 c -0.4812502,0 -0.8749999,-0.3985708 -0.8749999,-0.8857143 z"
       style="fill:#eff0f1;fill-opacity:1;stroke-width:0.220085"
       sodipodi:nodetypes="cscscsccccccscccscccccccccccccccccccsccscccsccsccccsccsc" />
  </g>
</svg>
