<?xml version="1.0" encoding="UTF-8" standalone="no"?>
<svg
   width="32"
   height="32"
   version="1.1"
   id="svg12"
   sodipodi:docname="drive.svg"
   inkscape:version="1.1.1 (3bf5ae0d25, 2021-09-20)"
   xmlns:inkscape="http://www.inkscape.org/namespaces/inkscape"
   xmlns:sodipodi="http://sodipodi.sourceforge.net/DTD/sodipodi-0.dtd"
   xmlns="http://www.w3.org/2000/svg"
   xmlns:svg="http://www.w3.org/2000/svg"
   xmlns:rdf="http://www.w3.org/1999/02/22-rdf-syntax-ns#"
   xmlns:cc="http://creativecommons.org/ns#"
   xmlns:dc="http://purl.org/dc/elements/1.1/">
  <g
     id="22-22-drive-harddisk"
     transform="translate(32,10.000001)">
    <rect
       style="opacity:0.00100002"
       width="22"
       height="22"
       x="0"
       y="0"
       id="rect2" />
    <path
       id="Save-3"
       class="st0"
       d="M 15.223815,10.333333 H 5.795238 v 6.380953 h 9.428577 z M 7.890482,3 H 3.7 v 14.857143 h 12.047617 c 1.440482,0 2.61905,-1.285714 2.61905,-2.857143 V 3 h -3.142852 -1.04763 V 7.571429 H 7.890482 Z"
       style="clip-rule:evenodd;fill:#eff0f1;fill-opacity:1;fill-rule:evenodd;stroke-width:0.273551"
       sodipodi:nodetypes="ccccccccsscccccc" />
    <path
       id="Save-s-6"
       class="st1"
       d="m 13.128567,3 v 3.4285714 h -4.0379 V 3 Z m 4.190482,4.571429 v 8 c 0,1.257142 -0.942864,2.285714 -2.095234,2.285714 H 4.747619 V 19 h 10.476196 c 1.728568,0 3.142852,-1.542857 3.142852,-3.428571 v -8 z"
       style="fill:#009fff;fill-opacity:1;stroke-width:0.273551"
       sodipodi:nodetypes="ccccccssccsscc" />
    <path
       d="m 10.502523,13.044444 a 1.303704,1.303704 0 1 0 1.3037,1.303705 1.303704,1.303704 0 0 0 -1.3037,-1.303705 z m 0,1.955556 A 0.65185202,0.65185202 0 1 1 11.15437,14.348149 0.65185202,0.65185202 0 0 1 10.502523,15 Z"
       id="path6-36-3-7"
       style="fill:#eff0f1;fill-opacity:1;stroke-width:0.325923" />
    <path
       d="m 10.523171,16.185283 c -1.042077,0 -1.889838,-0.847757 -1.889838,-1.889835 0,-0.375117 0.111185,-0.737283 0.317324,-1.045777 H 8.775695 c -0.07858,0 -0.142362,-0.06378 -0.142362,-0.142362 v -2.027077 c 0,-0.07858 0.06377,-0.142355 0.142362,-0.142355 h 3.494662 c 0.07873,0 0.14236,0.06378 0.14236,0.142355 v 2.026932 c 0,0.07858 -0.06363,0.142362 -0.14236,0.142362 h -0.17496 c 0.206143,0.308639 0.31732,0.670805 0.31732,1.045783 0,1.042217 -0.847607,1.889974 -1.889546,1.889974 z M 8.918056,12.964802 h 0.326295 c 0.05666,0 0.107896,0.03359 0.130535,0.08557 0.02263,0.05195 0.01225,0.112317 -0.02633,0.153885 -0.277601,0.298535 -0.430496,0.686036 -0.430496,1.091195 0,0.885055 0.720054,1.605117 1.605112,1.605117 0.884919,0 1.604832,-0.720202 1.604832,-1.605117 0,-0.404872 -0.152893,-0.792382 -0.430358,-1.091333 -0.03861,-0.04156 -0.04883,-0.101936 -0.02634,-0.153747 0.02263,-0.05195 0.07402,-0.08557 0.13054,-0.08557 H 12.128 V 11.222593 H 8.918081 Z"
       id="path4-7-6-5"
       style="fill:#eff0f1;fill-opacity:1;stroke-width:0.142356" />
    <path
       d="m 10.561741,11.549444 c -0.260971,0 -0.473324,0.212301 -0.473324,0.473326 0,0.108501 0.03799,0.214702 0.106923,0.299026 l 0.0112,0.01751 0.355177,0.903728 0.361777,-0.915652 0.0054,-0.0061 c 0.0686,-0.08393 0.106425,-0.189952 0.106425,-0.298452 2.6e-5,-0.261049 -0.212322,-0.47335 -0.473275,-0.47335 z m 0,0.725778 c -0.139218,0 -0.252497,-0.113276 -0.252497,-0.252477 0,-0.13925 0.113252,-0.252524 0.252497,-0.252524 0.1392,0 0.252474,0.113274 0.252474,0.252524 0,0.139226 -0.113274,0.252478 -0.252474,0.252477 z"
       id="path4-6-3-7-3"
       style="fill:#eff0f1;fill-opacity:1;stroke-width:0.0249999" />
  </g>
  <metadata
     id="metadata18">
    <rdf:RDF>
      <cc:Work
         rdf:about="">
        <dc:format>image/svg+xml</dc:format>
        <dc:type
           rdf:resource="http://purl.org/dc/dcmitype/StillImage" />
      </cc:Work>
    </rdf:RDF>
  </metadata>
  <defs
     id="defs16" />
  <sodipodi:namedview
     pagecolor="#ffffff"
     bordercolor="#000000"
     borderopacity="1"
     objecttolerance="10"
     gridtolerance="10"
     guidetolerance="10"
     inkscape:pageopacity="0"
     inkscape:pageshadow="2"
     inkscape:window-width="1920"
     inkscape:window-height="1007"
     id="namedview14"
     showgrid="false"
     inkscape:zoom="11.313709"
     inkscape:cx="33.764347"
     inkscape:cy="12.904698"
     inkscape:window-x="0"
     inkscape:window-y="0"
     inkscape:window-maximized="1"
     inkscape:current-layer="svg12"
     inkscape:document-rotation="0"
     inkscape:lockguides="false"
     inkscape:showpageshadow="false"
     inkscape:pagecheckerboard="0">
    <inkscape:grid
       type="xygrid"
       id="grid875"
       originx="0"
       originy="-4.6325681e-08" />
  </sodipodi:namedview>
  <g
     id="drive-harddisk">
    <rect
       style="opacity:0.00100002"
       width="32"
       height="32"
       x="0"
       y="4.6325681e-08"
       id="rect7" />
    <path
       id="Save"
       class="st0"
       d="M 22.285723,15 H 8.1428574 v 9.571429 H 22.285723 Z m -11,-11 H 5 V 26.285714 H 23.071426 C 25.232149,26.285714 27,24.357143 27,22 V 4 h -4.714277 -1.571446 v 6.857143 h -9.428554 z"
       style="clip-rule:evenodd;fill:#eff0f1;fill-opacity:1;fill-rule:evenodd;stroke-width:0.410327"
       sodipodi:nodetypes="ccccccccsscccccc" />
    <path
       id="Save-s"
       class="st1"
       d="M 19.142851,4 V 9.142857 H 13.086 V 4 Z m 6.285723,6.857143 v 12 c 0,1.885714 -1.414297,3.428571 -3.142851,3.428571 H 6.5714277 V 28 H 22.285723 C 24.878574,28 27,25.685714 27,22.857143 v -12 z"
       style="fill:#009fff;fill-opacity:1;stroke-width:0.410327"
       sodipodi:nodetypes="ccccccssccsscc" />
    <path
       d="m 15.203784,19.066666 a 1.955556,1.955556 0 1 0 1.955551,1.955557 1.955556,1.955556 0 0 0 -1.955551,-1.955557 z m 0,2.933334 A 0.97777803,0.97777803 0 1 1 16.181555,21.022223 0.97777803,0.97777803 0 0 1 15.203784,22 Z"
       id="path6-36-3"
       style="fill:#eff0f1;fill-opacity:1;stroke-width:0.488884" />
    <path
       d="m 15.234757,23.777924 c -1.563116,0 -2.834757,-1.271635 -2.834757,-2.834752 0,-0.562675 0.166777,-1.105924 0.475986,-1.568666 H 12.613542 C 12.495668,19.374506 12.4,19.278836 12.4,19.160964 v -3.040616 c 0,-0.117866 0.09566,-0.213533 0.213542,-0.213533 h 5.241993 c 0.1181,0 0.213541,0.09567 0.213541,0.213533 v 3.040398 c 0,0.117873 -0.09544,0.213543 -0.213541,0.213543 h -0.262439 c 0.309214,0.462959 0.47598,1.006208 0.47598,1.568674 0,1.563326 -1.271411,2.834961 -2.834319,2.834961 z m -2.407673,-4.830721 h 0.489443 c 0.08499,0 0.161843,0.05039 0.195802,0.128349 0.03395,0.07793 0.01838,0.168476 -0.0395,0.230827 -0.416401,0.447803 -0.645744,1.029054 -0.645744,1.636793 0,1.327582 1.080082,2.407675 2.407669,2.407675 1.327378,0 2.407247,-1.080303 2.407247,-2.407675 0,-0.607308 -0.229339,-1.188573 -0.645537,-1.637 -0.05791,-0.06234 -0.07325,-0.152903 -0.03951,-0.23062 0.03394,-0.07793 0.111034,-0.128349 0.195811,-0.128349 h 0.489231 V 16.33389 h -4.814879 z"
       id="path4-7-6"
       style="fill:#eff0f1;fill-opacity:1;stroke-width:0.213534" />
    <path
       d="m 15.292611,16.824166 c -0.391456,0 -0.709985,0.318452 -0.709985,0.709989 0,0.162751 0.05699,0.322053 0.160384,0.448539 l 0.0168,0.02626 0.532766,1.355592 0.542665,-1.373478 0.0081,-0.0092 c 0.102903,-0.12589 0.159638,-0.284928 0.159638,-0.447678 3.8e-5,-0.391574 -0.318484,-0.710026 -0.709913,-0.710026 z m 0,1.088667 c -0.208827,0 -0.378745,-0.169914 -0.378745,-0.378715 0,-0.208876 0.169878,-0.378787 0.378745,-0.378787 0.2088,0 0.378712,0.169911 0.378712,0.378787 0,0.208838 -0.169912,0.378716 -0.378712,0.378715 z"
       id="path4-6-3-7"
       style="fill:#eff0f1;fill-opacity:1;stroke-width:0.0374999" />
  </g>
</svg>
