<?xml version="1.0" encoding="UTF-8" standalone="no"?>
<svg
   width="32"
   height="32"
   version="1"
   id="svg12"
   sodipodi:docname="juk.svg"
   inkscape:version="1.1.1 (3bf5ae0d25, 2021-09-20)"
   xmlns:inkscape="http://www.inkscape.org/namespaces/inkscape"
   xmlns:sodipodi="http://sodipodi.sourceforge.net/DTD/sodipodi-0.dtd"
   xmlns:xlink="http://www.w3.org/1999/xlink"
   xmlns="http://www.w3.org/2000/svg"
   xmlns:svg="http://www.w3.org/2000/svg"
   xmlns:rdf="http://www.w3.org/1999/02/22-rdf-syntax-ns#"
   xmlns:cc="http://creativecommons.org/ns#"
   xmlns:dc="http://purl.org/dc/elements/1.1/">
  <metadata
     id="metadata18">
    <rdf:RDF>
      <cc:Work
         rdf:about="">
        <dc:format>image/svg+xml</dc:format>
        <dc:type
           rdf:resource="http://purl.org/dc/dcmitype/StillImage" />
      </cc:Work>
    </rdf:RDF>
  </metadata>
  <defs
     id="defs16">
    <linearGradient
       inkscape:collect="always"
       id="linearGradient889">
      <stop
         style="stop-color:#009fff;stop-opacity:1"
         offset="0"
         id="stop885" />
      <stop
         style="stop-color:#009fff;stop-opacity:1"
         offset="0.33070672"
         id="stop1085" />
      <stop
         style="stop-color:#eff0f1;stop-opacity:1"
         offset="0.35615635"
         id="stop1215" />
      <stop
         style="stop-color:#eff0f1;stop-opacity:1"
         offset="1"
         id="stop887" />
    </linearGradient>
    <linearGradient
       inkscape:collect="always"
       xlink:href="#linearGradient889"
       id="linearGradient891"
       x1="7.4"
       y1="16.000002"
       x2="24.543525"
       y2="16.000002"
       gradientUnits="userSpaceOnUse" />
    <linearGradient
       inkscape:collect="always"
       xlink:href="#linearGradient889"
       id="linearGradient1165"
       x1="5.3000002"
       y1="11.000002"
       x2="16.729034"
       y2="11.000002"
       gradientUnits="userSpaceOnUse" />
  </defs>
  <sodipodi:namedview
     pagecolor="#ffffff"
     bordercolor="#000000"
     borderopacity="1"
     objecttolerance="10"
     gridtolerance="10"
     guidetolerance="10"
     inkscape:pageopacity="0"
     inkscape:pageshadow="2"
     inkscape:window-width="1920"
     inkscape:window-height="1007"
     id="namedview14"
     showgrid="false"
     inkscape:zoom="9.8125"
     inkscape:cx="30.573248"
     inkscape:cy="25.375796"
     inkscape:window-x="0"
     inkscape:window-y="0"
     inkscape:window-maximized="1"
     inkscape:current-layer="svg12"
     inkscape:document-rotation="0"
     inkscape:showpageshadow="false"
     inkscape:lockguides="false"
     inkscape:pagecheckerboard="0">
    <inkscape:grid
       type="xygrid"
       id="grid865"
       originx="0"
       originy="0" />
  </sodipodi:namedview>
  <g
     id="juk">
    <rect
       style="opacity:0.00100002"
       width="32"
       height="32"
       x="0"
       y="0"
       id="rect7" />
    <path
       d="M 8.5434794,8.5716244 11.972332,5.1427785 V 19.478788 c 0,-2.037878 1.963129,-4.049482 4.000768,-4.049482 2.037203,0 4.000317,2.012293 4.000317,4.049482 0,2.037176 -1.963114,3.951159 -4.000317,3.951159 -2.037639,0 -4.000768,-1.914437 -4.000768,-3.951159 m 3.409855,-7.455004 c 3.197645,-0.254794 6.197754,1.571433 7.439809,4.528935 1.242162,2.957504 0.445837,6.378225 -1.974791,8.483072 -2.420618,2.104853 -5.918739,2.418374 -8.675195,0.777579 C 9.4156774,24.172562 8.0236774,20.947944 8.7200664,17.816616"
       style="fill:none;stroke:url(#linearGradient891);stroke-width:2.28588;stroke-linecap:round;stroke-linejoin:round;stroke-miterlimit:10;stroke-opacity:1"
       id="path2" />
  </g>
  <g
     id="22-22-juk"
     transform="translate(32,10)">
    <rect
       style="opacity:0.00100002"
       width="22"
       height="22"
       x="0"
       y="0"
       id="rect2" />
    <path
       d="m 6.0623503,6.0477739 2.285897,-2.2858866 v 9.5572957 c 0,-1.35858 1.308748,-2.699642 2.6671607,-2.699642 1.358129,0 2.666873,1.341522 2.666873,2.699642 0,1.358112 -1.308744,2.634095 -2.666873,2.634095 -1.3584127,0 -2.6671607,-1.276287 -2.6671607,-2.634095 M 10.621476,8.3492029 c 2.131745,-0.1698619 4.131816,1.0476167 4.959843,3.0192761 0.8281,1.97166 0.297218,4.252127 -1.316522,5.655357 -1.613731,1.403226 -3.94581,1.612237 -5.7834307,0.518379 -1.837553,-1.093866 -2.765547,-3.243598 -2.301286,-5.331141"
       style="fill:none;stroke:url(#linearGradient1165);stroke-width:1.52399;stroke-linecap:round;stroke-linejoin:round;stroke-miterlimit:10;stroke-opacity:1"
       id="path2-3" />
  </g>
</svg>
