<?xml version="1.0" encoding="UTF-8" standalone="no"?>
<svg
   width="32"
   height="32"
   version="1"
   id="svg12"
   sodipodi:docname="klipper.svg"
   inkscape:version="1.1.1 (3bf5ae0d25, 2021-09-20)"
   xmlns:inkscape="http://www.inkscape.org/namespaces/inkscape"
   xmlns:sodipodi="http://sodipodi.sourceforge.net/DTD/sodipodi-0.dtd"
   xmlns="http://www.w3.org/2000/svg"
   xmlns:svg="http://www.w3.org/2000/svg"
   xmlns:rdf="http://www.w3.org/1999/02/22-rdf-syntax-ns#"
   xmlns:cc="http://creativecommons.org/ns#"
   xmlns:dc="http://purl.org/dc/elements/1.1/">
  <metadata
     id="metadata18">
    <rdf:RDF>
      <cc:Work
         rdf:about="">
        <dc:format>image/svg+xml</dc:format>
        <dc:type
           rdf:resource="http://purl.org/dc/dcmitype/StillImage" />
      </cc:Work>
    </rdf:RDF>
  </metadata>
  <defs
     id="defs16" />
  <sodipodi:namedview
     pagecolor="#ffffff"
     bordercolor="#000000"
     borderopacity="1"
     objecttolerance="10"
     gridtolerance="10"
     guidetolerance="10"
     inkscape:pageopacity="0"
     inkscape:pageshadow="2"
     inkscape:window-width="1920"
     inkscape:window-height="1007"
     id="namedview14"
     showgrid="false"
     inkscape:zoom="10.483688"
     inkscape:cx="32.335949"
     inkscape:cy="21.080368"
     inkscape:window-x="0"
     inkscape:window-y="0"
     inkscape:window-maximized="1"
     inkscape:current-layer="svg12"
     inkscape:document-rotation="0"
     inkscape:lockguides="true"
     showguides="true"
     inkscape:showpageshadow="false"
     inkscape:pagecheckerboard="0">
    <inkscape:grid
       type="xygrid"
       id="grid855"
       originx="0"
       originy="0" />
  </sodipodi:namedview>
  <g
     id="klipper">
    <rect
       style="opacity:0.00100002"
       width="32"
       height="32"
       x="0"
       y="0"
       id="rect7" />
    <path
       id="Clipboard"
       class="st0"
       d="m 10,22 h 2.25 v 2.25 H 10 Z m 2.25,-4.5 H 10 v 2.25 h 2.25 z m 9,4.5 H 14.5 v 1.5 h 6.75 z M 14.5,17.5 h 6.75 V 19 H 14.5 Z M 16,13 h 5.25 v 1.5 H 16 Z m -1.575,-0.45 -3.15,3.15 -2.025,-2.025 1.05,-1.05 0.975,0.975 2.1,-2.1 z M 21.25,7 H 7 V 26.5 H 21.25 C 23.3125,26.5 25,24.8125 25,22.75 V 7 h -1.5 v 1.5 h -2.25 z"
       style="clip-rule:evenodd;fill:#eff0f1;fill-opacity:1;fill-rule:evenodd;stroke-width:0.375" />
    <path
       id="Clipboard-s"
       class="st1"
       d="m 16,5.5 c -0.4125,0 -0.75,0.3375 -0.75,0.75 V 7 H 13 c -0.825,0 -1.5,0.675 -1.5,1.5 h 5.25 V 10 H 10 V 8.5 c 0,-1.65 1.35,-3 3,-3 h 0.8625 C 14.1625,4.6375 14.9875,4 16,4 c 0.975,0 1.8,0.6375 2.1375,1.5 H 19 c 1.65,0 3,1.35 3,3 H 20.5 C 20.5,7.675 19.825,7 19,7 H 16.75 V 6.25 C 16.75,5.8375 16.4125,5.5 16,5.5 Z m 7.5,3 v 15 c 0,1.65 -1.35,3 -3,3 H 8.5 V 28 h 12 c 2.475,0 4.5,-2.025 4.5,-4.5 v -15 z"
       style="fill:#009fff;fill-opacity:1;stroke-width:0.375" />
  </g>
  <g
     id="22-22-klipper"
     transform="translate(32,10)">
    <rect
       style="opacity:0.00100002"
       width="22"
       height="22"
       x="0"
       y="0"
       id="rect2" />
    <path
       id="Clipboard-3"
       class="st0"
       d="m 7,15 h 1.5 v 1.5 H 7 Z M 8.5,12 H 7 v 1.5 h 1.5 z m 6,3 H 10 v 1 h 4.5 z M 10,12 h 4.5 v 1 H 10 Z m 1,-3 h 3.5 v 1 H 11 Z M 9.95,8.7 7.85,10.8 6.5,9.45 7.2,8.75 7.85,9.4 9.25,8 Z M 14.5,5 H 5 v 13 h 9.5 C 15.875,18 17,16.875 17,15.5 V 5 h -1 v 1 h -1.5 z"
       style="clip-rule:evenodd;fill:#eff0f1;fill-opacity:1;fill-rule:evenodd;stroke-width:0.25" />
    <path
       id="Clipboard-s-6"
       class="st1"
       d="M 11,4 C 10.725,4 10.5,4.225 10.5,4.5 V 5 H 9 C 8.45,5 8,5.45 8,6 h 3.5 V 7 H 7 V 6 C 7,4.9 7.9,4 9,4 h 0.575 c 0.2,-0.575 0.75,-1 1.425,-1 0.65,0 1.2,0.425 1.425,1 H 13 c 1.1,0 2,0.9 2,2 H 14 C 14,5.45 13.55,5 13,5 H 11.5 V 4.5 C 11.5,4.225 11.275,4 11,4 Z m 5,2 v 10 c 0,1.1 -0.9,2 -2,2 H 6 v 1 h 8 c 1.65,0 3,-1.35 3,-3 V 6 Z"
       style="fill:#009fff;fill-opacity:1;stroke-width:0.25" />
  </g>
</svg>
