<?xml version="1.0" encoding="UTF-8" standalone="no"?>
<svg
   width="32"
   height="32"
   version="1"
   id="svg12"
   sodipodi:docname="manjaro.svg"
   inkscape:version="1.1.1 (3bf5ae0d25, 2021-09-20)"
   xmlns:inkscape="http://www.inkscape.org/namespaces/inkscape"
   xmlns:sodipodi="http://sodipodi.sourceforge.net/DTD/sodipodi-0.dtd"
   xmlns:xlink="http://www.w3.org/1999/xlink"
   xmlns="http://www.w3.org/2000/svg"
   xmlns:svg="http://www.w3.org/2000/svg"
   xmlns:rdf="http://www.w3.org/1999/02/22-rdf-syntax-ns#"
   xmlns:cc="http://creativecommons.org/ns#"
   xmlns:dc="http://purl.org/dc/elements/1.1/">
  <g
     id="22-22-manjaro-settings-manager"
     transform="translate(-32.963779,9.9999998)">
    <rect
       style="opacity:0.00100002"
       width="22"
       height="22"
       x="0"
       y="0"
       id="rect2" />
    <path
       style="fill:url(#linearGradient1992);fill-opacity:1;stroke-width:0.673302"
       d="M 3.375234,3.0000001 C 2.8908803,3.0000001 2.5,3.3832161 2.5,3.8580731 V 18.141927 C 2.5,18.616785 2.912299,18.860351 3.375234,19 H 7.2599996 V 7.6666671 H 13.38 v -4.666667 z m 11.364766,0 V 10.984933 19 h 3.884767 C 19.109122,19 19.5,18.616785 19.5,18.141927 V 3.8580731 c 0,-0.474857 -0.390878,-0.858073 -0.875233,-0.858073 z M 3.375234,3.6666671 H 12.7 v 3.333333 H 7.2599996 c -0.3755385,3.7e-5 -0.6799626,0.298492 -0.6800001,0.666667 V 18.333333 H 3.5107029 C 3.377028,18.284693 3.2505127,18.228206 3.210547,18.194011 c -0.04862,-0.0416 -0.030546,-0.0038 -0.030546,-0.05209 V 3.8580731 c 0,-0.116185 0.076725,-0.191406 0.195233,-0.191406 z m 12.044766,0 h 3.204767 c 0.118509,0 0.195232,0.07522 0.195232,0.191406 V 18.141927 c 0,0.116186 -0.07672,0.191406 -0.195232,0.191406 H 15.42 Z M 8.6199994,9.0000001 V 19 H 13.38 V 9.0000001 Z m 0.6800003,0.666667 H 12.7 V 18.333333 H 9.2999997 Z"
       id="path9-5"
       sodipodi:nodetypes="ssscccccscccssssccccccccssscccsssscccccccccccc" />
  </g>
  <g
     id="manjaro-settings-manager">
    <rect
       style="opacity:0.00100002"
       width="32"
       height="32"
       x="4.494629e-07"
       y="6.0302739e-08"
       id="rect7" />
    <path
       style="fill:url(#linearGradient1595);fill-opacity:1"
       d="M 4.787109,3.9999999 C 4.074824,3.9999999 3.5,4.5748239 3.5,5.2871089 V 26.712891 C 3.5,27.425177 4.106322,27.790527 4.787109,28 H 10.5 V 11 h 9 V 3.9999999 Z m 16.712891,0 V 15.977399 28 h 5.712891 C 27.925178,28 28.5,27.425177 28.5,26.712891 V 5.2871089 c 0,-0.712285 -0.574822,-1.287109 -1.287109,-1.287109 z m -16.712891,1 H 18.5 v 5 h -8 C 9.9477381,10.000055 9.5000552,10.447738 9.5,11 V 27 H 4.986328 C 4.789747,26.92704 4.603695,26.842309 4.544922,26.791016 c -0.0715,-0.0624 -0.04492,-0.0057 -0.04492,-0.07813 V 5.2871089 c 0,-0.174277 0.112832,-0.287109 0.287109,-0.287109 z m 17.712891,0 h 4.712891 c 0.174279,0 0.287109,0.112831 0.287109,0.287109 V 26.712891 C 27.5,26.88717 27.387171,27 27.212891,27 H 22.5 Z M 12.5,13 v 15 h 7 V 13 Z m 1,1 h 5 v 13 h -5 z"
       id="path9"
       sodipodi:nodetypes="ssscccccscccssssccccccccssscccsssscccccccccccc" />
  </g>
  <metadata
     id="metadata18">
    <rdf:RDF>
      <cc:Work
         rdf:about="">
        <dc:format>image/svg+xml</dc:format>
        <dc:type
           rdf:resource="http://purl.org/dc/dcmitype/StillImage" />
      </cc:Work>
    </rdf:RDF>
  </metadata>
  <defs
     id="defs16">
    <linearGradient
       inkscape:collect="always"
       id="linearGradient1593">
      <stop
         style="stop-color:#009fff;stop-opacity:1;"
         offset="0"
         id="stop1589" />
      <stop
         style="stop-color:#eff0f1;stop-opacity:1"
         offset="0.72651052"
         id="stop1695" />
      <stop
         style="stop-color:#eff0f1;stop-opacity:1"
         offset="1"
         id="stop1591" />
    </linearGradient>
    <linearGradient
       inkscape:collect="always"
       xlink:href="#linearGradient1593"
       id="linearGradient1595"
       x1="3.5"
       y1="16"
       x2="28.5"
       y2="16"
       gradientUnits="userSpaceOnUse" />
    <linearGradient
       inkscape:collect="always"
       xlink:href="#linearGradient1593"
       id="linearGradient1992"
       gradientUnits="userSpaceOnUse"
       x1="3.5"
       y1="16"
       x2="28.5"
       y2="16"
       gradientTransform="matrix(0.68000006,0,0,0.66666667,0.12000013,0.33333306)" />
  </defs>
  <sodipodi:namedview
     pagecolor="#ffffff"
     bordercolor="#000000"
     borderopacity="1"
     objecttolerance="10"
     gridtolerance="10"
     guidetolerance="10"
     inkscape:pageopacity="0"
     inkscape:pageshadow="2"
     inkscape:window-width="1920"
     inkscape:window-height="1007"
     id="namedview14"
     showgrid="false"
     inkscape:zoom="9.8125"
     inkscape:cx="-0.10191083"
     inkscape:cy="17.019108"
     inkscape:window-x="0"
     inkscape:window-y="0"
     inkscape:window-maximized="1"
     inkscape:current-layer="svg12"
     inkscape:document-rotation="0"
     inkscape:lockguides="true"
     inkscape:showpageshadow="false"
     inkscape:pagecheckerboard="0">
    <inkscape:grid
       type="xygrid"
       id="grid843"
       originx="-4.494629e-07"
       originy="-6.0302739e-08" />
  </sodipodi:namedview>
</svg>
