<?xml version="1.0" encoding="UTF-8" standalone="no"?>
<svg
   width="32"
   height="32"
   x="0"
   y="0"
   version="1.1"
   id="svg18"
   sodipodi:docname="mellowplayer.svg"
   inkscape:version="1.2.1 (9c6d41e410, 2022-07-14)"
   xmlns:inkscape="http://www.inkscape.org/namespaces/inkscape"
   xmlns:sodipodi="http://sodipodi.sourceforge.net/DTD/sodipodi-0.dtd"
   xmlns="http://www.w3.org/2000/svg"
   xmlns:svg="http://www.w3.org/2000/svg">
  <g
     id="22-22-mellowplayer">
    <rect
       style="opacity:0.00100002;fill:#d3dae3;fill-opacity:1"
       width="22"
       height="22"
       x="32"
       y="10"
       id="rect2" />
    <path
       id="External-3"
       class="st0"
       d="m 36,12.857143 h 14 v 12 c 0,1.571429 -1.211537,2.857143 -2.692306,2.857143 H 36 Z"
       style="fill:#eff0f1;fill-opacity:1;stroke-width:0.27735" />
    <path
       id="External-s-6"
       class="st1"
       d="m 43.376924,20.828571 z m 5.546151,-2.114285 v 6.857143 c 0,1.257142 -0.969232,2.285714 -2.153844,2.285714 H 37.076923 V 29 h 9.692308 C 48.546156,29 50,27.457143 50,25.571429 v -6.857143 z"
       sodipodi:nodetypes="cccccccccccssccsscc"
       style="fill:#009fff;fill-opacity:1;stroke-width:0.27735" />
    <path
       style="fill:#1a1a1a;fill-opacity:1;stroke-width:0.749997"
       d="M 40.749988,14.500038 A 3.7499876,3.7499876 0 0 0 37,18.250026 a 3.7499876,3.7499876 0 0 0 0.228513,1.26562 2.2499925,2.2499925 0 0 1 2.021479,-1.26562 2.2499925,2.2499925 0 0 1 0.0044,0 v -1.946772 c 0,0 -0.01684,-0.199572 0.13916,-0.27832 0.15225,-0.07579 0.297363,0.04537 0.297363,0.04537 l 1.476558,0.877439 a 2.2499925,2.2499925 0 0 1 1.832544,-0.947749 2.2499925,2.2499925 0 0 1 0.864255,0.174315 A 3.7499876,3.7499876 0 0 0 40.750023,14.5 Z m 3.930163,2.255851 a 2.2499925,2.2499925 0 0 1 0.569822,1.494137 2.2499925,2.2499925 0 0 1 -0.231444,0.98876 l 1.519038,0.903811 c 0,0 0.212401,0.104743 0.212401,0.354492 0,0.250499 -0.21533,0.332517 -0.21533,0.332517 l -1.526363,0.906733 a 2.2499925,2.2499925 0 0 1 0.241698,1.013673 2.2499925,2.2499925 0 0 1 -0.568357,1.491202 3.7499876,3.7499876 0 0 0 3.568348,-3.741196 3.7499876,3.7499876 0 0 0 -3.569813,-3.744129 z m -4.680161,0.36914 v 3.374989 3.374991 l 2.812492,-1.687499 2.81249,-1.687492 -2.81249,-1.687496 z m 0.73535,1.324215 1.709468,1.025388 1.709466,1.025386 -1.709466,1.025388 -1.709468,1.025382 v -2.05077 z m -3.508287,3.027821 A 3.7499876,3.7499876 0 0 0 37,22.750012 a 3.7499876,3.7499876 0 0 0 3.749988,3.749986 3.7499876,3.7499876 0 0 0 3.118642,-1.674309 2.2499925,2.2499925 0 0 1 -0.868649,0.174315 2.2499925,2.2499925 0 0 1 -1.848628,-0.97119 l -1.545405,0.918451 c 0,0 -0.104519,0.09146 -0.238769,0.0322 -0.152249,-0.06821 -0.112792,-0.241699 -0.112792,-0.241699 v -1.987784 a 2.2499925,2.2499925 0 0 1 -0.0044,0 2.2499925,2.2499925 0 0 1 -2.022946,-1.272943 z"
       id="path6-7" />
    <path
       style="opacity:0.5;fill:#d1d5e9;fill-opacity:1;stroke-width:0.749997"
       d="m 42.999981,16.000034 a 2.2499925,2.2499925 0 0 0 -1.832245,0.949496 l 2.003995,1.190246 1.847993,1.100246 a 2.2499925,2.2499925 0 0 0 0.230249,-0.989996 2.2499925,2.2499925 0 0 0 -2.249992,-2.249992 z m -3.749988,2.249992 A 2.2499925,2.2499925 0 0 0 37,20.500018 a 2.2499925,2.2499925 0 0 0 2.249992,2.249994 2.2499925,2.2499925 0 0 0 0.0045,0 v -2.263496 -2.23649 a 2.2499925,2.2499925 0 0 0 -0.0045,0 z m 5.756981,3.487485 -1.842743,1.09425 -2.014495,1.196995 a 2.2499925,2.2499925 0 0 0 1.850245,0.971248 2.2499925,2.2499925 0 0 0 2.249992,-2.249992 2.2499925,2.2499925 0 0 0 -0.242999,-1.012501 z"
       id="path8-5" />
  </g>
  <sodipodi:namedview
     id="namedview20"
     pagecolor="#ffffff"
     bordercolor="#000000"
     borderopacity="1"
     inkscape:showpageshadow="2"
     inkscape:pageopacity="0"
     inkscape:pagecheckerboard="0"
     inkscape:deskcolor="#cccccc"
     showgrid="false"
     inkscape:zoom="10.429825"
     inkscape:cx="17.21026"
     inkscape:cy="21.52481"
     inkscape:window-width="1920"
     inkscape:window-height="1002"
     inkscape:window-x="0"
     inkscape:window-y="0"
     inkscape:window-maximized="1"
     inkscape:current-layer="svg18" />
  <defs
     id="987">
    <style
       type="text/css"
       id="current-color-scheme" />
  </defs>
  <g
     id="mellowplayer">
    <rect
       style="opacity:0.00100002;fill:#d3dae3;fill-opacity:1"
       width="32"
       height="32"
       x="0"
       y="0"
       id="rect7" />
    <path
       id="External"
       class="st0"
       d="m 5,4 h 22 v 18 c 0,2.357143 -1.903846,4.285714 -4.230769,4.285714 H 5 Z"
       style="fill:#eff0f1;fill-opacity:1;stroke-width:0.425815" />
    <path
       id="External-s"
       class="st1"
       d="m 16.592308,15.742857 z m 8.715384,-3.171428 v 10.285714 c 0,1.885714 -1.523077,3.428571 -3.384615,3.428571 H 6.692308 V 28 H 21.923077 C 24.715386,28 27,25.685714 27,22.857143 V 12.571429 Z"
       sodipodi:nodetypes="cccccccccccssccsscc"
       style="fill:#009fff;fill-opacity:1;stroke-width:0.425815" />
    <path
       style="fill:#1a1a1a;fill-opacity:1;stroke-width:0.833329"
       d="M 12.070949,5.400048 A 6.0714146,6.0714146 0 0 0 6,11.47099 a 6.0714146,6.0714146 0 0 0 0.447587,2.268879 3.3333256,3.3333256 0 0 1 2.885736,-1.673168 3.3333256,3.3333256 0 0 1 0.0087,0 v -3.66211 c 3.68e-4,0 -0.02908,-0.33127 0.23112,-0.462237 0.06316,-0.03175 0.127214,-0.04348 0.185542,-0.04236 0.174984,0.0039 0.310872,0.117184 0.310872,0.117184 L 13.39149,9.993095 A 3.3333256,3.3333256 0 0 1 16.000533,8.733323 3.3333256,3.3333256 0 0 1 17.688355,9.197192 6.0714146,6.0714146 0 0 0 12.071506,5.4 Z m -1.896154,3.649075 v 6.328118 6.316709 l 5.255522,-3.123365 5.379219,-3.193344 -5.366199,-3.193355 z m 8.325176,0.517584 a 5.8333196,5.8333196 0 0 0 -0.281575,0.01788 3.3333256,3.3333256 0 0 1 1.114906,2.482099 3.3333256,3.3333256 0 0 1 -0.268554,1.302071 l 2.413732,1.437173 c 0,0 0.354817,0.172771 0.354817,0.58919 0,0.417578 -0.358073,0.553383 -0.358073,0.553383 l -2.426752,1.442056 a 3.3333256,3.3333256 0 0 1 0.28483,1.342773 3.3333256,3.3333256 0 0 1 -1.116534,2.483721 5.8333196,5.8333196 0 0 0 0.283203,0.01631 5.8333196,5.8333196 0 0 0 5.83332,-5.833314 5.8333196,5.8333196 0 0 0 -5.83332,-5.833322 z m -7.491847,0.948881 4.008782,2.384443 4.161775,2.47721 -4.173168,2.477206 -3.997389,2.374657 V 15.377241 Z M 6.445958,17.06017 A 6.0714146,6.0714146 0 0 0 6,19.329053 a 6.0714146,6.0714146 0 0 0 6.070949,6.070946 6.0714146,6.0714146 0 0 0 5.621733,-3.800449 3.3333256,3.3333256 0 0 1 -1.692705,0.467126 3.3333256,3.3333256 0 0 1 -2.635084,-1.298825 l -3.439126,2.044256 c 0,0 -0.17247,0.154411 -0.395499,0.05532 -0.254687,-0.113889 -0.188802,-0.40365 -0.188802,-0.40365 v -3.730453 a 3.3333256,3.3333256 0 0 1 -0.0087,0 3.3333256,3.3333256 0 0 1 -2.887364,-1.67317 z"
       id="path13-3" />
    <path
       style="opacity:0.5;fill:#d1d5e9;fill-opacity:1;stroke-width:0.833329"
       d="m 15.999977,8.733368 a 3.3333256,3.3333256 0 0 0 -2.609043,1.25976 l 2.478835,1.472982 3.194979,1.902662 A 3.3333256,3.3333256 0 0 0 19.333302,12.066701 3.3333256,3.3333256 0 0 0 15.999977,8.733368 Z M 9.333323,12.066701 A 3.3333256,3.3333256 0 0 0 6,15.400025 a 3.3333256,3.3333256 0 0 0 3.333323,3.333322 3.3333256,3.3333256 0 0 0 0.0087,0 v -3.356106 -3.31054 a 3.3333256,3.3333256 0 0 0 -0.0087,0 z m 9.715149,5.32387 -3.191724,1.896157 -2.491855,1.481124 a 3.3333256,3.3333256 0 0 0 2.635084,1.298824 3.3333256,3.3333256 0 0 0 3.333325,-3.333329 3.3333256,3.3333256 0 0 0 -0.28483,-1.342776 z"
       id="path15-6" />
  </g>
</svg>
