<?xml version="1.0" encoding="UTF-8" standalone="no"?>
<svg
   inkscape:version="1.1.1 (3bf5ae0d25, 2021-09-20)"
   sodipodi:docname="view.svg"
   id="svg873"
   version="1.1"
   height="32"
   width="32"
   xmlns:inkscape="http://www.inkscape.org/namespaces/inkscape"
   xmlns:sodipodi="http://sodipodi.sourceforge.net/DTD/sodipodi-0.dtd"
   xmlns:xlink="http://www.w3.org/1999/xlink"
   xmlns="http://www.w3.org/2000/svg"
   xmlns:svg="http://www.w3.org/2000/svg"
   xmlns:rdf="http://www.w3.org/1999/02/22-rdf-syntax-ns#"
   xmlns:cc="http://creativecommons.org/ns#"
   xmlns:dc="http://purl.org/dc/elements/1.1/">
  <metadata
     id="metadata879">
    <rdf:RDF>
      <cc:Work
         rdf:about="">
        <dc:format>image/svg+xml</dc:format>
        <dc:type
           rdf:resource="http://purl.org/dc/dcmitype/StillImage" />
      </cc:Work>
    </rdf:RDF>
  </metadata>
  <defs
     id="defs877">
    <linearGradient
       inkscape:collect="always"
       id="linearGradient892">
      <stop
         style="stop-color:#8350cf;stop-opacity:1"
         offset="0"
         id="stop888" />
      <stop
         style="stop-color:#ffaaee;stop-opacity:1"
         offset="1"
         id="stop890" />
    </linearGradient>
    <linearGradient
       id="_lgradient_0"
       x1="0"
       y1="0.5"
       x2="1"
       y2="0.5"
       gradientTransform="matrix(27.999994,0,0,27.999998,1.9766191,1.9139856)"
       gradientUnits="userSpaceOnUse">
      <stop
         offset="0%"
         stop-opacity="1"
         style="stop-color:rgb(105,227,255)"
         id="stop33" />
      <stop
         offset="100%"
         stop-opacity="1"
         style="stop-color:rgb(0,255,194)"
         id="stop35" />
    </linearGradient>
    <linearGradient
       inkscape:collect="always"
       xlink:href="#linearGradient892"
       id="linearGradient894"
       x1="27"
       y1="17"
       x2="4"
       y2="16"
       gradientUnits="userSpaceOnUse" />
  </defs>
  <sodipodi:namedview
     inkscape:current-layer="svg873"
     inkscape:window-maximized="1"
     inkscape:window-y="0"
     inkscape:window-x="0"
     inkscape:cy="15.135672"
     inkscape:cx="11.238463"
     inkscape:zoom="11.033537"
     showgrid="false"
     id="namedview875"
     inkscape:window-height="1007"
     inkscape:window-width="1920"
     inkscape:pageshadow="2"
     inkscape:pageopacity="0"
     guidetolerance="10"
     gridtolerance="10"
     objecttolerance="10"
     borderopacity="1"
     inkscape:document-rotation="0"
     bordercolor="#666666"
     pagecolor="#ffffff"
     inkscape:pagecheckerboard="0">
    <inkscape:grid
       type="xygrid"
       id="grid935" />
  </sodipodi:namedview>
  <g
     transform="translate(-250.00021,54.000004)"
     id="g811">
    <path
       id="path836"
       style="opacity:0.00100002"
       d="m 282.00021,-38.000004 h 16 v 16 h -16 z" />
    <g
       id="view-refresh"
       transform="translate(281.97246,-37.000109)">
      <g
         transform="translate(-485.03396,-41.017475)"
         id="layer12-0">
        <path
           id="path838"
           style="fill:#8350cf;fill-opacity:1"
           d="m 499.06185,49.01758 c 0,3.31371 -2.68629,6 -6,6 -3.28006,0 -5.94034,-2.63316 -5.99414,-5.90039 a 1,1 0 0 1 -0.006,-0.09961 1,1 0 0 1 1,-1 1,1 0 0 1 1,1 c 0,2.20914 1.79086,4 4,4 2.20914,0 4,-1.79086 4,-4 0,-2.20914 -1.79086,-4 -4,-4 v 2 l -4,-3 4,-3 v 2 c 3.31371,0 6,2.68629 6,6 z" />
      </g>
    </g>
  </g>
  <g
     id="view-history">
    <rect
       ry="0.91472864"
       y="0"
       x="0"
       height="32"
       width="32"
       id="rect817-5"
       style="clip-rule:evenodd;fill:#ffff96;fill-opacity:0;fill-rule:evenodd;stroke-width:1.04154;stroke-linejoin:round;stroke-miterlimit:1.41421;stroke-dasharray:none" />
    <path
       id="Calendar"
       class="st0"
       d="m 4.65,6.25 v 4.875 H 25.775 V 12.75 H 4.65 v 14.625 h 18.6875 c 2.234375,0 4.0625,-1.828125 4.0625,-4.0625 V 6.25 Z m 5.6875,18.6875 H 7.9 V 22.5 h 2.4375 z m 0,-4.0625 H 7.9 v -2.4375 h 2.4375 z M 14.4,24.9375 H 11.9625 V 22.5 H 14.4 Z m 0,-4.0625 H 11.9625 V 18.4375 H 14.4 Z m 0,-4.0625 H 11.9625 V 14.375 H 14.4 Z m 4.0625,8.125 H 16.025 V 22.5 h 2.4375 z m 0,-4.0625 H 16.025 v -2.4375 h 2.4375 z m 0,-4.0625 H 16.025 V 14.375 h 2.4375 z m 4.0625,4.0625 h -2.4375 v -2.4375 h 2.4375 z m 0,-4.0625 H 20.0875 V 14.375 h 2.4375 z"
       style="clip-rule:evenodd;fill:url(#linearGradient894);fill-rule:evenodd;stroke-width:0.40625;fill-opacity:1" />
    <path
       id="Calendar-s"
       class="st1"
       d="M 25.775,24.125 V 12.75 H 27.4 V 24.125 C 27.4,26.80625 25.20625,29 22.525,29 H 6.275 v -1.625 h 16.25 c 1.7875,0 3.25,-1.4625 3.25,-3.25 z m 0,-13 V 6.25 H 27.4 v 4.875 z M 20.9,5.4375 C 20.9,4.096875 21.996875,3 23.3375,3 H 24.15 v 1.625 h -0.8125 c -0.446875,0 -0.8125,0.365625 -0.8125,0.8125 V 9.5 H 20.9 Z m -13,0 C 7.9,4.096875 8.996875,3 10.3375,3 H 11.15 V 4.625 H 10.3375 C 9.890625,4.625 9.525,4.990625 9.525,5.4375 V 9.5 H 7.9 Z"
       style="clip-rule:evenodd;fill:#eff0f1;fill-rule:evenodd;stroke-width:0.40625;fill-opacity:1" />
  </g>
</svg>
