<?xml version="1.0" encoding="UTF-8" standalone="no"?>
<svg
   width="32"
   height="32"
   version="1.1"
   id="svg12"
   sodipodi:docname="vlc.svg"
   inkscape:version="1.1.1 (3bf5ae0d25, 2021-09-20)"
   xmlns:inkscape="http://www.inkscape.org/namespaces/inkscape"
   xmlns:sodipodi="http://sodipodi.sourceforge.net/DTD/sodipodi-0.dtd"
   xmlns:xlink="http://www.w3.org/1999/xlink"
   xmlns="http://www.w3.org/2000/svg"
   xmlns:svg="http://www.w3.org/2000/svg"
   xmlns:rdf="http://www.w3.org/1999/02/22-rdf-syntax-ns#"
   xmlns:cc="http://creativecommons.org/ns#"
   xmlns:dc="http://purl.org/dc/elements/1.1/">
  <metadata
     id="metadata18">
    <rdf:RDF>
      <cc:Work
         rdf:about="">
        <dc:format>image/svg+xml</dc:format>
        <dc:type
           rdf:resource="http://purl.org/dc/dcmitype/StillImage" />
      </cc:Work>
    </rdf:RDF>
  </metadata>
  <defs
     id="defs16">
    <linearGradient
       inkscape:collect="always"
       id="linearGradient886">
      <stop
         style="stop-color:#009fff;stop-opacity:1;"
         offset="0"
         id="stop882" />
      <stop
         style="stop-color:#eff0f1;stop-opacity:1"
         offset="1"
         id="stop884" />
    </linearGradient>
    <linearGradient
       id="l4k1"
       x1="0"
       x2="0"
       y1="0"
       y2="1">
      <stop
         offset="0%"
         style="stop-color:#303b3d; stop-opacity:1"
         id="stop18" />
      <stop
         offset="100%"
         style="stop-color:#bc985d; stop-opacity:1"
         id="stop20" />
    </linearGradient>
    <linearGradient
       inkscape:collect="always"
       xlink:href="#linearGradient886"
       id="linearGradient888"
       x1="16.082771"
       y1="4.0005074"
       x2="15.830239"
       y2="23.247414"
       gradientUnits="userSpaceOnUse" />
    <linearGradient
       inkscape:collect="always"
       xlink:href="#linearGradient886"
       id="linearGradient1073"
       x1="11.00521"
       y1="3.0003383"
       x2="11.154518"
       y2="15.860729"
       gradientUnits="userSpaceOnUse" />
  </defs>
  <sodipodi:namedview
     pagecolor="#ffffff"
     bordercolor="#000000"
     borderopacity="1"
     objecttolerance="10"
     gridtolerance="10"
     guidetolerance="10"
     inkscape:pageopacity="0"
     inkscape:pageshadow="2"
     inkscape:window-width="1920"
     inkscape:window-height="1007"
     id="namedview14"
     showgrid="false"
     inkscape:zoom="9.8125"
     inkscape:cx="28.840764"
     inkscape:cy="11.923567"
     inkscape:window-x="0"
     inkscape:window-y="0"
     inkscape:window-maximized="1"
     inkscape:current-layer="svg12"
     inkscape:lockguides="true"
     inkscape:document-rotation="0"
     inkscape:showpageshadow="false"
     inkscape:pagecheckerboard="0">
    <inkscape:grid
       type="xygrid"
       id="grid868"
       originx="0"
       originy="0" />
  </sodipodi:namedview>
  <g
     id="vlc">
    <rect
       style="opacity:0.00100002"
       width="32"
       height="32"
       x="0"
       y="0"
       id="rect7" />
    <path
       style="fill:#eff0f1;fill-opacity:1;stroke-width:1.59934"
       class="ColorScheme-Text"
       d="m 7.6831056,18.466426 c -0.3595013,0 -0.6497325,0.32726 -0.6497325,0.734073 l -2.4333732,8.06543 c 0,0.406811 0.2902313,0.734072 0.6497326,0.734072 H 26.822101 c 0.359502,0 0.649732,-0.327261 0.649732,-0.734072 l -2.27094,-8.06543 c 0,-0.406813 -0.290232,-0.734073 -0.649732,-0.734073 h -2.349033 c 0.243188,0.672358 -0.338459,1.207173 -0.306125,1.315083 -0.943624,1.037853 -3.28083,1.764899 -5.856963,1.764899 -2.683471,0 -4.973015,-0.785587 -5.844469,-1.892971 0.06253,-0.197312 -0.4594975,-0.670579 -0.2553444,-1.187011 z m 2.5114654,1.187011 c 0.358965,0.455354 0.491079,0.507006 0.537279,0.577038 0.131417,0.199195 2.276602,0.957347 2.627044,1.106744 0.350441,0.149395 3.89508,0.244687 4.727378,0.14714 0.832299,-0.09754 2.761809,-0.864337 2.761809,-0.864337 l 1.047824,-0.838513 0.796647,1.202624 c 0.0072,0.01024 0.0086,0.02092 0.01567,0.03123 0.190403,0.282907 0.306124,0.579764 0.306124,0.890257 0,1.716391 -3.122379,3.098724 -6.978377,3.098724 -3.855997,0 -6.9783763,-1.382333 -6.9783763,-3.098724 -2e-7,-0.341627 0.1273204,-0.664005 0.3561033,-0.971475 0,0 0.691641,-1.010707 0.780872,-1.280713 z"
       id="path58"
       sodipodi:nodetypes="sccssccsccsccsccsscccsssscc" />
    <path
       style="fill:url(#linearGradient888);fill-opacity:1;stroke-width:1.59934"
       class="ColorScheme-Text"
       d="m 16.082772,4.0005073 c -0.336823,0.00689 -0.666886,0.086352 -1.018331,0.2311548 -0.181753,0.074886 -0.323013,0.2463093 -0.374845,0.4185777 C 13.12196,9.860459 9.413643,19.665933 9.413643,19.665933 c -0.2287821,0.270463 -0.3561033,0.54914 -0.3561033,0.84965 0,1.509811 3.1223793,2.727002 6.9783763,2.727002 3.855998,0 6.978377,-1.217191 6.978377,-2.727002 0,-0.273124 -0.115713,-0.528947 -0.306124,-0.777804 -0.0069,-0.0091 -0.0085,-0.01908 -0.01567,-0.02812 0,0 -3.619558,-10.1400033 -5.126014,-15.1468878 C 17.515856,4.39432 17.321861,4.2687958 17.141711,4.200425 16.763525,4.0568947 16.419595,3.9936125 16.082772,4.0005073 Z m -1.3963,2.9300436 c 0.56313,0.099044 0.718815,0.1561858 1.349444,0.1561856 0.65198,0 0.97592,-0.050459 1.55561,-0.1561853 0.387351,1.4751778 1.068854,3.0696198 1.515001,4.6824468 -0.892155,0.314635 -1.905333,0.502918 -3.070611,0.502918 -1.15184,0 -2.010641,-0.179966 -2.895682,-0.487299 0.461785,-1.605442 1.147298,-3.2068173 1.546238,-4.6980661 z m -2.983147,8.5621001 c 1.133582,0.563976 2.542457,0.915248 4.335715,0.915248 1.759743,0 3.273199,-0.340842 4.404436,-0.884011 0.609943,2.076452 1.381876,4.02185 1.452527,4.257621 -0.943626,1.037853 -3.28083,1.764899 -5.856963,1.764899 -2.683471,0 -4.973015,-0.785587 -5.844469,-1.892971 0.152747,-0.482036 0.842675,-1.994242 1.508754,-4.160786 z"
       id="path60" />
  </g>
  <g
     id="22-22-vlc"
     transform="translate(32,10)">
    <rect
       style="opacity:0.00100002"
       width="22"
       height="22"
       x="0"
       y="0"
       id="rect2" />
    <path
       style="fill:#eff0f1;fill-opacity:1;stroke-width:1.06625"
       class="ColorScheme-Text"
       d="m 5.405404,12.644276 c -0.239662,0 -0.43315,0.218176 -0.43315,0.489383 L 3.35,18.510615 c 0,0.271206 0.193488,0.489379 0.43316,0.489379 h 14.381585 c 0.239666,0 0.433153,-0.218173 0.433153,-0.489379 L 17.08394,13.133659 c 0,-0.271207 -0.193499,-0.489383 -0.43316,-0.489383 h -1.566026 c 0.162127,0.448242 -0.225638,0.804777 -0.204084,0.876722 -0.629084,0.691898 -2.187222,1.1766 -3.904642,1.1766 -1.788986,0 -3.315348,-0.523723 -3.896312,-1.261986 0.04173,-0.131536 -0.306326,-0.447051 -0.170235,-0.791336 z m 1.674312,0.791336 c 0.239312,0.30357 0.327383,0.338008 0.358186,0.384694 0.08759,0.132795 1.517735,0.638227 1.751365,0.737834 0.233621,0.09959 2.596714,0.163117 3.151583,0.09809 0.554864,-0.065 1.841213,-0.576223 1.841213,-0.576223 l 0.698545,-0.559014 0.531096,0.801753 c 0.0049,0.0071 0.0062,0.01392 0.01045,0.02083 0.126937,0.188608 0.204082,0.386513 0.204082,0.593503 0,1.144264 -2.081589,2.065819 -4.652252,2.065819 -2.570666,0 -4.652249,-0.921555 -4.652249,-2.065819 0,-0.227747 0.08489,-0.442663 0.237406,-0.647651 0,0 0.461085,-0.673804 0.520571,-0.853811 z"
       id="path58-3"
       sodipodi:nodetypes="sccssccsccsccsccsscccsssscc" />
    <path
       style="fill:url(#linearGradient1073);fill-opacity:1.0;stroke-width:1.06625"
       class="ColorScheme-Text"
       d="m 11.005181,3.0003282 c -0.224545,0.0046 -0.444587,0.05755 -0.678884,0.154105 -0.121175,0.04993 -0.215345,0.164203 -0.249897,0.279053 -1.045089,3.473475 -3.517305,10.0104608 -3.517305,10.0104608 -0.152523,0.180305 -0.237393,0.366092 -0.237393,0.566427 0,1.006544 2.08158,1.818009 4.652242,1.818009 2.570672,0 4.652254,-0.811465 4.652254,-1.818009 0,-0.182083 -0.07715,-0.352627 -0.204085,-0.518526 -0.0046,-0.0062 -0.0062,-0.01268 -0.01042,-0.01875 0,0 -2.413035,-6.7600028 -3.417342,-10.0979298 -0.0338,-0.112297 -0.163092,-0.195981 -0.283184,-0.241552 -0.252124,-0.09568 -0.481409,-0.137877 -0.705957,-0.133278 z m -0.930865,1.95336 c 0.375426,0.06603 0.479215,0.104126 0.899628,0.104126 0.434655,0 0.650617,-0.03366 1.037081,-0.104126 0.258233,0.983455 0.712561,2.046413 1.009994,3.121634 -0.594772,0.209757 -1.27022,0.33528 -2.047075,0.33528 -0.767888,0 -1.340425,-0.119975 -1.930451,-0.324874 0.307859,-1.070289 0.764862,-2.137874 1.030823,-3.13204 z M 8.085555,10.66176 c 0.75572,0.375976 1.694964,0.610161 2.890473,0.610161 1.17316,0 2.182137,-0.227225 2.936292,-0.589337 0.406626,1.384304 0.921255,2.681226 0.96835,2.838414 -0.629086,0.691898 -2.187222,1.1766 -3.904642,1.1766 -1.788986,0 -3.315348,-0.523723 -3.896312,-1.261986 0.101834,-0.321354 0.56178,-1.32949 1.005839,-2.773852 z"
       id="path60-6" />
  </g>
</svg>
