<?xml version="1.0" encoding="UTF-8" standalone="no"?>
<svg
   version="1.0"
   width="27.733332"
   height="27.733332"
   id="svg2"
   inkscape:version="1.1.1 (3bf5ae0d25, 2021-09-20)"
   sodipodi:docname="keepabove.svg"
   viewBox="0 0 26.000001 25.999998"
   xmlns:inkscape="http://www.inkscape.org/namespaces/inkscape"
   xmlns:sodipodi="http://sodipodi.sourceforge.net/DTD/sodipodi-0.dtd"
   xmlns:xlink="http://www.w3.org/1999/xlink"
   xmlns="http://www.w3.org/2000/svg"
   xmlns:svg="http://www.w3.org/2000/svg"
   xmlns:rdf="http://www.w3.org/1999/02/22-rdf-syntax-ns#"
   xmlns:cc="http://creativecommons.org/ns#"
   xmlns:dc="http://purl.org/dc/elements/1.1/">
  <g
     id="pressed-inactive-center">
    <rect
       style="opacity:0.00100002;fill:#3daee9;fill-opacity:1;stroke:none;stroke-width:1.3"
       id="rect3854"
       width="26"
       height="26"
       x="4.0798949e-07"
       y="6.6894529e-08" />
    <path
       d="m 17.72525,5.3841262 c 1.63412,0 2.95313,1.318993 2.95313,2.953124 v 9.3862888 c 0,1.634118 -1.31901,2.953125 -2.95313,2.953125 H 8.3372403 c -1.6341201,0 -2.9531301,-1.319007 -2.9531301,-2.953125 V 8.3372502 c 0,-1.634131 1.31901,-2.953124 2.9531301,-2.953124 H 17.72525 m 0,-0.790376 H 8.3372403 c -2.0559901,0 -3.7434901,1.687498 -3.7434901,3.7435 v 9.3862888 c 0,2.057703 1.6875,3.745215 3.7434901,3.745215 H 17.72353 c 2.05772,0 3.74522,-1.687512 3.74522,-3.743501 V 8.3372502 c 0,-2.056002 -1.6875,-3.7435 -3.7435,-3.7435 z"
       id="path4-3-7-3-9"
       style="clip-rule:evenodd;fill:#496a83;fill-opacity:1;fill-rule:evenodd;stroke-width:0.0172195;stroke-linejoin:round;stroke-miterlimit:1.41421" />
    <path
       fill-rule="evenodd"
       clip-rule="evenodd"
       d="m 13.31312,7.5584942 3.11745,4.9975198 c 0.003,0.0026 0.008,0.0094 0.0105,0.01553 l 3.11082,4.981933 c 0.0874,0.142952 0.0337,0.329475 -0.12095,0.410305 -0.11087,0.05895 -0.24186,0.05276 -0.34267,-0.0096 l -6.05693,-3.69825 v 0 l -6.0568997,3.698296 c -0.15128,0.09327 -0.3528001,0.05291 -0.4535701,-0.08696 -0.0706,-0.09939 -0.0671,-0.22371 -0.004,-0.320094 L 9.6308303,12.555995 12.74827,7.5584782 c 0.0605,-0.09635 0.17129,-0.152228 0.28557,-0.152228 h 0.003 v 0 0 h 0.003 0.003 0.003 v 0 0 l 0.003,0.0031 h 0.003 v 0 h 0.003 v 0 h 0.003 v 0 h 0.003 0.003 0.003 v 0 0 h 0.003 0.003 v 0 h 0.003 v 0.0032 h 0.003 v 0 h 0.003 0.003 v 0 h 0.003 v 0 h 0.003 l 0.003,0.0031 v 0 h 0.003 v 0 h 0.003 v 0 h 0.003 0.003 v 0.0033 h 0.003 v 0 h 0.003 0.003 v 0 0.003 h 0.003 0.003 v 0 h 0.003 v 0.0033 h 0.003 0.003 v 0 h 0.003 v 0.0031 h 0.003 v 0 h 0.003 l 0.003,0.0031 v 0 0 h 0.003 0.003 v 0.0031 h 0.003 0.003 l 0.004,0.0032 v 0 h 0.003 v 0.0031 h 0.003 v 0 h 0.003 v 0.0032 h 0.003 v 0 h 0.003 l 0.003,0.0032 v 0 c 0.0533,0.02792 0.0934,0.06519 0.12033,0.111817 z M 12.70175,15.18839 v 0 l 0.0134,-0.0095 v 0 l 0.0134,-0.007 h 0.003 l 0.003,-0.0026 h 0.003 l 0.003,-0.0027 h 0.003 v 0 l 0.003,-0.0027 h 0.003 l 0.003,-0.0026 c 0.084,-0.03409 0.17124,-0.05279 0.25861,-0.05593 h 0.0105 v 0 h 0.008 v 0 h 0.008 0.003 0.0105 0.003 0.003 c 0.0773,0.0027 0.15115,0.01869 0.22174,0.04651 h 0.003 l 0.008,0.0027 0.008,0.0026 v 0 l 0.0104,0.0026 0.003,0.0026 h 0.003 c 0.0303,0.01571 0.0605,0.03124 0.0874,0.04675 l 3.83291,2.340221 c 0.29912,0.183431 0.38305,0.556352 0.18484,0.832922 -0.19824,0.279721 -0.60136,0.357366 -0.90021,0.174119 l -3.48468,-2.128563 -3.4870497,2.12899 c -0.29824,0.183553 -0.70134,0.105906 -0.89958,-0.173813 -0.1983,-0.276568 -0.11424,-0.649491 0.18484,-0.832918 L 12.51798,15.300084 v 0 l 0.14436,-0.08704 0.003,-0.0027 v 0 c 0.0133,-0.0068 0.0269,-0.01553 0.0403,-0.02165 z"
       id="path2-3"
       style="fill:#b894b1;fill-opacity:1;stroke-width:0.0318322" />
  </g>
  <sodipodi:namedview
     pagecolor="#dee0e2"
     bordercolor="#666666"
     borderopacity="1"
     objecttolerance="10"
     gridtolerance="10"
     guidetolerance="10"
     inkscape:pageopacity="1"
     inkscape:pageshadow="2"
     inkscape:window-width="1920"
     inkscape:window-height="1007"
     id="namedview32"
     showgrid="true"
     inkscape:zoom="8"
     inkscape:cx="-36.5625"
     inkscape:cy="10.75"
     inkscape:window-x="0"
     inkscape:window-y="0"
     inkscape:window-maximized="1"
     inkscape:current-layer="svg2"
     inkscape:document-rotation="0"
     inkscape:lockguides="false"
     inkscape:pagecheckerboard="0">
    <inkscape:grid
       type="xygrid"
       id="grid3218"
       empspacing="5"
       visible="true"
       enabled="true"
       snapvisiblegridlinesonly="true"
       color="#0000ff"
       opacity="0.01960784"
       empcolor="#0000ff"
       empopacity="0.03921569"
       originx="-130.00009"
       originy="5.9999931"
       spacingx="1"
       spacingy="1" />
  </sodipodi:namedview>
  <metadata
     id="metadata11">
    <rdf:RDF>
      <cc:Work
         rdf:about="">
        <dc:format>image/svg+xml</dc:format>
        <dc:type
           rdf:resource="http://purl.org/dc/dcmitype/StillImage" />
      </cc:Work>
    </rdf:RDF>
  </metadata>
  <defs
     id="defs4">
    <linearGradient
       id="linearGradient3587-6-5">
      <stop
         id="stop3589-9-2"
         style="stop-color:#000000;stop-opacity:1"
         offset="0" />
      <stop
         id="stop3591-7-4"
         style="stop-color:#646464;stop-opacity:1"
         offset="1" />
    </linearGradient>
    <linearGradient
       x1="7.0799088"
       y1="7.6944885"
       x2="11.317808"
       y2="11.932388"
       id="linearGradient2388"
       xlink:href="#linearGradient3587-6-5"
       gradientUnits="userSpaceOnUse"
       gradientTransform="rotate(45,12.12132,10.707107)" />
    <linearGradient
       x1="8.1313992"
       y1="19.049677"
       x2="8.1313992"
       y2="15.935893"
       id="linearGradient5038"
       xlink:href="#linearGradient3732-77"
       gradientUnits="userSpaceOnUse"
       gradientTransform="matrix(0.8666667,0,0,0.73333335,2.0666666,-16.066667)" />
    <linearGradient
       id="linearGradient3732-77">
      <stop
         id="stop3734-3"
         style="stop-color:#000000;stop-opacity:1"
         offset="0" />
      <stop
         id="stop3736-71"
         style="stop-color:#000000;stop-opacity:0"
         offset="1" />
    </linearGradient>
    <linearGradient
       x1="8.1313992"
       y1="19.049677"
       x2="8.1313992"
       y2="15.935893"
       id="linearGradient3794"
       xlink:href="#linearGradient3788"
       gradientUnits="userSpaceOnUse"
       gradientTransform="matrix(1.1333334,0,0,0.99999997,-0.06666673,-2.9999999)" />
    <linearGradient
       id="linearGradient3788">
      <stop
         id="stop3790"
         style="stop-color:#ffffff;stop-opacity:1"
         offset="0" />
      <stop
         id="stop3792"
         style="stop-color:#ffffff;stop-opacity:0"
         offset="1" />
    </linearGradient>
    <linearGradient
       x1="22.863201"
       y1="-0.94923496"
       x2="26.23391"
       y2="2.4214737"
       id="linearGradient6695"
       xlink:href="#linearGradient3587-6-5-1-5"
       gradientUnits="userSpaceOnUse"
       gradientTransform="rotate(45,4.0355353,-15.642136)" />
    <linearGradient
       id="linearGradient3587-6-5-1-5">
      <stop
         id="stop3589-9-2-8-5"
         style="stop-color:#000000;stop-opacity:1"
         offset="0" />
      <stop
         id="stop3591-7-4-3-0"
         style="stop-color:#646464;stop-opacity:1"
         offset="1" />
    </linearGradient>
    <linearGradient
       x1="19.490692"
       y1="-4.321744"
       x2="22.886868"
       y2="-0.92556846"
       id="linearGradient6693"
       xlink:href="#linearGradient3587-6-5-1-5"
       gradientUnits="userSpaceOnUse"
       gradientTransform="rotate(45,4.0355353,-15.642136)" />
    <linearGradient
       id="linearGradient3059">
      <stop
         id="stop3061"
         style="stop-color:#000000;stop-opacity:1"
         offset="0" />
      <stop
         id="stop3063"
         style="stop-color:#646464;stop-opacity:1"
         offset="1" />
    </linearGradient>
    <linearGradient
       x1="20.534313"
       y1="-4.3515615"
       x2="26.152533"
       y2="1.2666581"
       id="linearGradient6693-5"
       xlink:href="#linearGradient3587-6-5-1-5-2"
       gradientUnits="userSpaceOnUse"
       gradientTransform="rotate(45,4.0355353,-15.642136)" />
    <linearGradient
       id="linearGradient3587-6-5-1-5-2">
      <stop
         id="stop3589-9-2-8-5-0"
         style="stop-color:#000000;stop-opacity:1"
         offset="0" />
      <stop
         id="stop3591-7-4-3-0-1"
         style="stop-color:#646464;stop-opacity:1"
         offset="1" />
    </linearGradient>
    <linearGradient
       x1="19.490692"
       y1="-4.321744"
       x2="22.886868"
       y2="-0.92556846"
       id="linearGradient3054"
       xlink:href="#linearGradient3587-6-5-1-5-2"
       gradientUnits="userSpaceOnUse"
       gradientTransform="rotate(45,3.1568563,-28.006097)" />
    <linearGradient
       x1="20.534313"
       y1="-4.3515615"
       x2="26.152533"
       y2="1.2666581"
       id="linearGradient6693-5-4"
       xlink:href="#linearGradient3587-6-5-1-5-2-1"
       gradientUnits="userSpaceOnUse"
       gradientTransform="rotate(45,-6.6146827,-50.612924)" />
    <linearGradient
       id="linearGradient3587-6-5-1-5-2-1">
      <stop
         id="stop3589-9-2-8-5-0-2"
         style="stop-color:#000000;stop-opacity:1"
         offset="0" />
      <stop
         id="stop3591-7-4-3-0-1-4"
         style="stop-color:#646464;stop-opacity:1"
         offset="1" />
    </linearGradient>
    <linearGradient
       x1="8.1313992"
       y1="19.049677"
       x2="8.1313992"
       y2="15.935893"
       id="linearGradient5038-3"
       xlink:href="#linearGradient3732-77-1"
       gradientUnits="userSpaceOnUse"
       gradientTransform="matrix(0.8666667,0,0,0.73333335,-25.780791,-13.354803)" />
    <linearGradient
       id="linearGradient3732-77-1">
      <stop
         id="stop3734-3-1"
         style="stop-color:#000000;stop-opacity:1"
         offset="0" />
      <stop
         id="stop3736-71-8"
         style="stop-color:#000000;stop-opacity:0"
         offset="1" />
    </linearGradient>
    <linearGradient
       x1="8.1313992"
       y1="19.049677"
       x2="8.1313992"
       y2="15.935893"
       id="linearGradient3794-3"
       xlink:href="#linearGradient3788-3"
       gradientUnits="userSpaceOnUse"
       gradientTransform="matrix(1.1333334,0,0,0.99999997,-27.914124,-5.7118643)" />
    <linearGradient
       id="linearGradient3788-3">
      <stop
         id="stop3790-8"
         style="stop-color:#ffffff;stop-opacity:1"
         offset="0" />
      <stop
         id="stop3792-3"
         style="stop-color:#ffffff;stop-opacity:0"
         offset="1" />
    </linearGradient>
    <linearGradient
       inkscape:collect="always"
       xlink:href="#linearGradient3788-3"
       id="linearGradient3210"
       gradientUnits="userSpaceOnUse"
       gradientTransform="matrix(1.1333334,0,0,0.99999997,-27.914124,-5.7118643)"
       x1="8.1313992"
       y1="19.049677"
       x2="8.1313992"
       y2="15.935893" />
    <linearGradient
       inkscape:collect="always"
       xlink:href="#linearGradient3732-77-1"
       id="linearGradient3212"
       gradientUnits="userSpaceOnUse"
       gradientTransform="matrix(0.8666667,0,0,0.73333335,-25.780791,-13.354803)"
       x1="8.1313992"
       y1="19.049677"
       x2="8.1313992"
       y2="15.935893" />
    <linearGradient
       inkscape:collect="always"
       xlink:href="#linearGradient3587-6-5-1-5-2-1"
       id="linearGradient3214"
       gradientUnits="userSpaceOnUse"
       gradientTransform="rotate(45,-6.6146827,-50.612924)"
       x1="20.534313"
       y1="-4.3515615"
       x2="26.152533"
       y2="1.2666581" />
    <linearGradient
       id="linearGradient3587-6-5-1-5-2-7">
      <stop
         offset="0"
         style="stop-color:#000000;stop-opacity:1"
         id="stop3589-9-2-8-5-0-9" />
      <stop
         offset="1"
         style="stop-color:#646464;stop-opacity:1"
         id="stop3591-7-4-3-0-1-5" />
    </linearGradient>
    <linearGradient
       id="linearGradient3732-77-2"
       inkscape:collect="always">
      <stop
         id="stop3734-3-2"
         offset="0"
         style="stop-color:#000000;stop-opacity:1;" />
      <stop
         id="stop3736-71-0"
         offset="1"
         style="stop-color:#000000;stop-opacity:0;" />
    </linearGradient>
    <linearGradient
       inkscape:collect="always"
       id="linearGradient3788-8">
      <stop
         style="stop-color:#ffffff;stop-opacity:1;"
         offset="0"
         id="stop3790-7" />
      <stop
         style="stop-color:#ffffff;stop-opacity:0;"
         offset="1"
         id="stop3792-4" />
    </linearGradient>
    <linearGradient
       inkscape:collect="always"
       xlink:href="#linearGradient3788-8"
       id="linearGradient3298"
       gradientUnits="userSpaceOnUse"
       gradientTransform="matrix(1.1333334,0,0,0.99999997,-5.0666667,42)"
       x1="8.1313992"
       y1="19.049677"
       x2="8.1313992"
       y2="15.935893" />
    <linearGradient
       inkscape:collect="always"
       xlink:href="#linearGradient3732-77-2"
       id="linearGradient3300"
       gradientUnits="userSpaceOnUse"
       gradientTransform="matrix(0.8666667,0,0,0.73333335,-2.9333334,-61.066667)"
       x1="8.1313992"
       y1="19.049677"
       x2="8.1313992"
       y2="15.935893" />
    <linearGradient
       inkscape:collect="always"
       xlink:href="#linearGradient3587-6-5-1-5-2-7"
       id="linearGradient3302"
       gradientUnits="userSpaceOnUse"
       gradientTransform="rotate(45,-52.784269,0.82232777)"
       x1="20.534313"
       y1="-4.3515615"
       x2="26.152533"
       y2="1.2666581" />
    <linearGradient
       x1="20.534313"
       y1="-4.3515615"
       x2="26.152533"
       y2="1.2666581"
       id="linearGradient6693-5-9"
       xlink:href="#linearGradient3587-6-5-1-5-2-4"
       gradientUnits="userSpaceOnUse"
       gradientTransform="rotate(45,24.578427,37.367009)" />
    <linearGradient
       id="linearGradient3587-6-5-1-5-2-4">
      <stop
         id="stop3589-9-2-8-5-0-4"
         style="stop-color:#000000;stop-opacity:1"
         offset="0" />
      <stop
         id="stop3591-7-4-3-0-1-0"
         style="stop-color:#646464;stop-opacity:1"
         offset="1" />
    </linearGradient>
  </defs>
  <g
     id="active-center"
     transform="translate(-129.99998)">
    <rect
       y="-3.3447265e-07"
       x="7.3486326e-08"
       height="26"
       width="26"
       id="rect3058-6"
       style="opacity:0.00100002;fill:#3daee9;fill-opacity:1;stroke:none;stroke-width:1.3" />
    <path
       d="m 17.725258,5.3841262 c 1.634118,0 2.953125,1.318993 2.953125,2.953124 V 17.72354 c 0,1.634118 -1.319007,2.953125 -2.953125,2.953125 H 8.3372453 c -1.6341201,0 -2.9531261,-1.319007 -2.9531261,-2.953125 V 8.3372502 c 0,-1.634131 1.319006,-2.953124 2.9531261,-2.953124 h 9.3880127 m 0,-0.790376 H 8.3372453 c -2.0559951,0 -3.7434951,1.687498 -3.7434951,3.7435 V 17.72354 c 0,2.057703 1.6875,3.745215 3.7434951,3.745215 h 9.3862917 c 2.057715,0 3.745214,-1.687512 3.745214,-3.743501 V 8.3372502 c 0,-2.056002 -1.687499,-3.7435 -3.743493,-3.7435 z"
       id="path4-3-7-3-367"
       style="clip-rule:evenodd;fill:#5a84a5;fill-opacity:1;fill-rule:evenodd;stroke-width:0.0172195;stroke-linejoin:round;stroke-miterlimit:1.41421" />
    <path
       fill-rule="evenodd"
       clip-rule="evenodd"
       d="m 13.313124,7.5584942 3.117451,4.9975208 c 0.0027,0.0026 0.0081,0.0094 0.01046,0.01553 l 3.110822,4.981933 c 0.08743,0.142952 0.03367,0.329475 -0.120951,0.410305 -0.110868,0.05895 -0.241864,0.05276 -0.342671,-0.0096 L 13.0313,14.255933 v 0 l -6.0568984,3.698296 c -0.151278,0.09327 -0.3527931,0.05291 -0.4535671,-0.08696 -0.07063,-0.09939 -0.06711,-0.22371 -0.0035,-0.320094 L 9.6312917,12.555996 12.748731,7.5584782 c 0.06049,-0.09635 0.171295,-0.152228 0.285577,-0.152228 h 0.0027 v 0 0 h 0.0027 0.0026 0.0027 v 0 0 l 0.0027,0.0031 h 0.0027 v 0 h 0.0027 v 0 h 0.0027 v 0 h 0.0026 0.0026 0.0027 v 0 0 h 0.0027 0.0027 v 0 h 0.0027 v 0.0032 h 0.0026 v 0 h 0.0027 0.0026 v 0 h 0.0028 v 0 h 0.0027 l 0.0027,0.0031 v 0 h 0.0026 v 0 h 0.0026 v 0 h 0.0027 0.0027 v 0.0033 h 0.0027 v 0 h 0.0027 0.0026 v 0 0.003 h 0.0027 0.0026 v 0 h 0.0027 v 0.0033 h 0.0027 0.0027 v 0 h 0.0027 v 0.0031 h 0.0027 v 0 h 0.0026 l 0.0027,0.0031 v 0 0 h 0.0027 0.0027 v 0.0031 h 0.0027 0.0027 l 0.0035,0.0032 v 0 h 0.0027 v 0.0031 h 0.0026 v 0 h 0.0027 v 0.0032 h 0.0027 v 0 h 0.0027 l 0.0026,0.0032 v 0 c 0.0533,0.02792 0.09342,0.06519 0.120329,0.111817 z m -0.611365,7.6298968 v 0 l 0.01344,-0.0095 v 0 l 0.01336,-0.007 h 0.0025 l 0.0028,-0.0026 h 0.0026 l 0.0027,-0.0027 h 0.0027 v 0 l 0.0027,-0.0027 h 0.0027 l 0.0027,-0.0026 c 0.08396,-0.03409 0.171231,-0.05279 0.258605,-0.05593 h 0.01046 v 0 h 0.008 v 0 h 0.008 0.0027 0.01046 0.0027 0.0027 c 0.07733,0.0027 0.151147,0.01869 0.221739,0.04651 h 0.0027 l 0.008,0.0027 0.0081,0.0026 v 0 l 0.01038,0.0026 0.0027,0.0026 h 0.0027 c 0.0303,0.01571 0.06049,0.03124 0.08745,0.04675 l 3.832915,2.340221 c 0.299112,0.183431 0.383042,0.556352 0.184836,0.832922 -0.198239,0.279721 -0.601363,0.357366 -0.900212,0.174119 L 13.03021,16.42782 9.5431626,18.55681 c -0.298243,0.183553 -0.701339,0.105906 -0.899578,-0.173813 -0.198305,-0.276568 -0.114237,-0.649491 0.184836,-0.832918 l 3.6852154,-2.249994 v 0 l 0.144363,-0.08704 0.0027,-0.0027 v 0 c 0.01328,-0.0068 0.02687,-0.01553 0.04032,-0.02165 z"
       id="path2-5"
       style="fill:#fcfcfc;fill-opacity:1;stroke-width:0.0318322" />
  </g>
  <g
     id="hover-center"
     transform="translate(-103.99999)">
    <rect
       style="opacity:0.00100002;fill:#3daee9;fill-opacity:1;stroke:none;stroke-width:1.3"
       id="rect3079"
       width="26"
       height="26"
       x="-4.6325684e-07"
       y="-1.323489e-23" />
    <path
       d="m 17.725257,5.3841262 c 1.634118,0 2.953125,1.318993 2.953125,2.953124 V 17.72354 c 0,1.634118 -1.319007,2.953125 -2.953125,2.953125 H 8.3372453 c -1.6341201,0 -2.9531261,-1.319007 -2.9531261,-2.953125 V 8.3372502 c 0,-1.634131 1.319006,-2.953124 2.9531261,-2.953124 h 9.3880117 m 0,-0.790376 H 8.3372453 c -2.0559951,0 -3.7434951,1.687498 -3.7434951,3.7435 V 17.72354 c 0,2.057703 1.6875,3.745215 3.7434951,3.745215 h 9.3862907 c 2.057715,0 3.745214,-1.687512 3.745214,-3.743501 V 8.3372502 c 0,-2.056002 -1.687499,-3.7435 -3.743493,-3.7435 z"
       id="path4-3-7-3-35"
       style="clip-rule:evenodd;fill:#5a84a5;fill-opacity:1;fill-rule:evenodd;stroke-width:0.0172195;stroke-linejoin:round;stroke-miterlimit:1.41421" />
    <path
       fill-rule="evenodd"
       clip-rule="evenodd"
       d="m 13.313123,7.5584942 3.117451,4.9975208 c 0.0027,0.0026 0.0081,0.0094 0.01046,0.01553 l 3.110822,4.981933 c 0.08743,0.142952 0.03367,0.329475 -0.120951,0.410305 -0.110868,0.05895 -0.241864,0.05276 -0.342671,-0.0096 l -6.056935,-3.69825 v 0 l -6.0568977,3.698296 c -0.151278,0.09327 -0.3527931,0.05291 -0.4535671,-0.08696 -0.07063,-0.09939 -0.06711,-0.22371 -0.0035,-0.320094 L 9.6312913,12.555996 12.74873,7.5584782 c 0.06049,-0.09635 0.171295,-0.152228 0.285577,-0.152228 h 0.0027 v 0 0 h 0.0027 0.0026 0.0027 v 0 0 l 0.0027,0.0031 h 0.0027 v 0 h 0.0027 v 0 h 0.0027 v 0 h 0.0026 0.0026 0.0027 v 0 0 h 0.0027 0.0027 v 0 h 0.0027 v 0.0032 h 0.0026 v 0 h 0.0027 0.0026 v 0 h 0.0028 v 0 h 0.0027 l 0.0027,0.0031 v 0 h 0.0026 v 0 h 0.0026 v 0 h 0.0027 0.0027 v 0.0033 h 0.0027 v 0 h 0.0027 0.0026 v 0 0.003 h 0.0027 0.0026 v 0 h 0.0027 v 0.0033 h 0.0027 0.0027 v 0 h 0.0027 v 0.0031 h 0.0027 v 0 h 0.0026 l 0.0027,0.0031 v 0 0 h 0.0027 0.0027 v 0.0031 h 0.0027 0.0027 l 0.0035,0.0032 v 0 h 0.0027 v 0.0031 h 0.0026 v 0 h 0.0027 v 0.0032 h 0.0027 v 0 h 0.0027 l 0.0026,0.0032 v 0 c 0.0533,0.02792 0.09342,0.06519 0.120329,0.111817 z m -0.611365,7.6298968 v 0 l 0.01344,-0.0095 v 0 l 0.01336,-0.007 h 0.0025 l 0.0028,-0.0026 h 0.0026 l 0.0027,-0.0027 h 0.0027 v 0 l 0.0027,-0.0027 h 0.0027 l 0.0027,-0.0026 c 0.08396,-0.03409 0.171231,-0.05279 0.258605,-0.05593 h 0.01046 v 0 h 0.008 v 0 h 0.008 0.0027 0.01046 0.0027 0.0027 c 0.07733,0.0027 0.151147,0.01869 0.221739,0.04651 h 0.0027 l 0.008,0.0027 0.0081,0.0026 v 0 l 0.01038,0.0026 0.0027,0.0026 h 0.0027 c 0.0303,0.01571 0.06049,0.03124 0.08745,0.04675 l 3.832915,2.340221 c 0.299112,0.183431 0.383042,0.556352 0.184836,0.832922 -0.198239,0.279721 -0.601363,0.357366 -0.900212,0.174119 L 13.030209,16.42782 9.5431623,18.55681 c -0.298243,0.183553 -0.701339,0.105906 -0.899578,-0.173813 -0.198305,-0.276568 -0.114237,-0.649491 0.184836,-0.832918 l 3.6852147,-2.249994 v 0 l 0.144363,-0.08704 0.0027,-0.0027 v 0 c 0.01328,-0.0068 0.02687,-0.01553 0.04032,-0.02165 z"
       id="path2-6"
       style="opacity:0.7;fill:#fcfcfc;fill-opacity:1;stroke-width:0.0318322" />
  </g>
  <g
     id="pressed-center"
     transform="translate(-78)">
    <rect
       y="6.6894529e-08"
       x="0"
       height="26"
       width="26"
       id="rect3838"
       style="opacity:0.00100002;fill:#3daee9;fill-opacity:1;stroke:none;stroke-width:1.3" />
    <path
       d="m 17.725258,5.3841262 c 1.634118,0 2.953125,1.318993 2.953125,2.953124 V 17.72354 c 0,1.634118 -1.319007,2.953125 -2.953125,2.953125 H 8.3372453 c -1.6341201,0 -2.9531261,-1.319007 -2.9531261,-2.953125 V 8.3372502 c 0,-1.634131 1.319006,-2.953124 2.9531261,-2.953124 h 9.3880127 m 0,-0.790376 H 8.3372453 c -2.0559951,0 -3.7434951,1.687498 -3.7434951,3.7435 V 17.72354 c 0,2.057703 1.6875,3.745215 3.7434951,3.745215 h 9.3862917 c 2.057715,0 3.745214,-1.687512 3.745214,-3.743501 V 8.3372502 c 0,-2.056002 -1.687499,-3.7435 -3.743493,-3.7435 z"
       id="path4-3-7-3-2"
       style="clip-rule:evenodd;fill:#5a84a5;fill-opacity:1;fill-rule:evenodd;stroke-width:0.0172195;stroke-linejoin:round;stroke-miterlimit:1.41421" />
    <path
       fill-rule="evenodd"
       clip-rule="evenodd"
       d="m 13.313124,7.5584942 3.117451,4.9975208 c 0.0027,0.0026 0.0081,0.0094 0.01046,0.01553 l 3.110822,4.981933 c 0.08743,0.142952 0.03367,0.329475 -0.120951,0.410305 -0.110868,0.05895 -0.241864,0.05276 -0.342671,-0.0096 L 13.0313,14.255933 v 0 l -6.0568987,3.698296 c -0.151278,0.09327 -0.3527931,0.05291 -0.4535671,-0.08696 -0.07063,-0.09939 -0.06711,-0.22371 -0.0035,-0.320094 L 9.6312913,12.555996 12.748731,7.5584782 c 0.06049,-0.09635 0.171295,-0.152228 0.285577,-0.152228 h 0.0027 v 0 0 h 0.0027 0.0026 0.0027 v 0 0 l 0.0027,0.0031 h 0.0027 v 0 h 0.0027 v 0 h 0.0027 v 0 h 0.0026 0.0026 0.0027 v 0 0 h 0.0027 0.0027 v 0 h 0.0027 v 0.0032 h 0.0026 v 0 h 0.0027 0.0026 v 0 h 0.0028 v 0 h 0.0027 l 0.0027,0.0031 v 0 h 0.0026 v 0 h 0.0026 v 0 h 0.0027 0.0027 v 0.0033 h 0.0027 v 0 h 0.0027 0.0026 v 0 0.003 h 0.0027 0.0026 v 0 h 0.0027 v 0.0033 h 0.0027 0.0027 v 0 h 0.0027 v 0.0031 h 0.0027 v 0 h 0.0026 l 0.0027,0.0031 v 0 0 h 0.0027 0.0027 v 0.0031 h 0.0027 0.0027 l 0.0035,0.0032 v 0 h 0.0027 v 0.0031 h 0.0026 v 0 h 0.0027 v 0.0032 h 0.0027 v 0 h 0.0027 l 0.0026,0.0032 v 0 c 0.0533,0.02792 0.09342,0.06519 0.120329,0.111817 z m -0.611365,7.6298968 v 0 l 0.01344,-0.0095 v 0 l 0.01336,-0.007 h 0.0025 l 0.0028,-0.0026 h 0.0026 l 0.0027,-0.0027 h 0.0027 v 0 l 0.0027,-0.0027 h 0.0027 l 0.0027,-0.0026 c 0.08396,-0.03409 0.171231,-0.05279 0.258605,-0.05593 h 0.01046 v 0 h 0.008 v 0 h 0.008 0.0027 0.01046 0.0027 0.0027 c 0.07733,0.0027 0.151147,0.01869 0.221739,0.04651 h 0.0027 l 0.008,0.0027 0.0081,0.0026 v 0 l 0.01038,0.0026 0.0027,0.0026 h 0.0027 c 0.0303,0.01571 0.06049,0.03124 0.08745,0.04675 l 3.832915,2.340221 c 0.299112,0.183431 0.383042,0.556352 0.184836,0.832922 -0.198239,0.279721 -0.601363,0.357366 -0.900212,0.174119 L 13.03021,16.42782 9.5431623,18.55681 c -0.298243,0.183553 -0.701339,0.105906 -0.899578,-0.173813 -0.198305,-0.276568 -0.114237,-0.649491 0.184836,-0.832918 l 3.6852157,-2.249994 v 0 l 0.144363,-0.08704 0.0027,-0.0027 v 0 c 0.01328,-0.0068 0.02687,-0.01553 0.04032,-0.02165 z"
       id="path2-9"
       style="fill:#b894b1;fill-opacity:1;stroke-width:0.0318322" />
  </g>
  <g
     id="inactive-center"
     transform="translate(-52.000005)">
    <rect
       style="opacity:0.00100002;fill:#bfc3c7;fill-opacity:1;stroke:none;stroke-width:1.3"
       id="rect3890"
       width="26"
       height="26"
       x="1.8530272e-07"
       y="6.6894529e-08" />
    <path
       d="m 17.725258,5.3841262 c 1.634118,0 2.953125,1.318993 2.953125,2.953124 V 17.72354 c 0,1.634118 -1.319007,2.953125 -2.953125,2.953125 H 8.3372453 c -1.6341201,0 -2.9531261,-1.319007 -2.9531261,-2.953125 V 8.3372502 c 0,-1.634131 1.319006,-2.953124 2.9531261,-2.953124 h 9.3880127 m 0,-0.790376 H 8.3372453 c -2.0559951,0 -3.7434951,1.687498 -3.7434951,3.7435 V 17.72354 c 0,2.057703 1.6875,3.745215 3.7434951,3.745215 h 9.3862917 c 2.057715,0 3.745214,-1.687512 3.745214,-3.743501 V 8.3372502 c 0,-2.056002 -1.687499,-3.7435 -3.743493,-3.7435 z"
       id="path4-3-7-3-1"
       style="clip-rule:evenodd;fill:#496a83;fill-opacity:1;fill-rule:evenodd;stroke-width:0.0172195;stroke-linejoin:round;stroke-miterlimit:1.41421" />
    <path
       fill-rule="evenodd"
       clip-rule="evenodd"
       d="m 13.313124,7.5584942 3.117451,4.9975208 c 0.0027,0.0026 0.0081,0.0094 0.01046,0.01553 l 3.110822,4.981933 c 0.08743,0.142952 0.03367,0.329475 -0.120951,0.410305 -0.110868,0.05895 -0.241864,0.05276 -0.342671,-0.0096 L 13.0313,14.255933 v 0 l -6.0568987,3.698296 c -0.151278,0.09327 -0.3527931,0.05291 -0.4535671,-0.08696 -0.07063,-0.09939 -0.06711,-0.22371 -0.0035,-0.320094 L 9.6312913,12.555996 12.748731,7.5584782 c 0.06049,-0.09635 0.171295,-0.152228 0.285577,-0.152228 h 0.0027 v 0 0 h 0.0027 0.0026 0.0027 v 0 0 l 0.0027,0.0031 h 0.0027 v 0 h 0.0027 v 0 h 0.0027 v 0 h 0.0026 0.0026 0.0027 v 0 0 h 0.0027 0.0027 v 0 h 0.0027 v 0.0032 h 0.0026 v 0 h 0.0027 0.0026 v 0 h 0.0028 v 0 h 0.0027 l 0.0027,0.0031 v 0 h 0.0026 v 0 h 0.0026 v 0 h 0.0027 0.0027 v 0.0033 h 0.0027 v 0 h 0.0027 0.0026 v 0 0.003 h 0.0027 0.0026 v 0 h 0.0027 v 0.0033 h 0.0027 0.0027 v 0 h 0.0027 v 0.0031 h 0.0027 v 0 h 0.0026 l 0.0027,0.0031 v 0 0 h 0.0027 0.0027 v 0.0031 h 0.0027 0.0027 l 0.0035,0.0032 v 0 h 0.0027 v 0.0031 h 0.0026 v 0 h 0.0027 v 0.0032 h 0.0027 v 0 h 0.0027 l 0.0026,0.0032 v 0 c 0.0533,0.02792 0.09342,0.06519 0.120329,0.111817 z m -0.611365,7.6298968 v 0 l 0.01344,-0.0095 v 0 l 0.01336,-0.007 h 0.0025 l 0.0028,-0.0026 h 0.0026 l 0.0027,-0.0027 h 0.0027 v 0 l 0.0027,-0.0027 h 0.0027 l 0.0027,-0.0026 c 0.08396,-0.03409 0.171231,-0.05279 0.258605,-0.05593 h 0.01046 v 0 h 0.008 v 0 h 0.008 0.0027 0.01046 0.0027 0.0027 c 0.07733,0.0027 0.151147,0.01869 0.221739,0.04651 h 0.0027 l 0.008,0.0027 0.0081,0.0026 v 0 l 0.01038,0.0026 0.0027,0.0026 h 0.0027 c 0.0303,0.01571 0.06049,0.03124 0.08745,0.04675 l 3.832915,2.340221 c 0.299112,0.183431 0.383042,0.556352 0.184836,0.832922 -0.198239,0.279721 -0.601363,0.357366 -0.900212,0.174119 L 13.03021,16.42782 9.5431623,18.55681 c -0.298243,0.183553 -0.701339,0.105906 -0.899578,-0.173813 -0.198305,-0.276568 -0.114237,-0.649491 0.184836,-0.832918 l 3.6852157,-2.249994 v 0 l 0.144363,-0.08704 0.0027,-0.0027 v 0 c 0.01328,-0.0068 0.02687,-0.01553 0.04032,-0.02165 z"
       id="path2-2"
       style="opacity:0.5;fill:#fcfcfc;fill-opacity:1;stroke-width:0.0318322" />
  </g>
  <g
     id="hover-inactive-center"
     transform="translate(-26.000011)">
    <rect
       y="-3.5889697e-15"
       x="4.6325684e-07"
       height="26"
       width="26"
       id="rect3846"
       style="opacity:0.00100002;fill:#3daee9;fill-opacity:1;stroke:none;stroke-width:1.3" />
    <path
       d="m 17.725251,5.3841262 c 1.63412,0 2.95313,1.318993 2.95313,2.953124 V 17.72354 c 0,1.634117 -1.31901,2.953124 -2.95313,2.953124 H 8.3372402 c -1.63412,0 -2.95313,-1.319007 -2.95313,-2.953124 V 8.3372502 c 0,-1.634131 1.31901,-2.953124 2.95313,-2.953124 h 9.3880108 m 0,-0.790376 H 8.3372402 c -2.05599,0 -3.74349,1.687498 -3.74349,3.7435 V 17.72354 c 0,2.057702 1.6875,3.745214 3.74349,3.745214 h 9.3862908 c 2.05772,0 3.74522,-1.687512 3.74522,-3.7435 V 8.3372502 c 0,-2.056002 -1.6875,-3.7435 -3.7435,-3.7435 z"
       id="path4-3-7-3-7"
       style="clip-rule:evenodd;fill:#496a83;fill-opacity:1;fill-rule:evenodd;stroke-width:0.0172195;stroke-linejoin:round;stroke-miterlimit:1.41421" />
    <path
       fill-rule="evenodd"
       clip-rule="evenodd"
       d="m 13.313121,7.5584942 3.11745,4.9975208 c 0.003,0.0026 0.008,0.0094 0.0105,0.01553 l 3.11082,4.981933 c 0.0874,0.142952 0.0337,0.329475 -0.12095,0.410305 -0.11087,0.05895 -0.24186,0.05276 -0.34267,-0.0096 l -6.05693,-3.69825 v 0 l -6.0569008,3.698296 c -0.15128,0.09327 -0.3528,0.05291 -0.45357,-0.08696 -0.0706,-0.09939 -0.0671,-0.22371 -0.004,-0.320094 l 3.11396,-4.991179 3.1174408,-4.9975178 c 0.0605,-0.09635 0.17129,-0.152228 0.28557,-0.152228 h 0.003 v 0 0 h 0.003 0.003 0.003 v 0 0 l 0.003,0.0031 h 0.003 v 0 h 0.003 v 0 h 0.003 v 0 h 0.003 0.003 0.003 v 0 0 h 0.003 0.003 v 0 h 0.003 v 0.0032 h 0.003 v 0 h 0.003 0.003 v 0 h 0.003 v 0 h 0.003 l 0.003,0.0031 v 0 h 0.003 v 0 h 0.003 v 0 h 0.003 0.003 v 0.0033 h 0.003 v 0 h 0.003 0.003 v 0 0.003 h 0.003 0.003 v 0 h 0.003 v 0.0033 h 0.003 0.003 v 0 h 0.003 v 0.0031 h 0.003 v 0 h 0.003 l 0.003,0.0031 v 0 0 h 0.003 0.003 v 0.0031 h 0.003 0.003 l 0.004,0.0032 v 0 h 0.003 v 0.0031 h 0.003 v 0 h 0.003 v 0.0032 h 0.003 v 0 h 0.003 l 0.003,0.0032 v 0 c 0.0533,0.02792 0.0934,0.06519 0.12033,0.111817 z m -0.61137,7.6298968 v 0 l 0.0134,-0.0095 v 0 l 0.0134,-0.007 h 0.002 l 0.003,-0.0026 h 0.003 l 0.003,-0.0027 h 0.003 v 0 l 0.003,-0.0027 h 0.003 l 0.003,-0.0026 c 0.084,-0.03409 0.17123,-0.05279 0.2586,-0.05593 h 0.0105 v 0 h 0.008 v 0 h 0.008 0.003 0.0105 0.003 0.003 c 0.0773,0.0027 0.15115,0.01869 0.22174,0.04651 h 0.003 l 0.008,0.0027 0.008,0.0026 v 0 l 0.0104,0.0026 0.003,0.0026 h 0.003 c 0.0303,0.01571 0.0605,0.03124 0.0875,0.04675 l 3.83291,2.340221 c 0.29912,0.183431 0.38305,0.556351 0.18484,0.832921 -0.19824,0.279721 -0.60136,0.357366 -0.90021,0.174119 l -3.48468,-2.128562 -3.4870508,2.128989 c -0.29824,0.183553 -0.70134,0.105906 -0.89958,-0.173813 -0.1983,-0.276568 -0.11424,-0.64949 0.18484,-0.832917 l 3.6852108,-2.249994 v 0 l 0.14437,-0.08704 0.003,-0.0027 v 0 c 0.0133,-0.0068 0.0269,-0.01553 0.0403,-0.02165 z"
       id="path2-0"
       style="opacity:0.8;fill:#fcfcfc;fill-opacity:1;stroke-width:0.0318322" />
  </g>
</svg>
