<?xml version="1.0" encoding="UTF-8" standalone="no"?>
<svg
   height="64"
   viewBox="0 0 64 64"
   width="64"
   version="1.1"
   id="svg38"
   sodipodi:docname="application-x-kmymoney.svg"
   inkscape:version="1.1.2 (0a00cf5339, 2022-02-04)"
   xmlns:inkscape="http://www.inkscape.org/namespaces/inkscape"
   xmlns:sodipodi="http://sodipodi.sourceforge.net/DTD/sodipodi-0.dtd"
   xmlns:xlink="http://www.w3.org/1999/xlink"
   xmlns="http://www.w3.org/2000/svg"
   xmlns:svg="http://www.w3.org/2000/svg">
  <defs
     id="defs42">
    <linearGradient
       xlink:href="#a-6"
       id="b-3"
       gradientUnits="userSpaceOnUse"
       x1="0"
       y1="60.773998"
       x2="0"
       y2="2.345"
       gradientTransform="translate(1.8e-5)" />
    <linearGradient
       id="a-6"
       y1="392.35999"
       y2="336.35999"
       x2="0"
       gradientUnits="userSpaceOnUse"
       gradientTransform="translate(254,-254)">
      <stop
         stop-color="#fff"
         stop-opacity="0"
         id="stop3" />
      <stop
         offset="1"
         stop-color="#fff"
         stop-opacity=".2"
         id="stop5" />
    </linearGradient>
    <linearGradient
       id="c"
       y1="17.475"
       y2="31"
       x1="41.616001"
       x2="54"
       gradientUnits="userSpaceOnUse"
       gradientTransform="translate(1.8492454e-5)">
      <stop
         stop-color="#060606"
         id="stop8" />
      <stop
         offset="1"
         stop-opacity="0"
         id="stop10" />
    </linearGradient>
  </defs>
  <sodipodi:namedview
     id="namedview40"
     pagecolor="#ffffff"
     bordercolor="#666666"
     borderopacity="1.0"
     inkscape:pageshadow="2"
     inkscape:pageopacity="0.0"
     inkscape:pagecheckerboard="0"
     showgrid="false"
     inkscape:zoom="4.859375"
     inkscape:cx="51.961415"
     inkscape:cy="35.807074"
     inkscape:window-width="1920"
     inkscape:window-height="1007"
     inkscape:window-x="0"
     inkscape:window-y="0"
     inkscape:window-maximized="1"
     inkscape:current-layer="svg38" />
  <linearGradient
     id="a"
     gradientUnits="userSpaceOnUse"
     x1="40.013"
     x2="54.013"
     y1="17.016"
     y2="31.016">
    <stop
       offset="0"
       stop-color="#060606"
       id="stop2" />
    <stop
       offset="1"
       stop-opacity="0"
       id="stop4" />
  </linearGradient>
  <linearGradient
     id="b"
     gradientUnits="userSpaceOnUse"
     x1="10.01"
     x2="54.01"
     y1="10.02"
     y2="54.02">
    <stop
       offset="0"
       stop-color="#fcc565"
       id="stop7" />
    <stop
       offset="1"
       stop-color="#e3a943"
       id="stop9" />
  </linearGradient>
  <g
     fill-rule="evenodd"
     id="g36">
    <path
       d="m54.01 17.02-14-14v14z"
       fill="#fff"
       opacity=".5"
       id="path20" />
    <g
       fill="#fcfcfc"
       id="g34">
      <g
         transform="translate(50)"
         id="g32" />
    </g>
  </g>
  <path
     d="m 40.000018,3 h -25 c -2.77,0 -5,2.23 -5,5 v 48 c 0,2.77 2.23,5 5,5 h 34 c 2.77,0 5,-2.23 5,-5 V 17 Z"
     id="path15"
     inkscape:connector-curvature="0"
     style="fill:#febf10" />
  <path
     d="m 40.000018,3 h -25 c -2.77,0 -5,2.23 -5,5 v 48 c 0,2.77 2.23,5 5,5 h 34 c 2.77,0 5,-2.23 5,-5 V 17 Z"
     id="path19"
     style="fill:url(#b-3)"
     inkscape:connector-curvature="0" />
  <path
     d="m 40.000018,3 h -25 c -2.77,0 -5,2.23 -5,5 v 1.014 a 5.005,5.005 0 0 1 1.46,-3.54 4.989,4.989 0 0 1 3.54,-1.459 h 25 V 4 Z"
     id="path21"
     inkscape:connector-curvature="0"
     style="opacity:0.5;fill:#ffffff" />
  <path
     d="m 54.000018,54.86 a 5.004,5.004 0 0 1 -1.46,3.538 4.989,4.989 0 0 1 -3.54,1.462 h -34 a 5.005,5.005 0 0 1 -3.54,-1.46 4.989,4.989 0 0 1 -1.46,-3.54 V 56 c 0,2.77 2.23,5 5,5 h 34 c 2.77,0 5,-2.23 5,-5 z"
     id="path23"
     inkscape:connector-curvature="0"
     style="opacity:0.25;fill-opacity:0.992" />
  <path
     d="m 40.000018,3 v 11.535 a 2.456,2.456 0 0 0 2.465,2.465 h 11.535 z"
     id="path25"
     inkscape:connector-curvature="0"
     style="opacity:0.5;fill:#ffffff;fill-rule:evenodd" />
  <path
     d="M 40.730018,16.283 54.000018,31 V 17 h -11.535 c -0.68,0 -1.29,-0.276 -1.735,-0.717 z"
     id="path27"
     style="opacity:0.1;fill:url(#c);fill-rule:evenodd"
     inkscape:connector-curvature="0" />
  <path
     d="m 29.023462,23.625822 v 9.128906 l 7.939453,-7.939453 -1.939453,-0.939453 z m -3,1.5 -3,2.25 -2.25,5.5 v 4 l 2.25,5.5 3,2.25 v -7.75 h -4.5 v -1 h 4.5 v -2 h -4.5 v -1 h 4.5 z m 13.435547,1.435547 -6.314453,6.314453 h 9.378906 v 1 H 32.144556 l -1,1 1,1 h 10.378906 v 1 h -9.378906 l 6.314453,6.314453 3.564453,-3.814453 v -9 z m -10.435547,19.564453 6,-0.25 2,-0.878906 -8,-8 z"
     id="path24"
     style="fill:#ffffff;fill-opacity:0.66230398" />
  <path
     d="m 31.923,23.076 a 12,12 0 0 0 -12,12 12,12 0 0 0 12,12 12,12 0 0 0 11.999996,-12 12,12 0 0 0 -11.999996,-12 z m 0,1 a 11,11 0 0 1 10.999996,11 11,11 0 0 1 -10.999996,11 11,11 0 0 1 -11,-11 11,11 0 0 1 11,-11 z"
     id="path26"
     style="fill:#ffffff;fill-opacity:0.66230398" />
</svg>
